M48
;Layer_Color=9474304
;FILE_FORMAT=2:4
INCH,LZ
;TYPE=PLATED
T01F00S00C0.0118
T03F00S00C0.0276
T04F00S00C0.0315
T06F00S00C0.0360
T07F00S00C0.0402
T08F00S00C0.0433
;TYPE=NON_PLATED
T09F00S00C0.0276
%
T01
X-00134Y-0114
X-00059
X-000965Y-01065
X-001715
X-00134Y-0099
X-00209
X-00239Y-009638
X-002465Y-00915
X-00296Y-0088
X-00284Y-0099
X-00359
X-003965Y-01065
X-00359Y-0114
X-003965Y-01215
X-004715
X-00584Y-0114
X-00641Y-01066
X-006965Y-01065
X-007245Y-010275
X-00734Y-0099
X-00729Y-01099
X-00884Y-0114
X-01034
X-01109
X-011465Y-01065
X-012215Y-01215
X-014465
X-015215
X-01484Y-0114
X-01559
X-01634
X-016715Y-01215
X-01484Y-0129
X-01034
X-01008Y-00974
X-01013Y-00904
X-00809Y-00939
X-00584
X-00422Y-00911
X-002465Y-01065
X-00209Y-0114
X-002465Y-01215
X-00209Y-0129
X-00584
X-01677Y-00865
X-017465Y-00915
X-01859Y-0099
X-01934
X-018965Y-01065
X-018215
X-01859Y-0114
X-019715Y-00915
X-020465
X-021215Y-01215
X-023465
X-024965
X-025715
X-026465
X-027215
X-028715
X-029465
X-030215
X-02984Y-0114
X-02993Y-01067
X-02963
X-02834Y-0099
X-028715Y-00915
X-026465
X-025715
X-024965
X-02459Y-0099
X-02384
X-024215Y-01065
X-024965
X-025715
X-02534Y-0099
X-02609
X-02534Y-0114
X-02459
X-02534Y-0129
X-0283Y-01304
X-032465Y-01215
X-03269Y-01143
Y-01113
X-032465Y-00915
X-03304Y-00896
Y-00874
X-034715Y-00915
X-03459Y-0099
X-03515Y-00972
X-035919Y-009869
X-03614Y-00987
X-03679Y-00991
X-03734Y-0099
X-036965Y-01065
X-037334Y-011031
X-03809Y-0114
X-03884
X-03734Y-0129
X-03704Y-0134
X-036215Y-01215
X-03499Y-01129
X-033215Y-01215
Y-00765
X-033965
X-03434Y-00695
X-03457
X-03515Y-00641
X-035335Y-006216
X-033965Y-00615
X-033215
X-033965Y-00465
X-03359Y-0039
X-033215Y-00315
X-033965
X-03359Y-0024
X-033965Y-00165
X-03359Y-0009
X-03627Y-00068
X-03734Y-0009
X-0369Y-00209
Y-00232
X-03625Y-00219
X-03509Y-0024
Y-0039
X-036345Y-004425
X-03652Y-0046
X-038465Y-00465
X-03884Y-0039
Y-0024
X-03892Y-00534
X-03891Y-00596
X-03659Y-0069
X-03635Y-00754
X-03566Y-00832
X-03209Y-0084
X-03134
X-03059
X-02984
X-030215Y-00765
X-030965
X-031715
X-032465
X-03209Y-0069
X-03134
X-03059
X-030215Y-00615
X-030965
X-031715
X-032465
X-03134Y-0054
X-03059
X-0302Y-00503
X-029465Y-00465
X-02984Y-0039
X-03059
X-03134
X-030965Y-00315
X-031715
X-032465
X-03282Y-00239
X-03209Y-0024
X-03134
X-03059
Y-0009
X-02984
X-03134
X-03209
X-030965Y-00465
X-027215
X-02759Y-0039
X-026465Y-00315
X-025715
X-02465Y-00409
X-02442
X-024215Y-00465
X-023465
X-02342Y-00626
X-02308Y-00666
X-022715Y-00615
X-021965
X-020465
X-02001Y-00588
X-019715Y-00615
X-01994Y-00503
X-02058
X-01941Y-00379
X-01877Y-00387
X-01841Y-00456
X-01786Y-00549
X-01762
X-01794Y-00355
X-018215Y-00165
X-018965
X-019715
X-020465
X-021215
X-021965
X-022715
X-023465
X-02309Y-0009
X-02234
X-02159
X-02084
X-02009
X-01934
X-01859
X-01784
X-02384
X-024965Y-00615
X-02534Y-0069
X-02577Y-00713
X-025715Y-00765
X-024965
X-02534Y-0084
X-02609
X-02684
X-02834
X-028715Y-00315
X-0227Y-00745
X-02224Y-00784
X-021965Y-00765
X-02181Y-00821
X-02142Y-00863
X-02084Y-0084
X-02009
X-020465Y-00765
X-021215
X-018965
X-01842Y-00766
X-01918Y-00707
X-015965Y-00615
X-015215
X-01484Y-0054
X-01409
X-01334
X-012965Y-00765
X-012215
X-011465
X-010715
X-009965
X-00917Y-00673
X-00922Y-00525
X-00875Y-00544
X-00734Y-0054
X-00687Y-00585
X-00665
X-00578Y-00612
X-00484Y-00715
X-00471Y-00833
X-00424Y-0085
X-00284Y-0084
X-00604Y-008
X-00707Y-00685
X-00794Y-00635
X-00809Y-0039
X-00734
X-00658Y-00379
Y-00357
X-006215Y-00315
X-006965
X-00659Y-0024
X-00584
X-00434
X-004715Y-00315
X-003215
X-00202Y-00341
X-00209Y-0024
Y-0009
X-00659
X-00734
X-00809
X-00884
X-00959
X-01034
X-01109
X-01184
X-01259
X-01334
X-012965Y-00165
X-012215
X-011465
X-01109Y-0024
X-01034
X-00884
X-00809
X-00734
X-009215Y-00315
X-00884Y-0039
X-01034
X-009965Y-00465
X-01036Y-005341
X-01109Y-0069
Y-0084
X-01184
X-015215Y-00765
Y-00315
X-01565Y-00315
X-015965Y-00165
X-015215
X-013715
X-01334Y-0024
X-01259
X-01184
X-012215Y-00315
X-01184Y-0039
X-00584
X-016715Y-00165
X-017465
X-01634Y-0009
X-00134Y-0024
X-00059
X-000965Y-00315
X-001715
X-00134Y-0039
Y-0084
T03
X-0294Y-00242
Y-00192
Y-00142
X-02512
Y-00192
Y-00242
T04
X-01061Y-00188
X-00961
X-00861
X-00761
X-00661
X-00561
X-00461
X-00361
T06
X-032555Y-0129
X-031767
X-03098
T07
X-00077Y-01007
Y-00907
X-01262Y-00913
X-01371
Y-01013
X-01552Y-01291
X-01652
X-01752
X-01852
X-01952
X-02052
X-02152
X-02252
X-02352
X-02452
X-02318Y-00266
X-02218
X-02118
X-02018
X-01918
X-01818
X-01371Y-00613
Y-00713
Y-00813
X-01262
Y-00713
Y-00613
X-00077Y-00607
Y-00507
Y-00407
Y-00707
Y-00807
T08
X-01368Y-01289
X-01268
X-01168
Y-01189
X-01268
X-01368
T09
X-02884Y-011766
X-026565
M30
