%TF.GenerationSoftware,Altium Limited,Altium Designer,24.1.2 (44)*%
G04 Layer_Physical_Order=1*
G04 Layer_Color=255*
%FSLAX25Y25*%
%MOIN*%
%TF.SameCoordinates,CC6F7A58-88BC-47F1-AAD7-D7ADF3ED88B3*%
%TF.FilePolarity,Positive*%
%TF.FileFunction,Copper,L1,Top,Signal*%
%TF.Part,Single*%
G01*
G75*
%TA.AperFunction,Conductor*%
%ADD10C,0.00700*%
%ADD11C,0.01000*%
%ADD12C,0.01500*%
%TA.AperFunction,SMDPad,CuDef*%
%ADD13R,0.21654X0.05118*%
%ADD14R,0.03150X0.03150*%
%ADD15R,0.03543X0.03150*%
%ADD16R,0.03150X0.03543*%
%ADD17R,0.04331X0.02362*%
%ADD18R,0.16535X0.06890*%
%ADD19R,0.02165X0.04331*%
%ADD20R,0.01181X0.04331*%
%ADD21O,0.07678X0.02238*%
%ADD22R,0.07087X0.04331*%
%ADD23R,0.07874X0.07874*%
%ADD24R,0.03175X0.03402*%
%ADD25O,0.06496X0.01772*%
%ADD26O,0.01772X0.06496*%
G04:AMPARAMS|DCode=27|XSize=31.5mil|YSize=35.43mil|CornerRadius=0mil|HoleSize=0mil|Usage=FLASHONLY|Rotation=45.000|XOffset=0mil|YOffset=0mil|HoleType=Round|Shape=Rectangle|*
%AMROTATEDRECTD27*
4,1,4,0.00139,-0.02366,-0.02366,0.00139,-0.00139,0.02366,0.02366,-0.00139,0.00139,-0.02366,0.0*
%
%ADD27ROTATEDRECTD27*%

%ADD28R,0.03402X0.03175*%
%ADD29R,0.02095X0.04221*%
%ADD30R,0.02362X0.04724*%
%ADD31R,0.12992X0.09449*%
%ADD32O,0.06870X0.02205*%
%ADD33R,0.04724X0.03937*%
%ADD34R,0.03150X0.03937*%
%ADD35R,0.03150X0.03150*%
%ADD36R,0.07087X0.03150*%
%ADD37R,0.03150X0.07087*%
%ADD38R,0.03150X0.07087*%
%TA.AperFunction,Conductor*%
%ADD39C,0.03000*%
%ADD40C,0.02000*%
%ADD41C,0.03500*%
%ADD42C,0.02100*%
%TA.AperFunction,ComponentPad*%
%ADD43C,0.06299*%
%ADD44R,0.06299X0.06299*%
%ADD45C,0.02756*%
%ADD46O,0.04331X0.07874*%
%ADD47O,0.04724X0.07087*%
%ADD48R,0.06299X0.03543*%
%ADD49O,0.06299X0.03543*%
%ADD50C,0.05984*%
%ADD51R,0.05984X0.05984*%
%ADD52R,0.05984X0.05984*%
%ADD53O,0.05512X0.08661*%
%ADD54C,0.06000*%
%TA.AperFunction,ViaPad*%
%ADD55C,0.02756*%
G36*
X-10222Y-1052D02*
X-8539Y-1456D01*
X-6939Y-2118D01*
X-5463Y-3023D01*
X-4147Y-4147D01*
X-3023Y-5463D01*
X-2118Y-6939D01*
X-1456Y-8539D01*
X-1052Y-10222D01*
X-917Y-11942D01*
X-918Y-11948D01*
Y-125974D01*
X-917Y-125979D01*
X-1051Y-127680D01*
X-1450Y-129344D01*
X-2105Y-130925D01*
X-2999Y-132384D01*
X-4110Y-133685D01*
X-5412Y-134796D01*
X-6871Y-135690D01*
X-8451Y-136345D01*
X-10115Y-136745D01*
X-11817Y-136879D01*
X-11821Y-136878D01*
X-309673D01*
X-309859Y-136378D01*
X-308791Y-135309D01*
X-308791Y-135309D01*
X-308481Y-134846D01*
X-308373Y-134300D01*
X-308373Y-134300D01*
Y-132097D01*
X-307712Y-131716D01*
X-307079Y-131083D01*
X-306632Y-130308D01*
X-306400Y-129443D01*
Y-128548D01*
X-306632Y-127683D01*
X-307079Y-126908D01*
X-307712Y-126275D01*
X-307863Y-126188D01*
Y-115054D01*
X-307928Y-114725D01*
Y-112977D01*
X-312272D01*
Y-113022D01*
X-313628D01*
Y-112992D01*
X-317972D01*
Y-113022D01*
X-319242D01*
Y-112992D01*
X-323586D01*
Y-116942D01*
X-319242D01*
Y-116896D01*
X-317972D01*
Y-116942D01*
X-313628D01*
Y-116896D01*
X-312272D01*
Y-116926D01*
X-311737D01*
Y-126188D01*
X-311888Y-126275D01*
X-312521Y-126908D01*
X-312968Y-127683D01*
X-313200Y-128548D01*
Y-129443D01*
X-312968Y-130308D01*
X-312521Y-131083D01*
X-311888Y-131716D01*
X-311227Y-132097D01*
Y-133709D01*
X-311591Y-134073D01*
X-332915D01*
X-333015Y-133573D01*
X-332421Y-133327D01*
X-331762Y-132821D01*
X-331256Y-132162D01*
X-330938Y-131394D01*
X-330830Y-130570D01*
Y-127420D01*
X-330938Y-126597D01*
X-331256Y-125829D01*
X-331762Y-125170D01*
X-332421Y-124664D01*
X-333189Y-124346D01*
X-334013Y-124237D01*
X-334837Y-124346D01*
X-335605Y-124664D01*
X-336264Y-125170D01*
X-336770Y-125829D01*
X-337088Y-126597D01*
X-337196Y-127420D01*
Y-130570D01*
X-337088Y-131394D01*
X-336770Y-132162D01*
X-336264Y-132821D01*
X-335605Y-133327D01*
X-335011Y-133573D01*
X-335111Y-134073D01*
X-339109D01*
X-339929Y-133253D01*
Y-122544D01*
X-340037Y-121998D01*
X-340347Y-121535D01*
X-340347Y-121535D01*
X-342491Y-119391D01*
X-342954Y-119081D01*
X-343500Y-118973D01*
X-343500Y-118973D01*
X-355209D01*
X-359225Y-114956D01*
Y-112466D01*
X-359225Y-112466D01*
X-359235Y-112419D01*
X-359225Y-112372D01*
X-359225Y-112372D01*
Y-109963D01*
X-358890Y-109627D01*
X-358791D01*
X-358407Y-109909D01*
X-358407Y-110127D01*
Y-114929D01*
X-355513D01*
Y-110127D01*
X-355512Y-109909D01*
X-355129Y-109627D01*
X-355100D01*
X-355100Y-109627D01*
X-354554Y-109519D01*
X-354091Y-109209D01*
X-345759Y-100878D01*
X-345527D01*
X-344836Y-100592D01*
X-344308Y-100064D01*
X-344022Y-99374D01*
Y-98626D01*
X-344308Y-97936D01*
X-344836Y-97408D01*
X-345527Y-97122D01*
X-346273D01*
X-346964Y-97408D01*
X-347492Y-97936D01*
X-347778Y-98626D01*
Y-98859D01*
X-355691Y-106773D01*
X-359481D01*
X-360027Y-106881D01*
X-360490Y-107191D01*
X-360490Y-107191D01*
X-361662Y-108362D01*
X-361971Y-108825D01*
X-362080Y-109372D01*
X-362080Y-109372D01*
Y-109909D01*
X-362147D01*
Y-110992D01*
X-362993D01*
Y-109909D01*
X-365887D01*
Y-114929D01*
X-362993D01*
Y-113846D01*
X-362147D01*
Y-114929D01*
X-362080D01*
Y-115547D01*
X-362080Y-115547D01*
X-361971Y-116094D01*
X-361662Y-116557D01*
X-356809Y-121409D01*
X-356809Y-121409D01*
X-356346Y-121719D01*
X-355800Y-121827D01*
X-344091D01*
X-342783Y-123135D01*
Y-132417D01*
X-344300D01*
Y-131856D01*
X-347325D01*
X-347425Y-131356D01*
X-347375Y-131336D01*
X-346607Y-130746D01*
X-346285Y-130327D01*
X-346017Y-129978D01*
X-346000Y-129936D01*
X-345530Y-129900D01*
X-344300D01*
Y-125925D01*
X-348502D01*
Y-129835D01*
X-348516Y-129845D01*
X-348805Y-129902D01*
X-349011Y-129932D01*
X-349284Y-129968D01*
X-349307Y-129963D01*
X-349312Y-129972D01*
X-349755Y-130030D01*
X-350195Y-130088D01*
X-351029Y-130434D01*
X-351746Y-130983D01*
X-352295Y-131700D01*
X-352337Y-131801D01*
X-352339Y-131804D01*
X-352471Y-132051D01*
X-354962D01*
Y-136000D01*
X-351012D01*
Y-133214D01*
X-350721Y-132669D01*
X-350699Y-132681D01*
X-350438Y-132291D01*
X-349916Y-131942D01*
X-349782Y-131915D01*
X-349772Y-131913D01*
X-349310Y-131846D01*
D01*
X-348841Y-131927D01*
X-348502Y-132241D01*
Y-135831D01*
X-344300D01*
Y-135271D01*
X-341947D01*
X-340841Y-136378D01*
X-341027Y-136878D01*
X-381726D01*
X-381732Y-136879D01*
X-383455Y-136743D01*
X-385143Y-136338D01*
X-386746Y-135674D01*
X-388226Y-134767D01*
X-389545Y-133640D01*
X-390672Y-132321D01*
X-391579Y-130841D01*
X-392243Y-129238D01*
X-392648Y-127551D01*
X-392784Y-125827D01*
X-392782Y-125821D01*
Y-11717D01*
X-392783Y-11713D01*
X-392650Y-10027D01*
X-392255Y-8379D01*
X-391606Y-6814D01*
X-390721Y-5369D01*
X-389620Y-4080D01*
X-388331Y-2979D01*
X-386886Y-2094D01*
X-385321Y-1445D01*
X-383673Y-1050D01*
X-381987Y-917D01*
X-381983Y-918D01*
X-11948D01*
X-11942Y-917D01*
X-10222Y-1052D01*
D02*
G37*
%LPC*%
G36*
X-362327Y-4922D02*
X-363073D01*
X-363764Y-5208D01*
X-364292Y-5736D01*
X-364578Y-6426D01*
Y-7174D01*
X-364292Y-7864D01*
X-363764Y-8392D01*
X-363073Y-8678D01*
X-362327D01*
X-361636Y-8392D01*
X-361108Y-7864D01*
X-361047Y-7718D01*
X-360445D01*
X-360417Y-7712D01*
X-360074Y-7780D01*
X-359982Y-7934D01*
X-359850Y-8379D01*
X-359850D01*
Y-11541D01*
X-354719D01*
Y-8379D01*
X-356705D01*
X-356898Y-7913D01*
X-357549Y-7064D01*
X-358397Y-6414D01*
X-359385Y-6005D01*
X-360445Y-5865D01*
Y-5882D01*
X-361047D01*
X-361108Y-5736D01*
X-361636Y-5208D01*
X-362327Y-4922D01*
D02*
G37*
G36*
X-354719Y-12119D02*
X-359850D01*
Y-12167D01*
X-365350D01*
Y-12119D01*
X-370481D01*
Y-12474D01*
X-370533Y-12600D01*
Y-14900D01*
X-370481Y-15026D01*
Y-15281D01*
X-370225D01*
X-370100Y-15333D01*
X-355200D01*
X-355075Y-15281D01*
X-354719D01*
Y-12119D01*
D02*
G37*
G36*
X-266828Y-9451D02*
X-271029D01*
Y-13426D01*
X-266828D01*
Y-12356D01*
X-261361D01*
Y-12388D01*
X-261353Y-12391D01*
X-261349Y-12400D01*
X-261318D01*
Y-13400D01*
X-261337D01*
X-261190Y-14141D01*
X-260770Y-14770D01*
X-260141Y-15190D01*
X-259400Y-15337D01*
Y-15318D01*
X-254750D01*
Y-16372D01*
X-252572D01*
X-252368Y-16872D01*
X-252484Y-16986D01*
X-252578D01*
X-253425Y-17154D01*
X-254144Y-17634D01*
X-254624Y-18353D01*
X-254629Y-18382D01*
X-261300D01*
Y-18354D01*
X-261338Y-18338D01*
X-261354Y-18300D01*
X-261364D01*
X-261506Y-17586D01*
X-261910Y-16981D01*
X-262515Y-16577D01*
X-263229Y-16435D01*
Y-16453D01*
X-266828D01*
Y-15383D01*
X-271029D01*
Y-16453D01*
X-272228D01*
Y-15383D01*
X-276429D01*
Y-16382D01*
X-283000D01*
Y-16365D01*
X-283702Y-16504D01*
X-284298Y-16902D01*
X-284696Y-17498D01*
X-284835Y-18200D01*
X-284846D01*
X-284862Y-18238D01*
X-284900Y-18254D01*
Y-18282D01*
X-290623D01*
X-291056Y-17634D01*
X-291775Y-17154D01*
X-292622Y-16986D01*
X-292660D01*
X-292856Y-16486D01*
X-292733Y-16372D01*
X-290450D01*
Y-15118D01*
X-284200D01*
Y-15143D01*
X-283342Y-14972D01*
X-282614Y-14486D01*
X-282128Y-13758D01*
X-281957Y-12900D01*
X-281957D01*
X-281713Y-12501D01*
X-281508Y-12416D01*
X-281500Y-12418D01*
X-276429D01*
Y-13426D01*
X-272228D01*
Y-9451D01*
X-276429D01*
Y-10582D01*
X-281500D01*
Y-10555D01*
X-282397Y-10734D01*
X-283158Y-11242D01*
X-283667Y-12003D01*
X-283845Y-12900D01*
X-284169Y-13266D01*
X-284200Y-13279D01*
Y-13282D01*
X-290450D01*
Y-12028D01*
X-293070D01*
X-293530Y-11838D01*
X-294470D01*
X-294930Y-12028D01*
X-297550D01*
Y-16372D01*
X-295373D01*
X-295168Y-16872D01*
X-295284Y-16986D01*
X-295378D01*
X-296225Y-17154D01*
X-296944Y-17634D01*
X-297377Y-18282D01*
X-298700D01*
X-298710Y-18284D01*
X-299422Y-18143D01*
X-300034Y-17734D01*
X-300443Y-17122D01*
X-300493Y-16867D01*
X-300574Y-16400D01*
X-300574D01*
X-300676Y-15624D01*
X-300976Y-14901D01*
X-301453Y-14280D01*
X-302074Y-13803D01*
X-302797Y-13504D01*
X-303573Y-13402D01*
Y-13410D01*
X-304552D01*
Y-12353D01*
X-308895D01*
Y-12390D01*
X-310352D01*
Y-12353D01*
X-314695D01*
Y-12390D01*
X-316052D01*
Y-12353D01*
X-317120D01*
X-317482Y-12110D01*
X-318224Y-11963D01*
X-324201D01*
Y-9563D01*
X-332875D01*
Y-18237D01*
X-329118D01*
Y-22247D01*
X-329264Y-22308D01*
X-329792Y-22836D01*
X-330078Y-23526D01*
Y-24274D01*
X-329792Y-24964D01*
X-329264Y-25492D01*
X-328573Y-25778D01*
X-327826D01*
X-327136Y-25492D01*
X-326608Y-24964D01*
X-326322Y-24274D01*
Y-23526D01*
X-326608Y-22836D01*
X-327136Y-22308D01*
X-327282Y-22247D01*
Y-18237D01*
X-324201D01*
Y-15837D01*
X-320395D01*
Y-16302D01*
X-316052D01*
Y-16264D01*
X-314695D01*
Y-16302D01*
X-310352D01*
Y-16264D01*
X-308895D01*
Y-16302D01*
X-304552D01*
Y-15245D01*
X-303573D01*
Y-15255D01*
X-303135Y-15342D01*
X-302763Y-15591D01*
X-302530Y-15940D01*
X-302432Y-16400D01*
X-302432Y-16400D01*
X-302305Y-17366D01*
X-301932Y-18266D01*
X-301339Y-19039D01*
X-300566Y-19632D01*
X-299666Y-20005D01*
X-298700Y-20132D01*
Y-20118D01*
X-297377D01*
X-296944Y-20766D01*
X-296225Y-21246D01*
X-295409Y-21408D01*
X-295349Y-21501D01*
X-295211Y-21914D01*
X-295284Y-21986D01*
X-295378D01*
X-296225Y-22154D01*
X-296944Y-22634D01*
X-297424Y-23353D01*
X-297592Y-24200D01*
X-297424Y-25047D01*
X-296944Y-25766D01*
X-296225Y-26246D01*
X-295378Y-26414D01*
X-294827D01*
X-294470Y-26562D01*
X-293530D01*
X-293173Y-26414D01*
X-292622D01*
X-291775Y-26246D01*
X-291056Y-25766D01*
X-290623Y-25118D01*
X-276201D01*
Y-26422D01*
X-271999D01*
Y-22446D01*
X-276201D01*
Y-23282D01*
X-290623D01*
X-291056Y-22634D01*
X-291775Y-22154D01*
X-292590Y-21992D01*
X-292651Y-21899D01*
X-292789Y-21486D01*
X-292716Y-21414D01*
X-292622D01*
X-291775Y-21246D01*
X-291056Y-20766D01*
X-290623Y-20118D01*
X-284900D01*
Y-20137D01*
X-284159Y-19990D01*
X-283530Y-19570D01*
X-283110Y-18941D01*
X-282971Y-18242D01*
X-282962Y-18238D01*
X-282953Y-18218D01*
X-276429D01*
Y-19358D01*
X-272228D01*
Y-18288D01*
X-271029D01*
Y-19358D01*
X-266828D01*
Y-18288D01*
X-263747D01*
X-263252Y-18300D01*
X-263245Y-18316D01*
X-263233Y-18321D01*
X-263090Y-19041D01*
X-262670Y-19670D01*
X-262041Y-20090D01*
X-261300Y-20237D01*
Y-20218D01*
X-254510D01*
X-254144Y-20766D01*
X-253425Y-21246D01*
X-252609Y-21408D01*
X-252549Y-21501D01*
X-252411Y-21914D01*
X-252484Y-21986D01*
X-252578D01*
X-253425Y-22154D01*
X-254144Y-22634D01*
X-254624Y-23353D01*
X-254656Y-23516D01*
X-266799D01*
Y-22446D01*
X-271001D01*
Y-26422D01*
X-266799D01*
Y-25352D01*
X-254420D01*
X-254144Y-25766D01*
X-253425Y-26246D01*
X-252578Y-26414D01*
X-252027D01*
X-252018Y-26418D01*
Y-58220D01*
X-258860Y-65063D01*
X-260420D01*
X-260531Y-64897D01*
X-261028Y-64565D01*
X-261614Y-64448D01*
X-266279D01*
X-266866Y-64565D01*
X-267363Y-64897D01*
X-267695Y-65394D01*
X-267811Y-65980D01*
X-267695Y-66566D01*
X-267363Y-67063D01*
X-266866Y-67396D01*
X-266279Y-67512D01*
X-261614D01*
X-261028Y-67396D01*
X-260531Y-67063D01*
X-260420Y-66898D01*
X-258480D01*
X-258129Y-66828D01*
X-257831Y-66629D01*
X-250451Y-59249D01*
X-250252Y-58951D01*
X-250182Y-58600D01*
Y-26414D01*
X-249822D01*
X-248975Y-26246D01*
X-248256Y-25766D01*
X-247776Y-25047D01*
X-247608Y-24200D01*
X-247776Y-23353D01*
X-248256Y-22634D01*
X-248975Y-22154D01*
X-249791Y-21992D01*
X-249851Y-21899D01*
X-249989Y-21486D01*
X-249916Y-21414D01*
X-249822D01*
X-248975Y-21246D01*
X-248256Y-20766D01*
X-247776Y-20047D01*
X-247608Y-19200D01*
X-247776Y-18353D01*
X-248256Y-17634D01*
X-248975Y-17154D01*
X-249822Y-16986D01*
X-249860D01*
X-250056Y-16486D01*
X-249933Y-16372D01*
X-247650D01*
Y-12028D01*
X-250270D01*
X-250730Y-11838D01*
X-251670D01*
X-252130Y-12028D01*
X-254750D01*
Y-13482D01*
X-259400D01*
Y-13454D01*
X-259438Y-13438D01*
X-259454Y-13400D01*
X-259482D01*
Y-12400D01*
X-259464D01*
X-259608Y-11674D01*
X-260019Y-11058D01*
X-260635Y-10647D01*
X-261361Y-10502D01*
Y-10521D01*
X-266828D01*
Y-9451D01*
D02*
G37*
G36*
X-11811Y-4577D02*
X-13222Y-4716D01*
X-14579Y-5128D01*
X-15830Y-5796D01*
X-16926Y-6696D01*
X-17826Y-7792D01*
X-18494Y-9043D01*
X-18906Y-10400D01*
X-19045Y-11811D01*
X-18906Y-13222D01*
X-18494Y-14579D01*
X-17826Y-15830D01*
X-16926Y-16926D01*
X-15830Y-17826D01*
X-14579Y-18494D01*
X-13222Y-18906D01*
X-11811Y-19045D01*
X-10400Y-18906D01*
X-9043Y-18494D01*
X-7792Y-17826D01*
X-6696Y-16926D01*
X-5796Y-15830D01*
X-5128Y-14579D01*
X-4716Y-13222D01*
X-4577Y-11811D01*
X-4716Y-10400D01*
X-5128Y-9043D01*
X-5796Y-7792D01*
X-6696Y-6696D01*
X-7792Y-5796D01*
X-9043Y-5128D01*
X-10400Y-4716D01*
X-11811Y-4577D01*
D02*
G37*
G36*
X-381889D02*
X-383300Y-4716D01*
X-384657Y-5128D01*
X-385908Y-5796D01*
X-387004Y-6696D01*
X-387904Y-7792D01*
X-388572Y-9043D01*
X-388984Y-10400D01*
X-389123Y-11811D01*
X-388984Y-13222D01*
X-388572Y-14579D01*
X-387904Y-15830D01*
X-387004Y-16926D01*
X-385908Y-17826D01*
X-384657Y-18494D01*
X-383300Y-18906D01*
X-381889Y-19045D01*
X-380478Y-18906D01*
X-379121Y-18494D01*
X-377870Y-17826D01*
X-376774Y-16926D01*
X-375874Y-15830D01*
X-375206Y-14579D01*
X-374794Y-13222D01*
X-374655Y-11811D01*
X-374794Y-10400D01*
X-375206Y-9043D01*
X-375874Y-7792D01*
X-376774Y-6696D01*
X-377870Y-5796D01*
X-379121Y-5128D01*
X-380478Y-4716D01*
X-381889Y-4577D01*
D02*
G37*
G36*
X-75633Y-15250D02*
X-76567D01*
X-77470Y-15492D01*
X-78280Y-15960D01*
X-78940Y-16621D01*
X-79408Y-17430D01*
X-79650Y-18333D01*
Y-19267D01*
X-79408Y-20170D01*
X-78940Y-20979D01*
X-78280Y-21640D01*
X-77470Y-22108D01*
X-76567Y-22350D01*
X-75633D01*
X-74730Y-22108D01*
X-73921Y-21640D01*
X-73260Y-20979D01*
X-72792Y-20170D01*
X-72550Y-19267D01*
Y-18333D01*
X-72792Y-17430D01*
X-73260Y-16621D01*
X-73921Y-15960D01*
X-74730Y-15492D01*
X-75633Y-15250D01*
D02*
G37*
G36*
X-85633D02*
X-86567D01*
X-87470Y-15492D01*
X-88279Y-15960D01*
X-88940Y-16621D01*
X-89408Y-17430D01*
X-89650Y-18333D01*
Y-19267D01*
X-89408Y-20170D01*
X-88940Y-20979D01*
X-88279Y-21640D01*
X-87470Y-22108D01*
X-86567Y-22350D01*
X-85633D01*
X-84730Y-22108D01*
X-83921Y-21640D01*
X-83260Y-20979D01*
X-82792Y-20170D01*
X-82550Y-19267D01*
Y-18333D01*
X-82792Y-17430D01*
X-83260Y-16621D01*
X-83921Y-15960D01*
X-84730Y-15492D01*
X-85633Y-15250D01*
D02*
G37*
G36*
X-362126Y-20022D02*
X-362874D01*
X-363564Y-20308D01*
X-364092Y-20836D01*
X-364378Y-21526D01*
Y-22274D01*
X-364358Y-22321D01*
X-366589Y-24551D01*
X-366788Y-24849D01*
X-366858Y-25200D01*
Y-27390D01*
X-367387D01*
Y-32410D01*
X-364493D01*
Y-27390D01*
X-365023D01*
Y-25580D01*
X-363119Y-23676D01*
X-362874Y-23778D01*
X-362126D01*
X-361436Y-23492D01*
X-360908Y-22964D01*
X-360622Y-22274D01*
Y-21526D01*
X-360908Y-20836D01*
X-361436Y-20308D01*
X-362126Y-20022D01*
D02*
G37*
G36*
X-266799Y-28378D02*
X-271001D01*
Y-29448D01*
X-271999D01*
Y-28378D01*
X-276201D01*
Y-29582D01*
X-279894D01*
X-280246Y-29652D01*
X-280543Y-29851D01*
X-281129Y-30437D01*
X-281328Y-30735D01*
X-281398Y-31086D01*
Y-75014D01*
X-281446Y-75063D01*
X-283038D01*
X-283149Y-74897D01*
X-283646Y-74565D01*
X-284232Y-74449D01*
X-288898D01*
X-289484Y-74565D01*
X-289981Y-74897D01*
X-290075Y-75038D01*
X-293090D01*
X-293100Y-75036D01*
Y-75038D01*
X-294228D01*
Y-73981D01*
X-298572D01*
Y-77931D01*
X-294228D01*
X-293918Y-78302D01*
Y-100200D01*
X-293914Y-100221D01*
X-294078Y-100619D01*
X-294477Y-100784D01*
X-294498Y-100780D01*
X-295638D01*
Y-99329D01*
X-301162D01*
Y-104066D01*
X-299827D01*
Y-104868D01*
X-300041Y-104910D01*
X-300294Y-105079D01*
X-300364Y-105108D01*
X-300417Y-105161D01*
X-300670Y-105330D01*
X-300839Y-105583D01*
X-300892Y-105636D01*
X-300921Y-105706D01*
X-301090Y-105959D01*
X-301149Y-106257D01*
X-301178Y-106326D01*
Y-106402D01*
X-301237Y-106700D01*
X-301178Y-106998D01*
Y-107074D01*
X-301149Y-107143D01*
X-301090Y-107441D01*
X-300921Y-107694D01*
X-300892Y-107764D01*
X-300839Y-107817D01*
X-300670Y-108070D01*
X-300417Y-108239D01*
X-300364Y-108292D01*
X-300294Y-108321D01*
X-300041Y-108490D01*
X-299743Y-108549D01*
X-299674Y-108578D01*
X-299598D01*
X-299300Y-108637D01*
X-296300D01*
X-296002Y-108578D01*
X-295926D01*
X-295857Y-108549D01*
X-295559Y-108490D01*
X-295306Y-108321D01*
X-295236Y-108292D01*
X-295183Y-108239D01*
X-295016Y-108127D01*
X-288291D01*
X-287903Y-108516D01*
Y-110886D01*
X-287958D01*
Y-110978D01*
X-287963Y-110980D01*
X-288090Y-111286D01*
Y-115302D01*
X-288874D01*
X-289743Y-115662D01*
X-290407Y-116326D01*
X-290767Y-117194D01*
Y-118134D01*
X-290407Y-119002D01*
X-289743Y-119667D01*
X-288874Y-120026D01*
X-287935D01*
X-287295Y-119761D01*
X-286706Y-119906D01*
X-286400Y-120033D01*
X-285192D01*
Y-130400D01*
X-285025Y-131239D01*
X-284550Y-131950D01*
X-283839Y-132425D01*
X-283000Y-132592D01*
X-282161Y-132425D01*
X-281450Y-131950D01*
X-280975Y-131239D01*
X-280808Y-130400D01*
Y-120033D01*
X-267700D01*
X-267394Y-119906D01*
X-266864Y-119722D01*
X-266823Y-119735D01*
X-266118Y-120026D01*
X-265179D01*
X-264310Y-119667D01*
X-263646Y-119002D01*
X-263286Y-118134D01*
Y-117194D01*
X-263646Y-116326D01*
X-264310Y-115662D01*
X-265179Y-115302D01*
X-265964D01*
Y-111286D01*
X-266090Y-110980D01*
X-266095Y-110978D01*
Y-110886D01*
X-266317D01*
X-266396Y-110853D01*
X-268759D01*
X-269146Y-110652D01*
X-269219Y-110452D01*
Y-108918D01*
X-266700D01*
Y-108931D01*
X-266076Y-108807D01*
X-265546Y-108454D01*
X-265193Y-107924D01*
X-265069Y-107300D01*
X-265082D01*
Y-103049D01*
X-263899D01*
Y-99074D01*
X-268101D01*
Y-103049D01*
X-266918D01*
Y-107082D01*
X-269400D01*
Y-107068D01*
X-270039Y-107195D01*
X-270580Y-107557D01*
X-270942Y-108098D01*
X-271069Y-108737D01*
X-271055D01*
Y-110886D01*
X-273254D01*
Y-110110D01*
X-273252Y-110100D01*
X-273254D01*
Y-103017D01*
X-271918D01*
Y-99041D01*
X-276120D01*
Y-103017D01*
X-274784D01*
Y-109435D01*
X-277600D01*
Y-109427D01*
X-278053Y-109517D01*
X-278063Y-109524D01*
X-278437Y-109774D01*
X-278687Y-110148D01*
X-278694Y-110158D01*
X-278715Y-110265D01*
X-279215Y-110215D01*
Y-103017D01*
X-277043D01*
Y-99041D01*
X-281245D01*
Y-103017D01*
X-280744D01*
Y-103997D01*
X-281242Y-104059D01*
X-281407Y-103811D01*
X-284318Y-100900D01*
X-284567Y-100734D01*
X-284859Y-100676D01*
X-285099D01*
Y-99074D01*
X-289301D01*
Y-103049D01*
X-285099D01*
Y-102936D01*
X-284637Y-102744D01*
X-282713Y-104669D01*
Y-110886D01*
X-284907D01*
X-285048Y-110444D01*
Y-107924D01*
X-285048Y-107924D01*
X-285157Y-107378D01*
X-285466Y-106915D01*
X-286691Y-105691D01*
X-287154Y-105381D01*
X-287700Y-105273D01*
X-287700Y-105273D01*
X-295016D01*
X-295183Y-105161D01*
X-295236Y-105108D01*
X-295306Y-105079D01*
X-295559Y-104910D01*
X-295857Y-104851D01*
X-295926Y-104822D01*
X-296002D01*
X-296300Y-104763D01*
X-296973D01*
Y-104066D01*
X-295638D01*
Y-102615D01*
X-294498D01*
Y-102645D01*
X-293562Y-102459D01*
X-292769Y-101929D01*
X-292239Y-101136D01*
X-292053Y-100200D01*
X-292082D01*
Y-76874D01*
X-290108D01*
X-289981Y-77063D01*
X-289484Y-77395D01*
X-288898Y-77512D01*
X-284232D01*
X-283646Y-77395D01*
X-283149Y-77063D01*
X-283038Y-76898D01*
X-281066D01*
X-280715Y-76828D01*
X-280417Y-76629D01*
X-279831Y-76043D01*
X-279632Y-75746D01*
X-279563Y-75394D01*
Y-31466D01*
X-279514Y-31418D01*
X-276201D01*
Y-32354D01*
X-271999D01*
Y-31284D01*
X-271001D01*
Y-32354D01*
X-266799D01*
Y-28378D01*
D02*
G37*
G36*
X-178408Y-23208D02*
X-185192D01*
Y-28694D01*
X-187980Y-31482D01*
X-196100D01*
X-196451Y-31552D01*
X-196749Y-31751D01*
X-202819Y-37821D01*
X-203018Y-38119D01*
X-203088Y-38470D01*
Y-39487D01*
X-205121D01*
Y-38419D01*
X-195596Y-28894D01*
X-194525D01*
X-194340Y-28857D01*
X-193883Y-29314D01*
X-193109Y-29761D01*
X-192247Y-29992D01*
X-191353D01*
X-190491Y-29761D01*
X-189717Y-29314D01*
X-189086Y-28683D01*
X-188639Y-27909D01*
X-188408Y-27047D01*
Y-26153D01*
X-188639Y-25291D01*
X-189086Y-24517D01*
X-189717Y-23886D01*
X-190491Y-23439D01*
X-191353Y-23208D01*
X-192247D01*
X-193109Y-23439D01*
X-193883Y-23886D01*
X-194514Y-24517D01*
X-194961Y-25291D01*
X-195192Y-26153D01*
Y-27047D01*
X-195202Y-27059D01*
X-195976D01*
X-196328Y-27129D01*
X-196625Y-27328D01*
X-206688Y-37390D01*
X-206887Y-37688D01*
X-206957Y-38039D01*
Y-39487D01*
X-209062D01*
Y-47374D01*
X-197238D01*
Y-41002D01*
X-196437D01*
X-196144Y-40944D01*
X-195896Y-40778D01*
X-194773Y-39654D01*
X-194474Y-39778D01*
X-193726D01*
X-193036Y-39492D01*
X-192508Y-38964D01*
X-192222Y-38274D01*
Y-37526D01*
X-192508Y-36836D01*
X-193036Y-36308D01*
X-193726Y-36022D01*
X-194474D01*
X-195164Y-36308D01*
X-195692Y-36836D01*
X-195978Y-37526D01*
Y-38274D01*
X-195854Y-38573D01*
X-196754Y-39472D01*
X-197988D01*
X-198062Y-39487D01*
X-201253D01*
Y-38851D01*
X-195720Y-33318D01*
X-187600D01*
X-187249Y-33248D01*
X-186951Y-33049D01*
X-183894Y-29992D01*
X-178408D01*
Y-23208D01*
D02*
G37*
G36*
X-354719Y-15859D02*
X-359850D01*
Y-19021D01*
X-358202D01*
Y-27390D01*
X-359907D01*
Y-32245D01*
X-359907Y-32410D01*
X-360268Y-32746D01*
X-360392D01*
X-360753Y-32410D01*
Y-27390D01*
X-363647D01*
Y-32410D01*
X-363403D01*
X-362985Y-32610D01*
X-362857Y-33254D01*
X-362493Y-33800D01*
X-362140Y-34035D01*
X-362292Y-34535D01*
X-368235D01*
Y-25240D01*
X-368161Y-25225D01*
X-367450Y-24750D01*
X-366975Y-24039D01*
X-366808Y-23200D01*
Y-20900D01*
X-366975Y-20061D01*
X-367336Y-19521D01*
X-367195Y-19021D01*
X-365350D01*
Y-15859D01*
X-370481D01*
Y-19021D01*
X-370481Y-19021D01*
X-370624Y-19461D01*
X-371025Y-20061D01*
X-371192Y-20900D01*
Y-23200D01*
X-371025Y-24039D01*
X-370760Y-24435D01*
X-371028Y-24935D01*
X-373919D01*
Y-23528D01*
X-377868D01*
Y-27872D01*
X-373919D01*
Y-26465D01*
X-369765D01*
Y-34890D01*
X-369707Y-35183D01*
X-369541Y-35431D01*
X-369131Y-35841D01*
X-368883Y-36007D01*
X-368590Y-36065D01*
X-367696D01*
X-367388Y-36437D01*
X-367387Y-36565D01*
Y-41458D01*
X-364493D01*
Y-36565D01*
X-364493Y-36437D01*
X-364370Y-36289D01*
X-364033D01*
X-363647Y-36738D01*
Y-41458D01*
X-363627D01*
Y-42348D01*
X-363748Y-42372D01*
X-363824D01*
X-363893Y-42401D01*
X-364191Y-42460D01*
X-364444Y-42629D01*
X-364514Y-42658D01*
X-364567Y-42711D01*
X-364820Y-42880D01*
X-366570Y-44630D01*
X-366739Y-44883D01*
X-366792Y-44936D01*
X-366821Y-45006D01*
X-366990Y-45259D01*
X-367049Y-45557D01*
X-367078Y-45626D01*
Y-45702D01*
X-367117Y-45898D01*
X-367491Y-46273D01*
X-379637D01*
X-379973Y-45937D01*
Y-45172D01*
X-379431D01*
Y-40828D01*
X-379978D01*
Y-39272D01*
X-379431D01*
Y-34928D01*
X-379978D01*
Y-33572D01*
X-379431D01*
Y-29228D01*
X-379978D01*
Y-27872D01*
X-379431D01*
Y-23528D01*
X-383380D01*
Y-27872D01*
X-382833D01*
Y-29228D01*
X-383380D01*
Y-33572D01*
X-382833D01*
Y-34928D01*
X-383380D01*
Y-39272D01*
X-382833D01*
Y-40828D01*
X-383380D01*
Y-45172D01*
X-382827D01*
Y-46528D01*
X-382827Y-46528D01*
X-382719Y-47075D01*
X-382409Y-47538D01*
X-381238Y-48709D01*
X-381238Y-48709D01*
X-380775Y-49019D01*
X-380228Y-49127D01*
X-368327D01*
Y-50288D01*
X-368481D01*
Y-55812D01*
X-368146D01*
Y-56481D01*
X-368146Y-56481D01*
X-368038Y-57027D01*
X-367728Y-57490D01*
X-345227Y-79991D01*
Y-87300D01*
X-345227Y-87300D01*
X-345119Y-87846D01*
X-344809Y-88309D01*
X-336527Y-96592D01*
Y-102099D01*
X-337075D01*
Y-106836D01*
X-333125D01*
Y-102099D01*
X-333672D01*
Y-96000D01*
X-333672Y-96000D01*
X-333781Y-95454D01*
X-334090Y-94991D01*
X-334090Y-94991D01*
X-342373Y-86709D01*
Y-79400D01*
X-342373Y-79400D01*
X-342481Y-78854D01*
X-342791Y-78391D01*
X-342791Y-78391D01*
X-365292Y-55890D01*
Y-53231D01*
X-365319Y-53093D01*
Y-50288D01*
X-365473D01*
Y-48291D01*
X-365098Y-47917D01*
X-364902Y-47878D01*
X-364826D01*
X-364757Y-47849D01*
X-364459Y-47790D01*
X-364206Y-47621D01*
X-364136Y-47592D01*
X-364083Y-47539D01*
X-363830Y-47370D01*
X-362080Y-45620D01*
X-361911Y-45367D01*
X-361858Y-45314D01*
X-361829Y-45244D01*
X-361660Y-44991D01*
X-361601Y-44693D01*
X-361572Y-44624D01*
Y-44548D01*
X-361533Y-44352D01*
X-361191Y-44009D01*
X-361191Y-44009D01*
X-360881Y-43546D01*
X-360773Y-43000D01*
X-360773Y-43000D01*
Y-41458D01*
X-360753D01*
Y-36565D01*
X-360753Y-36437D01*
X-360630Y-36289D01*
X-360346D01*
X-359907Y-36738D01*
Y-41458D01*
X-357068D01*
X-357013Y-41458D01*
X-356568Y-41591D01*
Y-46828D01*
X-358181Y-48446D01*
X-361301D01*
Y-52422D01*
X-357099D01*
Y-49527D01*
X-355262Y-47685D01*
X-355262Y-47685D01*
X-355262Y-47685D01*
X-355262Y-47684D01*
X-355179Y-47561D01*
X-355097Y-47437D01*
X-355097Y-47436D01*
X-355096Y-47436D01*
X-355067Y-47289D01*
X-355038Y-47144D01*
Y-34510D01*
X-355019D01*
X-355155Y-33827D01*
X-355541Y-33248D01*
X-356120Y-32862D01*
X-356656Y-32755D01*
X-356908Y-32512D01*
X-357013Y-32297D01*
X-357013Y-32245D01*
Y-30254D01*
X-356964Y-30221D01*
X-356505Y-29535D01*
X-356344Y-28725D01*
X-356367D01*
Y-19021D01*
X-354719D01*
Y-15859D01*
D02*
G37*
G36*
X-140652Y-3750D02*
X-148538D01*
Y-8881D01*
X-146532D01*
Y-18319D01*
X-148538D01*
Y-23449D01*
X-145513D01*
Y-24015D01*
X-146180Y-24682D01*
X-173800D01*
X-174151Y-24752D01*
X-174449Y-24951D01*
X-176049Y-26551D01*
X-176248Y-26849D01*
X-176318Y-27200D01*
Y-31120D01*
X-178880Y-33683D01*
X-179026Y-33622D01*
X-179774D01*
X-180464Y-33908D01*
X-180992Y-34436D01*
X-181278Y-35126D01*
Y-35874D01*
X-181217Y-36020D01*
X-191049Y-45851D01*
X-191248Y-46149D01*
X-191318Y-46500D01*
Y-57200D01*
X-191248Y-57551D01*
X-191049Y-57849D01*
X-189509Y-59389D01*
X-189211Y-59588D01*
X-188860Y-59657D01*
X-188244D01*
Y-61759D01*
X-190043D01*
X-192182Y-59620D01*
Y-44380D01*
X-188290Y-40488D01*
X-188074Y-40578D01*
X-187326D01*
X-186636Y-40292D01*
X-186108Y-39764D01*
X-185822Y-39074D01*
Y-38326D01*
X-186108Y-37636D01*
X-186636Y-37108D01*
X-187326Y-36822D01*
X-188074D01*
X-188764Y-37108D01*
X-189292Y-37636D01*
X-189578Y-38326D01*
Y-39074D01*
X-189547Y-39149D01*
X-193749Y-43351D01*
X-193948Y-43649D01*
X-194018Y-44000D01*
Y-60000D01*
X-193948Y-60351D01*
X-193749Y-60649D01*
X-191072Y-63326D01*
X-190774Y-63525D01*
X-190423Y-63594D01*
X-188244D01*
Y-68589D01*
X-185118D01*
Y-74947D01*
X-185264Y-75008D01*
X-185792Y-75536D01*
X-186078Y-76226D01*
Y-76974D01*
X-185792Y-77664D01*
X-185264Y-78192D01*
X-184574Y-78478D01*
X-183826D01*
X-183136Y-78192D01*
X-182608Y-77664D01*
X-182322Y-76974D01*
Y-76226D01*
X-182608Y-75536D01*
X-183136Y-75008D01*
X-183282Y-74947D01*
Y-68589D01*
X-180358D01*
Y-63594D01*
X-179703D01*
X-178618Y-64680D01*
Y-78600D01*
X-178548Y-78951D01*
X-178349Y-79249D01*
X-176440Y-81158D01*
X-176142Y-81357D01*
X-175791Y-81427D01*
X-172199D01*
Y-82610D01*
X-168224D01*
Y-78408D01*
X-172199D01*
Y-79592D01*
X-175411D01*
X-176782Y-78220D01*
Y-64300D01*
X-176852Y-63949D01*
X-177051Y-63651D01*
X-178674Y-62028D01*
X-178972Y-61829D01*
X-179323Y-61759D01*
X-180358D01*
Y-59657D01*
X-177640D01*
X-175718Y-61580D01*
Y-73400D01*
X-175648Y-73751D01*
X-175449Y-74049D01*
X-173649Y-75849D01*
X-173351Y-76048D01*
X-173000Y-76118D01*
X-172199D01*
Y-77310D01*
X-168224D01*
Y-73606D01*
X-168224Y-73156D01*
X-167836Y-72837D01*
X-166267Y-74406D01*
Y-77310D01*
X-162292D01*
Y-76918D01*
X-156780D01*
X-151218Y-82480D01*
Y-106000D01*
X-151148Y-106351D01*
X-150949Y-106649D01*
X-146549Y-111049D01*
X-146251Y-111248D01*
X-145900Y-111318D01*
X-130700D01*
X-130349Y-111248D01*
X-130051Y-111049D01*
X-125551Y-106549D01*
X-125352Y-106251D01*
X-125282Y-105900D01*
Y-94687D01*
X-122808D01*
Y-92213D01*
X-111413D01*
Y-97605D01*
X-111343Y-97956D01*
X-111144Y-98254D01*
X-109018Y-100380D01*
Y-107900D01*
Y-126720D01*
X-110280Y-127982D01*
X-113371D01*
X-113492Y-127530D01*
X-113960Y-126720D01*
X-114620Y-126060D01*
X-115430Y-125592D01*
X-116333Y-125350D01*
X-117267D01*
X-118170Y-125592D01*
X-118980Y-126060D01*
X-119640Y-126720D01*
X-120108Y-127530D01*
X-120350Y-128433D01*
Y-129367D01*
X-120108Y-130270D01*
X-119640Y-131079D01*
X-118980Y-131740D01*
X-118170Y-132208D01*
X-117267Y-132450D01*
X-116333D01*
X-115430Y-132208D01*
X-114620Y-131740D01*
X-113960Y-131079D01*
X-113492Y-130270D01*
X-113371Y-129818D01*
X-109900D01*
X-109549Y-129748D01*
X-109251Y-129549D01*
X-107451Y-127749D01*
X-107252Y-127451D01*
X-107182Y-127100D01*
Y-108682D01*
X-102723D01*
Y-109865D01*
X-98748D01*
Y-105664D01*
X-102723D01*
Y-106847D01*
X-107182D01*
Y-100000D01*
X-107252Y-99649D01*
X-107451Y-99351D01*
X-109578Y-97225D01*
Y-91675D01*
X-102920Y-85018D01*
X-97154D01*
Y-86201D01*
X-93178D01*
Y-81999D01*
X-94248D01*
Y-80901D01*
X-93178D01*
Y-76699D01*
X-94248D01*
Y-75596D01*
X-93178D01*
Y-71394D01*
X-94248D01*
Y-68195D01*
X-94318Y-67844D01*
X-94517Y-67546D01*
X-95182Y-66881D01*
Y-64301D01*
X-93178D01*
Y-60099D01*
X-95182D01*
Y-49074D01*
X-88472D01*
Y-50131D01*
X-84128D01*
Y-49074D01*
X-82772D01*
Y-50131D01*
X-78428D01*
Y-49074D01*
X-77072D01*
Y-50131D01*
X-72728D01*
Y-49074D01*
X-57972D01*
Y-49931D01*
X-53628D01*
Y-48874D01*
X-52272D01*
Y-49931D01*
X-47928D01*
Y-48874D01*
X-46572D01*
Y-49931D01*
X-46144D01*
Y-62904D01*
X-46153Y-62911D01*
X-46437Y-63336D01*
X-46537Y-63838D01*
Y-68562D01*
X-46437Y-69064D01*
X-46153Y-69489D01*
X-46018Y-69580D01*
Y-75720D01*
X-54149Y-83851D01*
X-54348Y-84149D01*
X-54418Y-84500D01*
Y-93320D01*
X-55324Y-94226D01*
X-55523Y-94524D01*
X-55592Y-94875D01*
Y-97304D01*
X-55602Y-97311D01*
X-55886Y-97736D01*
X-55986Y-98238D01*
Y-102962D01*
X-55886Y-103464D01*
X-55602Y-103889D01*
X-55177Y-104173D01*
X-54675Y-104273D01*
X-54173Y-104173D01*
X-53748Y-103889D01*
X-53464Y-103464D01*
X-53364Y-102962D01*
Y-98238D01*
X-53464Y-97736D01*
X-53748Y-97311D01*
X-53757Y-97304D01*
Y-95255D01*
X-53120Y-94618D01*
X-49580D01*
X-49118Y-95080D01*
Y-95741D01*
X-49146Y-95881D01*
Y-97206D01*
X-49303Y-97311D01*
X-49587Y-97736D01*
X-49687Y-98238D01*
Y-102962D01*
X-49587Y-103464D01*
X-49303Y-103889D01*
X-48877Y-104173D01*
X-48376Y-104273D01*
X-47874Y-104173D01*
X-47449Y-103889D01*
X-47164Y-103464D01*
X-47065Y-102962D01*
Y-98238D01*
X-47164Y-97736D01*
X-47310Y-97518D01*
Y-95994D01*
X-47282Y-95853D01*
Y-94700D01*
X-47352Y-94349D01*
X-47551Y-94051D01*
X-48551Y-93051D01*
X-48849Y-92852D01*
X-49200Y-92782D01*
X-52582D01*
Y-84880D01*
X-44451Y-76749D01*
X-44252Y-76451D01*
X-44182Y-76100D01*
Y-69315D01*
X-44015Y-69064D01*
X-43915Y-68562D01*
Y-63838D01*
X-44015Y-63336D01*
X-44299Y-62911D01*
X-44308Y-62904D01*
Y-49931D01*
X-42228D01*
Y-45981D01*
X-46572D01*
Y-47038D01*
X-47928D01*
Y-45981D01*
X-52272D01*
Y-47038D01*
X-53628D01*
Y-45981D01*
X-57972D01*
Y-47238D01*
X-72728D01*
Y-46181D01*
X-77072D01*
Y-47238D01*
X-78428D01*
Y-46181D01*
X-82772D01*
Y-47238D01*
X-84128D01*
Y-46181D01*
X-88472D01*
Y-47238D01*
X-95182D01*
Y-33850D01*
Y-22229D01*
X-94730Y-22108D01*
X-93920Y-21640D01*
X-93260Y-20979D01*
X-92792Y-20170D01*
X-92550Y-19267D01*
Y-18333D01*
X-92792Y-17430D01*
X-93260Y-16621D01*
X-93920Y-15960D01*
X-94730Y-15492D01*
X-95633Y-15250D01*
X-96567D01*
X-97470Y-15492D01*
X-98280Y-15960D01*
X-98940Y-16621D01*
X-99408Y-17430D01*
X-99650Y-18333D01*
Y-19267D01*
X-99408Y-20170D01*
X-98940Y-20979D01*
X-98280Y-21640D01*
X-97470Y-22108D01*
X-97018Y-22229D01*
Y-32582D01*
X-107316D01*
X-107435Y-32405D01*
X-107937Y-32069D01*
X-108530Y-31951D01*
X-113970D01*
X-114563Y-32069D01*
X-115065Y-32405D01*
X-115401Y-32907D01*
X-115519Y-33500D01*
X-115401Y-34093D01*
X-115065Y-34595D01*
X-114563Y-34931D01*
X-113970Y-35049D01*
X-108530D01*
X-107937Y-34931D01*
X-107435Y-34595D01*
X-107316Y-34418D01*
X-97018D01*
Y-47900D01*
Y-60099D01*
X-97154D01*
Y-64301D01*
X-97018D01*
Y-67261D01*
X-96948Y-67612D01*
X-96749Y-67910D01*
X-96084Y-68575D01*
Y-71394D01*
X-97154D01*
Y-75596D01*
X-96084D01*
Y-76699D01*
X-97154D01*
Y-80901D01*
X-96084D01*
Y-81999D01*
X-97154D01*
Y-83182D01*
X-103300D01*
X-103651Y-83252D01*
X-103949Y-83451D01*
X-110875Y-90378D01*
X-122808D01*
Y-87903D01*
X-129592D01*
Y-94687D01*
X-127118D01*
Y-105520D01*
X-131080Y-109482D01*
X-145520D01*
X-149382Y-105620D01*
Y-82100D01*
X-149452Y-81749D01*
X-149651Y-81451D01*
X-155751Y-75351D01*
X-156049Y-75152D01*
X-156400Y-75082D01*
X-162292D01*
Y-73108D01*
X-164969D01*
X-168009Y-70069D01*
Y-68584D01*
X-168026Y-68495D01*
Y-65338D01*
X-169083D01*
Y-64021D01*
X-168026D01*
Y-59677D01*
X-169083D01*
Y-58281D01*
X-168026D01*
Y-53938D01*
X-169083D01*
Y-52799D01*
X-169153Y-52448D01*
X-169352Y-52150D01*
X-171285Y-50217D01*
X-171583Y-50018D01*
X-171934Y-49948D01*
X-180358D01*
Y-48891D01*
X-183182D01*
Y-47253D01*
X-183036Y-47192D01*
X-182508Y-46664D01*
X-182222Y-45974D01*
Y-45226D01*
X-182508Y-44536D01*
X-183036Y-44008D01*
X-183726Y-43722D01*
X-184474D01*
X-185164Y-44008D01*
X-185692Y-44536D01*
X-185978Y-45226D01*
Y-45974D01*
X-185692Y-46664D01*
X-185164Y-47192D01*
X-185018Y-47253D01*
Y-48891D01*
X-188244D01*
Y-52841D01*
X-180358D01*
Y-51783D01*
X-172314D01*
X-170919Y-53179D01*
Y-53938D01*
X-171976D01*
Y-58281D01*
X-170919D01*
Y-59677D01*
X-171976D01*
Y-64021D01*
X-170919D01*
Y-65338D01*
X-171976D01*
Y-69681D01*
X-169844D01*
Y-70449D01*
X-169774Y-70800D01*
X-169575Y-71098D01*
X-167952Y-72721D01*
X-168272Y-73108D01*
X-168704Y-73108D01*
X-172199D01*
Y-74092D01*
X-172699Y-74204D01*
X-173882Y-73020D01*
Y-61200D01*
X-173952Y-60849D01*
X-174151Y-60551D01*
X-176611Y-58091D01*
X-176909Y-57892D01*
X-177260Y-57822D01*
X-180358D01*
Y-56765D01*
X-188244D01*
Y-57351D01*
X-188744Y-57558D01*
X-189482Y-56820D01*
Y-46880D01*
X-179920Y-37317D01*
X-179774Y-37378D01*
X-179026D01*
X-178336Y-37092D01*
X-177808Y-36564D01*
X-177522Y-35874D01*
Y-35126D01*
X-177583Y-34980D01*
X-174751Y-32149D01*
X-174552Y-31851D01*
X-174482Y-31500D01*
Y-27580D01*
X-173420Y-26518D01*
X-145800D01*
X-145449Y-26448D01*
X-145151Y-26249D01*
X-143946Y-25044D01*
X-143747Y-24746D01*
X-143678Y-24395D01*
Y-23449D01*
X-140652D01*
Y-18319D01*
X-142658D01*
Y-8881D01*
X-140652D01*
Y-3750D01*
D02*
G37*
G36*
X-28900Y-8082D02*
X-60900D01*
X-61251Y-8152D01*
X-61549Y-8351D01*
X-66699Y-13501D01*
X-66898Y-13799D01*
X-66968Y-14150D01*
Y-15358D01*
X-67470Y-15492D01*
X-68279Y-15960D01*
X-68940Y-16621D01*
X-69408Y-17430D01*
X-69650Y-18333D01*
Y-19267D01*
X-69408Y-20170D01*
X-68940Y-20979D01*
X-68279Y-21640D01*
X-67470Y-22108D01*
X-66567Y-22350D01*
X-65633D01*
X-64730Y-22108D01*
X-63920Y-21640D01*
X-63260Y-20979D01*
X-62792Y-20170D01*
X-62550Y-19267D01*
Y-18333D01*
X-62792Y-17430D01*
X-63260Y-16621D01*
X-63920Y-15960D01*
X-64730Y-15492D01*
X-65133Y-15384D01*
Y-14530D01*
X-60520Y-9918D01*
X-29280D01*
X-24318Y-14880D01*
Y-30900D01*
X-24248Y-31251D01*
X-24049Y-31549D01*
X-22017Y-33580D01*
X-22078Y-33726D01*
Y-34474D01*
X-21792Y-35164D01*
X-21264Y-35692D01*
X-20574Y-35978D01*
X-19826D01*
X-19136Y-35692D01*
X-18608Y-35164D01*
X-18322Y-34474D01*
Y-33726D01*
X-18608Y-33036D01*
X-19136Y-32508D01*
X-19826Y-32222D01*
X-20574D01*
X-20720Y-32283D01*
X-22482Y-30520D01*
Y-14500D01*
X-22552Y-14149D01*
X-22751Y-13851D01*
X-28251Y-8351D01*
X-28549Y-8152D01*
X-28900Y-8082D01*
D02*
G37*
G36*
X-201353Y-23208D02*
X-202247D01*
X-203109Y-23439D01*
X-203883Y-23886D01*
X-204514Y-24517D01*
X-204961Y-25291D01*
X-205192Y-26153D01*
Y-27047D01*
X-205034Y-27636D01*
X-215722Y-38324D01*
X-215921Y-38622D01*
X-215991Y-38973D01*
Y-39487D01*
X-217980D01*
Y-36378D01*
X-212105Y-30503D01*
X-211906Y-30205D01*
X-211864Y-29992D01*
X-211353D01*
X-210491Y-29761D01*
X-209717Y-29314D01*
X-209086Y-28683D01*
X-208639Y-27909D01*
X-208408Y-27047D01*
Y-26153D01*
X-208639Y-25291D01*
X-209086Y-24517D01*
X-209717Y-23886D01*
X-210491Y-23439D01*
X-211353Y-23208D01*
X-212247D01*
X-213109Y-23439D01*
X-213883Y-23886D01*
X-214514Y-24517D01*
X-214961Y-25291D01*
X-215192Y-26153D01*
Y-27047D01*
X-214961Y-27909D01*
X-214514Y-28683D01*
X-213883Y-29314D01*
X-214014Y-29816D01*
X-219547Y-35349D01*
X-219745Y-35647D01*
X-219815Y-35998D01*
Y-39487D01*
X-220882D01*
Y-29866D01*
X-220491Y-29761D01*
X-219717Y-29314D01*
X-219086Y-28683D01*
X-218639Y-27909D01*
X-218408Y-27047D01*
Y-26153D01*
X-218639Y-25291D01*
X-219086Y-24517D01*
X-219717Y-23886D01*
X-220491Y-23439D01*
X-221353Y-23208D01*
X-222247D01*
X-223109Y-23439D01*
X-223883Y-23886D01*
X-224514Y-24517D01*
X-224961Y-25291D01*
X-225192Y-26153D01*
Y-27047D01*
X-224961Y-27909D01*
X-224514Y-28683D01*
X-223883Y-29314D01*
X-223109Y-29761D01*
X-222718Y-29866D01*
Y-39487D01*
X-225854D01*
Y-31628D01*
X-225924Y-31277D01*
X-226123Y-30979D01*
X-228842Y-28260D01*
X-228639Y-27909D01*
X-228408Y-27047D01*
Y-26153D01*
X-228639Y-25291D01*
X-229086Y-24517D01*
X-229717Y-23886D01*
X-230491Y-23439D01*
X-231353Y-23208D01*
X-232247D01*
X-233109Y-23439D01*
X-233883Y-23886D01*
X-234514Y-24517D01*
X-234961Y-25291D01*
X-235192Y-26153D01*
Y-27047D01*
X-234961Y-27909D01*
X-234514Y-28683D01*
X-233883Y-29314D01*
X-233109Y-29761D01*
X-232247Y-29992D01*
X-231353D01*
X-230491Y-29761D01*
X-230139Y-29558D01*
X-227689Y-32008D01*
Y-39487D01*
X-228747D01*
Y-47374D01*
X-212986D01*
Y-39487D01*
X-213582D01*
X-213789Y-38987D01*
X-204000Y-29197D01*
X-203883Y-29314D01*
X-203109Y-29761D01*
X-202247Y-29992D01*
X-201353D01*
X-200491Y-29761D01*
X-199717Y-29314D01*
X-199086Y-28683D01*
X-198639Y-27909D01*
X-198408Y-27047D01*
Y-26153D01*
X-198639Y-25291D01*
X-199086Y-24517D01*
X-199717Y-23886D01*
X-200491Y-23439D01*
X-201353Y-23208D01*
D02*
G37*
G36*
X-261614Y-39448D02*
X-266279D01*
X-266866Y-39565D01*
X-267363Y-39897D01*
X-267695Y-40394D01*
X-267811Y-40980D01*
X-267695Y-41567D01*
X-267363Y-42063D01*
X-266866Y-42395D01*
X-266279Y-42512D01*
X-261614D01*
X-261028Y-42395D01*
X-260531Y-42063D01*
X-260199Y-41567D01*
X-260082Y-40980D01*
X-260199Y-40394D01*
X-260531Y-39897D01*
X-261028Y-39565D01*
X-261614Y-39448D01*
D02*
G37*
G36*
X-284232D02*
X-288898D01*
X-289484Y-39565D01*
X-289981Y-39897D01*
X-290313Y-40394D01*
X-290429Y-40980D01*
X-290313Y-41567D01*
X-289981Y-42063D01*
X-289484Y-42395D01*
X-288898Y-42512D01*
X-284232D01*
X-283646Y-42395D01*
X-283149Y-42063D01*
X-282817Y-41567D01*
X-282700Y-40980D01*
X-282817Y-40394D01*
X-283149Y-39897D01*
X-283646Y-39565D01*
X-284232Y-39448D01*
D02*
G37*
G36*
X-7253Y-37308D02*
X-8147D01*
X-9009Y-37539D01*
X-9783Y-37986D01*
X-10414Y-38617D01*
X-10861Y-39391D01*
X-11092Y-40253D01*
Y-41147D01*
X-10861Y-42009D01*
X-10414Y-42783D01*
X-9783Y-43414D01*
X-9009Y-43861D01*
X-8147Y-44092D01*
X-7253D01*
X-6391Y-43861D01*
X-5617Y-43414D01*
X-4986Y-42783D01*
X-4539Y-42009D01*
X-4308Y-41147D01*
Y-40253D01*
X-4539Y-39391D01*
X-4986Y-38617D01*
X-5617Y-37986D01*
X-6391Y-37539D01*
X-7253Y-37308D01*
D02*
G37*
G36*
X-108530Y-41951D02*
X-113970D01*
X-114563Y-42069D01*
X-115065Y-42405D01*
X-115184Y-42582D01*
X-119300D01*
X-119651Y-42652D01*
X-119949Y-42851D01*
X-126849Y-49751D01*
X-127048Y-50049D01*
X-127118Y-50400D01*
Y-58029D01*
X-127509Y-58134D01*
X-128283Y-58581D01*
X-128914Y-59212D01*
X-129361Y-59986D01*
X-129592Y-60849D01*
Y-61742D01*
X-129361Y-62605D01*
X-128914Y-63378D01*
X-128283Y-64010D01*
X-127509Y-64456D01*
X-126647Y-64687D01*
X-125753D01*
X-124891Y-64456D01*
X-124117Y-64010D01*
X-123486Y-63378D01*
X-123039Y-62605D01*
X-122808Y-61742D01*
Y-60849D01*
X-123039Y-59986D01*
X-123486Y-59212D01*
X-124117Y-58581D01*
X-124891Y-58134D01*
X-125282Y-58029D01*
Y-50780D01*
X-118920Y-44418D01*
X-115184D01*
X-115065Y-44595D01*
X-114563Y-44931D01*
X-113970Y-45049D01*
X-108530D01*
X-107937Y-44931D01*
X-107435Y-44595D01*
X-107099Y-44093D01*
X-106981Y-43500D01*
X-107099Y-42907D01*
X-107435Y-42405D01*
X-107937Y-42069D01*
X-108530Y-41951D01*
D02*
G37*
G36*
X-261614Y-44449D02*
X-266279D01*
X-266866Y-44565D01*
X-267363Y-44897D01*
X-267695Y-45394D01*
X-267811Y-45980D01*
X-267695Y-46567D01*
X-267363Y-47063D01*
X-266866Y-47396D01*
X-266279Y-47512D01*
X-261614D01*
X-261028Y-47396D01*
X-260531Y-47063D01*
X-260199Y-46567D01*
X-260082Y-45980D01*
X-260199Y-45394D01*
X-260531Y-44897D01*
X-261028Y-44565D01*
X-261614Y-44449D01*
D02*
G37*
G36*
X-284232D02*
X-288898D01*
X-289484Y-44565D01*
X-289981Y-44897D01*
X-290313Y-45394D01*
X-290429Y-45980D01*
X-290313Y-46567D01*
X-289981Y-47063D01*
X-289484Y-47396D01*
X-288898Y-47512D01*
X-284232D01*
X-283646Y-47396D01*
X-283149Y-47063D01*
X-282817Y-46567D01*
X-282700Y-45980D01*
X-282817Y-45394D01*
X-283149Y-44897D01*
X-283646Y-44565D01*
X-284232Y-44449D01*
D02*
G37*
G36*
X-165061Y-29050D02*
X-172948D01*
Y-34181D01*
X-170942D01*
Y-43619D01*
X-172948D01*
Y-48750D01*
X-165061D01*
Y-43619D01*
X-167068D01*
Y-34181D01*
X-165061D01*
Y-33553D01*
X-156616D01*
X-155875Y-33406D01*
X-155246Y-32986D01*
X-155130Y-32870D01*
X-154961Y-32617D01*
X-154908Y-32564D01*
X-154879Y-32494D01*
X-154710Y-32241D01*
X-154651Y-31943D01*
X-154622Y-31874D01*
Y-31798D01*
X-154563Y-31500D01*
X-154622Y-31202D01*
Y-31126D01*
X-154651Y-31057D01*
X-154710Y-30759D01*
X-154879Y-30506D01*
X-154908Y-30436D01*
X-154961Y-30383D01*
X-155130Y-30130D01*
X-155383Y-29961D01*
X-155436Y-29908D01*
X-155506Y-29879D01*
X-155759Y-29710D01*
X-156057Y-29651D01*
X-156126Y-29622D01*
X-156202D01*
X-156500Y-29563D01*
X-156798Y-29622D01*
X-156874D01*
X-156943Y-29651D01*
X-157082Y-29679D01*
X-165061D01*
Y-29050D01*
D02*
G37*
G36*
X-199026Y-48422D02*
X-199774D01*
X-200464Y-48708D01*
X-200992Y-49236D01*
X-201278Y-49926D01*
Y-50674D01*
X-201217Y-50820D01*
X-204283Y-53885D01*
X-237740D01*
Y-52565D01*
X-207154D01*
X-206861Y-52507D01*
X-206613Y-52341D01*
X-206369Y-52097D01*
X-206173Y-52178D01*
X-205427D01*
X-204736Y-51892D01*
X-204208Y-51364D01*
X-203922Y-50674D01*
Y-49926D01*
X-204208Y-49236D01*
X-204736Y-48708D01*
X-205427Y-48422D01*
X-206173D01*
X-206864Y-48708D01*
X-207392Y-49236D01*
X-207678Y-49926D01*
Y-50674D01*
X-207920Y-51035D01*
X-237740D01*
Y-48891D01*
X-245626D01*
Y-52841D01*
Y-56778D01*
Y-60715D01*
Y-64652D01*
Y-68589D01*
Y-72526D01*
Y-76463D01*
Y-80400D01*
Y-84337D01*
Y-88274D01*
X-237740D01*
Y-87217D01*
X-215853D01*
X-215792Y-87364D01*
X-215264Y-87892D01*
X-214574Y-88178D01*
X-213826D01*
X-213136Y-87892D01*
X-212608Y-87364D01*
X-212322Y-86674D01*
Y-85926D01*
X-212608Y-85236D01*
X-213136Y-84708D01*
X-213826Y-84422D01*
X-214574D01*
X-215264Y-84708D01*
X-215792Y-85236D01*
X-215852Y-85381D01*
X-237740D01*
Y-83280D01*
X-219576D01*
X-219164Y-83692D01*
X-218474Y-83978D01*
X-217726D01*
X-217036Y-83692D01*
X-216508Y-83164D01*
X-216222Y-82474D01*
Y-81726D01*
X-216508Y-81036D01*
X-217036Y-80508D01*
X-217726Y-80222D01*
X-218474D01*
X-219164Y-80508D01*
X-219692Y-81036D01*
X-219861Y-81444D01*
X-237740D01*
Y-79343D01*
X-224042D01*
X-223992Y-79464D01*
X-223464Y-79992D01*
X-222774Y-80278D01*
X-222026D01*
X-221336Y-79992D01*
X-220808Y-79464D01*
X-220522Y-78774D01*
Y-78026D01*
X-220808Y-77336D01*
X-221336Y-76808D01*
X-222026Y-76522D01*
X-222774D01*
X-223464Y-76808D01*
X-223992Y-77336D01*
X-224063Y-77507D01*
X-237740D01*
Y-75406D01*
X-228658D01*
X-228592Y-75564D01*
X-228064Y-76092D01*
X-227374Y-76378D01*
X-226626D01*
X-225936Y-76092D01*
X-225408Y-75564D01*
X-225122Y-74874D01*
Y-74126D01*
X-225408Y-73436D01*
X-225936Y-72908D01*
X-226626Y-72622D01*
X-227374D01*
X-228064Y-72908D01*
X-228592Y-73436D01*
X-228648Y-73570D01*
X-237740D01*
Y-71618D01*
X-193453D01*
X-193392Y-71764D01*
X-192864Y-72292D01*
X-192174Y-72578D01*
X-191426D01*
X-190736Y-72292D01*
X-190208Y-71764D01*
X-189922Y-71074D01*
Y-70326D01*
X-190208Y-69636D01*
X-190736Y-69108D01*
X-191426Y-68822D01*
X-192174D01*
X-192864Y-69108D01*
X-193392Y-69636D01*
X-193453Y-69782D01*
X-237740D01*
Y-67532D01*
X-232447D01*
X-232392Y-67664D01*
X-231864Y-68192D01*
X-231173Y-68478D01*
X-230427D01*
X-229736Y-68192D01*
X-229208Y-67664D01*
X-228922Y-66974D01*
Y-66226D01*
X-229208Y-65536D01*
X-229736Y-65008D01*
X-230427Y-64722D01*
X-231173D01*
X-231864Y-65008D01*
X-232392Y-65536D01*
X-232458Y-65696D01*
X-237740D01*
Y-63595D01*
X-235821D01*
X-235792Y-63664D01*
X-235264Y-64192D01*
X-234574Y-64478D01*
X-233826D01*
X-233136Y-64192D01*
X-232608Y-63664D01*
X-232322Y-62974D01*
Y-62226D01*
X-232608Y-61536D01*
X-233136Y-61008D01*
X-233826Y-60722D01*
X-234574D01*
X-235264Y-61008D01*
X-235792Y-61536D01*
X-235884Y-61759D01*
X-237740D01*
Y-59718D01*
X-201753D01*
X-201692Y-59864D01*
X-201164Y-60392D01*
X-200474Y-60678D01*
X-199726D01*
X-199036Y-60392D01*
X-198508Y-59864D01*
X-198222Y-59174D01*
Y-58426D01*
X-198508Y-57736D01*
X-199036Y-57208D01*
X-199726Y-56922D01*
X-200474D01*
X-201164Y-57208D01*
X-201692Y-57736D01*
X-201753Y-57882D01*
X-237740D01*
Y-55721D01*
X-203903D01*
X-203552Y-55651D01*
X-203254Y-55452D01*
X-199920Y-52117D01*
X-199774Y-52178D01*
X-199026D01*
X-198336Y-51892D01*
X-197808Y-51364D01*
X-197522Y-50674D01*
Y-49926D01*
X-197808Y-49236D01*
X-198336Y-48708D01*
X-199026Y-48422D01*
D02*
G37*
G36*
X-380319Y-50288D02*
X-383481D01*
Y-52478D01*
X-385483D01*
X-385506Y-52482D01*
X-387547D01*
X-387608Y-52336D01*
X-388136Y-51808D01*
X-388826Y-51522D01*
X-389574D01*
X-390264Y-51808D01*
X-390792Y-52336D01*
X-391078Y-53026D01*
Y-53774D01*
X-390792Y-54464D01*
X-390264Y-54992D01*
X-389574Y-55278D01*
X-388826D01*
X-388136Y-54992D01*
X-387608Y-54464D01*
X-387547Y-54318D01*
X-385487D01*
X-385464Y-54313D01*
X-383481D01*
Y-55812D01*
X-380319D01*
Y-50288D01*
D02*
G37*
G36*
X-261614Y-49448D02*
X-266279D01*
X-266866Y-49565D01*
X-267363Y-49897D01*
X-267486Y-50082D01*
X-268613Y-50193D01*
X-270087Y-50641D01*
X-271446Y-51367D01*
X-272636Y-52344D01*
X-273614Y-53535D01*
X-274340Y-54893D01*
X-274787Y-56367D01*
X-274938Y-57900D01*
X-274918D01*
Y-89300D01*
X-274946D01*
X-274962Y-89338D01*
X-275000Y-89354D01*
Y-89382D01*
X-277800D01*
Y-89367D01*
X-278463Y-89499D01*
X-279026Y-89874D01*
X-279401Y-90437D01*
X-279533Y-91100D01*
X-279518D01*
Y-93110D01*
X-281245D01*
Y-97085D01*
X-277043D01*
Y-93110D01*
X-277682D01*
Y-91218D01*
X-275000D01*
Y-91237D01*
X-274259Y-91090D01*
X-273630Y-90670D01*
X-273210Y-90041D01*
X-273063Y-89300D01*
X-273082D01*
Y-57900D01*
X-273079D01*
X-272964Y-56730D01*
X-272622Y-55604D01*
X-272068Y-54567D01*
X-271322Y-53658D01*
X-270413Y-52912D01*
X-269376Y-52358D01*
X-268251Y-52017D01*
X-267447Y-51938D01*
X-267363Y-52063D01*
X-266866Y-52395D01*
X-266279Y-52512D01*
X-261614D01*
X-261028Y-52395D01*
X-260531Y-52063D01*
X-260199Y-51566D01*
X-260082Y-50980D01*
X-260199Y-50394D01*
X-260531Y-49897D01*
X-261028Y-49565D01*
X-261614Y-49448D01*
D02*
G37*
G36*
X-284232D02*
X-288898D01*
X-289484Y-49565D01*
X-289981Y-49897D01*
X-290313Y-50394D01*
X-290429Y-50980D01*
X-290313Y-51566D01*
X-289981Y-52063D01*
X-289484Y-52395D01*
X-288898Y-52512D01*
X-284232D01*
X-283646Y-52395D01*
X-283149Y-52063D01*
X-282817Y-51566D01*
X-282700Y-50980D01*
X-282817Y-50394D01*
X-283149Y-49897D01*
X-283646Y-49565D01*
X-284232Y-49448D01*
D02*
G37*
G36*
X-7253Y-47308D02*
X-8147D01*
X-9009Y-47539D01*
X-9783Y-47986D01*
X-10414Y-48617D01*
X-10861Y-49391D01*
X-11092Y-50253D01*
Y-51147D01*
X-10861Y-52009D01*
X-10414Y-52783D01*
X-9783Y-53414D01*
X-9009Y-53861D01*
X-8147Y-54092D01*
X-7253D01*
X-6391Y-53861D01*
X-5617Y-53414D01*
X-4986Y-52783D01*
X-4539Y-52009D01*
X-4308Y-51147D01*
Y-50253D01*
X-4539Y-49391D01*
X-4986Y-48617D01*
X-5617Y-47986D01*
X-6391Y-47539D01*
X-7253Y-47308D01*
D02*
G37*
G36*
X-341525Y-9563D02*
X-350199D01*
Y-18237D01*
X-348054D01*
Y-48429D01*
X-352878D01*
X-353717Y-48596D01*
X-353827Y-48669D01*
X-355072D01*
Y-50540D01*
X-355092Y-50643D01*
Y-50644D01*
X-355072Y-50747D01*
Y-52619D01*
X-353814D01*
X-353739Y-52669D01*
X-352900Y-52836D01*
X-352784Y-52813D01*
X-332768D01*
Y-54443D01*
X-315432D01*
Y-46753D01*
X-332768D01*
Y-48429D01*
X-343670D01*
Y-18237D01*
X-341525D01*
Y-9563D01*
D02*
G37*
G36*
X-261614Y-54448D02*
X-266279D01*
X-266866Y-54565D01*
X-267363Y-54897D01*
X-267473Y-55063D01*
X-269580D01*
Y-55056D01*
X-270316Y-55153D01*
X-271002Y-55437D01*
X-271591Y-55889D01*
X-272043Y-56478D01*
X-272327Y-57164D01*
X-272424Y-57900D01*
X-272418D01*
Y-93110D01*
X-276120D01*
Y-97085D01*
X-271918D01*
Y-96015D01*
X-271500D01*
X-271149Y-95945D01*
X-270851Y-95746D01*
X-270652Y-95448D01*
X-270582Y-95097D01*
Y-57900D01*
X-270569D01*
X-270494Y-57522D01*
X-270279Y-57201D01*
X-269959Y-56986D01*
X-269580Y-56911D01*
Y-56898D01*
X-267473D01*
X-267363Y-57063D01*
X-266866Y-57395D01*
X-266279Y-57512D01*
X-261614D01*
X-261028Y-57395D01*
X-260531Y-57063D01*
X-260199Y-56567D01*
X-260082Y-55980D01*
X-260199Y-55394D01*
X-260531Y-54897D01*
X-261028Y-54565D01*
X-261614Y-54448D01*
D02*
G37*
G36*
X-108530Y-46951D02*
X-113970D01*
X-114563Y-47069D01*
X-115065Y-47405D01*
X-115401Y-47907D01*
X-115519Y-48500D01*
X-115401Y-49093D01*
X-115065Y-49595D01*
X-114563Y-49931D01*
X-113970Y-50049D01*
X-112168D01*
Y-53400D01*
Y-61970D01*
X-120575Y-70378D01*
X-122934D01*
X-123039Y-69986D01*
X-123486Y-69213D01*
X-124117Y-68581D01*
X-124891Y-68134D01*
X-125753Y-67903D01*
X-126647D01*
X-127509Y-68134D01*
X-128283Y-68581D01*
X-128914Y-69213D01*
X-129361Y-69986D01*
X-129592Y-70849D01*
Y-71742D01*
X-129361Y-72605D01*
X-128914Y-73378D01*
X-128283Y-74010D01*
X-127509Y-74456D01*
X-126647Y-74687D01*
X-125753D01*
X-124891Y-74456D01*
X-124117Y-74010D01*
X-123486Y-73378D01*
X-123039Y-72605D01*
X-122934Y-72213D01*
X-120195D01*
X-119844Y-72143D01*
X-119546Y-71944D01*
X-110601Y-62999D01*
X-110402Y-62701D01*
X-110332Y-62350D01*
Y-54332D01*
X-105253D01*
X-105192Y-54478D01*
X-104664Y-55006D01*
X-103973Y-55292D01*
X-103226D01*
X-102536Y-55006D01*
X-102008Y-54478D01*
X-101722Y-53788D01*
Y-53041D01*
X-102008Y-52351D01*
X-102536Y-51822D01*
X-103226Y-51537D01*
X-103973D01*
X-104664Y-51822D01*
X-105192Y-52351D01*
X-105253Y-52497D01*
X-110332D01*
Y-50049D01*
X-108530D01*
X-107937Y-49931D01*
X-107435Y-49595D01*
X-107099Y-49093D01*
X-106981Y-48500D01*
X-107099Y-47907D01*
X-107435Y-47405D01*
X-107937Y-47069D01*
X-108530Y-46951D01*
D02*
G37*
G36*
X-370319Y-50288D02*
X-373481D01*
Y-55812D01*
X-370319D01*
Y-50288D01*
D02*
G37*
G36*
X-301626Y-48422D02*
X-302374D01*
X-303064Y-48708D01*
X-303592Y-49236D01*
X-303878Y-49926D01*
Y-50674D01*
X-303592Y-51364D01*
X-303064Y-51892D01*
X-302374Y-52178D01*
X-301626D01*
X-301144Y-51978D01*
X-298572Y-54551D01*
Y-57419D01*
X-294228D01*
Y-53469D01*
X-297490D01*
X-300170Y-50789D01*
X-300122Y-50674D01*
Y-49926D01*
X-300408Y-49236D01*
X-300936Y-48708D01*
X-301626Y-48422D01*
D02*
G37*
G36*
X-284232Y-54448D02*
X-288898D01*
X-289484Y-54565D01*
X-289981Y-54897D01*
X-290313Y-55394D01*
X-290429Y-55980D01*
X-290313Y-56567D01*
X-289981Y-57063D01*
X-289484Y-57395D01*
X-288898Y-57512D01*
X-284232D01*
X-283646Y-57395D01*
X-283149Y-57063D01*
X-282817Y-56567D01*
X-282700Y-55980D01*
X-282817Y-55394D01*
X-283149Y-54897D01*
X-283646Y-54565D01*
X-284232Y-54448D01*
D02*
G37*
G36*
X-375319Y-50288D02*
X-378481D01*
Y-55812D01*
X-377818D01*
Y-56753D01*
X-377838Y-56762D01*
X-377847Y-56782D01*
X-382722D01*
X-383073Y-56852D01*
X-383371Y-57051D01*
X-385002Y-58682D01*
X-387447D01*
X-387508Y-58536D01*
X-388036Y-58008D01*
X-388726Y-57722D01*
X-389474D01*
X-390164Y-58008D01*
X-390692Y-58536D01*
X-390978Y-59226D01*
Y-59974D01*
X-390692Y-60664D01*
X-390164Y-61192D01*
X-389474Y-61478D01*
X-388726D01*
X-388036Y-61192D01*
X-387508Y-60664D01*
X-387447Y-60518D01*
X-384622D01*
X-384271Y-60448D01*
X-383973Y-60249D01*
X-382342Y-58618D01*
X-377800D01*
Y-58635D01*
X-377098Y-58496D01*
X-376502Y-58098D01*
X-376104Y-57502D01*
X-375965Y-56800D01*
X-375982D01*
Y-55812D01*
X-375319D01*
Y-50288D01*
D02*
G37*
G36*
X-254228Y-49281D02*
X-258572D01*
Y-53231D01*
X-257318D01*
Y-58120D01*
X-259260Y-60063D01*
X-260420D01*
X-260531Y-59897D01*
X-261028Y-59565D01*
X-261614Y-59448D01*
X-266279D01*
X-266866Y-59565D01*
X-267363Y-59897D01*
X-267695Y-60394D01*
X-267811Y-60980D01*
X-267695Y-61567D01*
X-267363Y-62063D01*
X-266866Y-62396D01*
X-266279Y-62512D01*
X-261614D01*
X-261028Y-62396D01*
X-260531Y-62063D01*
X-260420Y-61898D01*
X-258880D01*
X-258529Y-61828D01*
X-258231Y-61629D01*
X-255751Y-59149D01*
X-255552Y-58851D01*
X-255482Y-58500D01*
Y-53231D01*
X-254228D01*
Y-49281D01*
D02*
G37*
G36*
X-294228Y-58981D02*
X-298572D01*
Y-62931D01*
X-294228D01*
Y-61874D01*
X-290108D01*
X-289981Y-62063D01*
X-289484Y-62396D01*
X-288898Y-62512D01*
X-284232D01*
X-283646Y-62396D01*
X-283149Y-62063D01*
X-282817Y-61567D01*
X-282700Y-60980D01*
X-282817Y-60394D01*
X-283149Y-59897D01*
X-283646Y-59565D01*
X-284232Y-59448D01*
X-288898D01*
X-289484Y-59565D01*
X-289981Y-59897D01*
X-290075Y-60038D01*
X-294228D01*
Y-58981D01*
D02*
G37*
G36*
X-7253Y-57308D02*
X-8147D01*
X-9009Y-57539D01*
X-9783Y-57986D01*
X-10414Y-58617D01*
X-10861Y-59391D01*
X-11092Y-60253D01*
Y-61147D01*
X-10861Y-62009D01*
X-10414Y-62783D01*
X-9783Y-63414D01*
X-9009Y-63861D01*
X-8147Y-64092D01*
X-7253D01*
X-6391Y-63861D01*
X-5617Y-63414D01*
X-4986Y-62783D01*
X-4539Y-62009D01*
X-4308Y-61147D01*
Y-60253D01*
X-4539Y-59391D01*
X-4986Y-58617D01*
X-5617Y-57986D01*
X-6391Y-57539D01*
X-7253Y-57308D01*
D02*
G37*
G36*
X-133708Y-57903D02*
X-140492D01*
Y-64687D01*
X-133708D01*
Y-57903D01*
D02*
G37*
G36*
X-284232Y-64448D02*
X-288898D01*
X-289484Y-64565D01*
X-289981Y-64897D01*
X-290313Y-65394D01*
X-290429Y-65980D01*
X-290313Y-66566D01*
X-289981Y-67063D01*
X-289484Y-67396D01*
X-288898Y-67512D01*
X-284232D01*
X-283646Y-67396D01*
X-283149Y-67063D01*
X-282817Y-66566D01*
X-282700Y-65980D01*
X-282817Y-65394D01*
X-283149Y-64897D01*
X-283646Y-64565D01*
X-284232Y-64448D01*
D02*
G37*
G36*
X-55633Y-15250D02*
X-56567D01*
X-57470Y-15492D01*
X-58280Y-15960D01*
X-58940Y-16621D01*
X-59408Y-17430D01*
X-59650Y-18333D01*
Y-19267D01*
X-59408Y-20170D01*
X-58940Y-20979D01*
X-58280Y-21640D01*
X-57470Y-22108D01*
X-56567Y-22350D01*
X-55633D01*
X-54730Y-22108D01*
X-54324Y-21873D01*
X-39918Y-36280D01*
Y-58234D01*
X-40206Y-58522D01*
X-40249Y-58551D01*
X-42725Y-61027D01*
X-42924Y-61325D01*
X-42994Y-61676D01*
Y-62904D01*
X-43003Y-62911D01*
X-43288Y-63336D01*
X-43387Y-63838D01*
Y-68562D01*
X-43288Y-69064D01*
X-43003Y-69489D01*
X-42578Y-69773D01*
X-42076Y-69873D01*
X-41575Y-69773D01*
X-41149Y-69489D01*
X-40865Y-69064D01*
X-40765Y-68562D01*
Y-63838D01*
X-40865Y-63336D01*
X-41149Y-62911D01*
X-41159Y-62904D01*
Y-62056D01*
X-38980Y-59878D01*
X-38937Y-59849D01*
X-38351Y-59263D01*
X-38152Y-58965D01*
X-38082Y-58614D01*
Y-35900D01*
X-38152Y-35549D01*
X-38351Y-35251D01*
X-53026Y-20576D01*
X-52792Y-20170D01*
X-52550Y-19267D01*
Y-18333D01*
X-52792Y-17430D01*
X-53260Y-16621D01*
X-53921Y-15960D01*
X-54730Y-15492D01*
X-55633Y-15250D01*
D02*
G37*
G36*
X-60269Y-50228D02*
X-64219D01*
Y-54572D01*
X-60269D01*
Y-53463D01*
X-54335D01*
X-52443Y-55355D01*
Y-62904D01*
X-52452Y-62911D01*
X-52736Y-63336D01*
X-52836Y-63838D01*
Y-68562D01*
X-52736Y-69064D01*
X-52452Y-69489D01*
X-52027Y-69773D01*
X-51525Y-69873D01*
X-51024Y-69773D01*
X-50598Y-69489D01*
X-50314Y-69064D01*
X-50214Y-68562D01*
Y-63838D01*
X-50314Y-63336D01*
X-50598Y-62911D01*
X-50608Y-62904D01*
Y-54975D01*
X-50677Y-54624D01*
X-50876Y-54326D01*
X-53306Y-51896D01*
X-53604Y-51697D01*
X-53955Y-51627D01*
X-60269D01*
Y-50228D01*
D02*
G37*
G36*
X-257327Y-69422D02*
X-258073D01*
X-258764Y-69708D01*
X-259278Y-70223D01*
X-260314D01*
X-260531Y-69897D01*
X-261028Y-69565D01*
X-261614Y-69449D01*
X-266279D01*
X-266866Y-69565D01*
X-267363Y-69897D01*
X-267695Y-70394D01*
X-267811Y-70980D01*
X-267695Y-71566D01*
X-267363Y-72063D01*
X-266866Y-72395D01*
X-266279Y-72512D01*
X-261614D01*
X-261028Y-72395D01*
X-260531Y-72063D01*
X-260527Y-72058D01*
X-259419D01*
X-259292Y-72364D01*
X-258764Y-72892D01*
X-258073Y-73178D01*
X-257327D01*
X-256636Y-72892D01*
X-256108Y-72364D01*
X-255822Y-71674D01*
Y-70926D01*
X-256108Y-70236D01*
X-256636Y-69708D01*
X-257327Y-69422D01*
D02*
G37*
G36*
X-284232Y-69449D02*
X-288898D01*
X-289484Y-69565D01*
X-289981Y-69897D01*
X-290313Y-70394D01*
X-290429Y-70980D01*
X-290313Y-71566D01*
X-289981Y-72063D01*
X-289484Y-72395D01*
X-288898Y-72512D01*
X-284232D01*
X-283646Y-72395D01*
X-283149Y-72063D01*
X-282817Y-71566D01*
X-282700Y-70980D01*
X-282817Y-70394D01*
X-283149Y-69897D01*
X-283646Y-69565D01*
X-284232Y-69449D01*
D02*
G37*
G36*
X-350728Y-54181D02*
X-355072D01*
Y-58131D01*
X-352944D01*
X-347127Y-63947D01*
Y-68216D01*
X-347239Y-68383D01*
X-347292Y-68436D01*
X-347321Y-68506D01*
X-347490Y-68759D01*
X-347549Y-69057D01*
X-347578Y-69126D01*
Y-69202D01*
X-347637Y-69500D01*
X-347578Y-69798D01*
Y-69874D01*
X-347549Y-69943D01*
X-347490Y-70241D01*
X-347321Y-70494D01*
X-347292Y-70564D01*
X-347239Y-70617D01*
X-347070Y-70870D01*
X-346817Y-71039D01*
X-346764Y-71092D01*
X-346694Y-71121D01*
X-346441Y-71290D01*
X-346143Y-71349D01*
X-346074Y-71378D01*
X-345998D01*
X-345700Y-71437D01*
X-343400D01*
X-343102Y-71378D01*
X-343026D01*
X-342957Y-71349D01*
X-342659Y-71290D01*
X-342406Y-71121D01*
X-342336Y-71092D01*
X-342283Y-71039D01*
X-342116Y-70927D01*
X-341268D01*
Y-72947D01*
X-323932D01*
Y-65257D01*
X-341268D01*
Y-68073D01*
X-342116D01*
X-342283Y-67961D01*
X-342336Y-67908D01*
X-342406Y-67879D01*
X-342659Y-67710D01*
X-342957Y-67651D01*
X-343026Y-67622D01*
X-343102D01*
X-343400Y-67563D01*
X-344273D01*
Y-63356D01*
X-344273Y-63356D01*
X-344381Y-62810D01*
X-344691Y-62347D01*
X-350728Y-56309D01*
Y-54181D01*
D02*
G37*
G36*
X-363142Y-73167D02*
X-368100D01*
X-368105Y-73169D01*
X-368109Y-73167D01*
X-368481Y-73188D01*
X-368533Y-73600D01*
X-368532Y-73602D01*
X-368533Y-73609D01*
X-368532Y-73667D01*
X-368486Y-75795D01*
X-368509Y-75906D01*
X-368509Y-75906D01*
Y-78184D01*
X-368527Y-78279D01*
X-368527Y-78279D01*
Y-81209D01*
X-374809Y-87491D01*
X-375119Y-87954D01*
X-375227Y-88500D01*
X-375227Y-88500D01*
Y-93609D01*
X-378217Y-96599D01*
X-379198D01*
X-379198Y-96599D01*
X-379336Y-96626D01*
X-381748D01*
Y-100969D01*
X-381710D01*
Y-102326D01*
X-381748D01*
Y-106669D01*
X-381710D01*
Y-108026D01*
X-381848D01*
Y-112369D01*
X-377898D01*
Y-110962D01*
X-377679Y-110744D01*
X-375191D01*
X-374931Y-111370D01*
X-374403Y-111898D01*
X-374257Y-111959D01*
Y-115253D01*
X-374257Y-115253D01*
X-374187Y-115605D01*
X-373988Y-115902D01*
X-364818Y-125072D01*
X-365025Y-125572D01*
X-368415D01*
Y-129522D01*
X-366860D01*
X-366820Y-129618D01*
X-366162Y-130476D01*
X-365304Y-131135D01*
X-365029Y-131248D01*
X-364801Y-131662D01*
Y-131662D01*
X-364801D01*
X-364842Y-131867D01*
X-364916Y-131867D01*
X-368387D01*
Y-131905D01*
X-370400D01*
X-371141Y-132052D01*
X-371770Y-132472D01*
X-372190Y-133101D01*
X-372337Y-133842D01*
Y-134000D01*
X-372278Y-134298D01*
Y-134374D01*
X-372249Y-134443D01*
X-372190Y-134741D01*
X-372021Y-134994D01*
X-371992Y-135064D01*
X-371939Y-135117D01*
X-371770Y-135370D01*
X-371517Y-135539D01*
X-371464Y-135592D01*
X-371394Y-135621D01*
X-371141Y-135790D01*
X-370843Y-135849D01*
X-370774Y-135878D01*
X-370698D01*
X-370400Y-135937D01*
X-370102Y-135878D01*
X-370026D01*
X-369957Y-135849D01*
X-369659Y-135790D01*
X-369643Y-135779D01*
X-368387D01*
Y-135817D01*
X-364437D01*
Y-132098D01*
X-364437Y-132098D01*
Y-132094D01*
X-364337Y-131894D01*
X-363989Y-131590D01*
X-363233Y-131690D01*
X-362927Y-132063D01*
Y-135632D01*
X-358725D01*
Y-131656D01*
X-360281D01*
X-360298Y-131613D01*
X-360310Y-131550D01*
X-360337Y-131511D01*
X-360432Y-131297D01*
X-360898Y-130689D01*
X-361506Y-130222D01*
X-361561Y-130200D01*
X-361462Y-129700D01*
X-358725D01*
Y-125724D01*
X-361571D01*
X-372422Y-114873D01*
Y-111959D01*
X-372275Y-111898D01*
X-371747Y-111370D01*
X-371461Y-110680D01*
Y-109933D01*
X-371594Y-109614D01*
X-371550Y-109548D01*
X-371402Y-108806D01*
X-371550Y-108065D01*
X-371970Y-107437D01*
X-372598Y-107017D01*
X-373339Y-106869D01*
X-377381D01*
X-377798Y-106669D01*
Y-102326D01*
X-377836D01*
Y-100969D01*
X-377798D01*
Y-99894D01*
X-377626Y-99453D01*
X-377080Y-99345D01*
X-376617Y-99035D01*
X-372791Y-95209D01*
X-372481Y-94746D01*
X-372373Y-94200D01*
X-372373Y-94200D01*
Y-89091D01*
X-366091Y-82809D01*
X-366091Y-82809D01*
X-365781Y-82346D01*
X-365673Y-81800D01*
X-365673Y-81800D01*
Y-79133D01*
X-363222D01*
X-363142Y-79100D01*
X-363056D01*
X-362358Y-78811D01*
X-362297Y-78750D01*
X-362218Y-78717D01*
X-361683Y-78182D01*
X-361650Y-78103D01*
X-361589Y-78042D01*
X-361300Y-77344D01*
Y-77258D01*
X-361267Y-77178D01*
Y-75042D01*
X-361300Y-74962D01*
Y-74876D01*
X-361574Y-74215D01*
X-361635Y-74154D01*
X-361668Y-74074D01*
X-362174Y-73568D01*
X-362254Y-73535D01*
X-362315Y-73474D01*
X-362976Y-73200D01*
X-363062D01*
X-363142Y-73167D01*
D02*
G37*
G36*
X-48376Y-62527D02*
X-48877Y-62626D01*
X-49303Y-62911D01*
X-49587Y-63336D01*
X-49687Y-63838D01*
Y-68562D01*
X-49587Y-69064D01*
X-49375Y-69380D01*
X-49464Y-69908D01*
X-49992Y-70436D01*
X-50278Y-71126D01*
Y-71874D01*
X-49992Y-72564D01*
X-49464Y-73092D01*
X-48774Y-73378D01*
X-48026D01*
X-47336Y-73092D01*
X-46808Y-72564D01*
X-46522Y-71874D01*
Y-71126D01*
X-46808Y-70436D01*
X-47303Y-69941D01*
X-47345Y-69811D01*
X-47383Y-69390D01*
X-47164Y-69064D01*
X-47065Y-68562D01*
Y-63838D01*
X-47164Y-63336D01*
X-47449Y-62911D01*
X-47874Y-62626D01*
X-48376Y-62527D01*
D02*
G37*
G36*
X-35633Y-15250D02*
X-36567D01*
X-37470Y-15492D01*
X-38280Y-15960D01*
X-38940Y-16621D01*
X-39408Y-17430D01*
X-39650Y-18333D01*
Y-19267D01*
X-39408Y-20170D01*
X-38940Y-20979D01*
X-38280Y-21640D01*
X-37470Y-22108D01*
X-37018Y-22229D01*
Y-71065D01*
X-38212D01*
X-38714Y-71165D01*
X-39139Y-71449D01*
X-39423Y-71875D01*
X-39523Y-72376D01*
X-39423Y-72878D01*
X-39139Y-73303D01*
X-38714Y-73588D01*
X-38212Y-73687D01*
X-33488D01*
X-32986Y-73588D01*
X-32561Y-73303D01*
X-32276Y-72878D01*
X-32177Y-72376D01*
X-32276Y-71875D01*
X-32561Y-71449D01*
X-32986Y-71165D01*
X-33488Y-71065D01*
X-35182D01*
Y-22229D01*
X-34730Y-22108D01*
X-33920Y-21640D01*
X-33260Y-20979D01*
X-32792Y-20170D01*
X-32550Y-19267D01*
Y-18333D01*
X-32792Y-17430D01*
X-33260Y-16621D01*
X-33920Y-15960D01*
X-34730Y-15492D01*
X-35633Y-15250D01*
D02*
G37*
G36*
X-7253Y-67308D02*
X-8147D01*
X-9009Y-67539D01*
X-9783Y-67986D01*
X-10414Y-68617D01*
X-10861Y-69391D01*
X-11092Y-70253D01*
Y-71147D01*
X-10861Y-72009D01*
X-10414Y-72783D01*
X-9783Y-73414D01*
X-9009Y-73861D01*
X-8147Y-74092D01*
X-7253D01*
X-6391Y-73861D01*
X-5617Y-73414D01*
X-4986Y-72783D01*
X-4539Y-72009D01*
X-4308Y-71147D01*
Y-70253D01*
X-4539Y-69391D01*
X-4986Y-68617D01*
X-5617Y-67986D01*
X-6391Y-67539D01*
X-7253Y-67308D01*
D02*
G37*
G36*
X-29900Y-11082D02*
X-42800D01*
X-43151Y-11152D01*
X-43449Y-11351D01*
X-45735Y-13637D01*
X-45934Y-13935D01*
X-46004Y-14286D01*
Y-15250D01*
X-46567D01*
X-47470Y-15492D01*
X-48280Y-15960D01*
X-48940Y-16621D01*
X-49408Y-17430D01*
X-49650Y-18333D01*
Y-19267D01*
X-49408Y-20170D01*
X-48940Y-20979D01*
X-48280Y-21640D01*
X-47470Y-22108D01*
X-46567Y-22350D01*
X-45633D01*
X-44730Y-22108D01*
X-43920Y-21640D01*
X-43260Y-20979D01*
X-42792Y-20170D01*
X-42550Y-19267D01*
Y-18333D01*
X-42792Y-17430D01*
X-43260Y-16621D01*
X-43920Y-15960D01*
X-44168Y-15816D01*
Y-14666D01*
X-42420Y-12918D01*
X-30280D01*
X-27718Y-15480D01*
Y-72820D01*
X-29506Y-74608D01*
X-32555D01*
X-32561Y-74599D01*
X-32986Y-74315D01*
X-33488Y-74215D01*
X-38212D01*
X-38714Y-74315D01*
X-39139Y-74599D01*
X-39423Y-75024D01*
X-39523Y-75526D01*
X-39423Y-76028D01*
X-39139Y-76453D01*
X-38714Y-76737D01*
X-38212Y-76837D01*
X-33488D01*
X-32986Y-76737D01*
X-32561Y-76453D01*
X-32555Y-76444D01*
X-29126D01*
X-28775Y-76374D01*
X-28477Y-76175D01*
X-26151Y-73849D01*
X-25952Y-73551D01*
X-25882Y-73200D01*
Y-15100D01*
X-25952Y-14749D01*
X-26151Y-14451D01*
X-29251Y-11351D01*
X-29549Y-11152D01*
X-29900Y-11082D01*
D02*
G37*
G36*
X-136653Y-67903D02*
X-137547D01*
X-138409Y-68134D01*
X-139183Y-68581D01*
X-139814Y-69213D01*
X-140261Y-69986D01*
X-140492Y-70849D01*
Y-71742D01*
X-140261Y-72605D01*
X-139814Y-73378D01*
X-139183Y-74010D01*
X-138409Y-74456D01*
X-137547Y-74687D01*
X-136653D01*
X-135791Y-74456D01*
X-135017Y-74010D01*
X-134386Y-73378D01*
X-133939Y-72605D01*
X-133708Y-71742D01*
Y-70849D01*
X-133939Y-69986D01*
X-134386Y-69213D01*
X-135017Y-68581D01*
X-135791Y-68134D01*
X-136653Y-67903D01*
D02*
G37*
G36*
X-79026Y-61622D02*
X-79774D01*
X-80464Y-61908D01*
X-80992Y-62436D01*
X-81278Y-63126D01*
Y-63874D01*
X-80992Y-64564D01*
X-80464Y-65092D01*
X-80318Y-65153D01*
Y-68800D01*
X-80248Y-69151D01*
X-80049Y-69449D01*
X-74015Y-75483D01*
X-74023Y-75526D01*
X-73923Y-76028D01*
X-73639Y-76453D01*
X-73214Y-76737D01*
X-72712Y-76837D01*
X-67988D01*
X-67486Y-76737D01*
X-67061Y-76453D01*
X-66777Y-76028D01*
X-66677Y-75526D01*
X-66777Y-75024D01*
X-67061Y-74599D01*
X-67486Y-74315D01*
X-67988Y-74215D01*
X-72187D01*
X-72205Y-74187D01*
X-71937Y-73687D01*
X-67988D01*
X-67486Y-73588D01*
X-67061Y-73303D01*
X-66777Y-72878D01*
X-66677Y-72376D01*
X-66777Y-71875D01*
X-67061Y-71449D01*
X-67486Y-71165D01*
X-67988Y-71065D01*
X-69782D01*
Y-70153D01*
X-69636Y-70092D01*
X-69108Y-69564D01*
X-68822Y-68874D01*
Y-68126D01*
X-69108Y-67436D01*
X-69636Y-66908D01*
X-70326Y-66622D01*
X-71074D01*
X-71764Y-66908D01*
X-72292Y-67436D01*
X-72578Y-68126D01*
Y-68874D01*
X-72292Y-69564D01*
X-71764Y-70092D01*
X-71618Y-70153D01*
Y-71065D01*
X-72712D01*
X-73214Y-71165D01*
X-73639Y-71449D01*
X-73923Y-71875D01*
X-73989Y-72206D01*
X-74449Y-72400D01*
X-74499Y-72403D01*
X-78482Y-68420D01*
Y-65153D01*
X-78336Y-65092D01*
X-77808Y-64564D01*
X-77522Y-63874D01*
Y-63126D01*
X-77808Y-62436D01*
X-78336Y-61908D01*
X-79026Y-61622D01*
D02*
G37*
G36*
X-91826Y-50622D02*
X-92574D01*
X-93264Y-50908D01*
X-93792Y-51436D01*
X-94078Y-52126D01*
Y-52874D01*
X-93792Y-53564D01*
X-93318Y-54038D01*
Y-56200D01*
X-93248Y-56551D01*
X-93049Y-56849D01*
X-90298Y-59599D01*
X-90506Y-60099D01*
X-91222D01*
Y-64301D01*
X-89064D01*
Y-64454D01*
X-88994Y-64805D01*
X-88795Y-65102D01*
X-74721Y-79177D01*
X-74423Y-79376D01*
X-74072Y-79446D01*
X-73744D01*
X-73639Y-79603D01*
X-73214Y-79887D01*
X-72712Y-79987D01*
X-67988D01*
X-67486Y-79887D01*
X-67061Y-79603D01*
X-66777Y-79177D01*
X-66677Y-78676D01*
X-66777Y-78174D01*
X-67061Y-77749D01*
X-67486Y-77464D01*
X-67988Y-77364D01*
X-72712D01*
X-73214Y-77464D01*
X-73432Y-77610D01*
X-73692D01*
X-87229Y-64073D01*
Y-63288D01*
X-87247Y-63199D01*
Y-60099D01*
X-88316D01*
Y-59366D01*
X-88386Y-59015D01*
X-88585Y-58717D01*
X-91482Y-55820D01*
Y-54235D01*
X-91136Y-54092D01*
X-90608Y-53564D01*
X-90322Y-52874D01*
Y-52126D01*
X-90608Y-51436D01*
X-91136Y-50908D01*
X-91826Y-50622D01*
D02*
G37*
G36*
X-33488Y-80514D02*
X-38212D01*
X-38714Y-80614D01*
X-39139Y-80898D01*
X-39145Y-80908D01*
X-45150D01*
X-45501Y-80977D01*
X-45799Y-81176D01*
X-46244Y-81622D01*
X-46726Y-81422D01*
X-47474D01*
X-48164Y-81708D01*
X-48692Y-82236D01*
X-48978Y-82926D01*
Y-83674D01*
X-48692Y-84364D01*
X-48164Y-84892D01*
X-47474Y-85178D01*
X-46726D01*
X-46036Y-84892D01*
X-45508Y-84364D01*
X-45222Y-83674D01*
Y-83195D01*
X-44770Y-82743D01*
X-43165D01*
X-43065Y-83243D01*
X-43464Y-83408D01*
X-43992Y-83936D01*
X-44278Y-84626D01*
Y-85374D01*
X-43992Y-86064D01*
X-43464Y-86592D01*
X-42774Y-86878D01*
X-42026D01*
X-41336Y-86592D01*
X-40808Y-86064D01*
X-40742Y-85905D01*
X-39134D01*
X-38714Y-86186D01*
X-38212Y-86286D01*
X-33488D01*
X-32986Y-86186D01*
X-32561Y-85902D01*
X-32276Y-85476D01*
X-32177Y-84975D01*
X-32276Y-84473D01*
X-32561Y-84048D01*
X-32986Y-83763D01*
X-33488Y-83664D01*
X-38212D01*
X-38714Y-83763D01*
X-39139Y-84048D01*
X-39154Y-84070D01*
X-40753D01*
X-40808Y-83936D01*
X-41336Y-83408D01*
X-41735Y-83243D01*
X-41635Y-82743D01*
X-39145D01*
X-39139Y-82752D01*
X-38714Y-83036D01*
X-38212Y-83136D01*
X-33488D01*
X-32986Y-83036D01*
X-32561Y-82752D01*
X-32276Y-82327D01*
X-32177Y-81825D01*
X-32276Y-81323D01*
X-32561Y-80898D01*
X-32986Y-80614D01*
X-33488Y-80514D01*
D02*
G37*
G36*
X-91326Y-65422D02*
X-92074D01*
X-92764Y-65708D01*
X-93292Y-66236D01*
X-93578Y-66926D01*
Y-67674D01*
X-93292Y-68364D01*
X-92764Y-68892D01*
X-92074Y-69178D01*
X-91326D01*
X-91027Y-69054D01*
X-89999Y-70083D01*
Y-71394D01*
X-91222D01*
Y-75596D01*
X-87247D01*
Y-74485D01*
X-84712D01*
X-76724Y-82474D01*
X-76426Y-82673D01*
X-76075Y-82743D01*
X-73646D01*
X-73639Y-82752D01*
X-73214Y-83036D01*
X-72712Y-83136D01*
X-67988D01*
X-67486Y-83036D01*
X-67061Y-82752D01*
X-66777Y-82327D01*
X-66677Y-81825D01*
X-66777Y-81323D01*
X-67061Y-80898D01*
X-67486Y-80614D01*
X-67988Y-80514D01*
X-72712D01*
X-73214Y-80614D01*
X-73639Y-80898D01*
X-73646Y-80908D01*
X-75695D01*
X-83683Y-72919D01*
X-83981Y-72720D01*
X-84332Y-72650D01*
X-87247D01*
Y-71394D01*
X-88469D01*
Y-69766D01*
X-88528Y-69473D01*
X-88693Y-69225D01*
X-89946Y-67973D01*
X-89822Y-67674D01*
Y-66926D01*
X-90108Y-66236D01*
X-90636Y-65708D01*
X-91326Y-65422D01*
D02*
G37*
G36*
X-7253Y-77308D02*
X-8147D01*
X-9009Y-77539D01*
X-9783Y-77986D01*
X-10414Y-78617D01*
X-10861Y-79391D01*
X-11092Y-80253D01*
Y-81147D01*
X-10861Y-82009D01*
X-10414Y-82783D01*
X-9783Y-83414D01*
X-9009Y-83861D01*
X-8147Y-84092D01*
X-7253D01*
X-6391Y-83861D01*
X-5617Y-83414D01*
X-4986Y-82783D01*
X-4539Y-82009D01*
X-4308Y-81147D01*
Y-80253D01*
X-4539Y-79391D01*
X-4986Y-78617D01*
X-5617Y-77986D01*
X-6391Y-77539D01*
X-7253Y-77308D01*
D02*
G37*
G36*
X-136653Y-77903D02*
X-137547D01*
X-138409Y-78134D01*
X-139183Y-78581D01*
X-139814Y-79212D01*
X-140261Y-79986D01*
X-140492Y-80849D01*
Y-81742D01*
X-140261Y-82605D01*
X-139814Y-83378D01*
X-139183Y-84010D01*
X-138409Y-84456D01*
X-137547Y-84687D01*
X-136653D01*
X-135791Y-84456D01*
X-135017Y-84010D01*
X-134386Y-83378D01*
X-133939Y-82605D01*
X-133708Y-81742D01*
Y-80849D01*
X-133939Y-79986D01*
X-134386Y-79212D01*
X-135017Y-78581D01*
X-135791Y-78134D01*
X-136653Y-77903D01*
D02*
G37*
G36*
X-29226Y-86122D02*
X-29974D01*
X-30664Y-86408D01*
X-31192Y-86936D01*
X-31278Y-87145D01*
X-32640D01*
X-32986Y-86913D01*
X-33488Y-86813D01*
X-38212D01*
X-38714Y-86913D01*
X-39139Y-87197D01*
X-39423Y-87623D01*
X-39523Y-88124D01*
X-39423Y-88626D01*
X-39139Y-89051D01*
X-38714Y-89336D01*
X-38212Y-89435D01*
X-33488D01*
X-32986Y-89336D01*
X-32561Y-89051D01*
X-32513Y-88980D01*
X-31227D01*
X-31192Y-89064D01*
X-30664Y-89592D01*
X-29974Y-89878D01*
X-29226D01*
X-28536Y-89592D01*
X-28008Y-89064D01*
X-27722Y-88374D01*
Y-87626D01*
X-28008Y-86936D01*
X-28536Y-86408D01*
X-29226Y-86122D01*
D02*
G37*
G36*
X-375319Y-73188D02*
X-378481D01*
Y-78712D01*
X-377818D01*
Y-79720D01*
X-379177Y-81079D01*
X-379376Y-81377D01*
X-379446Y-81728D01*
Y-83391D01*
X-380629D01*
Y-87366D01*
X-376428D01*
Y-83391D01*
X-377611D01*
Y-82108D01*
X-376251Y-80749D01*
X-376052Y-80451D01*
X-375982Y-80100D01*
Y-78712D01*
X-375319D01*
Y-73188D01*
D02*
G37*
G36*
X-380319D02*
X-383481D01*
Y-78712D01*
X-382818D01*
Y-79380D01*
X-382827D01*
X-382840Y-79442D01*
X-384362Y-80964D01*
X-384362Y-80964D01*
X-384654Y-81257D01*
X-384853Y-81554D01*
X-384923Y-81906D01*
Y-83391D01*
X-386106D01*
Y-87366D01*
X-381905D01*
Y-83391D01*
X-383088D01*
Y-82286D01*
X-381305Y-80503D01*
X-381106Y-80205D01*
X-381064Y-80060D01*
X-381064Y-80060D01*
X-380974Y-79380D01*
X-380982D01*
Y-78712D01*
X-380319D01*
Y-73188D01*
D02*
G37*
G36*
X-295638Y-87125D02*
X-301162D01*
Y-88065D01*
X-312793D01*
X-312793Y-88065D01*
X-313339Y-88174D01*
X-313802Y-88484D01*
X-313802Y-88484D01*
X-327909Y-102591D01*
X-328219Y-103054D01*
X-328327Y-103600D01*
X-328327Y-103600D01*
Y-110016D01*
X-328439Y-110183D01*
X-328492Y-110236D01*
X-328521Y-110306D01*
X-328690Y-110559D01*
X-328749Y-110857D01*
X-328778Y-110926D01*
Y-111002D01*
X-328801Y-111117D01*
X-331285D01*
X-331472Y-111154D01*
X-333334D01*
Y-115891D01*
X-329385D01*
Y-114991D01*
X-328700D01*
X-328690Y-115041D01*
X-328521Y-115294D01*
X-328492Y-115364D01*
X-328439Y-115417D01*
X-328270Y-115670D01*
X-328017Y-115839D01*
X-327964Y-115892D01*
X-327894Y-115921D01*
X-327641Y-116090D01*
X-327343Y-116149D01*
X-327274Y-116178D01*
X-327198D01*
X-326900Y-116237D01*
X-326602Y-116178D01*
X-326526D01*
X-326457Y-116149D01*
X-326159Y-116090D01*
X-325906Y-115921D01*
X-325836Y-115892D01*
X-325783Y-115839D01*
X-325530Y-115670D01*
X-325361Y-115417D01*
X-325308Y-115364D01*
X-325279Y-115294D01*
X-325110Y-115041D01*
X-325051Y-114743D01*
X-325022Y-114674D01*
Y-114598D01*
X-324963Y-114300D01*
Y-111300D01*
X-325022Y-111002D01*
Y-110926D01*
X-325051Y-110857D01*
X-325110Y-110559D01*
X-325279Y-110306D01*
X-325308Y-110236D01*
X-325361Y-110183D01*
X-325473Y-110016D01*
Y-104191D01*
X-312202Y-90920D01*
X-301162D01*
Y-91861D01*
X-295638D01*
Y-87125D01*
D02*
G37*
G36*
X-180358Y-84324D02*
X-188244D01*
Y-88274D01*
X-180358D01*
Y-87418D01*
X-169353D01*
X-169292Y-87564D01*
X-168764Y-88092D01*
X-168074Y-88378D01*
X-167326D01*
X-166636Y-88092D01*
X-166108Y-87564D01*
X-165822Y-86874D01*
Y-86126D01*
X-166108Y-85436D01*
X-166636Y-84908D01*
X-167326Y-84622D01*
X-168074D01*
X-168764Y-84908D01*
X-169292Y-85436D01*
X-169353Y-85582D01*
X-180358D01*
Y-84324D01*
D02*
G37*
G36*
X-356226Y-81322D02*
X-356974D01*
X-357664Y-81608D01*
X-358192Y-82136D01*
X-358478Y-82826D01*
Y-83574D01*
X-358192Y-84264D01*
X-357664Y-84792D01*
X-357518Y-84853D01*
Y-85868D01*
X-359601D01*
Y-89844D01*
X-355399D01*
Y-85868D01*
X-355682D01*
Y-84853D01*
X-355536Y-84792D01*
X-355008Y-84264D01*
X-354722Y-83574D01*
Y-82826D01*
X-355008Y-82136D01*
X-355536Y-81608D01*
X-356226Y-81322D01*
D02*
G37*
G36*
X-323932Y-78053D02*
X-341268D01*
Y-85743D01*
X-332100D01*
X-331912Y-86243D01*
X-331939Y-86283D01*
X-331992Y-86336D01*
X-332021Y-86406D01*
X-332190Y-86659D01*
X-332249Y-86957D01*
X-332278Y-87026D01*
Y-87102D01*
X-332337Y-87400D01*
Y-89600D01*
X-332278Y-89898D01*
Y-89974D01*
X-332249Y-90043D01*
X-332190Y-90341D01*
X-332021Y-90594D01*
X-331992Y-90664D01*
X-331939Y-90717D01*
X-331770Y-90970D01*
X-331517Y-91139D01*
X-331464Y-91192D01*
X-331394Y-91221D01*
X-331141Y-91390D01*
X-330843Y-91449D01*
X-330773Y-91478D01*
X-330698D01*
X-330400Y-91537D01*
X-330102Y-91478D01*
X-330027D01*
X-329957Y-91449D01*
X-329659Y-91390D01*
X-329406Y-91221D01*
X-329336Y-91192D01*
X-329283Y-91139D01*
X-329030Y-90970D01*
X-328861Y-90717D01*
X-328808Y-90664D01*
X-328779Y-90594D01*
X-328610Y-90341D01*
X-328551Y-90043D01*
X-328522Y-89974D01*
Y-89898D01*
X-328463Y-89600D01*
Y-87400D01*
X-328522Y-87102D01*
Y-87026D01*
X-328551Y-86957D01*
X-328610Y-86659D01*
X-328779Y-86406D01*
X-328808Y-86336D01*
X-328861Y-86283D01*
X-328888Y-86243D01*
X-328700Y-85743D01*
X-323932D01*
Y-78053D01*
D02*
G37*
G36*
X-100926Y-88522D02*
X-101674D01*
X-102364Y-88808D01*
X-102892Y-89336D01*
X-103178Y-90026D01*
Y-90774D01*
X-102892Y-91464D01*
X-102364Y-91992D01*
X-101674Y-92278D01*
X-100926D01*
X-100236Y-91992D01*
X-99708Y-91464D01*
X-99422Y-90774D01*
Y-90026D01*
X-99708Y-89336D01*
X-100236Y-88808D01*
X-100926Y-88522D01*
D02*
G37*
G36*
X-41826Y-89222D02*
X-42574D01*
X-43264Y-89508D01*
X-43792Y-90036D01*
X-44078Y-90726D01*
Y-91474D01*
X-43792Y-92164D01*
X-43264Y-92692D01*
X-42574Y-92978D01*
X-41826D01*
X-41136Y-92692D01*
X-40636Y-92192D01*
X-39145D01*
X-39139Y-92201D01*
X-38714Y-92485D01*
X-38212Y-92585D01*
X-33488D01*
X-32986Y-92485D01*
X-32561Y-92201D01*
X-32276Y-91776D01*
X-32177Y-91274D01*
X-32276Y-90772D01*
X-32561Y-90347D01*
X-32986Y-90063D01*
X-33488Y-89963D01*
X-38212D01*
X-38714Y-90063D01*
X-39139Y-90347D01*
X-39145Y-90356D01*
X-40475D01*
X-40608Y-90036D01*
X-41136Y-89508D01*
X-41826Y-89222D01*
D02*
G37*
G36*
X-87078Y-89411D02*
X-91027D01*
Y-93361D01*
X-87078D01*
Y-92192D01*
X-82555D01*
X-82347Y-92692D01*
X-82492Y-92836D01*
X-82778Y-93526D01*
Y-94274D01*
X-82492Y-94964D01*
X-81964Y-95492D01*
X-81274Y-95778D01*
X-80526D01*
X-79836Y-95492D01*
X-79308Y-94964D01*
X-79022Y-94274D01*
Y-93526D01*
X-79308Y-92836D01*
X-79453Y-92692D01*
X-79246Y-92192D01*
X-73646D01*
X-73639Y-92201D01*
X-73214Y-92485D01*
X-72712Y-92585D01*
X-67988D01*
X-67486Y-92485D01*
X-67061Y-92201D01*
X-66777Y-91776D01*
X-66677Y-91274D01*
X-66777Y-90772D01*
X-67061Y-90347D01*
X-67486Y-90063D01*
X-67988Y-89963D01*
X-72712D01*
X-73214Y-90063D01*
X-73639Y-90347D01*
X-73646Y-90356D01*
X-87078D01*
Y-89411D01*
D02*
G37*
G36*
X-355399Y-91800D02*
X-359601D01*
Y-92870D01*
X-360699D01*
Y-91800D01*
X-364901D01*
Y-94478D01*
X-365089Y-94666D01*
X-365288Y-94964D01*
X-365358Y-95315D01*
Y-98182D01*
X-366247D01*
X-366308Y-98036D01*
X-366836Y-97508D01*
X-367527Y-97222D01*
X-368273D01*
X-368964Y-97508D01*
X-369492Y-98036D01*
X-369778Y-98726D01*
Y-99474D01*
X-369492Y-100164D01*
X-368964Y-100692D01*
X-368273Y-100978D01*
X-367527D01*
X-366836Y-100692D01*
X-366308Y-100164D01*
X-366247Y-100018D01*
X-365358D01*
Y-100861D01*
X-365887D01*
Y-105882D01*
X-362993D01*
Y-100861D01*
X-363523D01*
Y-99100D01*
X-363526Y-99085D01*
X-363523Y-99070D01*
Y-95776D01*
X-360699D01*
Y-94706D01*
X-359601D01*
Y-95776D01*
X-355399D01*
Y-91800D01*
D02*
G37*
G36*
X-87247Y-81999D02*
X-91222D01*
Y-85264D01*
X-91236Y-85338D01*
Y-86221D01*
X-94454Y-89439D01*
X-97322D01*
Y-93389D01*
X-93373D01*
Y-90520D01*
X-89931Y-87078D01*
X-89931Y-87078D01*
X-89765Y-86830D01*
X-89707Y-86538D01*
X-89376Y-86201D01*
X-87247D01*
Y-81999D01*
D02*
G37*
G36*
X-7253Y-87308D02*
X-8147D01*
X-9009Y-87539D01*
X-9783Y-87986D01*
X-10414Y-88617D01*
X-10861Y-89391D01*
X-11092Y-90253D01*
Y-91147D01*
X-10861Y-92009D01*
X-10414Y-92783D01*
X-9783Y-93414D01*
X-9009Y-93861D01*
X-8147Y-94092D01*
X-7253D01*
X-6391Y-93861D01*
X-5617Y-93414D01*
X-4986Y-92783D01*
X-4539Y-92009D01*
X-4308Y-91147D01*
Y-90253D01*
X-4539Y-89391D01*
X-4986Y-88617D01*
X-5617Y-87986D01*
X-6391Y-87539D01*
X-7253Y-87308D01*
D02*
G37*
G36*
X-136653Y-87903D02*
X-137547D01*
X-138409Y-88134D01*
X-139183Y-88581D01*
X-139814Y-89213D01*
X-140261Y-89986D01*
X-140492Y-90849D01*
Y-91742D01*
X-140261Y-92605D01*
X-139814Y-93378D01*
X-139183Y-94010D01*
X-138409Y-94456D01*
X-137547Y-94687D01*
X-136653D01*
X-135791Y-94456D01*
X-135017Y-94010D01*
X-134386Y-93378D01*
X-133939Y-92605D01*
X-133708Y-91742D01*
Y-90849D01*
X-133939Y-89986D01*
X-134386Y-89213D01*
X-135017Y-88581D01*
X-135791Y-88134D01*
X-136653Y-87903D01*
D02*
G37*
G36*
X-87126Y-52522D02*
X-87874D01*
X-88564Y-52808D01*
X-89092Y-53336D01*
X-89378Y-54026D01*
Y-54774D01*
X-89092Y-55464D01*
X-88564Y-55992D01*
X-87874Y-56278D01*
X-87126D01*
X-86436Y-55992D01*
X-85908Y-55464D01*
X-85743Y-55065D01*
X-77617D01*
X-67965Y-64717D01*
Y-69000D01*
X-67906Y-69293D01*
X-67741Y-69541D01*
X-65165Y-72117D01*
Y-83783D01*
X-65592Y-84210D01*
X-66952D01*
X-67061Y-84048D01*
X-67486Y-83763D01*
X-67988Y-83664D01*
X-72712D01*
X-73214Y-83763D01*
X-73541Y-83982D01*
X-79520D01*
X-85351Y-78151D01*
X-85649Y-77952D01*
X-86000Y-77882D01*
X-87247D01*
Y-76699D01*
X-91222D01*
Y-80901D01*
X-87247D01*
Y-79718D01*
X-86380D01*
X-80549Y-85549D01*
X-80251Y-85748D01*
X-79900Y-85818D01*
X-73695D01*
X-73639Y-85902D01*
X-73214Y-86186D01*
X-72712Y-86286D01*
X-67988D01*
X-67486Y-86186D01*
X-67061Y-85902D01*
X-66952Y-85739D01*
X-65275D01*
X-64982Y-85681D01*
X-64734Y-85515D01*
X-63859Y-84641D01*
X-63693Y-84393D01*
X-63635Y-84100D01*
Y-71800D01*
X-63693Y-71507D01*
X-63859Y-71259D01*
X-64982Y-70136D01*
X-64664Y-69748D01*
X-64625Y-69773D01*
X-64124Y-69873D01*
X-64113Y-69871D01*
X-61318Y-72666D01*
Y-78347D01*
X-61464Y-78408D01*
X-61992Y-78936D01*
X-62278Y-79626D01*
Y-80374D01*
X-61992Y-81064D01*
X-61464Y-81592D01*
X-60774Y-81878D01*
X-60026D01*
X-59336Y-81592D01*
X-58808Y-81064D01*
X-58522Y-80374D01*
Y-79626D01*
X-58808Y-78936D01*
X-59336Y-78408D01*
X-59482Y-78347D01*
Y-72286D01*
X-59044Y-71926D01*
X-58921Y-71913D01*
X-57818Y-73016D01*
Y-91567D01*
X-58026Y-92022D01*
X-58774D01*
X-59464Y-92308D01*
X-59992Y-92836D01*
X-60278Y-93526D01*
Y-94274D01*
X-59992Y-94964D01*
X-59464Y-95492D01*
X-58774Y-95778D01*
X-58026D01*
X-57336Y-95492D01*
X-56808Y-94964D01*
X-56522Y-94274D01*
Y-93526D01*
X-56583Y-93380D01*
X-56251Y-93049D01*
X-56052Y-92751D01*
X-55982Y-92400D01*
Y-72636D01*
X-56052Y-72285D01*
X-56251Y-71987D01*
X-57883Y-70356D01*
X-57868Y-70234D01*
X-57686Y-69846D01*
X-57323Y-69773D01*
X-56897Y-69489D01*
X-56613Y-69064D01*
X-56513Y-68562D01*
Y-63838D01*
X-56613Y-63336D01*
X-56641Y-63294D01*
X-56736Y-62792D01*
X-56208Y-62264D01*
X-55922Y-61574D01*
Y-60826D01*
X-56208Y-60136D01*
X-56736Y-59608D01*
X-57426Y-59322D01*
X-58174D01*
X-58864Y-59608D01*
X-59392Y-60136D01*
X-59678Y-60826D01*
Y-61574D01*
X-59392Y-62264D01*
X-59082Y-62574D01*
X-58865Y-62795D01*
X-58997Y-63278D01*
X-59036Y-63336D01*
X-59135Y-63838D01*
Y-67839D01*
X-59635Y-68118D01*
X-59663Y-68101D01*
Y-63838D01*
X-59763Y-63336D01*
X-60047Y-62911D01*
X-60472Y-62626D01*
X-60974Y-62527D01*
X-61476Y-62626D01*
X-61901Y-62911D01*
X-62185Y-63336D01*
X-62285Y-63838D01*
Y-67839D01*
X-62785Y-68118D01*
X-62813Y-68101D01*
Y-63838D01*
X-62912Y-63336D01*
X-63196Y-62911D01*
X-63622Y-62626D01*
X-64124Y-62527D01*
X-64625Y-62626D01*
X-65051Y-62911D01*
X-65335Y-63336D01*
X-65435Y-63838D01*
Y-68562D01*
X-65335Y-69064D01*
X-65309Y-69102D01*
X-65698Y-69421D01*
X-66435Y-68683D01*
Y-64400D01*
X-66435Y-64400D01*
X-66493Y-64107D01*
X-66659Y-63859D01*
X-76759Y-53759D01*
X-77007Y-53593D01*
X-77300Y-53535D01*
X-85826D01*
X-85908Y-53336D01*
X-86436Y-52808D01*
X-87126Y-52522D01*
D02*
G37*
G36*
X-237740Y-92198D02*
X-245626D01*
Y-96148D01*
X-237740D01*
Y-92198D01*
D02*
G37*
G36*
X-33488Y-93112D02*
X-38212D01*
X-38714Y-93212D01*
X-39139Y-93497D01*
X-39423Y-93922D01*
X-39523Y-94424D01*
X-39423Y-94925D01*
X-39139Y-95351D01*
X-38714Y-95635D01*
X-38212Y-95735D01*
X-33488D01*
X-32986Y-95635D01*
X-32561Y-95351D01*
X-32547Y-95329D01*
X-26384D01*
X-25758Y-95956D01*
X-25778Y-96004D01*
Y-96751D01*
X-25492Y-97442D01*
X-24964Y-97970D01*
X-24274Y-98256D01*
X-23526D01*
X-22836Y-97970D01*
X-22308Y-97442D01*
X-22022Y-96751D01*
Y-96004D01*
X-22308Y-95314D01*
X-22836Y-94786D01*
X-23526Y-94500D01*
X-24274D01*
X-24517Y-94601D01*
X-25355Y-93763D01*
X-25653Y-93564D01*
X-26004Y-93494D01*
X-32564D01*
X-32986Y-93212D01*
X-33488Y-93112D01*
D02*
G37*
G36*
X-67988D02*
X-72712D01*
X-73214Y-93212D01*
X-73639Y-93497D01*
X-73923Y-93922D01*
X-74023Y-94424D01*
X-73990Y-94592D01*
X-79151Y-99753D01*
X-79845D01*
X-79934Y-99771D01*
X-82895D01*
Y-103720D01*
X-78945D01*
Y-101588D01*
X-78771D01*
X-78420Y-101519D01*
X-78122Y-101320D01*
X-72537Y-95735D01*
X-67988D01*
X-67486Y-95635D01*
X-67061Y-95351D01*
X-66777Y-94925D01*
X-66677Y-94424D01*
X-66777Y-93922D01*
X-67061Y-93497D01*
X-67486Y-93212D01*
X-67988Y-93112D01*
D02*
G37*
G36*
X-92714Y-99286D02*
X-96689D01*
Y-103487D01*
X-92714D01*
Y-102304D01*
X-89190D01*
Y-103748D01*
X-85240D01*
Y-99799D01*
X-89190D01*
Y-100469D01*
X-92714D01*
Y-99286D01*
D02*
G37*
G36*
X-33488Y-77364D02*
X-38212D01*
X-38714Y-77464D01*
X-39139Y-77749D01*
X-39423Y-78174D01*
X-39523Y-78676D01*
X-39423Y-79177D01*
X-39139Y-79603D01*
X-38714Y-79887D01*
X-38212Y-79987D01*
X-33488D01*
X-32986Y-79887D01*
X-32561Y-79603D01*
X-32555Y-79593D01*
X-30105D01*
X-11092Y-98606D01*
Y-104092D01*
X-4308D01*
Y-97308D01*
X-9794D01*
X-29076Y-78027D01*
X-29373Y-77828D01*
X-29724Y-77758D01*
X-32555D01*
X-32561Y-77749D01*
X-32986Y-77464D01*
X-33488Y-77364D01*
D02*
G37*
G36*
X-136653Y-97903D02*
X-137547D01*
X-138409Y-98134D01*
X-139183Y-98581D01*
X-139814Y-99212D01*
X-140261Y-99986D01*
X-140492Y-100849D01*
Y-101742D01*
X-140261Y-102605D01*
X-139814Y-103378D01*
X-139183Y-104010D01*
X-138409Y-104456D01*
X-137547Y-104687D01*
X-136653D01*
X-135791Y-104456D01*
X-135017Y-104010D01*
X-134386Y-103378D01*
X-133939Y-102605D01*
X-133708Y-101742D01*
Y-100849D01*
X-133939Y-99986D01*
X-134386Y-99212D01*
X-135017Y-98581D01*
X-135791Y-98134D01*
X-136653Y-97903D01*
D02*
G37*
G36*
X-351127Y-95322D02*
X-351873D01*
X-352564Y-95608D01*
X-353092Y-96136D01*
X-353294Y-96624D01*
X-357531Y-100861D01*
X-358407D01*
Y-105882D01*
X-355513D01*
Y-102880D01*
X-351710Y-99078D01*
X-351127D01*
X-350436Y-98792D01*
X-349908Y-98264D01*
X-349622Y-97574D01*
Y-96826D01*
X-349908Y-96136D01*
X-350436Y-95608D01*
X-351127Y-95322D01*
D02*
G37*
G36*
X-92816Y-105664D02*
X-96791D01*
Y-109865D01*
X-92816D01*
Y-108682D01*
X-89292D01*
Y-109653D01*
X-85342D01*
Y-105704D01*
X-89292D01*
Y-106847D01*
X-92816D01*
Y-105664D01*
D02*
G37*
G36*
X-67988Y-86813D02*
X-72712D01*
X-73214Y-86913D01*
X-73639Y-87197D01*
X-73923Y-87623D01*
X-74023Y-88124D01*
X-73923Y-88626D01*
X-73639Y-89051D01*
X-73214Y-89336D01*
X-72712Y-89435D01*
X-67988D01*
X-67486Y-89336D01*
X-67061Y-89051D01*
X-67054Y-89042D01*
X-66056D01*
X-65918Y-89180D01*
Y-94920D01*
X-71930Y-100933D01*
X-72076Y-100872D01*
X-72824D01*
X-73514Y-101158D01*
X-74042Y-101686D01*
X-74328Y-102376D01*
Y-103124D01*
X-74267Y-103270D01*
X-77731Y-106733D01*
X-79047D01*
Y-105676D01*
X-82997D01*
Y-109626D01*
X-79047D01*
Y-108568D01*
X-77351D01*
X-77000Y-108499D01*
X-76702Y-108300D01*
X-72970Y-104567D01*
X-72824Y-104628D01*
X-72076D01*
X-71386Y-104342D01*
X-70858Y-103814D01*
X-70572Y-103124D01*
Y-102376D01*
X-70633Y-102230D01*
X-65529Y-97127D01*
X-65141Y-97445D01*
X-65229Y-97577D01*
X-65335Y-97736D01*
X-65435Y-98238D01*
Y-102962D01*
X-65335Y-103464D01*
X-65051Y-103889D01*
X-65029Y-103903D01*
Y-104952D01*
X-65164Y-105008D01*
X-65692Y-105536D01*
X-65978Y-106226D01*
Y-106974D01*
X-65692Y-107664D01*
X-65164Y-108192D01*
X-64474Y-108478D01*
X-63726D01*
X-63036Y-108192D01*
X-62508Y-107664D01*
X-62392Y-107383D01*
X-61892Y-107482D01*
Y-109894D01*
X-63345Y-111347D01*
X-70155D01*
X-71083Y-110420D01*
X-71022Y-110274D01*
Y-109526D01*
X-71308Y-108836D01*
X-71836Y-108308D01*
X-72526Y-108022D01*
X-73274D01*
X-73964Y-108308D01*
X-74492Y-108836D01*
X-74778Y-109526D01*
Y-110274D01*
X-74492Y-110964D01*
X-73964Y-111492D01*
X-73274Y-111778D01*
X-72526D01*
X-72380Y-111717D01*
X-71184Y-112914D01*
X-70886Y-113113D01*
X-70535Y-113183D01*
X-62965D01*
X-62614Y-113113D01*
X-62316Y-112914D01*
X-60325Y-110923D01*
X-60126Y-110625D01*
X-60056Y-110274D01*
Y-103895D01*
X-60047Y-103889D01*
X-59763Y-103464D01*
X-59663Y-102962D01*
Y-98238D01*
X-59763Y-97736D01*
X-60047Y-97311D01*
X-60472Y-97026D01*
X-60974Y-96927D01*
X-61476Y-97026D01*
X-61901Y-97311D01*
X-62185Y-97736D01*
X-62285Y-98238D01*
Y-102962D01*
X-62185Y-103464D01*
X-61901Y-103889D01*
X-61892Y-103895D01*
Y-105718D01*
X-62392Y-105817D01*
X-62508Y-105536D01*
X-63036Y-105008D01*
X-63194Y-104943D01*
Y-103886D01*
X-62912Y-103464D01*
X-62813Y-102962D01*
Y-98238D01*
X-62912Y-97736D01*
X-63196Y-97311D01*
X-63622Y-97026D01*
X-64124Y-96927D01*
X-64625Y-97026D01*
X-64916Y-97221D01*
X-65235Y-96832D01*
X-64351Y-95949D01*
X-64152Y-95651D01*
X-64082Y-95300D01*
Y-88800D01*
X-64152Y-88449D01*
X-64351Y-88151D01*
X-65027Y-87476D01*
X-65324Y-87277D01*
X-65676Y-87207D01*
X-67054D01*
X-67061Y-87197D01*
X-67486Y-86913D01*
X-67988Y-86813D01*
D02*
G37*
G36*
X-345000Y-110569D02*
X-345697Y-110708D01*
X-349900D01*
X-350739Y-110875D01*
X-351450Y-111350D01*
X-351925Y-112061D01*
X-352092Y-112900D01*
X-351925Y-113739D01*
X-351450Y-114450D01*
X-350739Y-114925D01*
X-349900Y-115092D01*
X-345651D01*
X-345296Y-115330D01*
X-344457Y-115496D01*
X-340815D01*
Y-115891D01*
X-336866D01*
Y-114437D01*
X-336815Y-114362D01*
X-336648Y-113523D01*
Y-113479D01*
X-336815Y-112641D01*
X-336866Y-112565D01*
Y-111154D01*
X-338804D01*
X-339016Y-111112D01*
X-342899D01*
Y-110774D01*
X-344105D01*
X-344161Y-110736D01*
X-345000Y-110569D01*
D02*
G37*
G36*
X-113250Y-115350D02*
X-120350D01*
Y-122450D01*
X-113250D01*
Y-115350D01*
D02*
G37*
G36*
X-126333D02*
X-127267D01*
X-128170Y-115592D01*
X-128980Y-116060D01*
X-129640Y-116720D01*
X-130108Y-117530D01*
X-130350Y-118433D01*
Y-119367D01*
X-130108Y-120270D01*
X-129640Y-121080D01*
X-128980Y-121740D01*
X-128170Y-122208D01*
X-127267Y-122450D01*
X-126333D01*
X-125430Y-122208D01*
X-124620Y-121740D01*
X-123960Y-121080D01*
X-123492Y-120270D01*
X-123250Y-119367D01*
Y-118433D01*
X-123492Y-117530D01*
X-123960Y-116720D01*
X-124620Y-116060D01*
X-125430Y-115592D01*
X-126333Y-115350D01*
D02*
G37*
G36*
X-136333D02*
X-137267D01*
X-138170Y-115592D01*
X-138979Y-116060D01*
X-139640Y-116720D01*
X-140108Y-117530D01*
X-140350Y-118433D01*
Y-119367D01*
X-140108Y-120270D01*
X-139640Y-121080D01*
X-138979Y-121740D01*
X-138170Y-122208D01*
X-137267Y-122450D01*
X-136333D01*
X-135430Y-122208D01*
X-134620Y-121740D01*
X-133960Y-121080D01*
X-133492Y-120270D01*
X-133250Y-119367D01*
Y-118433D01*
X-133492Y-117530D01*
X-133960Y-116720D01*
X-134620Y-116060D01*
X-135430Y-115592D01*
X-136333Y-115350D01*
D02*
G37*
G36*
X-45226Y-96927D02*
X-45728Y-97026D01*
X-46153Y-97311D01*
X-46437Y-97736D01*
X-46537Y-98238D01*
Y-102962D01*
X-46437Y-103464D01*
X-46291Y-103682D01*
Y-106993D01*
X-64524Y-125226D01*
X-65024Y-125019D01*
Y-123341D01*
X-87477D01*
Y-126438D01*
X-90928D01*
Y-125381D01*
X-95272D01*
Y-129331D01*
X-90928D01*
Y-128274D01*
X-87477D01*
Y-129259D01*
X-65024D01*
Y-127327D01*
X-64410D01*
X-64058Y-127257D01*
X-63761Y-127058D01*
X-44725Y-108022D01*
X-44526Y-107725D01*
X-44456Y-107374D01*
Y-103994D01*
X-44299Y-103889D01*
X-44015Y-103464D01*
X-43915Y-102962D01*
Y-98238D01*
X-44015Y-97736D01*
X-44299Y-97311D01*
X-44724Y-97026D01*
X-45226Y-96927D01*
D02*
G37*
G36*
X-42076D02*
X-42578Y-97026D01*
X-43003Y-97311D01*
X-43288Y-97736D01*
X-43387Y-98238D01*
Y-102962D01*
X-43288Y-103464D01*
X-43003Y-103889D01*
X-42994Y-103895D01*
Y-123341D01*
X-51627D01*
Y-129259D01*
X-29173D01*
Y-124964D01*
X-29125Y-124892D01*
X-29056Y-124541D01*
Y-118552D01*
X-27461Y-116957D01*
X-27411Y-116882D01*
X-25317Y-114788D01*
X-28388Y-111717D01*
X-31181Y-114510D01*
X-29395Y-116296D01*
X-30622Y-117523D01*
X-30821Y-117821D01*
X-30891Y-118172D01*
Y-123341D01*
X-41159D01*
Y-103895D01*
X-41149Y-103889D01*
X-40865Y-103464D01*
X-40765Y-102962D01*
Y-98238D01*
X-40865Y-97736D01*
X-41149Y-97311D01*
X-41575Y-97026D01*
X-42076Y-96927D01*
D02*
G37*
G36*
X-317226Y-125595D02*
X-318122D01*
X-318986Y-125827D01*
X-319762Y-126275D01*
X-320395Y-126908D01*
X-320842Y-127683D01*
X-321074Y-128548D01*
Y-129443D01*
X-320842Y-130308D01*
X-320395Y-131083D01*
X-319762Y-131716D01*
X-318986Y-132164D01*
X-318122Y-132395D01*
X-317226D01*
X-316362Y-132164D01*
X-315586Y-131716D01*
X-314953Y-131083D01*
X-314506Y-130308D01*
X-314274Y-129443D01*
Y-128548D01*
X-314506Y-127683D01*
X-314953Y-126908D01*
X-315586Y-126275D01*
X-316362Y-125827D01*
X-317226Y-125595D01*
D02*
G37*
G36*
X-325100D02*
X-325996D01*
X-326860Y-125827D01*
X-327636Y-126275D01*
X-328269Y-126908D01*
X-328716Y-127683D01*
X-328948Y-128548D01*
Y-129443D01*
X-328716Y-130308D01*
X-328269Y-131083D01*
X-327636Y-131716D01*
X-326860Y-132164D01*
X-325996Y-132395D01*
X-325100D01*
X-324236Y-132164D01*
X-323460Y-131716D01*
X-322827Y-131083D01*
X-322380Y-130308D01*
X-322148Y-129443D01*
Y-128548D01*
X-322380Y-127683D01*
X-322827Y-126908D01*
X-323460Y-126275D01*
X-324236Y-125827D01*
X-325100Y-125595D01*
D02*
G37*
G36*
X-126333Y-125350D02*
X-127267D01*
X-128170Y-125592D01*
X-128980Y-126060D01*
X-129640Y-126720D01*
X-130108Y-127530D01*
X-130350Y-128433D01*
Y-129367D01*
X-130108Y-130270D01*
X-129640Y-131079D01*
X-128980Y-131740D01*
X-128170Y-132208D01*
X-127267Y-132450D01*
X-126333D01*
X-125430Y-132208D01*
X-124620Y-131740D01*
X-123960Y-131079D01*
X-123492Y-130270D01*
X-123250Y-129367D01*
Y-128433D01*
X-123492Y-127530D01*
X-123960Y-126720D01*
X-124620Y-126060D01*
X-125430Y-125592D01*
X-126333Y-125350D01*
D02*
G37*
G36*
X-197238Y-99083D02*
X-212998D01*
Y-106970D01*
X-211941D01*
Y-110576D01*
X-211871Y-110927D01*
X-211672Y-111225D01*
X-203990Y-118908D01*
X-203692Y-119107D01*
X-203341Y-119177D01*
X-196416D01*
X-188158Y-127435D01*
X-188361Y-127786D01*
X-188592Y-128649D01*
Y-129542D01*
X-188361Y-130405D01*
X-187914Y-131178D01*
X-187283Y-131810D01*
X-186509Y-132256D01*
X-185647Y-132487D01*
X-184753D01*
X-183891Y-132256D01*
X-183117Y-131810D01*
X-182486Y-131178D01*
X-182039Y-130405D01*
X-181808Y-129542D01*
Y-128649D01*
X-182039Y-127786D01*
X-182486Y-127013D01*
X-183117Y-126381D01*
X-183891Y-125934D01*
X-184753Y-125703D01*
X-185647D01*
X-186509Y-125934D01*
X-186861Y-126137D01*
X-195387Y-117610D01*
X-195685Y-117411D01*
X-196036Y-117341D01*
X-202961D01*
X-210106Y-110196D01*
Y-106970D01*
X-208004D01*
Y-108313D01*
X-207934Y-108665D01*
X-207735Y-108962D01*
X-201049Y-115649D01*
X-200751Y-115848D01*
X-200400Y-115918D01*
X-189675D01*
X-178158Y-127435D01*
X-178361Y-127786D01*
X-178592Y-128649D01*
Y-129542D01*
X-178361Y-130405D01*
X-177914Y-131178D01*
X-177283Y-131810D01*
X-176509Y-132256D01*
X-175647Y-132487D01*
X-174753D01*
X-173891Y-132256D01*
X-173117Y-131810D01*
X-172486Y-131178D01*
X-172039Y-130405D01*
X-171808Y-129542D01*
Y-128649D01*
X-172039Y-127786D01*
X-172486Y-127013D01*
X-173117Y-126381D01*
X-173891Y-125934D01*
X-174753Y-125703D01*
X-175647D01*
X-176509Y-125934D01*
X-176860Y-126137D01*
X-188646Y-114351D01*
X-188944Y-114152D01*
X-189295Y-114082D01*
X-200020D01*
X-206169Y-107933D01*
Y-106970D01*
X-203434D01*
Y-107484D01*
X-203364Y-107835D01*
X-203165Y-108133D01*
X-199949Y-111349D01*
X-199651Y-111548D01*
X-199300Y-111618D01*
X-183975D01*
X-168158Y-127435D01*
X-168361Y-127786D01*
X-168592Y-128649D01*
Y-129542D01*
X-168361Y-130405D01*
X-167914Y-131178D01*
X-167283Y-131810D01*
X-166509Y-132256D01*
X-165647Y-132487D01*
X-164753D01*
X-163891Y-132256D01*
X-163117Y-131810D01*
X-162486Y-131178D01*
X-162039Y-130405D01*
X-161808Y-129542D01*
Y-128649D01*
X-162039Y-127786D01*
X-162486Y-127013D01*
X-163117Y-126381D01*
X-163891Y-125934D01*
X-164753Y-125703D01*
X-165647D01*
X-166509Y-125934D01*
X-166860Y-126137D01*
X-182946Y-110051D01*
X-183244Y-109852D01*
X-183595Y-109782D01*
X-198920D01*
X-201233Y-107470D01*
X-201026Y-106970D01*
X-197238D01*
Y-103944D01*
X-181649D01*
X-158158Y-127435D01*
X-158361Y-127786D01*
X-158592Y-128649D01*
Y-129542D01*
X-158361Y-130405D01*
X-157914Y-131178D01*
X-157283Y-131810D01*
X-156509Y-132256D01*
X-155647Y-132487D01*
X-154753D01*
X-153891Y-132256D01*
X-153117Y-131810D01*
X-152486Y-131178D01*
X-152039Y-130405D01*
X-151808Y-129542D01*
Y-128649D01*
X-152039Y-127786D01*
X-152486Y-127013D01*
X-153117Y-126381D01*
X-153891Y-125934D01*
X-154753Y-125703D01*
X-155647D01*
X-156509Y-125934D01*
X-156860Y-126137D01*
X-180620Y-102377D01*
X-180918Y-102179D01*
X-181269Y-102109D01*
X-197238D01*
Y-99083D01*
D02*
G37*
G36*
X-194753Y-125703D02*
X-195647D01*
X-196509Y-125934D01*
X-197283Y-126381D01*
X-197914Y-127013D01*
X-198361Y-127786D01*
X-198592Y-128649D01*
Y-129542D01*
X-198361Y-130405D01*
X-197914Y-131178D01*
X-197283Y-131810D01*
X-196509Y-132256D01*
X-195647Y-132487D01*
X-194753D01*
X-193891Y-132256D01*
X-193117Y-131810D01*
X-192486Y-131178D01*
X-192039Y-130405D01*
X-191808Y-129542D01*
Y-128649D01*
X-192039Y-127786D01*
X-192486Y-127013D01*
X-193117Y-126381D01*
X-193891Y-125934D01*
X-194753Y-125703D01*
D02*
G37*
G36*
X-204753D02*
X-205647D01*
X-206509Y-125934D01*
X-207283Y-126381D01*
X-207914Y-127013D01*
X-208361Y-127786D01*
X-208592Y-128649D01*
Y-129542D01*
X-208361Y-130405D01*
X-207914Y-131178D01*
X-207283Y-131810D01*
X-206509Y-132256D01*
X-205647Y-132487D01*
X-204753D01*
X-203891Y-132256D01*
X-203117Y-131810D01*
X-202486Y-131178D01*
X-202039Y-130405D01*
X-201808Y-129542D01*
Y-128649D01*
X-202039Y-127786D01*
X-202486Y-127013D01*
X-203117Y-126381D01*
X-203891Y-125934D01*
X-204753Y-125703D01*
D02*
G37*
G36*
X-214753D02*
X-215647D01*
X-216509Y-125934D01*
X-217283Y-126381D01*
X-217914Y-127013D01*
X-218361Y-127786D01*
X-218592Y-128649D01*
Y-129542D01*
X-218361Y-130405D01*
X-217914Y-131178D01*
X-217283Y-131810D01*
X-216509Y-132256D01*
X-215647Y-132487D01*
X-214753D01*
X-213891Y-132256D01*
X-213117Y-131810D01*
X-212486Y-131178D01*
X-212039Y-130405D01*
X-211808Y-129542D01*
Y-128649D01*
X-212039Y-127786D01*
X-212486Y-127013D01*
X-213117Y-126381D01*
X-213891Y-125934D01*
X-214753Y-125703D01*
D02*
G37*
G36*
X-224753D02*
X-225647D01*
X-226509Y-125934D01*
X-227283Y-126381D01*
X-227914Y-127013D01*
X-228361Y-127786D01*
X-228592Y-128649D01*
Y-129542D01*
X-228361Y-130405D01*
X-227914Y-131178D01*
X-227283Y-131810D01*
X-226509Y-132256D01*
X-225647Y-132487D01*
X-224753D01*
X-223891Y-132256D01*
X-223117Y-131810D01*
X-222486Y-131178D01*
X-222039Y-130405D01*
X-221808Y-129542D01*
Y-128649D01*
X-222039Y-127786D01*
X-222486Y-127013D01*
X-223117Y-126381D01*
X-223891Y-125934D01*
X-224753Y-125703D01*
D02*
G37*
G36*
X-234753D02*
X-235647D01*
X-236509Y-125934D01*
X-237283Y-126381D01*
X-237914Y-127013D01*
X-238361Y-127786D01*
X-238592Y-128649D01*
Y-129542D01*
X-238361Y-130405D01*
X-237914Y-131178D01*
X-237283Y-131810D01*
X-236509Y-132256D01*
X-235647Y-132487D01*
X-234753D01*
X-233891Y-132256D01*
X-233117Y-131810D01*
X-232486Y-131178D01*
X-232039Y-130405D01*
X-231808Y-129542D01*
Y-128649D01*
X-232039Y-127786D01*
X-232486Y-127013D01*
X-233117Y-126381D01*
X-233891Y-125934D01*
X-234753Y-125703D01*
D02*
G37*
G36*
X-241808D02*
X-248592D01*
Y-132487D01*
X-241808D01*
Y-125703D01*
D02*
G37*
G36*
X-11811Y-118750D02*
X-13222Y-118889D01*
X-14579Y-119301D01*
X-15830Y-119969D01*
X-16926Y-120869D01*
X-17826Y-121965D01*
X-18494Y-123216D01*
X-18906Y-124573D01*
X-19045Y-125984D01*
X-18906Y-127396D01*
X-18494Y-128753D01*
X-17826Y-130003D01*
X-16926Y-131099D01*
X-15830Y-131999D01*
X-14579Y-132668D01*
X-13222Y-133079D01*
X-11811Y-133218D01*
X-10400Y-133079D01*
X-9043Y-132668D01*
X-7792Y-131999D01*
X-6696Y-131099D01*
X-5796Y-130003D01*
X-5128Y-128753D01*
X-4716Y-127396D01*
X-4577Y-125984D01*
X-4716Y-124573D01*
X-5128Y-123216D01*
X-5796Y-121965D01*
X-6696Y-120869D01*
X-7792Y-119969D01*
X-9043Y-119301D01*
X-10400Y-118889D01*
X-11811Y-118750D01*
D02*
G37*
G36*
X-381889D02*
X-383300Y-118889D01*
X-384657Y-119301D01*
X-385908Y-119969D01*
X-387004Y-120869D01*
X-387904Y-121965D01*
X-388572Y-123216D01*
X-388984Y-124573D01*
X-389123Y-125984D01*
X-388984Y-127396D01*
X-388572Y-128753D01*
X-387904Y-130003D01*
X-387004Y-131099D01*
X-385908Y-131999D01*
X-384657Y-132668D01*
X-383300Y-133079D01*
X-381889Y-133218D01*
X-380478Y-133079D01*
X-379121Y-132668D01*
X-377870Y-131999D01*
X-376774Y-131099D01*
X-375874Y-130003D01*
X-375206Y-128753D01*
X-374794Y-127396D01*
X-374655Y-125984D01*
X-374794Y-124573D01*
X-375206Y-123216D01*
X-375874Y-121965D01*
X-376774Y-120869D01*
X-377870Y-119969D01*
X-379121Y-119301D01*
X-380478Y-118889D01*
X-381889Y-118750D01*
D02*
G37*
G36*
X-301336Y-124237D02*
X-302160Y-124346D01*
X-302927Y-124664D01*
X-303587Y-125170D01*
X-304093Y-125829D01*
X-304411Y-126597D01*
X-304519Y-127420D01*
Y-130570D01*
X-304411Y-131394D01*
X-304093Y-132162D01*
X-303587Y-132821D01*
X-302927Y-133327D01*
X-302160Y-133645D01*
X-301336Y-133753D01*
X-300512Y-133645D01*
X-299744Y-133327D01*
X-299085Y-132821D01*
X-298579Y-132162D01*
X-298261Y-131394D01*
X-298153Y-130570D01*
Y-127420D01*
X-298261Y-126597D01*
X-298579Y-125829D01*
X-299085Y-125170D01*
X-299744Y-124664D01*
X-300512Y-124346D01*
X-301336Y-124237D01*
D02*
G37*
%LPD*%
G36*
X-355200Y-14900D02*
X-370100D01*
Y-12600D01*
X-355200D01*
Y-14900D01*
D02*
G37*
G36*
X-266396Y-115417D02*
X-266987Y-115662D01*
X-267651Y-116326D01*
X-268011Y-117194D01*
Y-118134D01*
X-267700Y-118884D01*
X-267700Y-119600D01*
X-286400D01*
Y-118998D01*
X-286042Y-118134D01*
Y-117194D01*
X-286402Y-116326D01*
X-287066Y-115662D01*
X-287657Y-115417D01*
Y-111286D01*
X-285295D01*
Y-116359D01*
X-280744D01*
Y-116420D01*
X-280750D01*
X-280670Y-116822D01*
X-280442Y-117163D01*
X-280102Y-117390D01*
X-279700Y-117470D01*
Y-117465D01*
X-276400D01*
Y-117471D01*
X-275990Y-117389D01*
X-275643Y-117157D01*
X-275411Y-116810D01*
X-275329Y-116400D01*
X-275335D01*
Y-116359D01*
X-268759D01*
Y-111286D01*
X-266396D01*
Y-115417D01*
D02*
G37*
G36*
X-362480Y-73874D02*
X-361974Y-74380D01*
X-361700Y-75042D01*
Y-75400D01*
Y-76800D01*
Y-77178D01*
X-361989Y-77876D01*
X-362524Y-78411D01*
X-363222Y-78700D01*
X-367680D01*
X-367827Y-78639D01*
X-367939Y-78527D01*
X-368000Y-78380D01*
Y-78300D01*
X-368100Y-73600D01*
X-363142D01*
X-362480Y-73874D01*
D02*
G37*
D10*
X-362203Y-32610D02*
G03*
X-361303Y-33510I900J0D01*
G01*
X-355803Y-34510D02*
G03*
X-356803Y-33510I-1000J0D01*
G01*
X-274119Y-110200D02*
G03*
X-274019Y-110100I0J100D01*
G01*
X-277600Y-110200D02*
G03*
X-278011Y-110611I0J-411D01*
G01*
X-276400Y-116700D02*
G03*
X-276100Y-116400I0J300D01*
G01*
X-279980Y-116420D02*
G03*
X-279700Y-116700I280J0D01*
G01*
X-279144Y-101029D02*
G03*
X-279980Y-101865I0J-836D01*
G01*
X-87500Y-54400D02*
X-87400Y-54300D01*
X-77300D01*
X-369000Y-34890D02*
Y-25400D01*
Y-34890D02*
X-368590Y-35300D01*
X-369300Y-25700D02*
X-369000Y-25400D01*
X-375894Y-25700D02*
X-369300D01*
X-369000Y-25400D02*
Y-23200D01*
X-368590Y-35300D02*
X-359600D01*
X-358703Y-36197D01*
X-362203Y-32610D02*
Y-29903D01*
X-361303Y-33510D02*
X-356803D01*
X-358703Y-38704D02*
Y-36197D01*
Y-38704D02*
X-358460Y-38947D01*
X-355803Y-47144D02*
Y-34510D01*
X-359200Y-50434D02*
X-357899Y-49246D01*
X-355803Y-47144D01*
X-100800Y-97900D02*
Y-97400D01*
Y-97900D02*
X-100634Y-98066D01*
Y-101386D02*
Y-98066D01*
X-205800Y-50446D02*
Y-50300D01*
X-207154Y-51800D02*
X-205800Y-50446D01*
X-240749Y-51800D02*
X-207154D01*
X-241683Y-50866D02*
X-240749Y-51800D01*
X-66500Y-58500D02*
X-64300D01*
X-55700Y-57400D02*
X-54675Y-58425D01*
X-64300Y-58500D02*
X-63200Y-57400D01*
X-55700D01*
X-54675Y-66200D02*
Y-58425D01*
X-90472Y-86538D02*
Y-85338D01*
X-89234Y-84100D01*
X-95348Y-91414D02*
X-90472Y-86538D01*
X-67200Y-69000D02*
Y-64400D01*
X-77300Y-54300D02*
X-67200Y-64400D01*
X-91700Y-67300D02*
X-89234Y-69766D01*
Y-73495D02*
Y-69766D01*
X-67200Y-69000D02*
X-64400Y-71800D01*
Y-84100D02*
Y-71800D01*
X-70350Y-84975D02*
X-65275D01*
X-64400Y-84100D01*
X-199213Y-43431D02*
Y-41462D01*
X-197988Y-40237D01*
X-196437D01*
X-194100Y-37900D01*
X-302000Y-50300D02*
X-301741D01*
X-296597Y-55444D01*
X-296400D01*
X-281948Y-113451D02*
Y-104352D01*
X-286821Y-101441D02*
X-284859D01*
X-287200Y-101061D02*
X-286821Y-101441D01*
X-284859D02*
X-281948Y-104352D01*
X-274019Y-110100D02*
Y-101029D01*
Y-113451D02*
Y-110100D01*
X-277600Y-110200D02*
X-274119D01*
X-278011Y-113451D02*
Y-110611D01*
X-276100Y-116400D02*
Y-113451D01*
X-279700Y-116700D02*
X-276400D01*
X-279980Y-113451D02*
Y-101865D01*
Y-116420D02*
Y-113451D01*
X-276100D02*
X-276043D01*
X-274074D02*
X-274019D01*
D11*
X-251300Y-19300D02*
G03*
X-251200Y-19200I0J100D01*
G01*
X-251400Y-14400D02*
G03*
X-251200Y-14200I0J200D01*
G01*
X-260400Y-13400D02*
G03*
X-259400Y-14400I1000J0D01*
G01*
X-241683Y-78425D02*
G03*
X-241408Y-78700I275J0D01*
G01*
X-241683Y-74488D02*
G03*
X-241471Y-74700I212J0D01*
G01*
X-251434Y-24434D02*
G03*
X-251200Y-24200I0J234D01*
G01*
X-293000Y-76056D02*
G03*
X-293100Y-75956I-100J0D01*
G01*
X-294498Y-101698D02*
G03*
X-293000Y-100200I0J1498D01*
G01*
X-279144Y-95097D02*
G03*
X-278600Y-94553I0J544D01*
G01*
X-277800Y-90300D02*
G03*
X-278600Y-91100I0J-800D01*
G01*
X-275000Y-90300D02*
G03*
X-274000Y-89300I0J1000D01*
G01*
X-267080Y-50980D02*
G03*
X-274000Y-57900I0J-6920D01*
G01*
X-269580Y-55980D02*
G03*
X-271500Y-57900I0J-1920D01*
G01*
X-266700Y-108000D02*
G03*
X-266000Y-107300I0J700D01*
G01*
X-269400Y-108000D02*
G03*
X-270137Y-108737I0J-737D01*
G01*
X-274234Y-30500D02*
G03*
X-274100Y-30366I0J134D01*
G01*
Y-24434D02*
G03*
X-274334Y-24200I-234J0D01*
G01*
X-260400Y-12400D02*
G03*
X-261361Y-11439I-961J0D01*
G01*
X-274328Y-17371D02*
G03*
X-274399Y-17300I-71J0D01*
G01*
X-283000D02*
G03*
X-283900Y-18200I0J-900D01*
G01*
X-284900Y-19200D02*
G03*
X-283900Y-18200I0J1000D01*
G01*
X-262300Y-18300D02*
G03*
X-261300Y-19300I1000J0D01*
G01*
X-262300Y-18300D02*
G03*
X-263229Y-17371I-929J0D01*
G01*
X-281500Y-11500D02*
G03*
X-282900Y-12900I0J-1400D01*
G01*
X-284200Y-14200D02*
G03*
X-282900Y-12900I0J1300D01*
G01*
X-301500Y-16400D02*
G03*
X-298700Y-19200I2800J0D01*
G01*
X-301500Y-16400D02*
G03*
X-303573Y-14327I-2073J0D01*
G01*
X-328200Y-14238D02*
G03*
X-328538Y-13900I-338J0D01*
G01*
X-377800Y-57700D02*
G03*
X-376900Y-56800I0J900D01*
G01*
X-357285Y-9960D02*
G03*
X-360445Y-6800I-3160J0D01*
G01*
X-367915Y-17440D02*
G03*
X-368300Y-17824I0J-385D01*
G01*
X-358460Y-29900D02*
G03*
X-357285Y-28725I0J1175D01*
G01*
X-346804Y-129477D02*
G03*
X-346801Y-129471I-878J478D01*
G01*
X-349309Y-130900D02*
G03*
X-351530Y-132236I9J-2529D01*
G01*
X-349292Y-130900D02*
G03*
X-349309Y-130900I-18J-1000D01*
G01*
X-349292Y-130900D02*
G03*
X-346807Y-129482I63J2777D01*
G01*
X-346785Y-129440D02*
G03*
X-346589Y-128999I-2852J1529D01*
G01*
X-366254Y-128622D02*
G03*
X-363233Y-130754I3022J1075D01*
G01*
X-361158Y-131901D02*
G03*
X-362965Y-130754I-1816J-864D01*
G01*
X-360928Y-132556D02*
G03*
X-361158Y-131901I-3309J-794D01*
G01*
X-381954Y-79854D02*
G03*
X-381900Y-79380I-2051J475D01*
G01*
X-368300Y-20900D02*
Y-17824D01*
X-111250Y-53400D02*
Y-48500D01*
Y-62350D02*
Y-53400D01*
X-111236Y-53414D02*
X-103600D01*
X-111250Y-53400D02*
X-111236Y-53414D01*
X-111250Y-48500D02*
X-108465D01*
X-96100Y-67261D02*
Y-47900D01*
X-184301Y-50866D02*
X-182333D01*
X-92400Y-52700D02*
X-92200Y-52500D01*
X-92400Y-56200D02*
Y-52700D01*
Y-56200D02*
X-89234Y-59366D01*
Y-62200D02*
Y-59366D01*
X-328200Y-23900D02*
Y-14238D01*
X-244200Y-40900D02*
X-239700D01*
X-231200Y-49400D01*
X-298400Y-101698D02*
X-294498D01*
X-382581Y-53395D02*
X-382236Y-53050D01*
X-389200Y-53400D02*
X-385487D01*
X-382236Y-53050D02*
X-381900D01*
X-385483Y-53395D02*
X-382581D01*
X-385487Y-53400D02*
X-385483Y-53395D01*
X-80938Y-93862D02*
Y-91274D01*
Y-93862D02*
X-80900Y-93900D01*
X-364440Y-99070D02*
Y-95315D01*
X-362913Y-93788D02*
X-357500D01*
X-364440Y-95315D02*
X-362913Y-93788D01*
X-364470Y-99100D02*
X-364440Y-99070D01*
Y-103372D02*
Y-99100D01*
X-367900D02*
X-364470D01*
X-365940Y-25200D02*
X-362640Y-21900D01*
X-362500D01*
X-365940Y-29900D02*
Y-25200D01*
X-384622Y-59600D02*
X-382722Y-57700D01*
X-389100Y-59600D02*
X-384622D01*
X-373339Y-115253D02*
Y-110306D01*
X-362027Y-126625D02*
X-360939Y-127712D01*
X-360826D01*
X-362027Y-126625D02*
Y-126566D01*
X-373339Y-115253D02*
X-362027Y-126566D01*
X-357500Y-87856D02*
X-356600Y-86956D01*
Y-83200D01*
X-280480Y-31086D02*
X-279894Y-30500D01*
X-293100Y-75956D02*
X-286565D01*
X-279894Y-30500D02*
X-274234D01*
X-286565Y-75980D02*
X-281066D01*
X-280480Y-75394D01*
Y-31086D01*
X-211610Y-49400D02*
X-211024Y-48814D01*
Y-43431D01*
X-231200Y-49400D02*
X-211610D01*
X-241683Y-54803D02*
X-203903D01*
X-199400Y-50300D01*
X-184301Y-54803D02*
X-178697D01*
X-178600Y-54900D01*
X-183025Y-50866D02*
X-182333D01*
X-184100Y-49791D02*
X-183025Y-50866D01*
X-184100Y-49791D02*
Y-45600D01*
X-45374Y-107374D02*
Y-100748D01*
X-75960Y-126409D02*
X-64410D01*
X-45374Y-107374D01*
X-76906Y-127356D02*
X-75960Y-126409D01*
X-62099Y-52545D02*
X-53955D01*
X-51525Y-66200D02*
Y-54975D01*
X-53955Y-52545D02*
X-51525Y-54975D01*
X-62244Y-52400D02*
X-62099Y-52545D01*
X-70535Y-112265D02*
X-62965D01*
X-72900Y-109900D02*
X-70535Y-112265D01*
X-70700Y-72026D02*
Y-68500D01*
Y-72026D02*
X-70350Y-72376D01*
X-60400Y-80000D02*
Y-72286D01*
X-64124Y-68562D02*
Y-66200D01*
Y-68562D02*
X-60400Y-72286D01*
X-60974Y-68562D02*
X-56900Y-72636D01*
Y-92400D02*
Y-72636D01*
X-58400Y-93900D02*
X-56900Y-92400D01*
X-35788Y-88062D02*
X-29662D01*
X-29600Y-88000D01*
X-35850Y-88124D02*
X-35788Y-88062D01*
X-23400Y-30900D02*
X-20200Y-34100D01*
X-190400Y-46500D02*
X-179400Y-35500D01*
X-175400Y-31500D01*
X-187800Y-38700D02*
X-187700D01*
X-170211Y-80509D02*
Y-80396D01*
X-193100Y-44000D02*
X-187800Y-38700D01*
X-190423Y-62677D02*
X-179323D01*
X-202170Y-38470D02*
X-196100Y-32400D01*
X-187600D02*
X-181800Y-26600D01*
X-196100Y-32400D02*
X-187600D01*
X-202170Y-42451D02*
Y-38470D01*
X-195976Y-27976D02*
X-194525D01*
X-206039Y-38039D02*
X-195976Y-27976D01*
X-206039Y-42383D02*
Y-38039D01*
X-207087Y-43431D02*
X-206039Y-42383D01*
X-203150Y-43431D02*
X-202170Y-42451D01*
X-193149Y-26600D02*
X-191800D01*
X-194525Y-27976D02*
X-193149Y-26600D01*
X-74072Y-78528D02*
X-70498D01*
X-89234Y-62200D02*
X-88147Y-63288D01*
Y-64454D02*
Y-63288D01*
Y-64454D02*
X-74072Y-78528D01*
X-79400Y-68800D02*
Y-63500D01*
Y-68800D02*
X-72674Y-75526D01*
X-70350D01*
X-70498Y-78528D02*
X-70350Y-78676D01*
X-89161Y-73568D02*
X-84332D01*
X-76075Y-81825D02*
X-70350D01*
X-84332Y-73568D02*
X-76075Y-81825D01*
X-88804Y-91274D02*
X-80938D01*
X-144595Y-24395D02*
Y-20884D01*
X-145800Y-25600D02*
X-144595Y-24395D01*
X-173800Y-25600D02*
X-145800D01*
X-175400Y-27200D02*
X-173800Y-25600D01*
X-175400Y-31500D02*
Y-27200D01*
X-261300Y-19300D02*
X-251300D01*
X-182333Y-50866D02*
X-171934D01*
X-259400Y-14400D02*
X-251400D01*
X-294000Y-14200D02*
X-284200D01*
X-260400Y-13400D02*
Y-12400D01*
X-72450Y-102750D02*
X-65000Y-95300D01*
X-77351Y-107651D02*
X-72450Y-102750D01*
X-108100Y-107900D02*
Y-100000D01*
Y-127100D02*
Y-107900D01*
X-107965Y-107765D02*
X-100735D01*
X-108100Y-107900D02*
X-107965Y-107765D01*
X-94803D02*
X-87403D01*
X-87317Y-107678D01*
X-87602Y-101386D02*
X-87215Y-101773D01*
X-94702Y-101386D02*
X-87602D01*
X-70350Y-88124D02*
X-65676D01*
X-65000Y-88800D01*
Y-95300D02*
Y-88800D01*
X-81022Y-107651D02*
X-77351D01*
X-80920Y-101746D02*
X-79845Y-100671D01*
X-78771D01*
X-72524Y-94424D01*
X-70350D01*
X-60974Y-110274D02*
Y-100600D01*
X-62965Y-112265D02*
X-60974Y-110274D01*
X-64124Y-100600D02*
X-64112Y-100612D01*
Y-106588D02*
Y-100612D01*
Y-106588D02*
X-64100Y-106600D01*
X-241683Y-70551D02*
X-241534Y-70700D01*
X-191800D01*
X-241683Y-58740D02*
X-241623Y-58800D01*
X-200100D01*
X-184100Y-86500D02*
X-167700D01*
X-184301Y-86299D02*
X-184100Y-86500D01*
X-184301Y-66614D02*
X-184200Y-66715D01*
Y-76600D02*
Y-66715D01*
X-45226Y-66200D02*
X-45100Y-66326D01*
Y-76100D02*
Y-66326D01*
X-48388Y-66212D02*
X-48376Y-66200D01*
X-48400Y-71500D02*
X-48388Y-71488D01*
Y-66212D01*
X-45226Y-66200D02*
Y-48782D01*
X-44400Y-47956D01*
X-50100D02*
X-44400D01*
X-55800D02*
X-50100D01*
X-56000Y-48156D02*
X-55800Y-47956D01*
X-74900Y-48156D02*
X-56000D01*
X-96100Y-67261D02*
X-95166Y-68195D01*
X-96100Y-47900D02*
Y-33850D01*
Y-47900D02*
X-95844Y-48156D01*
X-86300D01*
X-193100Y-60000D02*
Y-44000D01*
X-179323Y-62677D02*
X-177700Y-64300D01*
Y-78600D02*
Y-64300D01*
Y-78600D02*
X-175791Y-80509D01*
X-174800Y-73400D02*
X-173000Y-75200D01*
X-170220D01*
X-174800Y-73400D02*
Y-61200D01*
X-177260Y-58740D02*
X-174800Y-61200D01*
X-184301Y-58740D02*
X-177260D01*
X-175791Y-80509D02*
X-170211D01*
X-190400Y-57200D02*
Y-46500D01*
X-193100Y-60000D02*
X-190423Y-62677D01*
X-190400Y-57200D02*
X-188860Y-58740D01*
X-184301D01*
X-80938Y-91274D02*
X-70350D01*
X-89234Y-73495D02*
X-89161Y-73568D01*
X-70425Y-84900D02*
X-70350Y-84975D01*
X-79900Y-84900D02*
X-70425D01*
X-86000Y-78800D02*
X-79900Y-84900D01*
X-89234Y-78800D02*
X-86000D01*
X-168926Y-70449D02*
Y-68584D01*
Y-70449D02*
X-164279Y-75096D01*
X-170220Y-75200D02*
X-170211Y-75209D01*
X-42026Y-91274D02*
X-35850D01*
X-42200Y-91100D02*
X-42026Y-91274D01*
X-35863Y-84987D02*
X-35850Y-84975D01*
X-42387Y-84987D02*
X-35863D01*
X-42400Y-85000D02*
X-42387Y-84987D01*
X-45150Y-81825D02*
X-35850D01*
X-46625Y-83300D02*
X-45150Y-81825D01*
X-47100Y-83300D02*
X-46625D01*
X-53500Y-93700D02*
X-49200D01*
X-53500Y-84500D02*
X-45100Y-76100D01*
X-53500Y-93700D02*
Y-84500D01*
X-60974Y-68562D02*
Y-66200D01*
X-35838Y-94412D02*
X-26004D01*
X-24038Y-96378D01*
X-23900D01*
X-23400Y-30900D02*
Y-14500D01*
X-60900Y-9000D02*
X-28900D01*
X-23400Y-14500D01*
X-35850Y-94424D02*
X-35838Y-94412D01*
X-66050Y-14150D02*
X-60900Y-9000D01*
X-66100Y-18800D02*
X-66050Y-18750D01*
Y-14150D01*
X-57824Y-66200D02*
X-57812Y-66188D01*
Y-61212D01*
X-57800Y-61200D01*
X-120195Y-71295D02*
X-111250Y-62350D01*
X-126200Y-71295D02*
X-120195D01*
X-126200Y-50400D02*
X-119300Y-43500D01*
X-111250D01*
X-126200Y-61295D02*
Y-50400D01*
X-93100Y-127356D02*
X-76906D01*
X-45374Y-100748D02*
X-45226Y-100600D01*
X-42076Y-124824D02*
Y-100600D01*
Y-124824D02*
X-40300Y-126600D01*
X-28110Y-116308D02*
Y-114788D01*
X-29973Y-118172D02*
X-28110Y-116308D01*
X-29973Y-124541D02*
Y-118172D01*
X-28249Y-114649D02*
X-28110Y-114788D01*
X-32032Y-126600D02*
X-29973Y-124541D01*
X-40300Y-126600D02*
X-32032D01*
X-35850Y-78676D02*
X-29724D01*
X-7700Y-100700D01*
X-42076Y-61676D02*
X-39600Y-59200D01*
X-42076Y-66200D02*
Y-61676D01*
X-39000Y-58614D02*
Y-35900D01*
X-39586Y-59200D02*
X-39000Y-58614D01*
X-39600Y-59200D02*
X-39586D01*
X-56100Y-18800D02*
X-39000Y-35900D01*
X-35850Y-75526D02*
X-29126D01*
X-26800Y-73200D01*
Y-15100D01*
X-29900Y-12000D02*
X-26800Y-15100D01*
X-42800Y-12000D02*
X-29900D01*
X-45086Y-14286D02*
X-42800Y-12000D01*
X-46100Y-18800D02*
X-45086Y-17786D01*
Y-14286D01*
X-36100Y-72126D02*
X-35850Y-72376D01*
X-36100Y-72126D02*
Y-18800D01*
X-241683Y-86299D02*
X-214201D01*
X-214200Y-86300D01*
X-241683Y-82362D02*
X-218562D01*
X-218300Y-82100D01*
X-218100D01*
X-241683Y-78425D02*
X-222425D01*
X-222400Y-78400D01*
X-241683Y-74488D02*
X-227512D01*
X-227500Y-74500D02*
X-227000D01*
X-227512Y-74488D02*
X-227500Y-74500D01*
X-231114Y-66614D02*
X-231100Y-66600D01*
X-230800D01*
X-241683Y-66614D02*
X-231114D01*
X-234700Y-62600D02*
X-234200D01*
X-234777Y-62677D02*
X-234700Y-62600D01*
X-241683Y-62677D02*
X-234777D01*
X-80600Y-48156D02*
X-74900D01*
X-86300D02*
X-80600D01*
X-202516Y-107484D02*
Y-103660D01*
X-199300Y-110700D02*
X-183595D01*
X-203150Y-103026D02*
X-202516Y-103660D01*
Y-107484D02*
X-199300Y-110700D01*
X-196036Y-118259D02*
X-185200Y-129095D01*
X-203341Y-118259D02*
X-196036D01*
X-199213Y-103026D02*
X-181269D01*
X-155200Y-129095D01*
X-183595Y-110700D02*
X-165200Y-129095D01*
X-207087Y-108313D02*
X-200400Y-115000D01*
X-189295D01*
X-175200Y-129095D01*
X-207087Y-108313D02*
Y-103026D01*
X-211024Y-110576D02*
X-203341Y-118259D01*
X-211024Y-110576D02*
Y-103026D01*
X-212754Y-27554D02*
X-211800Y-26600D01*
X-218898Y-43431D02*
Y-35998D01*
X-212754Y-29854D02*
Y-27554D01*
X-218898Y-35998D02*
X-212754Y-29854D01*
X-215073Y-43318D02*
X-214961Y-43431D01*
X-215073Y-38973D02*
X-202700Y-26600D01*
X-201800D01*
X-215073Y-43318D02*
Y-38973D01*
X-222835Y-43431D02*
X-221800Y-42396D01*
Y-26600D01*
X-231800D02*
X-226772Y-31628D01*
Y-43431D02*
Y-31628D01*
X-150300Y-106000D02*
X-145900Y-110400D01*
X-150300Y-106000D02*
Y-82100D01*
X-145900Y-110400D02*
X-130700D01*
X-126200Y-105900D02*
Y-91295D01*
X-130700Y-110400D02*
X-126200Y-105900D01*
X-156400Y-76000D02*
X-150300Y-82100D01*
X-164279Y-75209D02*
X-163488Y-76000D01*
X-156400D01*
X-110495Y-97605D02*
Y-91295D01*
Y-97605D02*
X-108100Y-100000D01*
X-109900Y-128900D02*
X-108100Y-127100D01*
X-116800Y-128900D02*
X-109900D01*
X-170001Y-56109D02*
Y-52799D01*
X-171934Y-50866D02*
X-170001Y-52799D01*
Y-61849D02*
Y-56109D01*
Y-67509D02*
Y-61849D01*
Y-67509D02*
X-168926Y-68584D01*
X-164279Y-75209D02*
Y-75096D01*
X-96100Y-33850D02*
Y-18800D01*
X-111250Y-33500D02*
X-96450D01*
X-96100Y-33850D01*
X-95166Y-73495D02*
Y-68195D01*
X-110495Y-91295D02*
X-103300Y-84100D01*
X-95166D01*
X-126200Y-91295D02*
X-110495D01*
X-95166Y-78800D02*
Y-73495D01*
Y-84100D02*
Y-78800D01*
X-48200Y-95853D02*
Y-94700D01*
X-48376Y-100600D02*
X-48228Y-100452D01*
Y-95881D01*
X-48200Y-95853D01*
X-49200Y-93700D02*
X-48200Y-94700D01*
X-54675Y-94875D02*
X-53500Y-93700D01*
X-54675Y-100600D02*
Y-94875D01*
X-263787Y-71140D02*
X-257860D01*
X-263947Y-70980D02*
X-263787Y-71140D01*
X-257860D02*
X-257700Y-71300D01*
X-268900Y-24434D02*
X-251434D01*
X-251100Y-58600D02*
Y-24300D01*
X-251200Y-24200D02*
X-251100Y-24300D01*
X-263947Y-65980D02*
X-258480D01*
X-251100Y-58600D01*
X-258880Y-60980D02*
X-256400Y-58500D01*
Y-51256D01*
X-263947Y-60980D02*
X-258880D01*
X-263947Y-61044D02*
Y-60980D01*
X-294000Y-24200D02*
X-274334D01*
X-296400Y-75956D02*
X-293100D01*
X-293000Y-100200D02*
Y-76056D01*
X-279144Y-95097D02*
X-278803Y-94260D01*
X-278600Y-94553D02*
Y-91100D01*
X-274000Y-89300D02*
Y-57900D01*
X-277800Y-90300D02*
X-275000D01*
X-267080Y-50980D02*
X-263947D01*
X-269580Y-55980D02*
X-263947D01*
X-271500Y-95097D02*
Y-57900D01*
X-274019Y-95097D02*
X-271500D01*
X-269400Y-108000D02*
X-266700D01*
X-270137Y-113451D02*
Y-108737D01*
X-266000Y-107300D02*
Y-101061D01*
X-274100Y-30366D02*
X-268900D01*
X-268928Y-11439D02*
X-261361D01*
X-274328Y-17371D02*
X-268928D01*
X-283000Y-17300D02*
X-274399D01*
X-298700Y-19200D02*
X-294000D01*
X-284900D01*
X-268928Y-17371D02*
X-263229D01*
X-281500Y-11500D02*
X-274328D01*
Y-11439D01*
X-306724Y-14327D02*
X-303573D01*
X-296400Y-60956D02*
X-286565D01*
Y-60980D02*
Y-60956D01*
Y-75980D02*
Y-75956D01*
X-382722Y-57700D02*
X-377800D01*
X-376900Y-56800D02*
Y-53050D01*
X-362700Y-6800D02*
X-360445D01*
X-357285Y-28725D02*
Y-17440D01*
X-351912Y-132951D02*
X-351530Y-132236D01*
X-352986Y-134007D02*
X-351912Y-132951D01*
X-346801Y-129471D02*
X-346785Y-129440D01*
X-346589Y-128999D02*
X-346401Y-127912D01*
X-346807Y-129482D02*
X-346804Y-129477D01*
X-363233Y-130754D02*
X-362965Y-130754D01*
X-366440Y-127547D02*
X-366254Y-128622D01*
X-360928Y-132556D02*
X-360847Y-133642D01*
X-376900Y-80100D02*
Y-75950D01*
X-378528Y-85379D02*
Y-81728D01*
X-376900Y-80100D01*
X-384005Y-85379D02*
Y-81906D01*
X-383713Y-81613D01*
X-381900Y-79380D02*
Y-75950D01*
X-383713Y-81613D02*
X-381954Y-79854D01*
D12*
X-241683Y-82362D02*
G03*
X-241445Y-82600I238J0D01*
G01*
D13*
X-76250Y-126300D02*
D03*
X-40400D02*
D03*
D14*
X-89052Y-91386D02*
D03*
X-95348Y-91414D02*
D03*
X-87317Y-107678D02*
D03*
X-81022Y-107651D02*
D03*
X-80920Y-101746D02*
D03*
X-87215Y-101773D02*
D03*
D15*
X-44400Y-47956D02*
D03*
Y-42444D02*
D03*
X-55800Y-47956D02*
D03*
Y-42444D02*
D03*
X-50100Y-47956D02*
D03*
Y-42444D02*
D03*
X-80600Y-48156D02*
D03*
Y-42644D02*
D03*
X-86300Y-48156D02*
D03*
Y-42644D02*
D03*
X-74900Y-48156D02*
D03*
Y-42644D02*
D03*
X-93100Y-121844D02*
D03*
Y-127356D02*
D03*
X-352900Y-56156D02*
D03*
Y-50644D02*
D03*
X-256400Y-45744D02*
D03*
Y-51256D02*
D03*
X-296400Y-55444D02*
D03*
Y-60956D02*
D03*
Y-70444D02*
D03*
Y-75956D02*
D03*
X-318224Y-19839D02*
D03*
Y-14327D02*
D03*
X-312524Y-19839D02*
D03*
Y-14327D02*
D03*
X-306724Y-19839D02*
D03*
Y-14327D02*
D03*
X-315800Y-109455D02*
D03*
Y-114967D02*
D03*
X-310100Y-109439D02*
D03*
Y-114951D02*
D03*
X-321414Y-109455D02*
D03*
Y-114967D02*
D03*
D16*
X-62244Y-52400D02*
D03*
X-67756D02*
D03*
X-164489Y-67509D02*
D03*
X-170001D02*
D03*
X-164489Y-61849D02*
D03*
X-170001D02*
D03*
X-164489Y-56109D02*
D03*
X-170001D02*
D03*
X-375894Y-25700D02*
D03*
X-381406D02*
D03*
X-375894Y-43000D02*
D03*
X-381406D02*
D03*
X-375894Y-31400D02*
D03*
X-381406D02*
D03*
X-375894Y-37100D02*
D03*
X-381406D02*
D03*
X-385385Y-110198D02*
D03*
X-379873D02*
D03*
X-385285Y-98798D02*
D03*
X-379773D02*
D03*
X-385285Y-104498D02*
D03*
X-379773D02*
D03*
D17*
X-367915Y-17440D02*
D03*
Y-13700D02*
D03*
Y-9960D02*
D03*
X-357285D02*
D03*
Y-13700D02*
D03*
Y-17440D02*
D03*
D18*
X-332600Y-69102D02*
D03*
Y-81898D02*
D03*
X-324100Y-37802D02*
D03*
Y-50598D02*
D03*
D19*
X-289625Y-113451D02*
D03*
X-286476D02*
D03*
X-267578D02*
D03*
X-264428D02*
D03*
D20*
X-283917D02*
D03*
X-281948D02*
D03*
X-279980D02*
D03*
X-278011D02*
D03*
X-276043D02*
D03*
X-274074D02*
D03*
X-272106D02*
D03*
X-270137D02*
D03*
D21*
X-132550Y-33500D02*
D03*
Y-38500D02*
D03*
Y-43500D02*
D03*
Y-48500D02*
D03*
X-111250Y-33500D02*
D03*
Y-38500D02*
D03*
Y-43500D02*
D03*
Y-48500D02*
D03*
D22*
X-169005Y-6316D02*
D03*
X-144595Y-6316D02*
D03*
X-169005Y-20884D02*
D03*
X-144595Y-20884D02*
D03*
Y-46184D02*
D03*
X-169005Y-46184D02*
D03*
X-144595Y-31616D02*
D03*
X-169005Y-31616D02*
D03*
D23*
X-345862Y-13900D02*
D03*
X-328538D02*
D03*
D24*
X-170211Y-80509D02*
D03*
X-164279D02*
D03*
Y-75209D02*
D03*
X-170211D02*
D03*
X-89234Y-62200D02*
D03*
X-95166D02*
D03*
X-89234Y-73495D02*
D03*
X-95166D02*
D03*
X-89234Y-84100D02*
D03*
X-95166D02*
D03*
Y-78800D02*
D03*
X-89234D02*
D03*
X-94803Y-107765D02*
D03*
X-100735D02*
D03*
X-100634Y-101386D02*
D03*
X-94702D02*
D03*
D25*
X-70350Y-94424D02*
D03*
Y-91274D02*
D03*
Y-88124D02*
D03*
Y-84975D02*
D03*
Y-81825D02*
D03*
Y-78676D02*
D03*
Y-75526D02*
D03*
Y-72376D02*
D03*
X-35850D02*
D03*
Y-75526D02*
D03*
Y-78676D02*
D03*
Y-81825D02*
D03*
Y-84975D02*
D03*
Y-88124D02*
D03*
Y-91274D02*
D03*
Y-94424D02*
D03*
D26*
X-64124Y-66200D02*
D03*
X-60974D02*
D03*
X-57824D02*
D03*
X-54675D02*
D03*
X-51525D02*
D03*
X-48376D02*
D03*
X-45226D02*
D03*
X-42076D02*
D03*
Y-100600D02*
D03*
X-45226D02*
D03*
X-48376D02*
D03*
X-51525D02*
D03*
X-54675D02*
D03*
X-57824D02*
D03*
X-60974D02*
D03*
X-64124D02*
D03*
D27*
X-24351Y-110751D02*
D03*
X-28249Y-114649D02*
D03*
D28*
X-378528Y-85379D02*
D03*
Y-91311D02*
D03*
X-268928Y-11439D02*
D03*
Y-17371D02*
D03*
X-274328Y-11439D02*
D03*
Y-17371D02*
D03*
X-274100Y-24434D02*
D03*
Y-30366D02*
D03*
X-268900Y-24434D02*
D03*
Y-30366D02*
D03*
X-359200Y-50434D02*
D03*
Y-56366D02*
D03*
X-362800Y-93788D02*
D03*
Y-87856D02*
D03*
X-357500D02*
D03*
Y-93788D02*
D03*
X-384005Y-85379D02*
D03*
Y-91311D02*
D03*
X-266000Y-95129D02*
D03*
Y-101061D02*
D03*
X-274019Y-95097D02*
D03*
Y-101029D02*
D03*
X-279144Y-95097D02*
D03*
Y-101029D02*
D03*
X-287200Y-95129D02*
D03*
Y-101061D02*
D03*
X-345000Y-112761D02*
D03*
Y-106829D02*
D03*
X-346401Y-127912D02*
D03*
Y-133844D02*
D03*
X-360826Y-133644D02*
D03*
Y-127712D02*
D03*
D29*
X-358460Y-29900D02*
D03*
X-362200D02*
D03*
X-365940D02*
D03*
Y-38947D02*
D03*
X-362200D02*
D03*
X-358460D02*
D03*
X-356960Y-103372D02*
D03*
X-360700D02*
D03*
X-364440D02*
D03*
Y-112419D02*
D03*
X-360700D02*
D03*
X-356960D02*
D03*
D30*
X-381900Y-75950D02*
D03*
X-376900D02*
D03*
X-371900D02*
D03*
X-366900D02*
D03*
Y-53050D02*
D03*
X-371900D02*
D03*
X-376900D02*
D03*
X-381900D02*
D03*
D31*
X-374400Y-64500D02*
D03*
D32*
X-263947Y-75980D02*
D03*
Y-70980D02*
D03*
Y-65980D02*
D03*
Y-60980D02*
D03*
Y-55980D02*
D03*
Y-50980D02*
D03*
Y-45980D02*
D03*
Y-40980D02*
D03*
X-286565Y-75980D02*
D03*
Y-70980D02*
D03*
Y-65980D02*
D03*
Y-60980D02*
D03*
Y-55980D02*
D03*
Y-50980D02*
D03*
Y-45980D02*
D03*
Y-40980D02*
D03*
D33*
X-298400Y-89493D02*
D03*
Y-101698D02*
D03*
D34*
X-338840Y-113523D02*
D03*
X-335100Y-104468D02*
D03*
X-331360Y-113523D02*
D03*
D35*
X-352987Y-134026D02*
D03*
X-353015Y-127730D02*
D03*
X-366440Y-127547D02*
D03*
X-366412Y-133842D02*
D03*
D36*
X-184301Y-90236D02*
D03*
Y-86299D02*
D03*
Y-66614D02*
D03*
Y-62677D02*
D03*
Y-58740D02*
D03*
Y-54803D02*
D03*
Y-50866D02*
D03*
X-241683Y-50866D02*
D03*
Y-54803D02*
D03*
Y-58740D02*
D03*
Y-62677D02*
D03*
Y-66614D02*
D03*
Y-70551D02*
D03*
Y-74488D02*
D03*
Y-78425D02*
D03*
Y-82362D02*
D03*
Y-86299D02*
D03*
Y-90236D02*
D03*
Y-94173D02*
D03*
X-184301Y-94173D02*
D03*
D37*
X-199213Y-43431D02*
D03*
X-203150D02*
D03*
X-207087D02*
D03*
X-211024D02*
D03*
X-214961D02*
D03*
X-218898D02*
D03*
X-222835D02*
D03*
X-226772D02*
D03*
D38*
X-211024Y-103026D02*
D03*
X-207087D02*
D03*
X-203150D02*
D03*
X-199213D02*
D03*
D39*
X-365200Y-46000D02*
X-363450Y-44250D01*
X-326900Y-112800D02*
Y-111300D01*
Y-114300D02*
Y-112800D01*
X-327154Y-113054D02*
X-326900Y-112800D01*
X-297800Y-106700D02*
X-296300D01*
X-299300D02*
X-297800D01*
X-330400Y-89600D02*
Y-87400D01*
X-359200Y-98700D02*
X-359187Y-98687D01*
X-361400Y-98700D02*
X-359200D01*
X-345700Y-69500D02*
X-343400D01*
X-353349Y-62162D02*
X-351500Y-64011D01*
Y-64100D02*
Y-64011D01*
X-378482Y-108806D02*
X-373339D01*
X-379773Y-109901D02*
Y-104498D01*
X-156616Y-31616D02*
X-156500Y-31500D01*
X-169005Y-31616D02*
X-156616D01*
X-144595Y-20884D02*
Y-6316D01*
X-169005Y-46184D02*
Y-31616D01*
X-331360Y-113129D02*
X-331285Y-113054D01*
X-331360Y-113523D02*
Y-113129D01*
X-331285Y-113054D02*
X-327154D01*
X-379798Y-109926D02*
X-379773Y-109901D01*
X-379873Y-110001D02*
X-379798Y-109926D01*
X-379602D02*
X-378482Y-108806D01*
X-379873Y-110198D02*
Y-110001D01*
X-379798Y-109926D02*
X-379602D01*
X-379773Y-104498D02*
Y-98798D01*
X-321406Y-114959D02*
X-310108D01*
X-321414Y-114967D02*
X-321406Y-114959D01*
X-310108D02*
X-310100Y-114951D01*
X-309903D02*
X-309800Y-115054D01*
Y-128995D02*
Y-115054D01*
X-310100Y-114951D02*
X-309903D01*
X-328538Y-13900D02*
X-318224D01*
X-370400Y-133842D02*
X-366412D01*
X-370400Y-134000D02*
Y-133842D01*
X-312524Y-14327D02*
X-306724D01*
X-318224D02*
X-312524D01*
X-318224D02*
Y-13900D01*
X-324100Y-50644D02*
Y-50598D01*
D40*
X-363450Y-44250D02*
X-362200Y-43000D01*
X-297800Y-106700D02*
Y-106495D01*
X-345700Y-69500D02*
Y-63356D01*
X-366900Y-47700D02*
X-365200Y-46000D01*
X-343400Y-69500D02*
X-332998D01*
X-373800Y-88500D02*
X-367100Y-81800D01*
X-367081Y-78260D02*
Y-75906D01*
X-367100Y-81800D02*
Y-78279D01*
X-367081Y-78260D01*
Y-75906D02*
X-366719Y-75544D01*
X-363644D01*
X-363500Y-75400D01*
X-373800Y-94200D02*
Y-88500D01*
X-377626Y-98026D02*
X-373800Y-94200D01*
X-379773Y-98601D02*
X-379198Y-98026D01*
X-377626D01*
X-379773Y-98798D02*
Y-98601D01*
X-355800Y-120400D02*
X-343500D01*
X-360653Y-115547D02*
X-355800Y-120400D01*
X-343500D02*
X-341356Y-122544D01*
X-360700Y-112419D02*
X-360653Y-112466D01*
Y-115547D02*
Y-112466D01*
X-351996Y-97345D02*
X-351645D01*
X-356960Y-102309D02*
X-351996Y-97345D01*
X-351645D02*
X-351500Y-97200D01*
X-356960Y-103372D02*
Y-102309D01*
X-343800Y-87300D02*
Y-79400D01*
X-366719Y-56481D02*
X-343800Y-79400D01*
X-366719Y-56481D02*
Y-53231D01*
X-343800Y-87300D02*
X-335100Y-96000D01*
X-355100Y-108200D02*
X-345900Y-99000D01*
X-360653Y-109372D02*
X-359481Y-108200D01*
X-360653Y-112372D02*
Y-109372D01*
X-359481Y-108200D02*
X-355100D01*
X-360700Y-112419D02*
X-360653Y-112372D01*
X-330400Y-87400D02*
Y-84098D01*
X-298400Y-105895D02*
X-297800Y-106495D01*
X-298400Y-105895D02*
Y-101698D01*
X-287700Y-106700D02*
X-286476Y-107924D01*
X-296300Y-106700D02*
X-287700D01*
X-286476Y-113451D02*
Y-107924D01*
X-364440Y-112419D02*
X-360700D01*
X-341356Y-133844D02*
Y-122544D01*
X-309800Y-134300D02*
Y-128995D01*
X-311000Y-135500D02*
X-309800Y-134300D01*
X-339700Y-135500D02*
X-311000D01*
X-341356Y-133844D02*
X-339700Y-135500D01*
X-346401Y-133844D02*
X-341356D01*
X-381400Y-46528D02*
Y-43006D01*
Y-46528D02*
X-380228Y-47700D01*
X-366900D01*
X-381406Y-43000D02*
X-381400Y-43006D01*
X-381406Y-31400D02*
Y-25700D01*
Y-37100D02*
Y-31400D01*
Y-43000D02*
Y-37100D01*
X-362200Y-43000D02*
Y-38947D01*
X-366900Y-53050D02*
Y-47700D01*
Y-53050D02*
X-366719Y-53231D01*
X-335100Y-104468D02*
Y-96000D01*
X-352900Y-56156D02*
X-352703D01*
X-352128Y-56928D02*
X-345700Y-63356D01*
X-352128Y-56928D02*
Y-56731D01*
X-352703Y-56156D02*
X-352128Y-56731D01*
X-332998Y-69500D02*
X-332600Y-69102D01*
X-326900Y-103600D02*
X-312793Y-89493D01*
X-298400D01*
X-326900Y-111300D02*
Y-103600D01*
X-332600Y-81898D02*
X-330400Y-84098D01*
D41*
X-369000Y-23200D02*
Y-20900D01*
X-178600Y-54900D02*
X-176200D01*
X-246500Y-40900D02*
X-244200D01*
X-68700Y-58500D02*
X-66500D01*
X-349900Y-112900D02*
X-345139D01*
X-344457Y-113304D02*
X-339016D01*
X-338840Y-113479D01*
Y-113523D02*
Y-113479D01*
X-345000Y-112761D02*
X-344457Y-113304D01*
X-345139Y-112900D02*
X-345000Y-112761D01*
X-345200Y-50621D02*
X-324123D01*
X-352878D02*
X-345200D01*
X-345862Y-49959D02*
X-345200Y-50621D01*
X-345862Y-49959D02*
Y-13900D01*
X-324123Y-50621D02*
X-324100Y-50644D01*
X-352900D02*
Y-50643D01*
X-352878Y-50621D01*
X-283000Y-130400D02*
Y-118400D01*
D42*
X-359087Y-56366D02*
X-353320Y-62133D01*
X-361275Y-101740D02*
Y-98826D01*
X-361400Y-98700D02*
X-361275Y-98826D01*
X-360700Y-103372D02*
Y-102314D01*
X-361275Y-101740D02*
X-360700Y-102314D01*
X-359200Y-56366D02*
X-359087D01*
D43*
X-36100Y-18800D02*
D03*
X-46100D02*
D03*
X-86100D02*
D03*
X-96100D02*
D03*
X-76100D02*
D03*
X-66100D02*
D03*
X-56100D02*
D03*
X-116800Y-128900D02*
D03*
X-126800D02*
D03*
X-136800D02*
D03*
X-126800Y-118900D02*
D03*
X-136800D02*
D03*
D44*
X-106100Y-18800D02*
D03*
X-116800Y-118900D02*
D03*
D45*
X-288405Y-117664D02*
D03*
X-265649D02*
D03*
D46*
X-294054Y-115616D02*
D03*
X-259999Y-115617D02*
D03*
D47*
X-294054Y-132152D02*
D03*
X-259999D02*
D03*
D48*
X-251200Y-14200D02*
D03*
X-294000D02*
D03*
D49*
X-251200Y-19200D02*
D03*
Y-24200D02*
D03*
X-294000Y-19200D02*
D03*
Y-24200D02*
D03*
D50*
X-225200Y-129095D02*
D03*
X-155200D02*
D03*
X-165200D02*
D03*
X-175200D02*
D03*
X-185200D02*
D03*
X-195200D02*
D03*
X-205200D02*
D03*
X-215200D02*
D03*
X-235200D02*
D03*
X-126200Y-81295D02*
D03*
Y-71295D02*
D03*
Y-61295D02*
D03*
X-137100Y-101295D02*
D03*
Y-91295D02*
D03*
Y-81295D02*
D03*
Y-71295D02*
D03*
X-7700Y-40700D02*
D03*
Y-50700D02*
D03*
Y-60700D02*
D03*
Y-70700D02*
D03*
Y-90700D02*
D03*
Y-80700D02*
D03*
X-191800Y-26600D02*
D03*
X-201800D02*
D03*
X-211800D02*
D03*
X-221800D02*
D03*
X-231800D02*
D03*
D51*
X-245200Y-129095D02*
D03*
X-181800Y-26600D02*
D03*
D52*
X-126200Y-91295D02*
D03*
X-137100Y-61295D02*
D03*
X-7700Y-100700D02*
D03*
D53*
X-334013Y-128995D02*
D03*
X-301336D02*
D03*
D54*
X-309800D02*
D03*
X-317674D02*
D03*
X-325548D02*
D03*
D55*
X-5900Y-23995D02*
D03*
Y-113995D02*
D03*
X-13400Y-23995D02*
D03*
X-9650Y-31495D02*
D03*
X-13400Y-38995D02*
D03*
Y-83995D02*
D03*
Y-98995D02*
D03*
X-9650Y-106495D02*
D03*
X-13400Y-113995D02*
D03*
X-20900Y-8995D02*
D03*
Y-23995D02*
D03*
X-17150Y-31495D02*
D03*
X-20900Y-98995D02*
D03*
X-17150Y-106495D02*
D03*
X-20900Y-113995D02*
D03*
Y-128995D02*
D03*
X-28400Y-83995D02*
D03*
X-24650Y-91495D02*
D03*
X-28400Y-98995D02*
D03*
X-24650Y-106495D02*
D03*
Y-121495D02*
D03*
X-32150Y-31495D02*
D03*
X-35900Y-98995D02*
D03*
Y-113995D02*
D03*
X-43400Y-23995D02*
D03*
X-39650Y-106495D02*
D03*
Y-121495D02*
D03*
X-47150Y-31495D02*
D03*
Y-121495D02*
D03*
X-58400Y-23995D02*
D03*
Y-38995D02*
D03*
Y-113995D02*
D03*
Y-128995D02*
D03*
X-65900Y-8995D02*
D03*
Y-23995D02*
D03*
X-62150Y-31495D02*
D03*
X-73400Y-8995D02*
D03*
Y-23995D02*
D03*
X-69650Y-31495D02*
D03*
X-73400Y-38995D02*
D03*
Y-53995D02*
D03*
Y-98995D02*
D03*
X-69650Y-106495D02*
D03*
X-80900Y-8995D02*
D03*
Y-23995D02*
D03*
Y-38995D02*
D03*
X-88400Y-8995D02*
D03*
Y-23995D02*
D03*
Y-38995D02*
D03*
Y-113995D02*
D03*
X-95900Y-8995D02*
D03*
X-92150Y-31495D02*
D03*
X-103400Y-8995D02*
D03*
Y-23995D02*
D03*
Y-38995D02*
D03*
X-99650Y-46495D02*
D03*
Y-76495D02*
D03*
X-103400Y-113995D02*
D03*
Y-128995D02*
D03*
X-110900Y-8995D02*
D03*
Y-23995D02*
D03*
Y-68995D02*
D03*
X-107150Y-76495D02*
D03*
X-110900Y-83995D02*
D03*
Y-113995D02*
D03*
X-118400Y-8995D02*
D03*
X-114650Y-16495D02*
D03*
X-118400Y-23995D02*
D03*
Y-38995D02*
D03*
X-114650Y-76495D02*
D03*
X-118400Y-83995D02*
D03*
X-114650Y-106495D02*
D03*
X-125900Y-8995D02*
D03*
X-122150Y-16495D02*
D03*
X-125900Y-23995D02*
D03*
X-122150Y-31495D02*
D03*
Y-76495D02*
D03*
Y-121495D02*
D03*
X-133400Y-8995D02*
D03*
X-129650Y-16495D02*
D03*
X-133400Y-23995D02*
D03*
Y-53995D02*
D03*
X-129650Y-76495D02*
D03*
X-137150Y-16495D02*
D03*
X-140900Y-53995D02*
D03*
X-148400D02*
D03*
Y-113995D02*
D03*
X-144650Y-121495D02*
D03*
X-148400Y-128995D02*
D03*
X-152150Y-16495D02*
D03*
Y-31495D02*
D03*
Y-61495D02*
D03*
Y-76495D02*
D03*
X-155900Y-113995D02*
D03*
X-152150Y-121495D02*
D03*
X-163400Y-8995D02*
D03*
X-159650Y-16495D02*
D03*
Y-61495D02*
D03*
X-163400Y-113995D02*
D03*
X-167150Y-16495D02*
D03*
Y-121495D02*
D03*
X-178400Y-8995D02*
D03*
X-174650Y-16495D02*
D03*
Y-91495D02*
D03*
X-185900Y-8995D02*
D03*
X-182150Y-16495D02*
D03*
X-185900Y-98995D02*
D03*
X-182150Y-106495D02*
D03*
X-185900Y-113995D02*
D03*
X-193400Y-8995D02*
D03*
X-189650Y-16495D02*
D03*
Y-76495D02*
D03*
X-193400Y-98995D02*
D03*
X-189650Y-106495D02*
D03*
X-200900Y-8995D02*
D03*
X-197150Y-16495D02*
D03*
Y-61495D02*
D03*
X-200900Y-83995D02*
D03*
X-197150Y-91495D02*
D03*
X-208400Y-8995D02*
D03*
X-204650Y-16495D02*
D03*
Y-61495D02*
D03*
Y-76495D02*
D03*
X-208400Y-83995D02*
D03*
X-204650Y-91495D02*
D03*
X-215900Y-8995D02*
D03*
X-212150Y-16495D02*
D03*
Y-76495D02*
D03*
Y-121495D02*
D03*
X-223400Y-8995D02*
D03*
X-219650Y-16495D02*
D03*
Y-61495D02*
D03*
Y-76495D02*
D03*
X-230900Y-8995D02*
D03*
X-227150Y-16495D02*
D03*
Y-61495D02*
D03*
X-238400Y-8995D02*
D03*
X-234650Y-16495D02*
D03*
Y-46495D02*
D03*
X-238400Y-98995D02*
D03*
X-234650Y-121495D02*
D03*
X-242150Y-46495D02*
D03*
X-245900Y-98995D02*
D03*
X-242150Y-106495D02*
D03*
X-245900Y-113995D02*
D03*
X-249650Y-61495D02*
D03*
X-253400Y-68995D02*
D03*
X-249650Y-76495D02*
D03*
X-253400Y-83995D02*
D03*
X-249650Y-91495D02*
D03*
X-253400Y-98995D02*
D03*
X-249650Y-106495D02*
D03*
X-253400Y-113995D02*
D03*
X-249650Y-121495D02*
D03*
X-253400Y-128995D02*
D03*
X-257150Y-31495D02*
D03*
Y-76495D02*
D03*
X-260900Y-83995D02*
D03*
X-257150Y-91495D02*
D03*
X-260900Y-98995D02*
D03*
X-257150Y-106495D02*
D03*
Y-121495D02*
D03*
X-264650Y-31495D02*
D03*
X-268400Y-83995D02*
D03*
X-264650Y-91495D02*
D03*
Y-121495D02*
D03*
X-275900Y-38995D02*
D03*
X-272150Y-46495D02*
D03*
Y-121495D02*
D03*
X-283400Y-83995D02*
D03*
Y-98995D02*
D03*
X-287150Y-31495D02*
D03*
Y-91495D02*
D03*
Y-121495D02*
D03*
X-298400Y-8995D02*
D03*
Y-38995D02*
D03*
X-294650Y-46495D02*
D03*
X-298400Y-83995D02*
D03*
Y-113995D02*
D03*
X-294650Y-121495D02*
D03*
X-305900Y-8995D02*
D03*
Y-23995D02*
D03*
Y-38995D02*
D03*
Y-53995D02*
D03*
X-302150Y-61495D02*
D03*
X-305900Y-68995D02*
D03*
X-302150Y-76495D02*
D03*
X-305900Y-83995D02*
D03*
X-302150Y-121495D02*
D03*
X-313400Y-8995D02*
D03*
Y-23995D02*
D03*
X-309650Y-31495D02*
D03*
X-313400Y-38995D02*
D03*
X-309650Y-46495D02*
D03*
X-313400Y-53995D02*
D03*
X-309650Y-61495D02*
D03*
X-313400Y-68995D02*
D03*
X-309650Y-76495D02*
D03*
X-313400Y-83995D02*
D03*
X-320900Y-8995D02*
D03*
Y-23995D02*
D03*
X-317150Y-31495D02*
D03*
Y-61495D02*
D03*
X-320900Y-68995D02*
D03*
X-317150Y-76495D02*
D03*
X-320900Y-83995D02*
D03*
X-324650Y-31495D02*
D03*
Y-61495D02*
D03*
Y-76495D02*
D03*
Y-91495D02*
D03*
Y-121495D02*
D03*
X-335900Y-8995D02*
D03*
Y-23995D02*
D03*
X-332150Y-31495D02*
D03*
X-335900Y-38995D02*
D03*
X-332150Y-61495D02*
D03*
Y-76495D02*
D03*
Y-121495D02*
D03*
X-339650Y-16495D02*
D03*
Y-31495D02*
D03*
Y-46495D02*
D03*
Y-61495D02*
D03*
Y-76495D02*
D03*
X-350900Y-23995D02*
D03*
Y-38995D02*
D03*
X-347150Y-91495D02*
D03*
X-365900Y-68995D02*
D03*
X-362150Y-121495D02*
D03*
X-373400Y-8995D02*
D03*
Y-98995D02*
D03*
X-369650Y-106495D02*
D03*
X-373400Y-128995D02*
D03*
X-380900Y-113995D02*
D03*
X-388400Y-23995D02*
D03*
Y-38995D02*
D03*
X-384650Y-46495D02*
D03*
X-388400Y-113995D02*
D03*
X-103600Y-53414D02*
D03*
X-92200Y-52500D02*
D03*
X-87500Y-54400D02*
D03*
X-326900Y-111300D02*
D03*
X-365200Y-46000D02*
D03*
X-351500Y-64100D02*
D03*
X-176200Y-54900D02*
D03*
X-244200Y-40900D02*
D03*
X-246500D02*
D03*
X-369000Y-23200D02*
D03*
X-363450Y-44250D02*
D03*
X-343400Y-69500D02*
D03*
X-345700D02*
D03*
X-361400Y-98700D02*
D03*
X-330400Y-89600D02*
D03*
X-68700Y-58500D02*
D03*
X-65800Y-37900D02*
D03*
X-389200Y-53400D02*
D03*
X-65800Y-35700D02*
D03*
X-80900Y-93900D02*
D03*
X-100800Y-97400D02*
D03*
X-367900Y-99100D02*
D03*
X-353349Y-62162D02*
D03*
X-283000Y-130400D02*
D03*
X-369000Y-20900D02*
D03*
X-362500Y-21900D02*
D03*
X-389100Y-59600D02*
D03*
X-373339Y-110306D02*
D03*
X-356600Y-83200D02*
D03*
X-359187Y-98687D02*
D03*
X-351500Y-97200D02*
D03*
X-345900Y-99000D02*
D03*
X-205800Y-50300D02*
D03*
X-178600Y-54900D02*
D03*
X-184100Y-45600D02*
D03*
X-199400Y-50300D02*
D03*
X-66500Y-58500D02*
D03*
X-57800Y-61200D02*
D03*
X-72900Y-109900D02*
D03*
X-91700Y-67300D02*
D03*
X-70700Y-68500D02*
D03*
X-60400Y-80000D02*
D03*
X-29600Y-88000D02*
D03*
X-20200Y-34100D02*
D03*
X-179400Y-35500D02*
D03*
X-187700Y-38700D02*
D03*
X-194100Y-37900D02*
D03*
X-101300Y-90400D02*
D03*
X-302000Y-50300D02*
D03*
X-156500Y-31500D02*
D03*
X-72450Y-102750D02*
D03*
X-64100Y-106600D02*
D03*
X-191800Y-70700D02*
D03*
X-200100Y-58800D02*
D03*
X-167700Y-86500D02*
D03*
X-184200Y-76600D02*
D03*
X-79400Y-63500D02*
D03*
X-48400Y-71500D02*
D03*
X-58400Y-93900D02*
D03*
X-42200Y-91100D02*
D03*
X-42400Y-85000D02*
D03*
X-47100Y-83300D02*
D03*
X-23900Y-96378D02*
D03*
X-296300Y-106700D02*
D03*
X-214200Y-86300D02*
D03*
X-218100Y-82100D02*
D03*
X-222400Y-78400D02*
D03*
X-227000Y-74500D02*
D03*
X-230800Y-66600D02*
D03*
X-234200Y-62600D02*
D03*
X-257700Y-71300D02*
D03*
X-330400Y-87400D02*
D03*
X-328200Y-23900D02*
D03*
X-370400Y-134000D02*
D03*
X-362700Y-6800D02*
D03*
X-363500Y-75400D02*
D03*
X-349900Y-112900D02*
D03*
X-326900Y-114300D02*
D03*
X-299300Y-106700D02*
D03*
%TF.MD5,c9d75a2ea29ab74cdede49c618a8262b*%
M02*
