%TF.GenerationSoftware,Altium Limited,Altium Designer,24.1.2 (44)*%
G04 Layer_Color=128*
%FSLAX25Y25*%
%MOIN*%
%TF.SameCoordinates,CC6F7A58-88BC-47F1-AAD7-D7ADF3ED88B3*%
%TF.FilePolarity,Positive*%
%TF.FileFunction,Drillmap*%
%TF.Part,Single*%
G01*
G75*
%TA.AperFunction,NonConductor*%
%ADD125C,0.00500*%
D125*
X-37675Y-18800D02*
X-34525D01*
X-36100Y-20375D02*
Y-17225D01*
X-47675Y-18800D02*
X-44525D01*
X-46100Y-20375D02*
Y-17225D01*
X-87675Y-18800D02*
X-84525D01*
X-86100Y-20375D02*
Y-17225D01*
X-107675Y-18800D02*
X-104525D01*
X-106100Y-20375D02*
Y-17225D01*
X-97675Y-18800D02*
X-94525D01*
X-96100Y-20375D02*
Y-17225D01*
X-77675Y-18800D02*
X-74525D01*
X-76100Y-20375D02*
Y-17225D01*
X-67675Y-18800D02*
X-64525D01*
X-66100Y-20375D02*
Y-17225D01*
X-57675Y-18800D02*
X-54525D01*
X-56100Y-20375D02*
Y-17225D01*
X-289783Y-117664D02*
X-287027D01*
X-288405Y-119042D02*
Y-116286D01*
X-267027Y-117664D02*
X-264271D01*
X-265649Y-119042D02*
Y-116286D01*
X-295235Y-115616D02*
X-292873D01*
X-294054Y-116797D02*
Y-114435D01*
X-261180Y-115617D02*
X-258818D01*
X-259999Y-116798D02*
Y-114436D01*
X-295235Y-132152D02*
X-292873D01*
X-294054Y-133333D02*
Y-130971D01*
X-261180Y-132152D02*
X-258818D01*
X-259999Y-133333D02*
Y-130971D01*
X-252578Y-14200D02*
X-249822D01*
X-251200Y-15578D02*
Y-12822D01*
X-252578Y-19200D02*
X-249822D01*
X-251200Y-20578D02*
Y-17822D01*
X-252578Y-24200D02*
X-249822D01*
X-251200Y-25578D02*
Y-22822D01*
X-227208Y-129095D02*
X-223192D01*
X-225200Y-131103D02*
Y-127087D01*
X-157208Y-129095D02*
X-153192D01*
X-155200Y-131103D02*
Y-127087D01*
X-167208Y-129095D02*
X-163192D01*
X-165200Y-131103D02*
Y-127087D01*
X-177208Y-129095D02*
X-173192D01*
X-175200Y-131103D02*
Y-127087D01*
X-187208Y-129095D02*
X-183192D01*
X-185200Y-131103D02*
Y-127087D01*
X-197208Y-129095D02*
X-193192D01*
X-195200Y-131103D02*
Y-127087D01*
X-207208Y-129095D02*
X-203192D01*
X-205200Y-131103D02*
Y-127087D01*
X-217208Y-129095D02*
X-213192D01*
X-215200Y-131103D02*
Y-127087D01*
X-237208Y-129095D02*
X-233192D01*
X-235200Y-131103D02*
Y-127087D01*
X-247208Y-129095D02*
X-243192D01*
X-245200Y-131103D02*
Y-127087D01*
X-128208Y-91295D02*
X-124192D01*
X-126200Y-93303D02*
Y-89287D01*
X-128208Y-81295D02*
X-124192D01*
X-126200Y-83303D02*
Y-79287D01*
X-128208Y-71295D02*
X-124192D01*
X-126200Y-73303D02*
Y-69287D01*
X-128208Y-61295D02*
X-124192D01*
X-126200Y-63303D02*
Y-59287D01*
X-139108Y-101295D02*
X-135092D01*
X-137100Y-103303D02*
Y-99287D01*
X-139108Y-91295D02*
X-135092D01*
X-137100Y-93303D02*
Y-89287D01*
X-139108Y-81295D02*
X-135092D01*
X-137100Y-83303D02*
Y-79287D01*
X-139108Y-71295D02*
X-135092D01*
X-137100Y-73303D02*
Y-69287D01*
X-139108Y-61295D02*
X-135092D01*
X-137100Y-63303D02*
Y-59287D01*
X-295378Y-14200D02*
X-292622D01*
X-294000Y-15578D02*
Y-12822D01*
X-295378Y-19200D02*
X-292622D01*
X-294000Y-20578D02*
Y-17822D01*
X-295378Y-24200D02*
X-292622D01*
X-294000Y-25578D02*
Y-22822D01*
X-335588Y-128995D02*
X-332438D01*
X-334013Y-130570D02*
Y-127420D01*
X-302911Y-128995D02*
X-299761D01*
X-301336Y-130570D02*
Y-127420D01*
X-311600Y-128995D02*
X-308000D01*
X-309800Y-130795D02*
Y-127195D01*
X-319474Y-128995D02*
X-315874D01*
X-317674Y-130795D02*
Y-127195D01*
X-327348Y-128995D02*
X-323748D01*
X-325548Y-130795D02*
Y-127195D01*
X-9708Y-40700D02*
X-5692D01*
X-7700Y-42708D02*
Y-38692D01*
X-9708Y-50700D02*
X-5692D01*
X-7700Y-52708D02*
Y-48692D01*
X-9708Y-60700D02*
X-5692D01*
X-7700Y-62708D02*
Y-58692D01*
X-9708Y-70700D02*
X-5692D01*
X-7700Y-72708D02*
Y-68692D01*
X-9708Y-90700D02*
X-5692D01*
X-7700Y-92708D02*
Y-88692D01*
X-9708Y-100700D02*
X-5692D01*
X-7700Y-102708D02*
Y-98692D01*
X-9708Y-80700D02*
X-5692D01*
X-7700Y-82708D02*
Y-78692D01*
X-118965Y-128900D02*
X-114635D01*
X-116800Y-131065D02*
Y-126735D01*
X-128965Y-128900D02*
X-124635D01*
X-126800Y-131065D02*
Y-126735D01*
X-138965Y-128900D02*
X-134635D01*
X-136800Y-131065D02*
Y-126735D01*
X-118965Y-118900D02*
X-114635D01*
X-116800Y-121065D02*
Y-116735D01*
X-128965Y-118900D02*
X-124635D01*
X-126800Y-121065D02*
Y-116735D01*
X-138965Y-118900D02*
X-134635D01*
X-136800Y-121065D02*
Y-116735D01*
X-183808Y-26600D02*
X-179792D01*
X-181800Y-28608D02*
Y-24592D01*
X-193808Y-26600D02*
X-189792D01*
X-191800Y-28608D02*
Y-24592D01*
X-203808Y-26600D02*
X-199792D01*
X-201800Y-28608D02*
Y-24592D01*
X-213808Y-26600D02*
X-209792D01*
X-211800Y-28608D02*
Y-24592D01*
X-223808Y-26600D02*
X-219792D01*
X-221800Y-28608D02*
Y-24592D01*
X-233808Y-26600D02*
X-229792D01*
X-231800Y-28608D02*
Y-24592D01*
X-6491Y-23995D02*
X-5309D01*
X-5900Y-24586D02*
Y-23405D01*
X-6491Y-113995D02*
X-5309D01*
X-5900Y-114586D02*
Y-113405D01*
X-13991Y-23995D02*
X-12810D01*
X-13400Y-24586D02*
Y-23405D01*
X-10241Y-31495D02*
X-9059D01*
X-9650Y-32086D02*
Y-30905D01*
X-13991Y-38995D02*
X-12810D01*
X-13400Y-39586D02*
Y-38405D01*
X-13991Y-83995D02*
X-12810D01*
X-13400Y-84586D02*
Y-83405D01*
X-13991Y-98995D02*
X-12810D01*
X-13400Y-99586D02*
Y-98405D01*
X-10241Y-106495D02*
X-9059D01*
X-9650Y-107086D02*
Y-105905D01*
X-13991Y-113995D02*
X-12810D01*
X-13400Y-114586D02*
Y-113405D01*
X-21490Y-8995D02*
X-20310D01*
X-20900Y-9586D02*
Y-8405D01*
X-21490Y-23995D02*
X-20310D01*
X-20900Y-24586D02*
Y-23405D01*
X-17740Y-31495D02*
X-16559D01*
X-17150Y-32086D02*
Y-30905D01*
X-21490Y-98995D02*
X-20310D01*
X-20900Y-99586D02*
Y-98405D01*
X-17740Y-106495D02*
X-16559D01*
X-17150Y-107086D02*
Y-105905D01*
X-21490Y-113995D02*
X-20310D01*
X-20900Y-114586D02*
Y-113405D01*
X-21490Y-128995D02*
X-20310D01*
X-20900Y-129586D02*
Y-128405D01*
X-28991Y-83995D02*
X-27809D01*
X-28400Y-84586D02*
Y-83405D01*
X-25240Y-91495D02*
X-24059D01*
X-24650Y-92086D02*
Y-90905D01*
X-28991Y-98995D02*
X-27809D01*
X-28400Y-99586D02*
Y-98405D01*
X-25240Y-106495D02*
X-24059D01*
X-24650Y-107086D02*
Y-105905D01*
X-25240Y-121495D02*
X-24059D01*
X-24650Y-122086D02*
Y-120905D01*
X-32741Y-31495D02*
X-31559D01*
X-32150Y-32086D02*
Y-30905D01*
X-36491Y-98995D02*
X-35309D01*
X-35900Y-99586D02*
Y-98405D01*
X-36491Y-113995D02*
X-35309D01*
X-35900Y-114586D02*
Y-113405D01*
X-43991Y-23995D02*
X-42809D01*
X-43400Y-24586D02*
Y-23405D01*
X-40241Y-106495D02*
X-39059D01*
X-39650Y-107086D02*
Y-105905D01*
X-40241Y-121495D02*
X-39059D01*
X-39650Y-122086D02*
Y-120905D01*
X-47741Y-31495D02*
X-46559D01*
X-47150Y-32086D02*
Y-30905D01*
X-47741Y-121495D02*
X-46559D01*
X-47150Y-122086D02*
Y-120905D01*
X-58991Y-23995D02*
X-57810D01*
X-58400Y-24586D02*
Y-23405D01*
X-58991Y-38995D02*
X-57810D01*
X-58400Y-39586D02*
Y-38405D01*
X-58991Y-113995D02*
X-57810D01*
X-58400Y-114586D02*
Y-113405D01*
X-58991Y-128995D02*
X-57810D01*
X-58400Y-129586D02*
Y-128405D01*
X-66491Y-8995D02*
X-65310D01*
X-65900Y-9586D02*
Y-8405D01*
X-66491Y-23995D02*
X-65310D01*
X-65900Y-24586D02*
Y-23405D01*
X-62740Y-31495D02*
X-61559D01*
X-62150Y-32086D02*
Y-30905D01*
X-73990Y-8995D02*
X-72809D01*
X-73400Y-9586D02*
Y-8405D01*
X-73990Y-23995D02*
X-72809D01*
X-73400Y-24586D02*
Y-23405D01*
X-70240Y-31495D02*
X-69059D01*
X-69650Y-32086D02*
Y-30905D01*
X-73990Y-38995D02*
X-72809D01*
X-73400Y-39586D02*
Y-38405D01*
X-73990Y-53995D02*
X-72809D01*
X-73400Y-54586D02*
Y-53405D01*
X-73990Y-98995D02*
X-72809D01*
X-73400Y-99586D02*
Y-98405D01*
X-70240Y-106495D02*
X-69059D01*
X-69650Y-107086D02*
Y-105905D01*
X-81490Y-8995D02*
X-80309D01*
X-80900Y-9586D02*
Y-8405D01*
X-81490Y-23995D02*
X-80309D01*
X-80900Y-24586D02*
Y-23405D01*
X-81490Y-38995D02*
X-80309D01*
X-80900Y-39586D02*
Y-38405D01*
X-88990Y-8995D02*
X-87809D01*
X-88400Y-9586D02*
Y-8405D01*
X-88990Y-23995D02*
X-87809D01*
X-88400Y-24586D02*
Y-23405D01*
X-88990Y-38995D02*
X-87809D01*
X-88400Y-39586D02*
Y-38405D01*
X-88990Y-113995D02*
X-87809D01*
X-88400Y-114586D02*
Y-113405D01*
X-96491Y-8995D02*
X-95310D01*
X-95900Y-9586D02*
Y-8405D01*
X-92740Y-31495D02*
X-91559D01*
X-92150Y-32086D02*
Y-30905D01*
X-103991Y-8995D02*
X-102809D01*
X-103400Y-9586D02*
Y-8405D01*
X-103991Y-23995D02*
X-102809D01*
X-103400Y-24586D02*
Y-23405D01*
X-103991Y-38995D02*
X-102809D01*
X-103400Y-39586D02*
Y-38405D01*
X-100241Y-46495D02*
X-99059D01*
X-99650Y-47086D02*
Y-45905D01*
X-100241Y-76495D02*
X-99059D01*
X-99650Y-77086D02*
Y-75905D01*
X-103991Y-113995D02*
X-102809D01*
X-103400Y-114586D02*
Y-113405D01*
X-103991Y-128995D02*
X-102809D01*
X-103400Y-129586D02*
Y-128405D01*
X-111491Y-8995D02*
X-110309D01*
X-110900Y-9586D02*
Y-8405D01*
X-111491Y-23995D02*
X-110309D01*
X-110900Y-24586D02*
Y-23405D01*
X-111491Y-68995D02*
X-110309D01*
X-110900Y-69586D02*
Y-68405D01*
X-107741Y-76495D02*
X-106559D01*
X-107150Y-77086D02*
Y-75905D01*
X-111491Y-83995D02*
X-110309D01*
X-110900Y-84586D02*
Y-83405D01*
X-111491Y-113995D02*
X-110309D01*
X-110900Y-114586D02*
Y-113405D01*
X-118991Y-8995D02*
X-117809D01*
X-118400Y-9586D02*
Y-8405D01*
X-115241Y-16495D02*
X-114059D01*
X-114650Y-17086D02*
Y-15905D01*
X-118991Y-23995D02*
X-117809D01*
X-118400Y-24586D02*
Y-23405D01*
X-118991Y-38995D02*
X-117809D01*
X-118400Y-39586D02*
Y-38405D01*
X-115241Y-76495D02*
X-114059D01*
X-114650Y-77086D02*
Y-75905D01*
X-118991Y-83995D02*
X-117809D01*
X-118400Y-84586D02*
Y-83405D01*
X-115241Y-106495D02*
X-114059D01*
X-114650Y-107086D02*
Y-105905D01*
X-126491Y-8995D02*
X-125309D01*
X-125900Y-9586D02*
Y-8405D01*
X-122741Y-16495D02*
X-121559D01*
X-122150Y-17086D02*
Y-15905D01*
X-126491Y-23995D02*
X-125309D01*
X-125900Y-24586D02*
Y-23405D01*
X-122741Y-31495D02*
X-121559D01*
X-122150Y-32086D02*
Y-30905D01*
X-122741Y-76495D02*
X-121559D01*
X-122150Y-77086D02*
Y-75905D01*
X-122741Y-121495D02*
X-121559D01*
X-122150Y-122086D02*
Y-120905D01*
X-133991Y-8995D02*
X-132809D01*
X-133400Y-9586D02*
Y-8405D01*
X-130241Y-16495D02*
X-129059D01*
X-129650Y-17086D02*
Y-15905D01*
X-133991Y-23995D02*
X-132809D01*
X-133400Y-24586D02*
Y-23405D01*
X-133991Y-53995D02*
X-132809D01*
X-133400Y-54586D02*
Y-53405D01*
X-130241Y-76495D02*
X-129059D01*
X-129650Y-77086D02*
Y-75905D01*
X-137741Y-16495D02*
X-136559D01*
X-137150Y-17086D02*
Y-15905D01*
X-141491Y-53995D02*
X-140309D01*
X-140900Y-54586D02*
Y-53405D01*
X-148991Y-53995D02*
X-147809D01*
X-148400Y-54586D02*
Y-53405D01*
X-148991Y-113995D02*
X-147809D01*
X-148400Y-114586D02*
Y-113405D01*
X-145241Y-121495D02*
X-144059D01*
X-144650Y-122086D02*
Y-120905D01*
X-148991Y-128995D02*
X-147809D01*
X-148400Y-129586D02*
Y-128405D01*
X-152741Y-16495D02*
X-151559D01*
X-152150Y-17086D02*
Y-15905D01*
X-152741Y-31495D02*
X-151559D01*
X-152150Y-32086D02*
Y-30905D01*
X-152741Y-61495D02*
X-151559D01*
X-152150Y-62086D02*
Y-60905D01*
X-152741Y-76495D02*
X-151559D01*
X-152150Y-77086D02*
Y-75905D01*
X-156491Y-113995D02*
X-155309D01*
X-155900Y-114586D02*
Y-113405D01*
X-152741Y-121495D02*
X-151559D01*
X-152150Y-122086D02*
Y-120905D01*
X-163991Y-8995D02*
X-162809D01*
X-163400Y-9586D02*
Y-8405D01*
X-160241Y-16495D02*
X-159059D01*
X-159650Y-17086D02*
Y-15905D01*
X-160241Y-61495D02*
X-159059D01*
X-159650Y-62086D02*
Y-60905D01*
X-163991Y-113995D02*
X-162809D01*
X-163400Y-114586D02*
Y-113405D01*
X-167741Y-16495D02*
X-166559D01*
X-167150Y-17086D02*
Y-15905D01*
X-167741Y-121495D02*
X-166559D01*
X-167150Y-122086D02*
Y-120905D01*
X-178991Y-8995D02*
X-177809D01*
X-178400Y-9586D02*
Y-8405D01*
X-175241Y-16495D02*
X-174059D01*
X-174650Y-17086D02*
Y-15905D01*
X-175241Y-91495D02*
X-174059D01*
X-174650Y-92086D02*
Y-90905D01*
X-186491Y-8995D02*
X-185309D01*
X-185900Y-9586D02*
Y-8405D01*
X-182741Y-16495D02*
X-181559D01*
X-182150Y-17086D02*
Y-15905D01*
X-186491Y-98995D02*
X-185309D01*
X-185900Y-99586D02*
Y-98405D01*
X-182741Y-106495D02*
X-181559D01*
X-182150Y-107086D02*
Y-105905D01*
X-186491Y-113995D02*
X-185309D01*
X-185900Y-114586D02*
Y-113405D01*
X-193991Y-8995D02*
X-192809D01*
X-193400Y-9586D02*
Y-8405D01*
X-190241Y-16495D02*
X-189059D01*
X-189650Y-17086D02*
Y-15905D01*
X-190241Y-76495D02*
X-189059D01*
X-189650Y-77086D02*
Y-75905D01*
X-193991Y-98995D02*
X-192809D01*
X-193400Y-99586D02*
Y-98405D01*
X-190241Y-106495D02*
X-189059D01*
X-189650Y-107086D02*
Y-105905D01*
X-201491Y-8995D02*
X-200309D01*
X-200900Y-9586D02*
Y-8405D01*
X-197741Y-16495D02*
X-196559D01*
X-197150Y-17086D02*
Y-15905D01*
X-197741Y-61495D02*
X-196559D01*
X-197150Y-62086D02*
Y-60905D01*
X-201491Y-83995D02*
X-200309D01*
X-200900Y-84586D02*
Y-83405D01*
X-197741Y-91495D02*
X-196559D01*
X-197150Y-92086D02*
Y-90905D01*
X-208991Y-8995D02*
X-207809D01*
X-208400Y-9586D02*
Y-8405D01*
X-205241Y-16495D02*
X-204059D01*
X-204650Y-17086D02*
Y-15905D01*
X-205241Y-61495D02*
X-204059D01*
X-204650Y-62086D02*
Y-60905D01*
X-205241Y-76495D02*
X-204059D01*
X-204650Y-77086D02*
Y-75905D01*
X-208991Y-83995D02*
X-207809D01*
X-208400Y-84586D02*
Y-83405D01*
X-205241Y-91495D02*
X-204059D01*
X-204650Y-92086D02*
Y-90905D01*
X-216491Y-8995D02*
X-215310D01*
X-215900Y-9586D02*
Y-8405D01*
X-212740Y-16495D02*
X-211560D01*
X-212150Y-17086D02*
Y-15905D01*
X-212740Y-76495D02*
X-211560D01*
X-212150Y-77086D02*
Y-75905D01*
X-212740Y-121495D02*
X-211560D01*
X-212150Y-122086D02*
Y-120905D01*
X-223991Y-8995D02*
X-222810D01*
X-223400Y-9586D02*
Y-8405D01*
X-220240Y-16495D02*
X-219059D01*
X-219650Y-17086D02*
Y-15905D01*
X-220240Y-61495D02*
X-219059D01*
X-219650Y-62086D02*
Y-60905D01*
X-220240Y-76495D02*
X-219059D01*
X-219650Y-77086D02*
Y-75905D01*
X-231490Y-8995D02*
X-230310D01*
X-230900Y-9586D02*
Y-8405D01*
X-227741Y-16495D02*
X-226559D01*
X-227150Y-17086D02*
Y-15905D01*
X-227741Y-61495D02*
X-226559D01*
X-227150Y-62086D02*
Y-60905D01*
X-238990Y-8995D02*
X-237809D01*
X-238400Y-9586D02*
Y-8405D01*
X-235241Y-16495D02*
X-234060D01*
X-234650Y-17086D02*
Y-15905D01*
X-235241Y-46495D02*
X-234060D01*
X-234650Y-47086D02*
Y-45905D01*
X-238990Y-98995D02*
X-237809D01*
X-238400Y-99586D02*
Y-98405D01*
X-235241Y-121495D02*
X-234060D01*
X-234650Y-122086D02*
Y-120905D01*
X-242741Y-46495D02*
X-241560D01*
X-242150Y-47086D02*
Y-45905D01*
X-246491Y-98995D02*
X-245309D01*
X-245900Y-99586D02*
Y-98405D01*
X-242741Y-106495D02*
X-241560D01*
X-242150Y-107086D02*
Y-105905D01*
X-246491Y-113995D02*
X-245309D01*
X-245900Y-114586D02*
Y-113405D01*
X-250240Y-61495D02*
X-249060D01*
X-249650Y-62086D02*
Y-60905D01*
X-253991Y-68995D02*
X-252810D01*
X-253400Y-69586D02*
Y-68405D01*
X-250240Y-76495D02*
X-249060D01*
X-249650Y-77086D02*
Y-75905D01*
X-253991Y-83995D02*
X-252810D01*
X-253400Y-84586D02*
Y-83405D01*
X-250240Y-91495D02*
X-249060D01*
X-249650Y-92086D02*
Y-90905D01*
X-253991Y-98995D02*
X-252810D01*
X-253400Y-99586D02*
Y-98405D01*
X-250240Y-106495D02*
X-249060D01*
X-249650Y-107086D02*
Y-105905D01*
X-253991Y-113995D02*
X-252810D01*
X-253400Y-114586D02*
Y-113405D01*
X-250240Y-121495D02*
X-249060D01*
X-249650Y-122086D02*
Y-120905D01*
X-253991Y-128995D02*
X-252810D01*
X-253400Y-129586D02*
Y-128405D01*
X-257740Y-31495D02*
X-256559D01*
X-257150Y-32086D02*
Y-30905D01*
X-257740Y-76495D02*
X-256559D01*
X-257150Y-77086D02*
Y-75905D01*
X-261491Y-83995D02*
X-260310D01*
X-260900Y-84586D02*
Y-83405D01*
X-257740Y-91495D02*
X-256559D01*
X-257150Y-92086D02*
Y-90905D01*
X-261491Y-98995D02*
X-260310D01*
X-260900Y-99586D02*
Y-98405D01*
X-257740Y-106495D02*
X-256559D01*
X-257150Y-107086D02*
Y-105905D01*
X-257740Y-121495D02*
X-256559D01*
X-257150Y-122086D02*
Y-120905D01*
X-265241Y-31495D02*
X-264059D01*
X-264650Y-32086D02*
Y-30905D01*
X-268990Y-83995D02*
X-267810D01*
X-268400Y-84586D02*
Y-83405D01*
X-265241Y-91495D02*
X-264059D01*
X-264650Y-92086D02*
Y-90905D01*
X-265241Y-121495D02*
X-264059D01*
X-264650Y-122086D02*
Y-120905D01*
X-276490Y-38995D02*
X-275309D01*
X-275900Y-39586D02*
Y-38405D01*
X-272741Y-46495D02*
X-271560D01*
X-272150Y-47086D02*
Y-45905D01*
X-272741Y-121495D02*
X-271560D01*
X-272150Y-122086D02*
Y-120905D01*
X-283991Y-83995D02*
X-282809D01*
X-283400Y-84586D02*
Y-83405D01*
X-283991Y-98995D02*
X-282809D01*
X-283400Y-99586D02*
Y-98405D01*
X-287740Y-31495D02*
X-286560D01*
X-287150Y-32086D02*
Y-30905D01*
X-287740Y-91495D02*
X-286560D01*
X-287150Y-92086D02*
Y-90905D01*
X-287740Y-121495D02*
X-286560D01*
X-287150Y-122086D02*
Y-120905D01*
X-298991Y-8995D02*
X-297810D01*
X-298400Y-9586D02*
Y-8405D01*
X-298991Y-38995D02*
X-297810D01*
X-298400Y-39586D02*
Y-38405D01*
X-295240Y-46495D02*
X-294059D01*
X-294650Y-47086D02*
Y-45905D01*
X-298991Y-83995D02*
X-297810D01*
X-298400Y-84586D02*
Y-83405D01*
X-298991Y-113995D02*
X-297810D01*
X-298400Y-114586D02*
Y-113405D01*
X-295240Y-121495D02*
X-294059D01*
X-294650Y-122086D02*
Y-120905D01*
X-306490Y-8995D02*
X-305310D01*
X-305900Y-9586D02*
Y-8405D01*
X-306490Y-23995D02*
X-305310D01*
X-305900Y-24586D02*
Y-23405D01*
X-306490Y-38995D02*
X-305310D01*
X-305900Y-39586D02*
Y-38405D01*
X-306490Y-53995D02*
X-305310D01*
X-305900Y-54586D02*
Y-53405D01*
X-302741Y-61495D02*
X-301559D01*
X-302150Y-62086D02*
Y-60905D01*
X-306490Y-68995D02*
X-305310D01*
X-305900Y-69586D02*
Y-68405D01*
X-302741Y-76495D02*
X-301559D01*
X-302150Y-77086D02*
Y-75905D01*
X-306490Y-83995D02*
X-305310D01*
X-305900Y-84586D02*
Y-83405D01*
X-302741Y-121495D02*
X-301559D01*
X-302150Y-122086D02*
Y-120905D01*
X-313990Y-8995D02*
X-312809D01*
X-313400Y-9586D02*
Y-8405D01*
X-313990Y-23995D02*
X-312809D01*
X-313400Y-24586D02*
Y-23405D01*
X-310241Y-31495D02*
X-309060D01*
X-309650Y-32086D02*
Y-30905D01*
X-313990Y-38995D02*
X-312809D01*
X-313400Y-39586D02*
Y-38405D01*
X-310241Y-46495D02*
X-309060D01*
X-309650Y-47086D02*
Y-45905D01*
X-313990Y-53995D02*
X-312809D01*
X-313400Y-54586D02*
Y-53405D01*
X-310241Y-61495D02*
X-309060D01*
X-309650Y-62086D02*
Y-60905D01*
X-313990Y-68995D02*
X-312809D01*
X-313400Y-69586D02*
Y-68405D01*
X-310241Y-76495D02*
X-309060D01*
X-309650Y-77086D02*
Y-75905D01*
X-313990Y-83995D02*
X-312809D01*
X-313400Y-84586D02*
Y-83405D01*
X-321491Y-8995D02*
X-320309D01*
X-320900Y-9586D02*
Y-8405D01*
X-321491Y-23995D02*
X-320309D01*
X-320900Y-24586D02*
Y-23405D01*
X-317741Y-31495D02*
X-316560D01*
X-317150Y-32086D02*
Y-30905D01*
X-317741Y-61495D02*
X-316560D01*
X-317150Y-62086D02*
Y-60905D01*
X-321491Y-68995D02*
X-320309D01*
X-320900Y-69586D02*
Y-68405D01*
X-317741Y-76495D02*
X-316560D01*
X-317150Y-77086D02*
Y-75905D01*
X-321491Y-83995D02*
X-320309D01*
X-320900Y-84586D02*
Y-83405D01*
X-325240Y-31495D02*
X-324060D01*
X-324650Y-32086D02*
Y-30905D01*
X-325240Y-61495D02*
X-324060D01*
X-324650Y-62086D02*
Y-60905D01*
X-325240Y-76495D02*
X-324060D01*
X-324650Y-77086D02*
Y-75905D01*
X-325240Y-91495D02*
X-324060D01*
X-324650Y-92086D02*
Y-90905D01*
X-325240Y-121495D02*
X-324060D01*
X-324650Y-122086D02*
Y-120905D01*
X-336491Y-8995D02*
X-335310D01*
X-335900Y-9586D02*
Y-8405D01*
X-336491Y-23995D02*
X-335310D01*
X-335900Y-24586D02*
Y-23405D01*
X-332740Y-31495D02*
X-331559D01*
X-332150Y-32086D02*
Y-30905D01*
X-336491Y-38995D02*
X-335310D01*
X-335900Y-39586D02*
Y-38405D01*
X-332740Y-61495D02*
X-331559D01*
X-332150Y-62086D02*
Y-60905D01*
X-332740Y-76495D02*
X-331559D01*
X-332150Y-77086D02*
Y-75905D01*
X-332740Y-121495D02*
X-331559D01*
X-332150Y-122086D02*
Y-120905D01*
X-340241Y-16495D02*
X-339059D01*
X-339650Y-17086D02*
Y-15905D01*
X-340241Y-31495D02*
X-339059D01*
X-339650Y-32086D02*
Y-30905D01*
X-340241Y-46495D02*
X-339059D01*
X-339650Y-47086D02*
Y-45905D01*
X-340241Y-61495D02*
X-339059D01*
X-339650Y-62086D02*
Y-60905D01*
X-340241Y-76495D02*
X-339059D01*
X-339650Y-77086D02*
Y-75905D01*
X-351490Y-23995D02*
X-350309D01*
X-350900Y-24586D02*
Y-23405D01*
X-351490Y-38995D02*
X-350309D01*
X-350900Y-39586D02*
Y-38405D01*
X-347741Y-91495D02*
X-346560D01*
X-347150Y-92086D02*
Y-90905D01*
X-366491Y-68995D02*
X-365310D01*
X-365900Y-69586D02*
Y-68405D01*
X-362740Y-121495D02*
X-361560D01*
X-362150Y-122086D02*
Y-120905D01*
X-373991Y-8995D02*
X-372810D01*
X-373400Y-9586D02*
Y-8405D01*
X-373991Y-98995D02*
X-372810D01*
X-373400Y-99586D02*
Y-98405D01*
X-370240Y-106495D02*
X-369059D01*
X-369650Y-107086D02*
Y-105905D01*
X-373991Y-128995D02*
X-372810D01*
X-373400Y-129586D02*
Y-128405D01*
X-381490Y-113995D02*
X-380310D01*
X-380900Y-114586D02*
Y-113405D01*
X-388990Y-23995D02*
X-387809D01*
X-388400Y-24586D02*
Y-23405D01*
X-388990Y-38995D02*
X-387809D01*
X-388400Y-39586D02*
Y-38405D01*
X-385241Y-46495D02*
X-384060D01*
X-384650Y-47086D02*
Y-45905D01*
X-388990Y-113995D02*
X-387809D01*
X-388400Y-114586D02*
Y-113405D01*
X-104191Y-53414D02*
X-103009D01*
X-103600Y-54005D02*
Y-52824D01*
X-92791Y-52500D02*
X-91610D01*
X-92200Y-53091D02*
Y-51910D01*
X-88090Y-54400D02*
X-86910D01*
X-87500Y-54991D02*
Y-53809D01*
X-327490Y-111300D02*
X-326309D01*
X-326900Y-111891D02*
Y-110709D01*
X-365791Y-46000D02*
X-364610D01*
X-365200Y-46591D02*
Y-45409D01*
X-352091Y-64100D02*
X-350909D01*
X-351500Y-64691D02*
Y-63510D01*
X-176791Y-54900D02*
X-175609D01*
X-176200Y-55490D02*
Y-54309D01*
X-244791Y-40900D02*
X-243609D01*
X-244200Y-41491D02*
Y-40309D01*
X-247091Y-40900D02*
X-245910D01*
X-246500Y-41491D02*
Y-40309D01*
X-369590Y-23200D02*
X-368409D01*
X-369000Y-23790D02*
Y-22610D01*
X-364040Y-44250D02*
X-362860D01*
X-363450Y-44841D02*
Y-43659D01*
X-343990Y-69500D02*
X-342810D01*
X-343400Y-70091D02*
Y-68910D01*
X-346290Y-69500D02*
X-345110D01*
X-345700Y-70091D02*
Y-68910D01*
X-361990Y-98700D02*
X-360809D01*
X-361400Y-99291D02*
Y-98110D01*
X-330991Y-89600D02*
X-329809D01*
X-330400Y-90191D02*
Y-89009D01*
X-69291Y-58500D02*
X-68110D01*
X-68700Y-59091D02*
Y-57910D01*
X-66391Y-37900D02*
X-65210D01*
X-65800Y-38491D02*
Y-37309D01*
X-389791Y-53400D02*
X-388610D01*
X-389200Y-53991D02*
Y-52810D01*
X-66391Y-35700D02*
X-65210D01*
X-65800Y-36291D02*
Y-35109D01*
X-81490Y-93900D02*
X-80309D01*
X-80900Y-94490D02*
Y-93309D01*
X-101391Y-97400D02*
X-100209D01*
X-100800Y-97991D02*
Y-96810D01*
X-368491Y-99100D02*
X-367309D01*
X-367900Y-99691D02*
Y-98510D01*
X-353940Y-62162D02*
X-352759D01*
X-353349Y-62752D02*
Y-61571D01*
X-283591Y-130400D02*
X-282410D01*
X-283000Y-130991D02*
Y-129809D01*
X-369590Y-20900D02*
X-368409D01*
X-369000Y-21490D02*
Y-20310D01*
X-363090Y-21900D02*
X-361910D01*
X-362500Y-22490D02*
Y-21309D01*
X-389690Y-59600D02*
X-388509D01*
X-389100Y-60190D02*
Y-59009D01*
X-373930Y-110306D02*
X-372749D01*
X-373339Y-110897D02*
Y-109716D01*
X-357190Y-83200D02*
X-356010D01*
X-356600Y-83790D02*
Y-82609D01*
X-359778Y-98687D02*
X-358596D01*
X-359187Y-99277D02*
Y-98096D01*
X-352091Y-97200D02*
X-350909D01*
X-351500Y-97790D02*
Y-96609D01*
X-346491Y-99000D02*
X-345309D01*
X-345900Y-99590D02*
Y-98409D01*
X-206391Y-50300D02*
X-205209D01*
X-205800Y-50891D02*
Y-49709D01*
X-179191Y-54900D02*
X-178009D01*
X-178600Y-55490D02*
Y-54309D01*
X-184691Y-45600D02*
X-183509D01*
X-184100Y-46191D02*
Y-45009D01*
X-199991Y-50300D02*
X-198809D01*
X-199400Y-50891D02*
Y-49709D01*
X-67090Y-58500D02*
X-65909D01*
X-66500Y-59091D02*
Y-57910D01*
X-58390Y-61200D02*
X-57209D01*
X-57800Y-61791D02*
Y-60610D01*
X-73491Y-109900D02*
X-72309D01*
X-72900Y-110491D02*
Y-109309D01*
X-92291Y-67300D02*
X-91110D01*
X-91700Y-67891D02*
Y-66710D01*
X-71290Y-68500D02*
X-70109D01*
X-70700Y-69090D02*
Y-67909D01*
X-60991Y-80000D02*
X-59809D01*
X-60400Y-80590D02*
Y-79409D01*
X-30191Y-88000D02*
X-29009D01*
X-29600Y-88591D02*
Y-87410D01*
X-20790Y-34100D02*
X-19610D01*
X-20200Y-34691D02*
Y-33509D01*
X-179991Y-35500D02*
X-178809D01*
X-179400Y-36091D02*
Y-34909D01*
X-188291Y-38700D02*
X-187109D01*
X-187700Y-39291D02*
Y-38109D01*
X-194691Y-37900D02*
X-193509D01*
X-194100Y-38491D02*
Y-37309D01*
X-101891Y-90400D02*
X-100709D01*
X-101300Y-90991D02*
Y-89810D01*
X-302590Y-50300D02*
X-301410D01*
X-302000Y-50891D02*
Y-49709D01*
X-157091Y-31500D02*
X-155909D01*
X-156500Y-32091D02*
Y-30909D01*
X-73040Y-102750D02*
X-71860D01*
X-72450Y-103341D02*
Y-102160D01*
X-64691Y-106600D02*
X-63510D01*
X-64100Y-107191D02*
Y-106009D01*
X-192391Y-70700D02*
X-191209D01*
X-191800Y-71290D02*
Y-70109D01*
X-200691Y-58800D02*
X-199509D01*
X-200100Y-59390D02*
Y-58210D01*
X-168291Y-86500D02*
X-167109D01*
X-167700Y-87090D02*
Y-85909D01*
X-184791Y-76600D02*
X-183609D01*
X-184200Y-77191D02*
Y-76010D01*
X-79991Y-63500D02*
X-78809D01*
X-79400Y-64091D02*
Y-62910D01*
X-48991Y-71500D02*
X-47809D01*
X-48400Y-72091D02*
Y-70910D01*
X-58991Y-93900D02*
X-57810D01*
X-58400Y-94490D02*
Y-93309D01*
X-42791Y-91100D02*
X-41609D01*
X-42200Y-91690D02*
Y-90509D01*
X-42991Y-85000D02*
X-41809D01*
X-42400Y-85590D02*
Y-84409D01*
X-47691Y-83300D02*
X-46509D01*
X-47100Y-83890D02*
Y-82709D01*
X-24490Y-96378D02*
X-23310D01*
X-23900Y-96969D02*
Y-95787D01*
X-296890Y-106700D02*
X-295709D01*
X-296300Y-107291D02*
Y-106109D01*
X-214791Y-86300D02*
X-213610D01*
X-214200Y-86891D02*
Y-85710D01*
X-218690Y-82100D02*
X-217510D01*
X-218100Y-82691D02*
Y-81510D01*
X-222990Y-78400D02*
X-221810D01*
X-222400Y-78991D02*
Y-77810D01*
X-227590Y-74500D02*
X-226410D01*
X-227000Y-75090D02*
Y-73909D01*
X-231391Y-66600D02*
X-230209D01*
X-230800Y-67190D02*
Y-66009D01*
X-234790Y-62600D02*
X-233610D01*
X-234200Y-63191D02*
Y-62010D01*
X-258291Y-71300D02*
X-257109D01*
X-257700Y-71890D02*
Y-70710D01*
X-330991Y-87400D02*
X-329809D01*
X-330400Y-87990D02*
Y-86809D01*
X-328790Y-23900D02*
X-327609D01*
X-328200Y-24490D02*
Y-23310D01*
X-370990Y-134000D02*
X-369810D01*
X-370400Y-134591D02*
Y-133409D01*
X-363291Y-6800D02*
X-362109D01*
X-362700Y-7391D02*
Y-6209D01*
X-364090Y-75400D02*
X-362910D01*
X-363500Y-75990D02*
Y-74809D01*
X-350490Y-112900D02*
X-349309D01*
X-349900Y-113491D02*
Y-112309D01*
X-327490Y-114300D02*
X-326309D01*
X-326900Y-114891D02*
Y-113709D01*
X-299890Y-106700D02*
X-298710D01*
X-299300Y-107291D02*
Y-106109D01*
%TF.MD5,434521e6a1e5bbab9d77e6bc4254c6a7*%
M02*
