%TF.GenerationSoftware,Altium Limited,Altium Designer,24.1.2 (44)*%
G04 Layer_Color=2752767*
%FSLAX25Y25*%
%MOIN*%
%TF.SameCoordinates,CC6F7A58-88BC-47F1-AAD7-D7ADF3ED88B3*%
%TF.FilePolarity,Positive*%
%TF.FileFunction,Drawing*%
%TF.Part,Single*%
G01*
G75*
%TA.AperFunction,NonConductor*%
%ADD122C,0.00667*%
%ADD123C,0.00400*%
%ADD125C,0.00500*%
D122*
X-34100Y-18800D02*
G03*
X-34100Y-18800I-2000J0D01*
G01*
X-44100D02*
G03*
X-44100Y-18800I-2000J0D01*
G01*
X-84100D02*
G03*
X-84100Y-18800I-2000J0D01*
G01*
X-104100D02*
G03*
X-104100Y-18800I-2000J0D01*
G01*
X-94100D02*
G03*
X-94100Y-18800I-2000J0D01*
G01*
X-74100D02*
G03*
X-74100Y-18800I-2000J0D01*
G01*
X-64100D02*
G03*
X-64100Y-18800I-2000J0D01*
G01*
X-54100D02*
G03*
X-54100Y-18800I-2000J0D01*
G01*
X-332013Y-128995D02*
G03*
X-332013Y-128995I-2000J0D01*
G01*
X-299336D02*
G03*
X-299336Y-128995I-2000J0D01*
G01*
D123*
X-34900Y-18800D02*
G03*
X-34900Y-18800I-1200J0D01*
G01*
X-44900D02*
G03*
X-44900Y-18800I-1200J0D01*
G01*
X-84900D02*
G03*
X-84900Y-18800I-1200J0D01*
G01*
X-104900D02*
G03*
X-104900Y-18800I-1200J0D01*
G01*
X-94900D02*
G03*
X-94900Y-18800I-1200J0D01*
G01*
X-74900D02*
G03*
X-74900Y-18800I-1200J0D01*
G01*
X-64900D02*
G03*
X-64900Y-18800I-1200J0D01*
G01*
X-54900D02*
G03*
X-54900Y-18800I-1200J0D01*
G01*
D125*
X-289405Y-118664D02*
Y-119664D01*
X-287405D01*
Y-118664D01*
X-286405D01*
Y-116664D01*
X-287405D01*
Y-115664D01*
X-289405D01*
Y-116664D01*
X-290405D01*
Y-118664D01*
X-289405D01*
X-266649D02*
Y-119664D01*
X-264649D01*
Y-118664D01*
X-263649D01*
Y-116664D01*
X-264649D01*
Y-115664D01*
X-266649D01*
Y-116664D01*
X-267649D01*
Y-118664D01*
X-266649D01*
X-296054Y-117616D02*
X-295054Y-115616D01*
X-296054Y-113616D01*
X-294054Y-114616D01*
X-292054Y-113616D01*
X-293054Y-115616D01*
X-292054Y-117616D01*
X-294054Y-116616D01*
X-296054Y-117616D01*
X-259999Y-117617D02*
X-258999Y-116617D01*
X-257999D01*
X-258999Y-115617D01*
X-257999Y-114617D01*
X-258999D01*
X-259999Y-113617D01*
X-260999Y-114617D01*
X-261999D01*
X-260999Y-115617D01*
X-261999Y-116617D01*
X-260999D01*
X-259999Y-117617D01*
X-294054Y-134152D02*
X-296054Y-130152D01*
X-292054D01*
X-294054Y-134152D01*
X-259999D02*
X-261999Y-130152D01*
X-257999D01*
X-259999Y-134152D01*
X-253200Y-16200D02*
X-252200D01*
X-251200Y-15200D01*
X-250200Y-16200D01*
X-249200D01*
Y-15200D01*
X-250200Y-14200D01*
X-249200Y-13200D01*
Y-12200D01*
X-250200D01*
X-251200Y-13200D01*
X-252200Y-12200D01*
X-253200D01*
Y-13200D01*
X-252200Y-14200D01*
X-253200Y-15200D01*
Y-16200D01*
Y-21200D02*
X-252200D01*
X-251200Y-20200D01*
X-250200Y-21200D01*
X-249200D01*
Y-20200D01*
X-250200Y-19200D01*
X-249200Y-18200D01*
Y-17200D01*
X-250200D01*
X-251200Y-18200D01*
X-252200Y-17200D01*
X-253200D01*
Y-18200D01*
X-252200Y-19200D01*
X-253200Y-20200D01*
Y-21200D01*
Y-26200D02*
X-252200D01*
X-251200Y-25200D01*
X-250200Y-26200D01*
X-249200D01*
Y-25200D01*
X-250200Y-24200D01*
X-249200Y-23200D01*
Y-22200D01*
X-250200D01*
X-251200Y-23200D01*
X-252200Y-22200D01*
X-253200D01*
Y-23200D01*
X-252200Y-24200D01*
X-253200Y-25200D01*
Y-26200D01*
X-227200Y-129095D02*
X-225200Y-127095D01*
X-223200Y-129095D01*
X-225200Y-131095D01*
X-227200Y-129095D01*
X-157200D02*
X-155200Y-127095D01*
X-153200Y-129095D01*
X-155200Y-131095D01*
X-157200Y-129095D01*
X-167200D02*
X-165200Y-127095D01*
X-163200Y-129095D01*
X-165200Y-131095D01*
X-167200Y-129095D01*
X-177200D02*
X-175200Y-127095D01*
X-173200Y-129095D01*
X-175200Y-131095D01*
X-177200Y-129095D01*
X-187200D02*
X-185200Y-127095D01*
X-183200Y-129095D01*
X-185200Y-131095D01*
X-187200Y-129095D01*
X-197200D02*
X-195200Y-127095D01*
X-193200Y-129095D01*
X-195200Y-131095D01*
X-197200Y-129095D01*
X-207200D02*
X-205200Y-127095D01*
X-203200Y-129095D01*
X-205200Y-131095D01*
X-207200Y-129095D01*
X-217200D02*
X-215200Y-127095D01*
X-213200Y-129095D01*
X-215200Y-131095D01*
X-217200Y-129095D01*
X-237200D02*
X-235200Y-127095D01*
X-233200Y-129095D01*
X-235200Y-131095D01*
X-237200Y-129095D01*
X-247200D02*
X-245200Y-127095D01*
X-243200Y-129095D01*
X-245200Y-131095D01*
X-247200Y-129095D01*
X-128200Y-91295D02*
X-126200Y-89295D01*
X-124200Y-91295D01*
X-126200Y-93295D01*
X-128200Y-91295D01*
Y-81295D02*
X-126200Y-79295D01*
X-124200Y-81295D01*
X-126200Y-83295D01*
X-128200Y-81295D01*
Y-71295D02*
X-126200Y-69295D01*
X-124200Y-71295D01*
X-126200Y-73295D01*
X-128200Y-71295D01*
Y-61295D02*
X-126200Y-59295D01*
X-124200Y-61295D01*
X-126200Y-63295D01*
X-128200Y-61295D01*
X-139100Y-101295D02*
X-137100Y-99295D01*
X-135100Y-101295D01*
X-137100Y-103295D01*
X-139100Y-101295D01*
Y-91295D02*
X-137100Y-89295D01*
X-135100Y-91295D01*
X-137100Y-93295D01*
X-139100Y-91295D01*
Y-81295D02*
X-137100Y-79295D01*
X-135100Y-81295D01*
X-137100Y-83295D01*
X-139100Y-81295D01*
Y-71295D02*
X-137100Y-69295D01*
X-135100Y-71295D01*
X-137100Y-73295D01*
X-139100Y-71295D01*
Y-61295D02*
X-137100Y-59295D01*
X-135100Y-61295D01*
X-137100Y-63295D01*
X-139100Y-61295D01*
X-296000Y-16200D02*
X-295000D01*
X-294000Y-15200D01*
X-293000Y-16200D01*
X-292000D01*
Y-15200D01*
X-293000Y-14200D01*
X-292000Y-13200D01*
Y-12200D01*
X-293000D01*
X-294000Y-13200D01*
X-295000Y-12200D01*
X-296000D01*
Y-13200D01*
X-295000Y-14200D01*
X-296000Y-15200D01*
Y-16200D01*
Y-21200D02*
X-295000D01*
X-294000Y-20200D01*
X-293000Y-21200D01*
X-292000D01*
Y-20200D01*
X-293000Y-19200D01*
X-292000Y-18200D01*
Y-17200D01*
X-293000D01*
X-294000Y-18200D01*
X-295000Y-17200D01*
X-296000D01*
Y-18200D01*
X-295000Y-19200D01*
X-296000Y-20200D01*
Y-21200D01*
Y-26200D02*
X-295000D01*
X-294000Y-25200D01*
X-293000Y-26200D01*
X-292000D01*
Y-25200D01*
X-293000Y-24200D01*
X-292000Y-23200D01*
Y-22200D01*
X-293000D01*
X-294000Y-23200D01*
X-295000Y-22200D01*
X-296000D01*
Y-23200D01*
X-295000Y-24200D01*
X-296000Y-25200D01*
Y-26200D01*
X-311800Y-130995D02*
Y-126995D01*
X-307800D01*
Y-130995D01*
X-311800D01*
X-319674D02*
Y-126995D01*
X-315674D01*
Y-130995D01*
X-319674D01*
X-327548D02*
Y-126995D01*
X-323548D01*
Y-130995D01*
X-327548D01*
X-9700Y-40700D02*
X-7700Y-38700D01*
X-5700Y-40700D01*
X-7700Y-42700D01*
X-9700Y-40700D01*
Y-50700D02*
X-7700Y-48700D01*
X-5700Y-50700D01*
X-7700Y-52700D01*
X-9700Y-50700D01*
Y-60700D02*
X-7700Y-58700D01*
X-5700Y-60700D01*
X-7700Y-62700D01*
X-9700Y-60700D01*
Y-70700D02*
X-7700Y-68700D01*
X-5700Y-70700D01*
X-7700Y-72700D01*
X-9700Y-70700D01*
Y-90700D02*
X-7700Y-88700D01*
X-5700Y-90700D01*
X-7700Y-92700D01*
X-9700Y-90700D01*
Y-100700D02*
X-7700Y-98700D01*
X-5700Y-100700D01*
X-7700Y-102700D01*
X-9700Y-100700D01*
Y-80700D02*
X-7700Y-78700D01*
X-5700Y-80700D01*
X-7700Y-82700D01*
X-9700Y-80700D01*
X-118800Y-130900D02*
Y-126900D01*
X-114800D01*
Y-130900D01*
X-118800D01*
X-118000Y-130100D02*
Y-127700D01*
X-115600D01*
Y-130100D01*
X-118000D01*
X-128800Y-130900D02*
Y-126900D01*
X-124800D01*
Y-130900D01*
X-128800D01*
X-128000Y-130100D02*
Y-127700D01*
X-125600D01*
Y-130100D01*
X-128000D01*
X-138800Y-130900D02*
Y-126900D01*
X-134800D01*
Y-130900D01*
X-138800D01*
X-138000Y-130100D02*
Y-127700D01*
X-135600D01*
Y-130100D01*
X-138000D01*
X-118800Y-120900D02*
Y-116900D01*
X-114800D01*
Y-120900D01*
X-118800D01*
X-118000Y-120100D02*
Y-117700D01*
X-115600D01*
Y-120100D01*
X-118000D01*
X-128800Y-120900D02*
Y-116900D01*
X-124800D01*
Y-120900D01*
X-128800D01*
X-128000Y-120100D02*
Y-117700D01*
X-125600D01*
Y-120100D01*
X-128000D01*
X-138800Y-120900D02*
Y-116900D01*
X-134800D01*
Y-120900D01*
X-138800D01*
X-138000Y-120100D02*
Y-117700D01*
X-135600D01*
Y-120100D01*
X-138000D01*
X-183800Y-26600D02*
X-181800Y-24600D01*
X-179800Y-26600D01*
X-181800Y-28600D01*
X-183800Y-26600D01*
X-193800D02*
X-191800Y-24600D01*
X-189800Y-26600D01*
X-191800Y-28600D01*
X-193800Y-26600D01*
X-203800D02*
X-201800Y-24600D01*
X-199800Y-26600D01*
X-201800Y-28600D01*
X-203800Y-26600D01*
X-213800D02*
X-211800Y-24600D01*
X-209800Y-26600D01*
X-211800Y-28600D01*
X-213800Y-26600D01*
X-223800D02*
X-221800Y-24600D01*
X-219800Y-26600D01*
X-221800Y-28600D01*
X-223800Y-26600D01*
X-233800D02*
X-231800Y-24600D01*
X-229800Y-26600D01*
X-231800Y-28600D01*
X-233800Y-26600D01*
X-5900Y-25995D02*
X-4900Y-24995D01*
X-3900D01*
X-4900Y-23995D01*
X-3900Y-22995D01*
X-4900D01*
X-5900Y-21995D01*
X-6900Y-22995D01*
X-7900D01*
X-6900Y-23995D01*
X-7900Y-24995D01*
X-6900D01*
X-5900Y-25995D01*
Y-25195D02*
X-5300Y-24595D01*
X-4700D01*
X-5300Y-23995D01*
X-4700Y-23395D01*
X-5300D01*
X-5900Y-22795D01*
X-6500Y-23395D01*
X-7100D01*
X-6500Y-23995D01*
X-7100Y-24595D01*
X-6500D01*
X-5900Y-25195D01*
Y-115995D02*
X-4900Y-114995D01*
X-3900D01*
X-4900Y-113995D01*
X-3900Y-112995D01*
X-4900D01*
X-5900Y-111995D01*
X-6900Y-112995D01*
X-7900D01*
X-6900Y-113995D01*
X-7900Y-114995D01*
X-6900D01*
X-5900Y-115995D01*
Y-115195D02*
X-5300Y-114595D01*
X-4700D01*
X-5300Y-113995D01*
X-4700Y-113395D01*
X-5300D01*
X-5900Y-112795D01*
X-6500Y-113395D01*
X-7100D01*
X-6500Y-113995D01*
X-7100Y-114595D01*
X-6500D01*
X-5900Y-115195D01*
X-13400Y-25995D02*
X-12400Y-24995D01*
X-11400D01*
X-12400Y-23995D01*
X-11400Y-22995D01*
X-12400D01*
X-13400Y-21995D01*
X-14400Y-22995D01*
X-15400D01*
X-14400Y-23995D01*
X-15400Y-24995D01*
X-14400D01*
X-13400Y-25995D01*
Y-25195D02*
X-12800Y-24595D01*
X-12200D01*
X-12800Y-23995D01*
X-12200Y-23395D01*
X-12800D01*
X-13400Y-22795D01*
X-14000Y-23395D01*
X-14600D01*
X-14000Y-23995D01*
X-14600Y-24595D01*
X-14000D01*
X-13400Y-25195D01*
X-9650Y-33495D02*
X-8650Y-32495D01*
X-7650D01*
X-8650Y-31495D01*
X-7650Y-30495D01*
X-8650D01*
X-9650Y-29495D01*
X-10650Y-30495D01*
X-11650D01*
X-10650Y-31495D01*
X-11650Y-32495D01*
X-10650D01*
X-9650Y-33495D01*
Y-32695D02*
X-9050Y-32095D01*
X-8450D01*
X-9050Y-31495D01*
X-8450Y-30895D01*
X-9050D01*
X-9650Y-30295D01*
X-10250Y-30895D01*
X-10850D01*
X-10250Y-31495D01*
X-10850Y-32095D01*
X-10250D01*
X-9650Y-32695D01*
X-13400Y-40995D02*
X-12400Y-39995D01*
X-11400D01*
X-12400Y-38995D01*
X-11400Y-37995D01*
X-12400D01*
X-13400Y-36995D01*
X-14400Y-37995D01*
X-15400D01*
X-14400Y-38995D01*
X-15400Y-39995D01*
X-14400D01*
X-13400Y-40995D01*
Y-40195D02*
X-12800Y-39595D01*
X-12200D01*
X-12800Y-38995D01*
X-12200Y-38395D01*
X-12800D01*
X-13400Y-37795D01*
X-14000Y-38395D01*
X-14600D01*
X-14000Y-38995D01*
X-14600Y-39595D01*
X-14000D01*
X-13400Y-40195D01*
Y-85995D02*
X-12400Y-84995D01*
X-11400D01*
X-12400Y-83995D01*
X-11400Y-82995D01*
X-12400D01*
X-13400Y-81995D01*
X-14400Y-82995D01*
X-15400D01*
X-14400Y-83995D01*
X-15400Y-84995D01*
X-14400D01*
X-13400Y-85995D01*
Y-85195D02*
X-12800Y-84595D01*
X-12200D01*
X-12800Y-83995D01*
X-12200Y-83395D01*
X-12800D01*
X-13400Y-82795D01*
X-14000Y-83395D01*
X-14600D01*
X-14000Y-83995D01*
X-14600Y-84595D01*
X-14000D01*
X-13400Y-85195D01*
Y-100995D02*
X-12400Y-99995D01*
X-11400D01*
X-12400Y-98995D01*
X-11400Y-97995D01*
X-12400D01*
X-13400Y-96995D01*
X-14400Y-97995D01*
X-15400D01*
X-14400Y-98995D01*
X-15400Y-99995D01*
X-14400D01*
X-13400Y-100995D01*
Y-100195D02*
X-12800Y-99595D01*
X-12200D01*
X-12800Y-98995D01*
X-12200Y-98395D01*
X-12800D01*
X-13400Y-97795D01*
X-14000Y-98395D01*
X-14600D01*
X-14000Y-98995D01*
X-14600Y-99595D01*
X-14000D01*
X-13400Y-100195D01*
X-9650Y-108495D02*
X-8650Y-107495D01*
X-7650D01*
X-8650Y-106495D01*
X-7650Y-105495D01*
X-8650D01*
X-9650Y-104495D01*
X-10650Y-105495D01*
X-11650D01*
X-10650Y-106495D01*
X-11650Y-107495D01*
X-10650D01*
X-9650Y-108495D01*
Y-107695D02*
X-9050Y-107095D01*
X-8450D01*
X-9050Y-106495D01*
X-8450Y-105895D01*
X-9050D01*
X-9650Y-105295D01*
X-10250Y-105895D01*
X-10850D01*
X-10250Y-106495D01*
X-10850Y-107095D01*
X-10250D01*
X-9650Y-107695D01*
X-13400Y-115995D02*
X-12400Y-114995D01*
X-11400D01*
X-12400Y-113995D01*
X-11400Y-112995D01*
X-12400D01*
X-13400Y-111995D01*
X-14400Y-112995D01*
X-15400D01*
X-14400Y-113995D01*
X-15400Y-114995D01*
X-14400D01*
X-13400Y-115995D01*
Y-115195D02*
X-12800Y-114595D01*
X-12200D01*
X-12800Y-113995D01*
X-12200Y-113395D01*
X-12800D01*
X-13400Y-112795D01*
X-14000Y-113395D01*
X-14600D01*
X-14000Y-113995D01*
X-14600Y-114595D01*
X-14000D01*
X-13400Y-115195D01*
X-20900Y-10995D02*
X-19900Y-9995D01*
X-18900D01*
X-19900Y-8995D01*
X-18900Y-7995D01*
X-19900D01*
X-20900Y-6995D01*
X-21900Y-7995D01*
X-22900D01*
X-21900Y-8995D01*
X-22900Y-9995D01*
X-21900D01*
X-20900Y-10995D01*
Y-10195D02*
X-20300Y-9595D01*
X-19700D01*
X-20300Y-8995D01*
X-19700Y-8395D01*
X-20300D01*
X-20900Y-7795D01*
X-21500Y-8395D01*
X-22100D01*
X-21500Y-8995D01*
X-22100Y-9595D01*
X-21500D01*
X-20900Y-10195D01*
Y-25995D02*
X-19900Y-24995D01*
X-18900D01*
X-19900Y-23995D01*
X-18900Y-22995D01*
X-19900D01*
X-20900Y-21995D01*
X-21900Y-22995D01*
X-22900D01*
X-21900Y-23995D01*
X-22900Y-24995D01*
X-21900D01*
X-20900Y-25995D01*
Y-25195D02*
X-20300Y-24595D01*
X-19700D01*
X-20300Y-23995D01*
X-19700Y-23395D01*
X-20300D01*
X-20900Y-22795D01*
X-21500Y-23395D01*
X-22100D01*
X-21500Y-23995D01*
X-22100Y-24595D01*
X-21500D01*
X-20900Y-25195D01*
X-17150Y-33495D02*
X-16150Y-32495D01*
X-15150D01*
X-16150Y-31495D01*
X-15150Y-30495D01*
X-16150D01*
X-17150Y-29495D01*
X-18150Y-30495D01*
X-19150D01*
X-18150Y-31495D01*
X-19150Y-32495D01*
X-18150D01*
X-17150Y-33495D01*
Y-32695D02*
X-16550Y-32095D01*
X-15950D01*
X-16550Y-31495D01*
X-15950Y-30895D01*
X-16550D01*
X-17150Y-30295D01*
X-17750Y-30895D01*
X-18350D01*
X-17750Y-31495D01*
X-18350Y-32095D01*
X-17750D01*
X-17150Y-32695D01*
X-20900Y-100995D02*
X-19900Y-99995D01*
X-18900D01*
X-19900Y-98995D01*
X-18900Y-97995D01*
X-19900D01*
X-20900Y-96995D01*
X-21900Y-97995D01*
X-22900D01*
X-21900Y-98995D01*
X-22900Y-99995D01*
X-21900D01*
X-20900Y-100995D01*
Y-100195D02*
X-20300Y-99595D01*
X-19700D01*
X-20300Y-98995D01*
X-19700Y-98395D01*
X-20300D01*
X-20900Y-97795D01*
X-21500Y-98395D01*
X-22100D01*
X-21500Y-98995D01*
X-22100Y-99595D01*
X-21500D01*
X-20900Y-100195D01*
X-17150Y-108495D02*
X-16150Y-107495D01*
X-15150D01*
X-16150Y-106495D01*
X-15150Y-105495D01*
X-16150D01*
X-17150Y-104495D01*
X-18150Y-105495D01*
X-19150D01*
X-18150Y-106495D01*
X-19150Y-107495D01*
X-18150D01*
X-17150Y-108495D01*
Y-107695D02*
X-16550Y-107095D01*
X-15950D01*
X-16550Y-106495D01*
X-15950Y-105895D01*
X-16550D01*
X-17150Y-105295D01*
X-17750Y-105895D01*
X-18350D01*
X-17750Y-106495D01*
X-18350Y-107095D01*
X-17750D01*
X-17150Y-107695D01*
X-20900Y-115995D02*
X-19900Y-114995D01*
X-18900D01*
X-19900Y-113995D01*
X-18900Y-112995D01*
X-19900D01*
X-20900Y-111995D01*
X-21900Y-112995D01*
X-22900D01*
X-21900Y-113995D01*
X-22900Y-114995D01*
X-21900D01*
X-20900Y-115995D01*
Y-115195D02*
X-20300Y-114595D01*
X-19700D01*
X-20300Y-113995D01*
X-19700Y-113395D01*
X-20300D01*
X-20900Y-112795D01*
X-21500Y-113395D01*
X-22100D01*
X-21500Y-113995D01*
X-22100Y-114595D01*
X-21500D01*
X-20900Y-115195D01*
Y-130995D02*
X-19900Y-129995D01*
X-18900D01*
X-19900Y-128995D01*
X-18900Y-127995D01*
X-19900D01*
X-20900Y-126995D01*
X-21900Y-127995D01*
X-22900D01*
X-21900Y-128995D01*
X-22900Y-129995D01*
X-21900D01*
X-20900Y-130995D01*
Y-130195D02*
X-20300Y-129595D01*
X-19700D01*
X-20300Y-128995D01*
X-19700Y-128395D01*
X-20300D01*
X-20900Y-127795D01*
X-21500Y-128395D01*
X-22100D01*
X-21500Y-128995D01*
X-22100Y-129595D01*
X-21500D01*
X-20900Y-130195D01*
X-28400Y-85995D02*
X-27400Y-84995D01*
X-26400D01*
X-27400Y-83995D01*
X-26400Y-82995D01*
X-27400D01*
X-28400Y-81995D01*
X-29400Y-82995D01*
X-30400D01*
X-29400Y-83995D01*
X-30400Y-84995D01*
X-29400D01*
X-28400Y-85995D01*
Y-85195D02*
X-27800Y-84595D01*
X-27200D01*
X-27800Y-83995D01*
X-27200Y-83395D01*
X-27800D01*
X-28400Y-82795D01*
X-29000Y-83395D01*
X-29600D01*
X-29000Y-83995D01*
X-29600Y-84595D01*
X-29000D01*
X-28400Y-85195D01*
X-24650Y-93495D02*
X-23650Y-92495D01*
X-22650D01*
X-23650Y-91495D01*
X-22650Y-90495D01*
X-23650D01*
X-24650Y-89495D01*
X-25650Y-90495D01*
X-26650D01*
X-25650Y-91495D01*
X-26650Y-92495D01*
X-25650D01*
X-24650Y-93495D01*
Y-92695D02*
X-24050Y-92095D01*
X-23450D01*
X-24050Y-91495D01*
X-23450Y-90895D01*
X-24050D01*
X-24650Y-90295D01*
X-25250Y-90895D01*
X-25850D01*
X-25250Y-91495D01*
X-25850Y-92095D01*
X-25250D01*
X-24650Y-92695D01*
X-28400Y-100995D02*
X-27400Y-99995D01*
X-26400D01*
X-27400Y-98995D01*
X-26400Y-97995D01*
X-27400D01*
X-28400Y-96995D01*
X-29400Y-97995D01*
X-30400D01*
X-29400Y-98995D01*
X-30400Y-99995D01*
X-29400D01*
X-28400Y-100995D01*
Y-100195D02*
X-27800Y-99595D01*
X-27200D01*
X-27800Y-98995D01*
X-27200Y-98395D01*
X-27800D01*
X-28400Y-97795D01*
X-29000Y-98395D01*
X-29600D01*
X-29000Y-98995D01*
X-29600Y-99595D01*
X-29000D01*
X-28400Y-100195D01*
X-24650Y-108495D02*
X-23650Y-107495D01*
X-22650D01*
X-23650Y-106495D01*
X-22650Y-105495D01*
X-23650D01*
X-24650Y-104495D01*
X-25650Y-105495D01*
X-26650D01*
X-25650Y-106495D01*
X-26650Y-107495D01*
X-25650D01*
X-24650Y-108495D01*
Y-107695D02*
X-24050Y-107095D01*
X-23450D01*
X-24050Y-106495D01*
X-23450Y-105895D01*
X-24050D01*
X-24650Y-105295D01*
X-25250Y-105895D01*
X-25850D01*
X-25250Y-106495D01*
X-25850Y-107095D01*
X-25250D01*
X-24650Y-107695D01*
Y-123495D02*
X-23650Y-122495D01*
X-22650D01*
X-23650Y-121495D01*
X-22650Y-120495D01*
X-23650D01*
X-24650Y-119495D01*
X-25650Y-120495D01*
X-26650D01*
X-25650Y-121495D01*
X-26650Y-122495D01*
X-25650D01*
X-24650Y-123495D01*
Y-122695D02*
X-24050Y-122095D01*
X-23450D01*
X-24050Y-121495D01*
X-23450Y-120895D01*
X-24050D01*
X-24650Y-120295D01*
X-25250Y-120895D01*
X-25850D01*
X-25250Y-121495D01*
X-25850Y-122095D01*
X-25250D01*
X-24650Y-122695D01*
X-32150Y-33495D02*
X-31150Y-32495D01*
X-30150D01*
X-31150Y-31495D01*
X-30150Y-30495D01*
X-31150D01*
X-32150Y-29495D01*
X-33150Y-30495D01*
X-34150D01*
X-33150Y-31495D01*
X-34150Y-32495D01*
X-33150D01*
X-32150Y-33495D01*
Y-32695D02*
X-31550Y-32095D01*
X-30950D01*
X-31550Y-31495D01*
X-30950Y-30895D01*
X-31550D01*
X-32150Y-30295D01*
X-32750Y-30895D01*
X-33350D01*
X-32750Y-31495D01*
X-33350Y-32095D01*
X-32750D01*
X-32150Y-32695D01*
X-35900Y-100995D02*
X-34900Y-99995D01*
X-33900D01*
X-34900Y-98995D01*
X-33900Y-97995D01*
X-34900D01*
X-35900Y-96995D01*
X-36900Y-97995D01*
X-37900D01*
X-36900Y-98995D01*
X-37900Y-99995D01*
X-36900D01*
X-35900Y-100995D01*
Y-100195D02*
X-35300Y-99595D01*
X-34700D01*
X-35300Y-98995D01*
X-34700Y-98395D01*
X-35300D01*
X-35900Y-97795D01*
X-36500Y-98395D01*
X-37100D01*
X-36500Y-98995D01*
X-37100Y-99595D01*
X-36500D01*
X-35900Y-100195D01*
Y-115995D02*
X-34900Y-114995D01*
X-33900D01*
X-34900Y-113995D01*
X-33900Y-112995D01*
X-34900D01*
X-35900Y-111995D01*
X-36900Y-112995D01*
X-37900D01*
X-36900Y-113995D01*
X-37900Y-114995D01*
X-36900D01*
X-35900Y-115995D01*
Y-115195D02*
X-35300Y-114595D01*
X-34700D01*
X-35300Y-113995D01*
X-34700Y-113395D01*
X-35300D01*
X-35900Y-112795D01*
X-36500Y-113395D01*
X-37100D01*
X-36500Y-113995D01*
X-37100Y-114595D01*
X-36500D01*
X-35900Y-115195D01*
X-43400Y-25995D02*
X-42400Y-24995D01*
X-41400D01*
X-42400Y-23995D01*
X-41400Y-22995D01*
X-42400D01*
X-43400Y-21995D01*
X-44400Y-22995D01*
X-45400D01*
X-44400Y-23995D01*
X-45400Y-24995D01*
X-44400D01*
X-43400Y-25995D01*
Y-25195D02*
X-42800Y-24595D01*
X-42200D01*
X-42800Y-23995D01*
X-42200Y-23395D01*
X-42800D01*
X-43400Y-22795D01*
X-44000Y-23395D01*
X-44600D01*
X-44000Y-23995D01*
X-44600Y-24595D01*
X-44000D01*
X-43400Y-25195D01*
X-39650Y-108495D02*
X-38650Y-107495D01*
X-37650D01*
X-38650Y-106495D01*
X-37650Y-105495D01*
X-38650D01*
X-39650Y-104495D01*
X-40650Y-105495D01*
X-41650D01*
X-40650Y-106495D01*
X-41650Y-107495D01*
X-40650D01*
X-39650Y-108495D01*
Y-107695D02*
X-39050Y-107095D01*
X-38450D01*
X-39050Y-106495D01*
X-38450Y-105895D01*
X-39050D01*
X-39650Y-105295D01*
X-40250Y-105895D01*
X-40850D01*
X-40250Y-106495D01*
X-40850Y-107095D01*
X-40250D01*
X-39650Y-107695D01*
Y-123495D02*
X-38650Y-122495D01*
X-37650D01*
X-38650Y-121495D01*
X-37650Y-120495D01*
X-38650D01*
X-39650Y-119495D01*
X-40650Y-120495D01*
X-41650D01*
X-40650Y-121495D01*
X-41650Y-122495D01*
X-40650D01*
X-39650Y-123495D01*
Y-122695D02*
X-39050Y-122095D01*
X-38450D01*
X-39050Y-121495D01*
X-38450Y-120895D01*
X-39050D01*
X-39650Y-120295D01*
X-40250Y-120895D01*
X-40850D01*
X-40250Y-121495D01*
X-40850Y-122095D01*
X-40250D01*
X-39650Y-122695D01*
X-47150Y-33495D02*
X-46150Y-32495D01*
X-45150D01*
X-46150Y-31495D01*
X-45150Y-30495D01*
X-46150D01*
X-47150Y-29495D01*
X-48150Y-30495D01*
X-49150D01*
X-48150Y-31495D01*
X-49150Y-32495D01*
X-48150D01*
X-47150Y-33495D01*
Y-32695D02*
X-46550Y-32095D01*
X-45950D01*
X-46550Y-31495D01*
X-45950Y-30895D01*
X-46550D01*
X-47150Y-30295D01*
X-47750Y-30895D01*
X-48350D01*
X-47750Y-31495D01*
X-48350Y-32095D01*
X-47750D01*
X-47150Y-32695D01*
Y-123495D02*
X-46150Y-122495D01*
X-45150D01*
X-46150Y-121495D01*
X-45150Y-120495D01*
X-46150D01*
X-47150Y-119495D01*
X-48150Y-120495D01*
X-49150D01*
X-48150Y-121495D01*
X-49150Y-122495D01*
X-48150D01*
X-47150Y-123495D01*
Y-122695D02*
X-46550Y-122095D01*
X-45950D01*
X-46550Y-121495D01*
X-45950Y-120895D01*
X-46550D01*
X-47150Y-120295D01*
X-47750Y-120895D01*
X-48350D01*
X-47750Y-121495D01*
X-48350Y-122095D01*
X-47750D01*
X-47150Y-122695D01*
X-58400Y-25995D02*
X-57400Y-24995D01*
X-56400D01*
X-57400Y-23995D01*
X-56400Y-22995D01*
X-57400D01*
X-58400Y-21995D01*
X-59400Y-22995D01*
X-60400D01*
X-59400Y-23995D01*
X-60400Y-24995D01*
X-59400D01*
X-58400Y-25995D01*
Y-25195D02*
X-57800Y-24595D01*
X-57200D01*
X-57800Y-23995D01*
X-57200Y-23395D01*
X-57800D01*
X-58400Y-22795D01*
X-59000Y-23395D01*
X-59600D01*
X-59000Y-23995D01*
X-59600Y-24595D01*
X-59000D01*
X-58400Y-25195D01*
Y-40995D02*
X-57400Y-39995D01*
X-56400D01*
X-57400Y-38995D01*
X-56400Y-37995D01*
X-57400D01*
X-58400Y-36995D01*
X-59400Y-37995D01*
X-60400D01*
X-59400Y-38995D01*
X-60400Y-39995D01*
X-59400D01*
X-58400Y-40995D01*
Y-40195D02*
X-57800Y-39595D01*
X-57200D01*
X-57800Y-38995D01*
X-57200Y-38395D01*
X-57800D01*
X-58400Y-37795D01*
X-59000Y-38395D01*
X-59600D01*
X-59000Y-38995D01*
X-59600Y-39595D01*
X-59000D01*
X-58400Y-40195D01*
Y-115995D02*
X-57400Y-114995D01*
X-56400D01*
X-57400Y-113995D01*
X-56400Y-112995D01*
X-57400D01*
X-58400Y-111995D01*
X-59400Y-112995D01*
X-60400D01*
X-59400Y-113995D01*
X-60400Y-114995D01*
X-59400D01*
X-58400Y-115995D01*
Y-115195D02*
X-57800Y-114595D01*
X-57200D01*
X-57800Y-113995D01*
X-57200Y-113395D01*
X-57800D01*
X-58400Y-112795D01*
X-59000Y-113395D01*
X-59600D01*
X-59000Y-113995D01*
X-59600Y-114595D01*
X-59000D01*
X-58400Y-115195D01*
Y-130995D02*
X-57400Y-129995D01*
X-56400D01*
X-57400Y-128995D01*
X-56400Y-127995D01*
X-57400D01*
X-58400Y-126995D01*
X-59400Y-127995D01*
X-60400D01*
X-59400Y-128995D01*
X-60400Y-129995D01*
X-59400D01*
X-58400Y-130995D01*
Y-130195D02*
X-57800Y-129595D01*
X-57200D01*
X-57800Y-128995D01*
X-57200Y-128395D01*
X-57800D01*
X-58400Y-127795D01*
X-59000Y-128395D01*
X-59600D01*
X-59000Y-128995D01*
X-59600Y-129595D01*
X-59000D01*
X-58400Y-130195D01*
X-65900Y-10995D02*
X-64900Y-9995D01*
X-63900D01*
X-64900Y-8995D01*
X-63900Y-7995D01*
X-64900D01*
X-65900Y-6995D01*
X-66900Y-7995D01*
X-67900D01*
X-66900Y-8995D01*
X-67900Y-9995D01*
X-66900D01*
X-65900Y-10995D01*
Y-10195D02*
X-65300Y-9595D01*
X-64700D01*
X-65300Y-8995D01*
X-64700Y-8395D01*
X-65300D01*
X-65900Y-7795D01*
X-66500Y-8395D01*
X-67100D01*
X-66500Y-8995D01*
X-67100Y-9595D01*
X-66500D01*
X-65900Y-10195D01*
Y-25995D02*
X-64900Y-24995D01*
X-63900D01*
X-64900Y-23995D01*
X-63900Y-22995D01*
X-64900D01*
X-65900Y-21995D01*
X-66900Y-22995D01*
X-67900D01*
X-66900Y-23995D01*
X-67900Y-24995D01*
X-66900D01*
X-65900Y-25995D01*
Y-25195D02*
X-65300Y-24595D01*
X-64700D01*
X-65300Y-23995D01*
X-64700Y-23395D01*
X-65300D01*
X-65900Y-22795D01*
X-66500Y-23395D01*
X-67100D01*
X-66500Y-23995D01*
X-67100Y-24595D01*
X-66500D01*
X-65900Y-25195D01*
X-62150Y-33495D02*
X-61150Y-32495D01*
X-60150D01*
X-61150Y-31495D01*
X-60150Y-30495D01*
X-61150D01*
X-62150Y-29495D01*
X-63150Y-30495D01*
X-64150D01*
X-63150Y-31495D01*
X-64150Y-32495D01*
X-63150D01*
X-62150Y-33495D01*
Y-32695D02*
X-61550Y-32095D01*
X-60950D01*
X-61550Y-31495D01*
X-60950Y-30895D01*
X-61550D01*
X-62150Y-30295D01*
X-62750Y-30895D01*
X-63350D01*
X-62750Y-31495D01*
X-63350Y-32095D01*
X-62750D01*
X-62150Y-32695D01*
X-73400Y-10995D02*
X-72400Y-9995D01*
X-71400D01*
X-72400Y-8995D01*
X-71400Y-7995D01*
X-72400D01*
X-73400Y-6995D01*
X-74400Y-7995D01*
X-75400D01*
X-74400Y-8995D01*
X-75400Y-9995D01*
X-74400D01*
X-73400Y-10995D01*
Y-10195D02*
X-72800Y-9595D01*
X-72200D01*
X-72800Y-8995D01*
X-72200Y-8395D01*
X-72800D01*
X-73400Y-7795D01*
X-74000Y-8395D01*
X-74600D01*
X-74000Y-8995D01*
X-74600Y-9595D01*
X-74000D01*
X-73400Y-10195D01*
Y-25995D02*
X-72400Y-24995D01*
X-71400D01*
X-72400Y-23995D01*
X-71400Y-22995D01*
X-72400D01*
X-73400Y-21995D01*
X-74400Y-22995D01*
X-75400D01*
X-74400Y-23995D01*
X-75400Y-24995D01*
X-74400D01*
X-73400Y-25995D01*
Y-25195D02*
X-72800Y-24595D01*
X-72200D01*
X-72800Y-23995D01*
X-72200Y-23395D01*
X-72800D01*
X-73400Y-22795D01*
X-74000Y-23395D01*
X-74600D01*
X-74000Y-23995D01*
X-74600Y-24595D01*
X-74000D01*
X-73400Y-25195D01*
X-69650Y-33495D02*
X-68650Y-32495D01*
X-67650D01*
X-68650Y-31495D01*
X-67650Y-30495D01*
X-68650D01*
X-69650Y-29495D01*
X-70650Y-30495D01*
X-71650D01*
X-70650Y-31495D01*
X-71650Y-32495D01*
X-70650D01*
X-69650Y-33495D01*
Y-32695D02*
X-69050Y-32095D01*
X-68450D01*
X-69050Y-31495D01*
X-68450Y-30895D01*
X-69050D01*
X-69650Y-30295D01*
X-70250Y-30895D01*
X-70850D01*
X-70250Y-31495D01*
X-70850Y-32095D01*
X-70250D01*
X-69650Y-32695D01*
X-73400Y-40995D02*
X-72400Y-39995D01*
X-71400D01*
X-72400Y-38995D01*
X-71400Y-37995D01*
X-72400D01*
X-73400Y-36995D01*
X-74400Y-37995D01*
X-75400D01*
X-74400Y-38995D01*
X-75400Y-39995D01*
X-74400D01*
X-73400Y-40995D01*
Y-40195D02*
X-72800Y-39595D01*
X-72200D01*
X-72800Y-38995D01*
X-72200Y-38395D01*
X-72800D01*
X-73400Y-37795D01*
X-74000Y-38395D01*
X-74600D01*
X-74000Y-38995D01*
X-74600Y-39595D01*
X-74000D01*
X-73400Y-40195D01*
Y-55995D02*
X-72400Y-54995D01*
X-71400D01*
X-72400Y-53995D01*
X-71400Y-52995D01*
X-72400D01*
X-73400Y-51995D01*
X-74400Y-52995D01*
X-75400D01*
X-74400Y-53995D01*
X-75400Y-54995D01*
X-74400D01*
X-73400Y-55995D01*
Y-55195D02*
X-72800Y-54595D01*
X-72200D01*
X-72800Y-53995D01*
X-72200Y-53395D01*
X-72800D01*
X-73400Y-52795D01*
X-74000Y-53395D01*
X-74600D01*
X-74000Y-53995D01*
X-74600Y-54595D01*
X-74000D01*
X-73400Y-55195D01*
Y-100995D02*
X-72400Y-99995D01*
X-71400D01*
X-72400Y-98995D01*
X-71400Y-97995D01*
X-72400D01*
X-73400Y-96995D01*
X-74400Y-97995D01*
X-75400D01*
X-74400Y-98995D01*
X-75400Y-99995D01*
X-74400D01*
X-73400Y-100995D01*
Y-100195D02*
X-72800Y-99595D01*
X-72200D01*
X-72800Y-98995D01*
X-72200Y-98395D01*
X-72800D01*
X-73400Y-97795D01*
X-74000Y-98395D01*
X-74600D01*
X-74000Y-98995D01*
X-74600Y-99595D01*
X-74000D01*
X-73400Y-100195D01*
X-69650Y-108495D02*
X-68650Y-107495D01*
X-67650D01*
X-68650Y-106495D01*
X-67650Y-105495D01*
X-68650D01*
X-69650Y-104495D01*
X-70650Y-105495D01*
X-71650D01*
X-70650Y-106495D01*
X-71650Y-107495D01*
X-70650D01*
X-69650Y-108495D01*
Y-107695D02*
X-69050Y-107095D01*
X-68450D01*
X-69050Y-106495D01*
X-68450Y-105895D01*
X-69050D01*
X-69650Y-105295D01*
X-70250Y-105895D01*
X-70850D01*
X-70250Y-106495D01*
X-70850Y-107095D01*
X-70250D01*
X-69650Y-107695D01*
X-80900Y-10995D02*
X-79900Y-9995D01*
X-78900D01*
X-79900Y-8995D01*
X-78900Y-7995D01*
X-79900D01*
X-80900Y-6995D01*
X-81900Y-7995D01*
X-82900D01*
X-81900Y-8995D01*
X-82900Y-9995D01*
X-81900D01*
X-80900Y-10995D01*
Y-10195D02*
X-80300Y-9595D01*
X-79700D01*
X-80300Y-8995D01*
X-79700Y-8395D01*
X-80300D01*
X-80900Y-7795D01*
X-81500Y-8395D01*
X-82100D01*
X-81500Y-8995D01*
X-82100Y-9595D01*
X-81500D01*
X-80900Y-10195D01*
Y-25995D02*
X-79900Y-24995D01*
X-78900D01*
X-79900Y-23995D01*
X-78900Y-22995D01*
X-79900D01*
X-80900Y-21995D01*
X-81900Y-22995D01*
X-82900D01*
X-81900Y-23995D01*
X-82900Y-24995D01*
X-81900D01*
X-80900Y-25995D01*
Y-25195D02*
X-80300Y-24595D01*
X-79700D01*
X-80300Y-23995D01*
X-79700Y-23395D01*
X-80300D01*
X-80900Y-22795D01*
X-81500Y-23395D01*
X-82100D01*
X-81500Y-23995D01*
X-82100Y-24595D01*
X-81500D01*
X-80900Y-25195D01*
Y-40995D02*
X-79900Y-39995D01*
X-78900D01*
X-79900Y-38995D01*
X-78900Y-37995D01*
X-79900D01*
X-80900Y-36995D01*
X-81900Y-37995D01*
X-82900D01*
X-81900Y-38995D01*
X-82900Y-39995D01*
X-81900D01*
X-80900Y-40995D01*
Y-40195D02*
X-80300Y-39595D01*
X-79700D01*
X-80300Y-38995D01*
X-79700Y-38395D01*
X-80300D01*
X-80900Y-37795D01*
X-81500Y-38395D01*
X-82100D01*
X-81500Y-38995D01*
X-82100Y-39595D01*
X-81500D01*
X-80900Y-40195D01*
X-88400Y-10995D02*
X-87400Y-9995D01*
X-86400D01*
X-87400Y-8995D01*
X-86400Y-7995D01*
X-87400D01*
X-88400Y-6995D01*
X-89400Y-7995D01*
X-90400D01*
X-89400Y-8995D01*
X-90400Y-9995D01*
X-89400D01*
X-88400Y-10995D01*
Y-10195D02*
X-87800Y-9595D01*
X-87200D01*
X-87800Y-8995D01*
X-87200Y-8395D01*
X-87800D01*
X-88400Y-7795D01*
X-89000Y-8395D01*
X-89600D01*
X-89000Y-8995D01*
X-89600Y-9595D01*
X-89000D01*
X-88400Y-10195D01*
Y-25995D02*
X-87400Y-24995D01*
X-86400D01*
X-87400Y-23995D01*
X-86400Y-22995D01*
X-87400D01*
X-88400Y-21995D01*
X-89400Y-22995D01*
X-90400D01*
X-89400Y-23995D01*
X-90400Y-24995D01*
X-89400D01*
X-88400Y-25995D01*
Y-25195D02*
X-87800Y-24595D01*
X-87200D01*
X-87800Y-23995D01*
X-87200Y-23395D01*
X-87800D01*
X-88400Y-22795D01*
X-89000Y-23395D01*
X-89600D01*
X-89000Y-23995D01*
X-89600Y-24595D01*
X-89000D01*
X-88400Y-25195D01*
Y-40995D02*
X-87400Y-39995D01*
X-86400D01*
X-87400Y-38995D01*
X-86400Y-37995D01*
X-87400D01*
X-88400Y-36995D01*
X-89400Y-37995D01*
X-90400D01*
X-89400Y-38995D01*
X-90400Y-39995D01*
X-89400D01*
X-88400Y-40995D01*
Y-40195D02*
X-87800Y-39595D01*
X-87200D01*
X-87800Y-38995D01*
X-87200Y-38395D01*
X-87800D01*
X-88400Y-37795D01*
X-89000Y-38395D01*
X-89600D01*
X-89000Y-38995D01*
X-89600Y-39595D01*
X-89000D01*
X-88400Y-40195D01*
Y-115995D02*
X-87400Y-114995D01*
X-86400D01*
X-87400Y-113995D01*
X-86400Y-112995D01*
X-87400D01*
X-88400Y-111995D01*
X-89400Y-112995D01*
X-90400D01*
X-89400Y-113995D01*
X-90400Y-114995D01*
X-89400D01*
X-88400Y-115995D01*
Y-115195D02*
X-87800Y-114595D01*
X-87200D01*
X-87800Y-113995D01*
X-87200Y-113395D01*
X-87800D01*
X-88400Y-112795D01*
X-89000Y-113395D01*
X-89600D01*
X-89000Y-113995D01*
X-89600Y-114595D01*
X-89000D01*
X-88400Y-115195D01*
X-95900Y-10995D02*
X-94900Y-9995D01*
X-93900D01*
X-94900Y-8995D01*
X-93900Y-7995D01*
X-94900D01*
X-95900Y-6995D01*
X-96900Y-7995D01*
X-97900D01*
X-96900Y-8995D01*
X-97900Y-9995D01*
X-96900D01*
X-95900Y-10995D01*
Y-10195D02*
X-95300Y-9595D01*
X-94700D01*
X-95300Y-8995D01*
X-94700Y-8395D01*
X-95300D01*
X-95900Y-7795D01*
X-96500Y-8395D01*
X-97100D01*
X-96500Y-8995D01*
X-97100Y-9595D01*
X-96500D01*
X-95900Y-10195D01*
X-92150Y-33495D02*
X-91150Y-32495D01*
X-90150D01*
X-91150Y-31495D01*
X-90150Y-30495D01*
X-91150D01*
X-92150Y-29495D01*
X-93150Y-30495D01*
X-94150D01*
X-93150Y-31495D01*
X-94150Y-32495D01*
X-93150D01*
X-92150Y-33495D01*
Y-32695D02*
X-91550Y-32095D01*
X-90950D01*
X-91550Y-31495D01*
X-90950Y-30895D01*
X-91550D01*
X-92150Y-30295D01*
X-92750Y-30895D01*
X-93350D01*
X-92750Y-31495D01*
X-93350Y-32095D01*
X-92750D01*
X-92150Y-32695D01*
X-103400Y-10995D02*
X-102400Y-9995D01*
X-101400D01*
X-102400Y-8995D01*
X-101400Y-7995D01*
X-102400D01*
X-103400Y-6995D01*
X-104400Y-7995D01*
X-105400D01*
X-104400Y-8995D01*
X-105400Y-9995D01*
X-104400D01*
X-103400Y-10995D01*
Y-10195D02*
X-102800Y-9595D01*
X-102200D01*
X-102800Y-8995D01*
X-102200Y-8395D01*
X-102800D01*
X-103400Y-7795D01*
X-104000Y-8395D01*
X-104600D01*
X-104000Y-8995D01*
X-104600Y-9595D01*
X-104000D01*
X-103400Y-10195D01*
Y-25995D02*
X-102400Y-24995D01*
X-101400D01*
X-102400Y-23995D01*
X-101400Y-22995D01*
X-102400D01*
X-103400Y-21995D01*
X-104400Y-22995D01*
X-105400D01*
X-104400Y-23995D01*
X-105400Y-24995D01*
X-104400D01*
X-103400Y-25995D01*
Y-25195D02*
X-102800Y-24595D01*
X-102200D01*
X-102800Y-23995D01*
X-102200Y-23395D01*
X-102800D01*
X-103400Y-22795D01*
X-104000Y-23395D01*
X-104600D01*
X-104000Y-23995D01*
X-104600Y-24595D01*
X-104000D01*
X-103400Y-25195D01*
Y-40995D02*
X-102400Y-39995D01*
X-101400D01*
X-102400Y-38995D01*
X-101400Y-37995D01*
X-102400D01*
X-103400Y-36995D01*
X-104400Y-37995D01*
X-105400D01*
X-104400Y-38995D01*
X-105400Y-39995D01*
X-104400D01*
X-103400Y-40995D01*
Y-40195D02*
X-102800Y-39595D01*
X-102200D01*
X-102800Y-38995D01*
X-102200Y-38395D01*
X-102800D01*
X-103400Y-37795D01*
X-104000Y-38395D01*
X-104600D01*
X-104000Y-38995D01*
X-104600Y-39595D01*
X-104000D01*
X-103400Y-40195D01*
X-99650Y-48495D02*
X-98650Y-47495D01*
X-97650D01*
X-98650Y-46495D01*
X-97650Y-45495D01*
X-98650D01*
X-99650Y-44495D01*
X-100650Y-45495D01*
X-101650D01*
X-100650Y-46495D01*
X-101650Y-47495D01*
X-100650D01*
X-99650Y-48495D01*
Y-47695D02*
X-99050Y-47095D01*
X-98450D01*
X-99050Y-46495D01*
X-98450Y-45895D01*
X-99050D01*
X-99650Y-45295D01*
X-100250Y-45895D01*
X-100850D01*
X-100250Y-46495D01*
X-100850Y-47095D01*
X-100250D01*
X-99650Y-47695D01*
Y-78495D02*
X-98650Y-77495D01*
X-97650D01*
X-98650Y-76495D01*
X-97650Y-75495D01*
X-98650D01*
X-99650Y-74495D01*
X-100650Y-75495D01*
X-101650D01*
X-100650Y-76495D01*
X-101650Y-77495D01*
X-100650D01*
X-99650Y-78495D01*
Y-77695D02*
X-99050Y-77095D01*
X-98450D01*
X-99050Y-76495D01*
X-98450Y-75895D01*
X-99050D01*
X-99650Y-75295D01*
X-100250Y-75895D01*
X-100850D01*
X-100250Y-76495D01*
X-100850Y-77095D01*
X-100250D01*
X-99650Y-77695D01*
X-103400Y-115995D02*
X-102400Y-114995D01*
X-101400D01*
X-102400Y-113995D01*
X-101400Y-112995D01*
X-102400D01*
X-103400Y-111995D01*
X-104400Y-112995D01*
X-105400D01*
X-104400Y-113995D01*
X-105400Y-114995D01*
X-104400D01*
X-103400Y-115995D01*
Y-115195D02*
X-102800Y-114595D01*
X-102200D01*
X-102800Y-113995D01*
X-102200Y-113395D01*
X-102800D01*
X-103400Y-112795D01*
X-104000Y-113395D01*
X-104600D01*
X-104000Y-113995D01*
X-104600Y-114595D01*
X-104000D01*
X-103400Y-115195D01*
Y-130995D02*
X-102400Y-129995D01*
X-101400D01*
X-102400Y-128995D01*
X-101400Y-127995D01*
X-102400D01*
X-103400Y-126995D01*
X-104400Y-127995D01*
X-105400D01*
X-104400Y-128995D01*
X-105400Y-129995D01*
X-104400D01*
X-103400Y-130995D01*
Y-130195D02*
X-102800Y-129595D01*
X-102200D01*
X-102800Y-128995D01*
X-102200Y-128395D01*
X-102800D01*
X-103400Y-127795D01*
X-104000Y-128395D01*
X-104600D01*
X-104000Y-128995D01*
X-104600Y-129595D01*
X-104000D01*
X-103400Y-130195D01*
X-110900Y-10995D02*
X-109900Y-9995D01*
X-108900D01*
X-109900Y-8995D01*
X-108900Y-7995D01*
X-109900D01*
X-110900Y-6995D01*
X-111900Y-7995D01*
X-112900D01*
X-111900Y-8995D01*
X-112900Y-9995D01*
X-111900D01*
X-110900Y-10995D01*
Y-10195D02*
X-110300Y-9595D01*
X-109700D01*
X-110300Y-8995D01*
X-109700Y-8395D01*
X-110300D01*
X-110900Y-7795D01*
X-111500Y-8395D01*
X-112100D01*
X-111500Y-8995D01*
X-112100Y-9595D01*
X-111500D01*
X-110900Y-10195D01*
Y-25995D02*
X-109900Y-24995D01*
X-108900D01*
X-109900Y-23995D01*
X-108900Y-22995D01*
X-109900D01*
X-110900Y-21995D01*
X-111900Y-22995D01*
X-112900D01*
X-111900Y-23995D01*
X-112900Y-24995D01*
X-111900D01*
X-110900Y-25995D01*
Y-25195D02*
X-110300Y-24595D01*
X-109700D01*
X-110300Y-23995D01*
X-109700Y-23395D01*
X-110300D01*
X-110900Y-22795D01*
X-111500Y-23395D01*
X-112100D01*
X-111500Y-23995D01*
X-112100Y-24595D01*
X-111500D01*
X-110900Y-25195D01*
Y-70995D02*
X-109900Y-69995D01*
X-108900D01*
X-109900Y-68995D01*
X-108900Y-67995D01*
X-109900D01*
X-110900Y-66995D01*
X-111900Y-67995D01*
X-112900D01*
X-111900Y-68995D01*
X-112900Y-69995D01*
X-111900D01*
X-110900Y-70995D01*
Y-70195D02*
X-110300Y-69595D01*
X-109700D01*
X-110300Y-68995D01*
X-109700Y-68395D01*
X-110300D01*
X-110900Y-67795D01*
X-111500Y-68395D01*
X-112100D01*
X-111500Y-68995D01*
X-112100Y-69595D01*
X-111500D01*
X-110900Y-70195D01*
X-107150Y-78495D02*
X-106150Y-77495D01*
X-105150D01*
X-106150Y-76495D01*
X-105150Y-75495D01*
X-106150D01*
X-107150Y-74495D01*
X-108150Y-75495D01*
X-109150D01*
X-108150Y-76495D01*
X-109150Y-77495D01*
X-108150D01*
X-107150Y-78495D01*
Y-77695D02*
X-106550Y-77095D01*
X-105950D01*
X-106550Y-76495D01*
X-105950Y-75895D01*
X-106550D01*
X-107150Y-75295D01*
X-107750Y-75895D01*
X-108350D01*
X-107750Y-76495D01*
X-108350Y-77095D01*
X-107750D01*
X-107150Y-77695D01*
X-110900Y-85995D02*
X-109900Y-84995D01*
X-108900D01*
X-109900Y-83995D01*
X-108900Y-82995D01*
X-109900D01*
X-110900Y-81995D01*
X-111900Y-82995D01*
X-112900D01*
X-111900Y-83995D01*
X-112900Y-84995D01*
X-111900D01*
X-110900Y-85995D01*
Y-85195D02*
X-110300Y-84595D01*
X-109700D01*
X-110300Y-83995D01*
X-109700Y-83395D01*
X-110300D01*
X-110900Y-82795D01*
X-111500Y-83395D01*
X-112100D01*
X-111500Y-83995D01*
X-112100Y-84595D01*
X-111500D01*
X-110900Y-85195D01*
Y-115995D02*
X-109900Y-114995D01*
X-108900D01*
X-109900Y-113995D01*
X-108900Y-112995D01*
X-109900D01*
X-110900Y-111995D01*
X-111900Y-112995D01*
X-112900D01*
X-111900Y-113995D01*
X-112900Y-114995D01*
X-111900D01*
X-110900Y-115995D01*
Y-115195D02*
X-110300Y-114595D01*
X-109700D01*
X-110300Y-113995D01*
X-109700Y-113395D01*
X-110300D01*
X-110900Y-112795D01*
X-111500Y-113395D01*
X-112100D01*
X-111500Y-113995D01*
X-112100Y-114595D01*
X-111500D01*
X-110900Y-115195D01*
X-118400Y-10995D02*
X-117400Y-9995D01*
X-116400D01*
X-117400Y-8995D01*
X-116400Y-7995D01*
X-117400D01*
X-118400Y-6995D01*
X-119400Y-7995D01*
X-120400D01*
X-119400Y-8995D01*
X-120400Y-9995D01*
X-119400D01*
X-118400Y-10995D01*
Y-10195D02*
X-117800Y-9595D01*
X-117200D01*
X-117800Y-8995D01*
X-117200Y-8395D01*
X-117800D01*
X-118400Y-7795D01*
X-119000Y-8395D01*
X-119600D01*
X-119000Y-8995D01*
X-119600Y-9595D01*
X-119000D01*
X-118400Y-10195D01*
X-114650Y-18495D02*
X-113650Y-17495D01*
X-112650D01*
X-113650Y-16495D01*
X-112650Y-15495D01*
X-113650D01*
X-114650Y-14495D01*
X-115650Y-15495D01*
X-116650D01*
X-115650Y-16495D01*
X-116650Y-17495D01*
X-115650D01*
X-114650Y-18495D01*
Y-17695D02*
X-114050Y-17095D01*
X-113450D01*
X-114050Y-16495D01*
X-113450Y-15895D01*
X-114050D01*
X-114650Y-15295D01*
X-115250Y-15895D01*
X-115850D01*
X-115250Y-16495D01*
X-115850Y-17095D01*
X-115250D01*
X-114650Y-17695D01*
X-118400Y-25995D02*
X-117400Y-24995D01*
X-116400D01*
X-117400Y-23995D01*
X-116400Y-22995D01*
X-117400D01*
X-118400Y-21995D01*
X-119400Y-22995D01*
X-120400D01*
X-119400Y-23995D01*
X-120400Y-24995D01*
X-119400D01*
X-118400Y-25995D01*
Y-25195D02*
X-117800Y-24595D01*
X-117200D01*
X-117800Y-23995D01*
X-117200Y-23395D01*
X-117800D01*
X-118400Y-22795D01*
X-119000Y-23395D01*
X-119600D01*
X-119000Y-23995D01*
X-119600Y-24595D01*
X-119000D01*
X-118400Y-25195D01*
Y-40995D02*
X-117400Y-39995D01*
X-116400D01*
X-117400Y-38995D01*
X-116400Y-37995D01*
X-117400D01*
X-118400Y-36995D01*
X-119400Y-37995D01*
X-120400D01*
X-119400Y-38995D01*
X-120400Y-39995D01*
X-119400D01*
X-118400Y-40995D01*
Y-40195D02*
X-117800Y-39595D01*
X-117200D01*
X-117800Y-38995D01*
X-117200Y-38395D01*
X-117800D01*
X-118400Y-37795D01*
X-119000Y-38395D01*
X-119600D01*
X-119000Y-38995D01*
X-119600Y-39595D01*
X-119000D01*
X-118400Y-40195D01*
X-114650Y-78495D02*
X-113650Y-77495D01*
X-112650D01*
X-113650Y-76495D01*
X-112650Y-75495D01*
X-113650D01*
X-114650Y-74495D01*
X-115650Y-75495D01*
X-116650D01*
X-115650Y-76495D01*
X-116650Y-77495D01*
X-115650D01*
X-114650Y-78495D01*
Y-77695D02*
X-114050Y-77095D01*
X-113450D01*
X-114050Y-76495D01*
X-113450Y-75895D01*
X-114050D01*
X-114650Y-75295D01*
X-115250Y-75895D01*
X-115850D01*
X-115250Y-76495D01*
X-115850Y-77095D01*
X-115250D01*
X-114650Y-77695D01*
X-118400Y-85995D02*
X-117400Y-84995D01*
X-116400D01*
X-117400Y-83995D01*
X-116400Y-82995D01*
X-117400D01*
X-118400Y-81995D01*
X-119400Y-82995D01*
X-120400D01*
X-119400Y-83995D01*
X-120400Y-84995D01*
X-119400D01*
X-118400Y-85995D01*
Y-85195D02*
X-117800Y-84595D01*
X-117200D01*
X-117800Y-83995D01*
X-117200Y-83395D01*
X-117800D01*
X-118400Y-82795D01*
X-119000Y-83395D01*
X-119600D01*
X-119000Y-83995D01*
X-119600Y-84595D01*
X-119000D01*
X-118400Y-85195D01*
X-114650Y-108495D02*
X-113650Y-107495D01*
X-112650D01*
X-113650Y-106495D01*
X-112650Y-105495D01*
X-113650D01*
X-114650Y-104495D01*
X-115650Y-105495D01*
X-116650D01*
X-115650Y-106495D01*
X-116650Y-107495D01*
X-115650D01*
X-114650Y-108495D01*
Y-107695D02*
X-114050Y-107095D01*
X-113450D01*
X-114050Y-106495D01*
X-113450Y-105895D01*
X-114050D01*
X-114650Y-105295D01*
X-115250Y-105895D01*
X-115850D01*
X-115250Y-106495D01*
X-115850Y-107095D01*
X-115250D01*
X-114650Y-107695D01*
X-125900Y-10995D02*
X-124900Y-9995D01*
X-123900D01*
X-124900Y-8995D01*
X-123900Y-7995D01*
X-124900D01*
X-125900Y-6995D01*
X-126900Y-7995D01*
X-127900D01*
X-126900Y-8995D01*
X-127900Y-9995D01*
X-126900D01*
X-125900Y-10995D01*
Y-10195D02*
X-125300Y-9595D01*
X-124700D01*
X-125300Y-8995D01*
X-124700Y-8395D01*
X-125300D01*
X-125900Y-7795D01*
X-126500Y-8395D01*
X-127100D01*
X-126500Y-8995D01*
X-127100Y-9595D01*
X-126500D01*
X-125900Y-10195D01*
X-122150Y-18495D02*
X-121150Y-17495D01*
X-120150D01*
X-121150Y-16495D01*
X-120150Y-15495D01*
X-121150D01*
X-122150Y-14495D01*
X-123150Y-15495D01*
X-124150D01*
X-123150Y-16495D01*
X-124150Y-17495D01*
X-123150D01*
X-122150Y-18495D01*
Y-17695D02*
X-121550Y-17095D01*
X-120950D01*
X-121550Y-16495D01*
X-120950Y-15895D01*
X-121550D01*
X-122150Y-15295D01*
X-122750Y-15895D01*
X-123350D01*
X-122750Y-16495D01*
X-123350Y-17095D01*
X-122750D01*
X-122150Y-17695D01*
X-125900Y-25995D02*
X-124900Y-24995D01*
X-123900D01*
X-124900Y-23995D01*
X-123900Y-22995D01*
X-124900D01*
X-125900Y-21995D01*
X-126900Y-22995D01*
X-127900D01*
X-126900Y-23995D01*
X-127900Y-24995D01*
X-126900D01*
X-125900Y-25995D01*
Y-25195D02*
X-125300Y-24595D01*
X-124700D01*
X-125300Y-23995D01*
X-124700Y-23395D01*
X-125300D01*
X-125900Y-22795D01*
X-126500Y-23395D01*
X-127100D01*
X-126500Y-23995D01*
X-127100Y-24595D01*
X-126500D01*
X-125900Y-25195D01*
X-122150Y-33495D02*
X-121150Y-32495D01*
X-120150D01*
X-121150Y-31495D01*
X-120150Y-30495D01*
X-121150D01*
X-122150Y-29495D01*
X-123150Y-30495D01*
X-124150D01*
X-123150Y-31495D01*
X-124150Y-32495D01*
X-123150D01*
X-122150Y-33495D01*
Y-32695D02*
X-121550Y-32095D01*
X-120950D01*
X-121550Y-31495D01*
X-120950Y-30895D01*
X-121550D01*
X-122150Y-30295D01*
X-122750Y-30895D01*
X-123350D01*
X-122750Y-31495D01*
X-123350Y-32095D01*
X-122750D01*
X-122150Y-32695D01*
Y-78495D02*
X-121150Y-77495D01*
X-120150D01*
X-121150Y-76495D01*
X-120150Y-75495D01*
X-121150D01*
X-122150Y-74495D01*
X-123150Y-75495D01*
X-124150D01*
X-123150Y-76495D01*
X-124150Y-77495D01*
X-123150D01*
X-122150Y-78495D01*
Y-77695D02*
X-121550Y-77095D01*
X-120950D01*
X-121550Y-76495D01*
X-120950Y-75895D01*
X-121550D01*
X-122150Y-75295D01*
X-122750Y-75895D01*
X-123350D01*
X-122750Y-76495D01*
X-123350Y-77095D01*
X-122750D01*
X-122150Y-77695D01*
Y-123495D02*
X-121150Y-122495D01*
X-120150D01*
X-121150Y-121495D01*
X-120150Y-120495D01*
X-121150D01*
X-122150Y-119495D01*
X-123150Y-120495D01*
X-124150D01*
X-123150Y-121495D01*
X-124150Y-122495D01*
X-123150D01*
X-122150Y-123495D01*
Y-122695D02*
X-121550Y-122095D01*
X-120950D01*
X-121550Y-121495D01*
X-120950Y-120895D01*
X-121550D01*
X-122150Y-120295D01*
X-122750Y-120895D01*
X-123350D01*
X-122750Y-121495D01*
X-123350Y-122095D01*
X-122750D01*
X-122150Y-122695D01*
X-133400Y-10995D02*
X-132400Y-9995D01*
X-131400D01*
X-132400Y-8995D01*
X-131400Y-7995D01*
X-132400D01*
X-133400Y-6995D01*
X-134400Y-7995D01*
X-135400D01*
X-134400Y-8995D01*
X-135400Y-9995D01*
X-134400D01*
X-133400Y-10995D01*
Y-10195D02*
X-132800Y-9595D01*
X-132200D01*
X-132800Y-8995D01*
X-132200Y-8395D01*
X-132800D01*
X-133400Y-7795D01*
X-134000Y-8395D01*
X-134600D01*
X-134000Y-8995D01*
X-134600Y-9595D01*
X-134000D01*
X-133400Y-10195D01*
X-129650Y-18495D02*
X-128650Y-17495D01*
X-127650D01*
X-128650Y-16495D01*
X-127650Y-15495D01*
X-128650D01*
X-129650Y-14495D01*
X-130650Y-15495D01*
X-131650D01*
X-130650Y-16495D01*
X-131650Y-17495D01*
X-130650D01*
X-129650Y-18495D01*
Y-17695D02*
X-129050Y-17095D01*
X-128450D01*
X-129050Y-16495D01*
X-128450Y-15895D01*
X-129050D01*
X-129650Y-15295D01*
X-130250Y-15895D01*
X-130850D01*
X-130250Y-16495D01*
X-130850Y-17095D01*
X-130250D01*
X-129650Y-17695D01*
X-133400Y-25995D02*
X-132400Y-24995D01*
X-131400D01*
X-132400Y-23995D01*
X-131400Y-22995D01*
X-132400D01*
X-133400Y-21995D01*
X-134400Y-22995D01*
X-135400D01*
X-134400Y-23995D01*
X-135400Y-24995D01*
X-134400D01*
X-133400Y-25995D01*
Y-25195D02*
X-132800Y-24595D01*
X-132200D01*
X-132800Y-23995D01*
X-132200Y-23395D01*
X-132800D01*
X-133400Y-22795D01*
X-134000Y-23395D01*
X-134600D01*
X-134000Y-23995D01*
X-134600Y-24595D01*
X-134000D01*
X-133400Y-25195D01*
Y-55995D02*
X-132400Y-54995D01*
X-131400D01*
X-132400Y-53995D01*
X-131400Y-52995D01*
X-132400D01*
X-133400Y-51995D01*
X-134400Y-52995D01*
X-135400D01*
X-134400Y-53995D01*
X-135400Y-54995D01*
X-134400D01*
X-133400Y-55995D01*
Y-55195D02*
X-132800Y-54595D01*
X-132200D01*
X-132800Y-53995D01*
X-132200Y-53395D01*
X-132800D01*
X-133400Y-52795D01*
X-134000Y-53395D01*
X-134600D01*
X-134000Y-53995D01*
X-134600Y-54595D01*
X-134000D01*
X-133400Y-55195D01*
X-129650Y-78495D02*
X-128650Y-77495D01*
X-127650D01*
X-128650Y-76495D01*
X-127650Y-75495D01*
X-128650D01*
X-129650Y-74495D01*
X-130650Y-75495D01*
X-131650D01*
X-130650Y-76495D01*
X-131650Y-77495D01*
X-130650D01*
X-129650Y-78495D01*
Y-77695D02*
X-129050Y-77095D01*
X-128450D01*
X-129050Y-76495D01*
X-128450Y-75895D01*
X-129050D01*
X-129650Y-75295D01*
X-130250Y-75895D01*
X-130850D01*
X-130250Y-76495D01*
X-130850Y-77095D01*
X-130250D01*
X-129650Y-77695D01*
X-137150Y-18495D02*
X-136150Y-17495D01*
X-135150D01*
X-136150Y-16495D01*
X-135150Y-15495D01*
X-136150D01*
X-137150Y-14495D01*
X-138150Y-15495D01*
X-139150D01*
X-138150Y-16495D01*
X-139150Y-17495D01*
X-138150D01*
X-137150Y-18495D01*
Y-17695D02*
X-136550Y-17095D01*
X-135950D01*
X-136550Y-16495D01*
X-135950Y-15895D01*
X-136550D01*
X-137150Y-15295D01*
X-137750Y-15895D01*
X-138350D01*
X-137750Y-16495D01*
X-138350Y-17095D01*
X-137750D01*
X-137150Y-17695D01*
X-140900Y-55995D02*
X-139900Y-54995D01*
X-138900D01*
X-139900Y-53995D01*
X-138900Y-52995D01*
X-139900D01*
X-140900Y-51995D01*
X-141900Y-52995D01*
X-142900D01*
X-141900Y-53995D01*
X-142900Y-54995D01*
X-141900D01*
X-140900Y-55995D01*
Y-55195D02*
X-140300Y-54595D01*
X-139700D01*
X-140300Y-53995D01*
X-139700Y-53395D01*
X-140300D01*
X-140900Y-52795D01*
X-141500Y-53395D01*
X-142100D01*
X-141500Y-53995D01*
X-142100Y-54595D01*
X-141500D01*
X-140900Y-55195D01*
X-148400Y-55995D02*
X-147400Y-54995D01*
X-146400D01*
X-147400Y-53995D01*
X-146400Y-52995D01*
X-147400D01*
X-148400Y-51995D01*
X-149400Y-52995D01*
X-150400D01*
X-149400Y-53995D01*
X-150400Y-54995D01*
X-149400D01*
X-148400Y-55995D01*
Y-55195D02*
X-147800Y-54595D01*
X-147200D01*
X-147800Y-53995D01*
X-147200Y-53395D01*
X-147800D01*
X-148400Y-52795D01*
X-149000Y-53395D01*
X-149600D01*
X-149000Y-53995D01*
X-149600Y-54595D01*
X-149000D01*
X-148400Y-55195D01*
Y-115995D02*
X-147400Y-114995D01*
X-146400D01*
X-147400Y-113995D01*
X-146400Y-112995D01*
X-147400D01*
X-148400Y-111995D01*
X-149400Y-112995D01*
X-150400D01*
X-149400Y-113995D01*
X-150400Y-114995D01*
X-149400D01*
X-148400Y-115995D01*
Y-115195D02*
X-147800Y-114595D01*
X-147200D01*
X-147800Y-113995D01*
X-147200Y-113395D01*
X-147800D01*
X-148400Y-112795D01*
X-149000Y-113395D01*
X-149600D01*
X-149000Y-113995D01*
X-149600Y-114595D01*
X-149000D01*
X-148400Y-115195D01*
X-144650Y-123495D02*
X-143650Y-122495D01*
X-142650D01*
X-143650Y-121495D01*
X-142650Y-120495D01*
X-143650D01*
X-144650Y-119495D01*
X-145650Y-120495D01*
X-146650D01*
X-145650Y-121495D01*
X-146650Y-122495D01*
X-145650D01*
X-144650Y-123495D01*
Y-122695D02*
X-144050Y-122095D01*
X-143450D01*
X-144050Y-121495D01*
X-143450Y-120895D01*
X-144050D01*
X-144650Y-120295D01*
X-145250Y-120895D01*
X-145850D01*
X-145250Y-121495D01*
X-145850Y-122095D01*
X-145250D01*
X-144650Y-122695D01*
X-148400Y-130995D02*
X-147400Y-129995D01*
X-146400D01*
X-147400Y-128995D01*
X-146400Y-127995D01*
X-147400D01*
X-148400Y-126995D01*
X-149400Y-127995D01*
X-150400D01*
X-149400Y-128995D01*
X-150400Y-129995D01*
X-149400D01*
X-148400Y-130995D01*
Y-130195D02*
X-147800Y-129595D01*
X-147200D01*
X-147800Y-128995D01*
X-147200Y-128395D01*
X-147800D01*
X-148400Y-127795D01*
X-149000Y-128395D01*
X-149600D01*
X-149000Y-128995D01*
X-149600Y-129595D01*
X-149000D01*
X-148400Y-130195D01*
X-152150Y-18495D02*
X-151150Y-17495D01*
X-150150D01*
X-151150Y-16495D01*
X-150150Y-15495D01*
X-151150D01*
X-152150Y-14495D01*
X-153150Y-15495D01*
X-154150D01*
X-153150Y-16495D01*
X-154150Y-17495D01*
X-153150D01*
X-152150Y-18495D01*
Y-17695D02*
X-151550Y-17095D01*
X-150950D01*
X-151550Y-16495D01*
X-150950Y-15895D01*
X-151550D01*
X-152150Y-15295D01*
X-152750Y-15895D01*
X-153350D01*
X-152750Y-16495D01*
X-153350Y-17095D01*
X-152750D01*
X-152150Y-17695D01*
Y-33495D02*
X-151150Y-32495D01*
X-150150D01*
X-151150Y-31495D01*
X-150150Y-30495D01*
X-151150D01*
X-152150Y-29495D01*
X-153150Y-30495D01*
X-154150D01*
X-153150Y-31495D01*
X-154150Y-32495D01*
X-153150D01*
X-152150Y-33495D01*
Y-32695D02*
X-151550Y-32095D01*
X-150950D01*
X-151550Y-31495D01*
X-150950Y-30895D01*
X-151550D01*
X-152150Y-30295D01*
X-152750Y-30895D01*
X-153350D01*
X-152750Y-31495D01*
X-153350Y-32095D01*
X-152750D01*
X-152150Y-32695D01*
Y-63495D02*
X-151150Y-62495D01*
X-150150D01*
X-151150Y-61495D01*
X-150150Y-60495D01*
X-151150D01*
X-152150Y-59495D01*
X-153150Y-60495D01*
X-154150D01*
X-153150Y-61495D01*
X-154150Y-62495D01*
X-153150D01*
X-152150Y-63495D01*
Y-62695D02*
X-151550Y-62095D01*
X-150950D01*
X-151550Y-61495D01*
X-150950Y-60895D01*
X-151550D01*
X-152150Y-60295D01*
X-152750Y-60895D01*
X-153350D01*
X-152750Y-61495D01*
X-153350Y-62095D01*
X-152750D01*
X-152150Y-62695D01*
Y-78495D02*
X-151150Y-77495D01*
X-150150D01*
X-151150Y-76495D01*
X-150150Y-75495D01*
X-151150D01*
X-152150Y-74495D01*
X-153150Y-75495D01*
X-154150D01*
X-153150Y-76495D01*
X-154150Y-77495D01*
X-153150D01*
X-152150Y-78495D01*
Y-77695D02*
X-151550Y-77095D01*
X-150950D01*
X-151550Y-76495D01*
X-150950Y-75895D01*
X-151550D01*
X-152150Y-75295D01*
X-152750Y-75895D01*
X-153350D01*
X-152750Y-76495D01*
X-153350Y-77095D01*
X-152750D01*
X-152150Y-77695D01*
X-155900Y-115995D02*
X-154900Y-114995D01*
X-153900D01*
X-154900Y-113995D01*
X-153900Y-112995D01*
X-154900D01*
X-155900Y-111995D01*
X-156900Y-112995D01*
X-157900D01*
X-156900Y-113995D01*
X-157900Y-114995D01*
X-156900D01*
X-155900Y-115995D01*
Y-115195D02*
X-155300Y-114595D01*
X-154700D01*
X-155300Y-113995D01*
X-154700Y-113395D01*
X-155300D01*
X-155900Y-112795D01*
X-156500Y-113395D01*
X-157100D01*
X-156500Y-113995D01*
X-157100Y-114595D01*
X-156500D01*
X-155900Y-115195D01*
X-152150Y-123495D02*
X-151150Y-122495D01*
X-150150D01*
X-151150Y-121495D01*
X-150150Y-120495D01*
X-151150D01*
X-152150Y-119495D01*
X-153150Y-120495D01*
X-154150D01*
X-153150Y-121495D01*
X-154150Y-122495D01*
X-153150D01*
X-152150Y-123495D01*
Y-122695D02*
X-151550Y-122095D01*
X-150950D01*
X-151550Y-121495D01*
X-150950Y-120895D01*
X-151550D01*
X-152150Y-120295D01*
X-152750Y-120895D01*
X-153350D01*
X-152750Y-121495D01*
X-153350Y-122095D01*
X-152750D01*
X-152150Y-122695D01*
X-163400Y-10995D02*
X-162400Y-9995D01*
X-161400D01*
X-162400Y-8995D01*
X-161400Y-7995D01*
X-162400D01*
X-163400Y-6995D01*
X-164400Y-7995D01*
X-165400D01*
X-164400Y-8995D01*
X-165400Y-9995D01*
X-164400D01*
X-163400Y-10995D01*
Y-10195D02*
X-162800Y-9595D01*
X-162200D01*
X-162800Y-8995D01*
X-162200Y-8395D01*
X-162800D01*
X-163400Y-7795D01*
X-164000Y-8395D01*
X-164600D01*
X-164000Y-8995D01*
X-164600Y-9595D01*
X-164000D01*
X-163400Y-10195D01*
X-159650Y-18495D02*
X-158650Y-17495D01*
X-157650D01*
X-158650Y-16495D01*
X-157650Y-15495D01*
X-158650D01*
X-159650Y-14495D01*
X-160650Y-15495D01*
X-161650D01*
X-160650Y-16495D01*
X-161650Y-17495D01*
X-160650D01*
X-159650Y-18495D01*
Y-17695D02*
X-159050Y-17095D01*
X-158450D01*
X-159050Y-16495D01*
X-158450Y-15895D01*
X-159050D01*
X-159650Y-15295D01*
X-160250Y-15895D01*
X-160850D01*
X-160250Y-16495D01*
X-160850Y-17095D01*
X-160250D01*
X-159650Y-17695D01*
Y-63495D02*
X-158650Y-62495D01*
X-157650D01*
X-158650Y-61495D01*
X-157650Y-60495D01*
X-158650D01*
X-159650Y-59495D01*
X-160650Y-60495D01*
X-161650D01*
X-160650Y-61495D01*
X-161650Y-62495D01*
X-160650D01*
X-159650Y-63495D01*
Y-62695D02*
X-159050Y-62095D01*
X-158450D01*
X-159050Y-61495D01*
X-158450Y-60895D01*
X-159050D01*
X-159650Y-60295D01*
X-160250Y-60895D01*
X-160850D01*
X-160250Y-61495D01*
X-160850Y-62095D01*
X-160250D01*
X-159650Y-62695D01*
X-163400Y-115995D02*
X-162400Y-114995D01*
X-161400D01*
X-162400Y-113995D01*
X-161400Y-112995D01*
X-162400D01*
X-163400Y-111995D01*
X-164400Y-112995D01*
X-165400D01*
X-164400Y-113995D01*
X-165400Y-114995D01*
X-164400D01*
X-163400Y-115995D01*
Y-115195D02*
X-162800Y-114595D01*
X-162200D01*
X-162800Y-113995D01*
X-162200Y-113395D01*
X-162800D01*
X-163400Y-112795D01*
X-164000Y-113395D01*
X-164600D01*
X-164000Y-113995D01*
X-164600Y-114595D01*
X-164000D01*
X-163400Y-115195D01*
X-167150Y-18495D02*
X-166150Y-17495D01*
X-165150D01*
X-166150Y-16495D01*
X-165150Y-15495D01*
X-166150D01*
X-167150Y-14495D01*
X-168150Y-15495D01*
X-169150D01*
X-168150Y-16495D01*
X-169150Y-17495D01*
X-168150D01*
X-167150Y-18495D01*
Y-17695D02*
X-166550Y-17095D01*
X-165950D01*
X-166550Y-16495D01*
X-165950Y-15895D01*
X-166550D01*
X-167150Y-15295D01*
X-167750Y-15895D01*
X-168350D01*
X-167750Y-16495D01*
X-168350Y-17095D01*
X-167750D01*
X-167150Y-17695D01*
Y-123495D02*
X-166150Y-122495D01*
X-165150D01*
X-166150Y-121495D01*
X-165150Y-120495D01*
X-166150D01*
X-167150Y-119495D01*
X-168150Y-120495D01*
X-169150D01*
X-168150Y-121495D01*
X-169150Y-122495D01*
X-168150D01*
X-167150Y-123495D01*
Y-122695D02*
X-166550Y-122095D01*
X-165950D01*
X-166550Y-121495D01*
X-165950Y-120895D01*
X-166550D01*
X-167150Y-120295D01*
X-167750Y-120895D01*
X-168350D01*
X-167750Y-121495D01*
X-168350Y-122095D01*
X-167750D01*
X-167150Y-122695D01*
X-178400Y-10995D02*
X-177400Y-9995D01*
X-176400D01*
X-177400Y-8995D01*
X-176400Y-7995D01*
X-177400D01*
X-178400Y-6995D01*
X-179400Y-7995D01*
X-180400D01*
X-179400Y-8995D01*
X-180400Y-9995D01*
X-179400D01*
X-178400Y-10995D01*
Y-10195D02*
X-177800Y-9595D01*
X-177200D01*
X-177800Y-8995D01*
X-177200Y-8395D01*
X-177800D01*
X-178400Y-7795D01*
X-179000Y-8395D01*
X-179600D01*
X-179000Y-8995D01*
X-179600Y-9595D01*
X-179000D01*
X-178400Y-10195D01*
X-174650Y-18495D02*
X-173650Y-17495D01*
X-172650D01*
X-173650Y-16495D01*
X-172650Y-15495D01*
X-173650D01*
X-174650Y-14495D01*
X-175650Y-15495D01*
X-176650D01*
X-175650Y-16495D01*
X-176650Y-17495D01*
X-175650D01*
X-174650Y-18495D01*
Y-17695D02*
X-174050Y-17095D01*
X-173450D01*
X-174050Y-16495D01*
X-173450Y-15895D01*
X-174050D01*
X-174650Y-15295D01*
X-175250Y-15895D01*
X-175850D01*
X-175250Y-16495D01*
X-175850Y-17095D01*
X-175250D01*
X-174650Y-17695D01*
Y-93495D02*
X-173650Y-92495D01*
X-172650D01*
X-173650Y-91495D01*
X-172650Y-90495D01*
X-173650D01*
X-174650Y-89495D01*
X-175650Y-90495D01*
X-176650D01*
X-175650Y-91495D01*
X-176650Y-92495D01*
X-175650D01*
X-174650Y-93495D01*
Y-92695D02*
X-174050Y-92095D01*
X-173450D01*
X-174050Y-91495D01*
X-173450Y-90895D01*
X-174050D01*
X-174650Y-90295D01*
X-175250Y-90895D01*
X-175850D01*
X-175250Y-91495D01*
X-175850Y-92095D01*
X-175250D01*
X-174650Y-92695D01*
X-185900Y-10995D02*
X-184900Y-9995D01*
X-183900D01*
X-184900Y-8995D01*
X-183900Y-7995D01*
X-184900D01*
X-185900Y-6995D01*
X-186900Y-7995D01*
X-187900D01*
X-186900Y-8995D01*
X-187900Y-9995D01*
X-186900D01*
X-185900Y-10995D01*
Y-10195D02*
X-185300Y-9595D01*
X-184700D01*
X-185300Y-8995D01*
X-184700Y-8395D01*
X-185300D01*
X-185900Y-7795D01*
X-186500Y-8395D01*
X-187100D01*
X-186500Y-8995D01*
X-187100Y-9595D01*
X-186500D01*
X-185900Y-10195D01*
X-182150Y-18495D02*
X-181150Y-17495D01*
X-180150D01*
X-181150Y-16495D01*
X-180150Y-15495D01*
X-181150D01*
X-182150Y-14495D01*
X-183150Y-15495D01*
X-184150D01*
X-183150Y-16495D01*
X-184150Y-17495D01*
X-183150D01*
X-182150Y-18495D01*
Y-17695D02*
X-181550Y-17095D01*
X-180950D01*
X-181550Y-16495D01*
X-180950Y-15895D01*
X-181550D01*
X-182150Y-15295D01*
X-182750Y-15895D01*
X-183350D01*
X-182750Y-16495D01*
X-183350Y-17095D01*
X-182750D01*
X-182150Y-17695D01*
X-185900Y-100995D02*
X-184900Y-99995D01*
X-183900D01*
X-184900Y-98995D01*
X-183900Y-97995D01*
X-184900D01*
X-185900Y-96995D01*
X-186900Y-97995D01*
X-187900D01*
X-186900Y-98995D01*
X-187900Y-99995D01*
X-186900D01*
X-185900Y-100995D01*
Y-100195D02*
X-185300Y-99595D01*
X-184700D01*
X-185300Y-98995D01*
X-184700Y-98395D01*
X-185300D01*
X-185900Y-97795D01*
X-186500Y-98395D01*
X-187100D01*
X-186500Y-98995D01*
X-187100Y-99595D01*
X-186500D01*
X-185900Y-100195D01*
X-182150Y-108495D02*
X-181150Y-107495D01*
X-180150D01*
X-181150Y-106495D01*
X-180150Y-105495D01*
X-181150D01*
X-182150Y-104495D01*
X-183150Y-105495D01*
X-184150D01*
X-183150Y-106495D01*
X-184150Y-107495D01*
X-183150D01*
X-182150Y-108495D01*
Y-107695D02*
X-181550Y-107095D01*
X-180950D01*
X-181550Y-106495D01*
X-180950Y-105895D01*
X-181550D01*
X-182150Y-105295D01*
X-182750Y-105895D01*
X-183350D01*
X-182750Y-106495D01*
X-183350Y-107095D01*
X-182750D01*
X-182150Y-107695D01*
X-185900Y-115995D02*
X-184900Y-114995D01*
X-183900D01*
X-184900Y-113995D01*
X-183900Y-112995D01*
X-184900D01*
X-185900Y-111995D01*
X-186900Y-112995D01*
X-187900D01*
X-186900Y-113995D01*
X-187900Y-114995D01*
X-186900D01*
X-185900Y-115995D01*
Y-115195D02*
X-185300Y-114595D01*
X-184700D01*
X-185300Y-113995D01*
X-184700Y-113395D01*
X-185300D01*
X-185900Y-112795D01*
X-186500Y-113395D01*
X-187100D01*
X-186500Y-113995D01*
X-187100Y-114595D01*
X-186500D01*
X-185900Y-115195D01*
X-193400Y-10995D02*
X-192400Y-9995D01*
X-191400D01*
X-192400Y-8995D01*
X-191400Y-7995D01*
X-192400D01*
X-193400Y-6995D01*
X-194400Y-7995D01*
X-195400D01*
X-194400Y-8995D01*
X-195400Y-9995D01*
X-194400D01*
X-193400Y-10995D01*
Y-10195D02*
X-192800Y-9595D01*
X-192200D01*
X-192800Y-8995D01*
X-192200Y-8395D01*
X-192800D01*
X-193400Y-7795D01*
X-194000Y-8395D01*
X-194600D01*
X-194000Y-8995D01*
X-194600Y-9595D01*
X-194000D01*
X-193400Y-10195D01*
X-189650Y-18495D02*
X-188650Y-17495D01*
X-187650D01*
X-188650Y-16495D01*
X-187650Y-15495D01*
X-188650D01*
X-189650Y-14495D01*
X-190650Y-15495D01*
X-191650D01*
X-190650Y-16495D01*
X-191650Y-17495D01*
X-190650D01*
X-189650Y-18495D01*
Y-17695D02*
X-189050Y-17095D01*
X-188450D01*
X-189050Y-16495D01*
X-188450Y-15895D01*
X-189050D01*
X-189650Y-15295D01*
X-190250Y-15895D01*
X-190850D01*
X-190250Y-16495D01*
X-190850Y-17095D01*
X-190250D01*
X-189650Y-17695D01*
Y-78495D02*
X-188650Y-77495D01*
X-187650D01*
X-188650Y-76495D01*
X-187650Y-75495D01*
X-188650D01*
X-189650Y-74495D01*
X-190650Y-75495D01*
X-191650D01*
X-190650Y-76495D01*
X-191650Y-77495D01*
X-190650D01*
X-189650Y-78495D01*
Y-77695D02*
X-189050Y-77095D01*
X-188450D01*
X-189050Y-76495D01*
X-188450Y-75895D01*
X-189050D01*
X-189650Y-75295D01*
X-190250Y-75895D01*
X-190850D01*
X-190250Y-76495D01*
X-190850Y-77095D01*
X-190250D01*
X-189650Y-77695D01*
X-193400Y-100995D02*
X-192400Y-99995D01*
X-191400D01*
X-192400Y-98995D01*
X-191400Y-97995D01*
X-192400D01*
X-193400Y-96995D01*
X-194400Y-97995D01*
X-195400D01*
X-194400Y-98995D01*
X-195400Y-99995D01*
X-194400D01*
X-193400Y-100995D01*
Y-100195D02*
X-192800Y-99595D01*
X-192200D01*
X-192800Y-98995D01*
X-192200Y-98395D01*
X-192800D01*
X-193400Y-97795D01*
X-194000Y-98395D01*
X-194600D01*
X-194000Y-98995D01*
X-194600Y-99595D01*
X-194000D01*
X-193400Y-100195D01*
X-189650Y-108495D02*
X-188650Y-107495D01*
X-187650D01*
X-188650Y-106495D01*
X-187650Y-105495D01*
X-188650D01*
X-189650Y-104495D01*
X-190650Y-105495D01*
X-191650D01*
X-190650Y-106495D01*
X-191650Y-107495D01*
X-190650D01*
X-189650Y-108495D01*
Y-107695D02*
X-189050Y-107095D01*
X-188450D01*
X-189050Y-106495D01*
X-188450Y-105895D01*
X-189050D01*
X-189650Y-105295D01*
X-190250Y-105895D01*
X-190850D01*
X-190250Y-106495D01*
X-190850Y-107095D01*
X-190250D01*
X-189650Y-107695D01*
X-200900Y-10995D02*
X-199900Y-9995D01*
X-198900D01*
X-199900Y-8995D01*
X-198900Y-7995D01*
X-199900D01*
X-200900Y-6995D01*
X-201900Y-7995D01*
X-202900D01*
X-201900Y-8995D01*
X-202900Y-9995D01*
X-201900D01*
X-200900Y-10995D01*
Y-10195D02*
X-200300Y-9595D01*
X-199700D01*
X-200300Y-8995D01*
X-199700Y-8395D01*
X-200300D01*
X-200900Y-7795D01*
X-201500Y-8395D01*
X-202100D01*
X-201500Y-8995D01*
X-202100Y-9595D01*
X-201500D01*
X-200900Y-10195D01*
X-197150Y-18495D02*
X-196150Y-17495D01*
X-195150D01*
X-196150Y-16495D01*
X-195150Y-15495D01*
X-196150D01*
X-197150Y-14495D01*
X-198150Y-15495D01*
X-199150D01*
X-198150Y-16495D01*
X-199150Y-17495D01*
X-198150D01*
X-197150Y-18495D01*
Y-17695D02*
X-196550Y-17095D01*
X-195950D01*
X-196550Y-16495D01*
X-195950Y-15895D01*
X-196550D01*
X-197150Y-15295D01*
X-197750Y-15895D01*
X-198350D01*
X-197750Y-16495D01*
X-198350Y-17095D01*
X-197750D01*
X-197150Y-17695D01*
Y-63495D02*
X-196150Y-62495D01*
X-195150D01*
X-196150Y-61495D01*
X-195150Y-60495D01*
X-196150D01*
X-197150Y-59495D01*
X-198150Y-60495D01*
X-199150D01*
X-198150Y-61495D01*
X-199150Y-62495D01*
X-198150D01*
X-197150Y-63495D01*
Y-62695D02*
X-196550Y-62095D01*
X-195950D01*
X-196550Y-61495D01*
X-195950Y-60895D01*
X-196550D01*
X-197150Y-60295D01*
X-197750Y-60895D01*
X-198350D01*
X-197750Y-61495D01*
X-198350Y-62095D01*
X-197750D01*
X-197150Y-62695D01*
X-200900Y-85995D02*
X-199900Y-84995D01*
X-198900D01*
X-199900Y-83995D01*
X-198900Y-82995D01*
X-199900D01*
X-200900Y-81995D01*
X-201900Y-82995D01*
X-202900D01*
X-201900Y-83995D01*
X-202900Y-84995D01*
X-201900D01*
X-200900Y-85995D01*
Y-85195D02*
X-200300Y-84595D01*
X-199700D01*
X-200300Y-83995D01*
X-199700Y-83395D01*
X-200300D01*
X-200900Y-82795D01*
X-201500Y-83395D01*
X-202100D01*
X-201500Y-83995D01*
X-202100Y-84595D01*
X-201500D01*
X-200900Y-85195D01*
X-197150Y-93495D02*
X-196150Y-92495D01*
X-195150D01*
X-196150Y-91495D01*
X-195150Y-90495D01*
X-196150D01*
X-197150Y-89495D01*
X-198150Y-90495D01*
X-199150D01*
X-198150Y-91495D01*
X-199150Y-92495D01*
X-198150D01*
X-197150Y-93495D01*
Y-92695D02*
X-196550Y-92095D01*
X-195950D01*
X-196550Y-91495D01*
X-195950Y-90895D01*
X-196550D01*
X-197150Y-90295D01*
X-197750Y-90895D01*
X-198350D01*
X-197750Y-91495D01*
X-198350Y-92095D01*
X-197750D01*
X-197150Y-92695D01*
X-208400Y-10995D02*
X-207400Y-9995D01*
X-206400D01*
X-207400Y-8995D01*
X-206400Y-7995D01*
X-207400D01*
X-208400Y-6995D01*
X-209400Y-7995D01*
X-210400D01*
X-209400Y-8995D01*
X-210400Y-9995D01*
X-209400D01*
X-208400Y-10995D01*
Y-10195D02*
X-207800Y-9595D01*
X-207200D01*
X-207800Y-8995D01*
X-207200Y-8395D01*
X-207800D01*
X-208400Y-7795D01*
X-209000Y-8395D01*
X-209600D01*
X-209000Y-8995D01*
X-209600Y-9595D01*
X-209000D01*
X-208400Y-10195D01*
X-204650Y-18495D02*
X-203650Y-17495D01*
X-202650D01*
X-203650Y-16495D01*
X-202650Y-15495D01*
X-203650D01*
X-204650Y-14495D01*
X-205650Y-15495D01*
X-206650D01*
X-205650Y-16495D01*
X-206650Y-17495D01*
X-205650D01*
X-204650Y-18495D01*
Y-17695D02*
X-204050Y-17095D01*
X-203450D01*
X-204050Y-16495D01*
X-203450Y-15895D01*
X-204050D01*
X-204650Y-15295D01*
X-205250Y-15895D01*
X-205850D01*
X-205250Y-16495D01*
X-205850Y-17095D01*
X-205250D01*
X-204650Y-17695D01*
Y-63495D02*
X-203650Y-62495D01*
X-202650D01*
X-203650Y-61495D01*
X-202650Y-60495D01*
X-203650D01*
X-204650Y-59495D01*
X-205650Y-60495D01*
X-206650D01*
X-205650Y-61495D01*
X-206650Y-62495D01*
X-205650D01*
X-204650Y-63495D01*
Y-62695D02*
X-204050Y-62095D01*
X-203450D01*
X-204050Y-61495D01*
X-203450Y-60895D01*
X-204050D01*
X-204650Y-60295D01*
X-205250Y-60895D01*
X-205850D01*
X-205250Y-61495D01*
X-205850Y-62095D01*
X-205250D01*
X-204650Y-62695D01*
Y-78495D02*
X-203650Y-77495D01*
X-202650D01*
X-203650Y-76495D01*
X-202650Y-75495D01*
X-203650D01*
X-204650Y-74495D01*
X-205650Y-75495D01*
X-206650D01*
X-205650Y-76495D01*
X-206650Y-77495D01*
X-205650D01*
X-204650Y-78495D01*
Y-77695D02*
X-204050Y-77095D01*
X-203450D01*
X-204050Y-76495D01*
X-203450Y-75895D01*
X-204050D01*
X-204650Y-75295D01*
X-205250Y-75895D01*
X-205850D01*
X-205250Y-76495D01*
X-205850Y-77095D01*
X-205250D01*
X-204650Y-77695D01*
X-208400Y-85995D02*
X-207400Y-84995D01*
X-206400D01*
X-207400Y-83995D01*
X-206400Y-82995D01*
X-207400D01*
X-208400Y-81995D01*
X-209400Y-82995D01*
X-210400D01*
X-209400Y-83995D01*
X-210400Y-84995D01*
X-209400D01*
X-208400Y-85995D01*
Y-85195D02*
X-207800Y-84595D01*
X-207200D01*
X-207800Y-83995D01*
X-207200Y-83395D01*
X-207800D01*
X-208400Y-82795D01*
X-209000Y-83395D01*
X-209600D01*
X-209000Y-83995D01*
X-209600Y-84595D01*
X-209000D01*
X-208400Y-85195D01*
X-204650Y-93495D02*
X-203650Y-92495D01*
X-202650D01*
X-203650Y-91495D01*
X-202650Y-90495D01*
X-203650D01*
X-204650Y-89495D01*
X-205650Y-90495D01*
X-206650D01*
X-205650Y-91495D01*
X-206650Y-92495D01*
X-205650D01*
X-204650Y-93495D01*
Y-92695D02*
X-204050Y-92095D01*
X-203450D01*
X-204050Y-91495D01*
X-203450Y-90895D01*
X-204050D01*
X-204650Y-90295D01*
X-205250Y-90895D01*
X-205850D01*
X-205250Y-91495D01*
X-205850Y-92095D01*
X-205250D01*
X-204650Y-92695D01*
X-215900Y-10995D02*
X-214900Y-9995D01*
X-213900D01*
X-214900Y-8995D01*
X-213900Y-7995D01*
X-214900D01*
X-215900Y-6995D01*
X-216900Y-7995D01*
X-217900D01*
X-216900Y-8995D01*
X-217900Y-9995D01*
X-216900D01*
X-215900Y-10995D01*
Y-10195D02*
X-215300Y-9595D01*
X-214700D01*
X-215300Y-8995D01*
X-214700Y-8395D01*
X-215300D01*
X-215900Y-7795D01*
X-216500Y-8395D01*
X-217100D01*
X-216500Y-8995D01*
X-217100Y-9595D01*
X-216500D01*
X-215900Y-10195D01*
X-212150Y-18495D02*
X-211150Y-17495D01*
X-210150D01*
X-211150Y-16495D01*
X-210150Y-15495D01*
X-211150D01*
X-212150Y-14495D01*
X-213150Y-15495D01*
X-214150D01*
X-213150Y-16495D01*
X-214150Y-17495D01*
X-213150D01*
X-212150Y-18495D01*
Y-17695D02*
X-211550Y-17095D01*
X-210950D01*
X-211550Y-16495D01*
X-210950Y-15895D01*
X-211550D01*
X-212150Y-15295D01*
X-212750Y-15895D01*
X-213350D01*
X-212750Y-16495D01*
X-213350Y-17095D01*
X-212750D01*
X-212150Y-17695D01*
Y-78495D02*
X-211150Y-77495D01*
X-210150D01*
X-211150Y-76495D01*
X-210150Y-75495D01*
X-211150D01*
X-212150Y-74495D01*
X-213150Y-75495D01*
X-214150D01*
X-213150Y-76495D01*
X-214150Y-77495D01*
X-213150D01*
X-212150Y-78495D01*
Y-77695D02*
X-211550Y-77095D01*
X-210950D01*
X-211550Y-76495D01*
X-210950Y-75895D01*
X-211550D01*
X-212150Y-75295D01*
X-212750Y-75895D01*
X-213350D01*
X-212750Y-76495D01*
X-213350Y-77095D01*
X-212750D01*
X-212150Y-77695D01*
Y-123495D02*
X-211150Y-122495D01*
X-210150D01*
X-211150Y-121495D01*
X-210150Y-120495D01*
X-211150D01*
X-212150Y-119495D01*
X-213150Y-120495D01*
X-214150D01*
X-213150Y-121495D01*
X-214150Y-122495D01*
X-213150D01*
X-212150Y-123495D01*
Y-122695D02*
X-211550Y-122095D01*
X-210950D01*
X-211550Y-121495D01*
X-210950Y-120895D01*
X-211550D01*
X-212150Y-120295D01*
X-212750Y-120895D01*
X-213350D01*
X-212750Y-121495D01*
X-213350Y-122095D01*
X-212750D01*
X-212150Y-122695D01*
X-223400Y-10995D02*
X-222400Y-9995D01*
X-221400D01*
X-222400Y-8995D01*
X-221400Y-7995D01*
X-222400D01*
X-223400Y-6995D01*
X-224400Y-7995D01*
X-225400D01*
X-224400Y-8995D01*
X-225400Y-9995D01*
X-224400D01*
X-223400Y-10995D01*
Y-10195D02*
X-222800Y-9595D01*
X-222200D01*
X-222800Y-8995D01*
X-222200Y-8395D01*
X-222800D01*
X-223400Y-7795D01*
X-224000Y-8395D01*
X-224600D01*
X-224000Y-8995D01*
X-224600Y-9595D01*
X-224000D01*
X-223400Y-10195D01*
X-219650Y-18495D02*
X-218650Y-17495D01*
X-217650D01*
X-218650Y-16495D01*
X-217650Y-15495D01*
X-218650D01*
X-219650Y-14495D01*
X-220650Y-15495D01*
X-221650D01*
X-220650Y-16495D01*
X-221650Y-17495D01*
X-220650D01*
X-219650Y-18495D01*
Y-17695D02*
X-219050Y-17095D01*
X-218450D01*
X-219050Y-16495D01*
X-218450Y-15895D01*
X-219050D01*
X-219650Y-15295D01*
X-220250Y-15895D01*
X-220850D01*
X-220250Y-16495D01*
X-220850Y-17095D01*
X-220250D01*
X-219650Y-17695D01*
Y-63495D02*
X-218650Y-62495D01*
X-217650D01*
X-218650Y-61495D01*
X-217650Y-60495D01*
X-218650D01*
X-219650Y-59495D01*
X-220650Y-60495D01*
X-221650D01*
X-220650Y-61495D01*
X-221650Y-62495D01*
X-220650D01*
X-219650Y-63495D01*
Y-62695D02*
X-219050Y-62095D01*
X-218450D01*
X-219050Y-61495D01*
X-218450Y-60895D01*
X-219050D01*
X-219650Y-60295D01*
X-220250Y-60895D01*
X-220850D01*
X-220250Y-61495D01*
X-220850Y-62095D01*
X-220250D01*
X-219650Y-62695D01*
Y-78495D02*
X-218650Y-77495D01*
X-217650D01*
X-218650Y-76495D01*
X-217650Y-75495D01*
X-218650D01*
X-219650Y-74495D01*
X-220650Y-75495D01*
X-221650D01*
X-220650Y-76495D01*
X-221650Y-77495D01*
X-220650D01*
X-219650Y-78495D01*
Y-77695D02*
X-219050Y-77095D01*
X-218450D01*
X-219050Y-76495D01*
X-218450Y-75895D01*
X-219050D01*
X-219650Y-75295D01*
X-220250Y-75895D01*
X-220850D01*
X-220250Y-76495D01*
X-220850Y-77095D01*
X-220250D01*
X-219650Y-77695D01*
X-230900Y-10995D02*
X-229900Y-9995D01*
X-228900D01*
X-229900Y-8995D01*
X-228900Y-7995D01*
X-229900D01*
X-230900Y-6995D01*
X-231900Y-7995D01*
X-232900D01*
X-231900Y-8995D01*
X-232900Y-9995D01*
X-231900D01*
X-230900Y-10995D01*
Y-10195D02*
X-230300Y-9595D01*
X-229700D01*
X-230300Y-8995D01*
X-229700Y-8395D01*
X-230300D01*
X-230900Y-7795D01*
X-231500Y-8395D01*
X-232100D01*
X-231500Y-8995D01*
X-232100Y-9595D01*
X-231500D01*
X-230900Y-10195D01*
X-227150Y-18495D02*
X-226150Y-17495D01*
X-225150D01*
X-226150Y-16495D01*
X-225150Y-15495D01*
X-226150D01*
X-227150Y-14495D01*
X-228150Y-15495D01*
X-229150D01*
X-228150Y-16495D01*
X-229150Y-17495D01*
X-228150D01*
X-227150Y-18495D01*
Y-17695D02*
X-226550Y-17095D01*
X-225950D01*
X-226550Y-16495D01*
X-225950Y-15895D01*
X-226550D01*
X-227150Y-15295D01*
X-227750Y-15895D01*
X-228350D01*
X-227750Y-16495D01*
X-228350Y-17095D01*
X-227750D01*
X-227150Y-17695D01*
Y-63495D02*
X-226150Y-62495D01*
X-225150D01*
X-226150Y-61495D01*
X-225150Y-60495D01*
X-226150D01*
X-227150Y-59495D01*
X-228150Y-60495D01*
X-229150D01*
X-228150Y-61495D01*
X-229150Y-62495D01*
X-228150D01*
X-227150Y-63495D01*
Y-62695D02*
X-226550Y-62095D01*
X-225950D01*
X-226550Y-61495D01*
X-225950Y-60895D01*
X-226550D01*
X-227150Y-60295D01*
X-227750Y-60895D01*
X-228350D01*
X-227750Y-61495D01*
X-228350Y-62095D01*
X-227750D01*
X-227150Y-62695D01*
X-238400Y-10995D02*
X-237400Y-9995D01*
X-236400D01*
X-237400Y-8995D01*
X-236400Y-7995D01*
X-237400D01*
X-238400Y-6995D01*
X-239400Y-7995D01*
X-240400D01*
X-239400Y-8995D01*
X-240400Y-9995D01*
X-239400D01*
X-238400Y-10995D01*
Y-10195D02*
X-237800Y-9595D01*
X-237200D01*
X-237800Y-8995D01*
X-237200Y-8395D01*
X-237800D01*
X-238400Y-7795D01*
X-239000Y-8395D01*
X-239600D01*
X-239000Y-8995D01*
X-239600Y-9595D01*
X-239000D01*
X-238400Y-10195D01*
X-234650Y-18495D02*
X-233650Y-17495D01*
X-232650D01*
X-233650Y-16495D01*
X-232650Y-15495D01*
X-233650D01*
X-234650Y-14495D01*
X-235650Y-15495D01*
X-236650D01*
X-235650Y-16495D01*
X-236650Y-17495D01*
X-235650D01*
X-234650Y-18495D01*
Y-17695D02*
X-234050Y-17095D01*
X-233450D01*
X-234050Y-16495D01*
X-233450Y-15895D01*
X-234050D01*
X-234650Y-15295D01*
X-235250Y-15895D01*
X-235850D01*
X-235250Y-16495D01*
X-235850Y-17095D01*
X-235250D01*
X-234650Y-17695D01*
Y-48495D02*
X-233650Y-47495D01*
X-232650D01*
X-233650Y-46495D01*
X-232650Y-45495D01*
X-233650D01*
X-234650Y-44495D01*
X-235650Y-45495D01*
X-236650D01*
X-235650Y-46495D01*
X-236650Y-47495D01*
X-235650D01*
X-234650Y-48495D01*
Y-47695D02*
X-234050Y-47095D01*
X-233450D01*
X-234050Y-46495D01*
X-233450Y-45895D01*
X-234050D01*
X-234650Y-45295D01*
X-235250Y-45895D01*
X-235850D01*
X-235250Y-46495D01*
X-235850Y-47095D01*
X-235250D01*
X-234650Y-47695D01*
X-238400Y-100995D02*
X-237400Y-99995D01*
X-236400D01*
X-237400Y-98995D01*
X-236400Y-97995D01*
X-237400D01*
X-238400Y-96995D01*
X-239400Y-97995D01*
X-240400D01*
X-239400Y-98995D01*
X-240400Y-99995D01*
X-239400D01*
X-238400Y-100995D01*
Y-100195D02*
X-237800Y-99595D01*
X-237200D01*
X-237800Y-98995D01*
X-237200Y-98395D01*
X-237800D01*
X-238400Y-97795D01*
X-239000Y-98395D01*
X-239600D01*
X-239000Y-98995D01*
X-239600Y-99595D01*
X-239000D01*
X-238400Y-100195D01*
X-234650Y-123495D02*
X-233650Y-122495D01*
X-232650D01*
X-233650Y-121495D01*
X-232650Y-120495D01*
X-233650D01*
X-234650Y-119495D01*
X-235650Y-120495D01*
X-236650D01*
X-235650Y-121495D01*
X-236650Y-122495D01*
X-235650D01*
X-234650Y-123495D01*
Y-122695D02*
X-234050Y-122095D01*
X-233450D01*
X-234050Y-121495D01*
X-233450Y-120895D01*
X-234050D01*
X-234650Y-120295D01*
X-235250Y-120895D01*
X-235850D01*
X-235250Y-121495D01*
X-235850Y-122095D01*
X-235250D01*
X-234650Y-122695D01*
X-242150Y-48495D02*
X-241150Y-47495D01*
X-240150D01*
X-241150Y-46495D01*
X-240150Y-45495D01*
X-241150D01*
X-242150Y-44495D01*
X-243150Y-45495D01*
X-244150D01*
X-243150Y-46495D01*
X-244150Y-47495D01*
X-243150D01*
X-242150Y-48495D01*
Y-47695D02*
X-241550Y-47095D01*
X-240950D01*
X-241550Y-46495D01*
X-240950Y-45895D01*
X-241550D01*
X-242150Y-45295D01*
X-242750Y-45895D01*
X-243350D01*
X-242750Y-46495D01*
X-243350Y-47095D01*
X-242750D01*
X-242150Y-47695D01*
X-245900Y-100995D02*
X-244900Y-99995D01*
X-243900D01*
X-244900Y-98995D01*
X-243900Y-97995D01*
X-244900D01*
X-245900Y-96995D01*
X-246900Y-97995D01*
X-247900D01*
X-246900Y-98995D01*
X-247900Y-99995D01*
X-246900D01*
X-245900Y-100995D01*
Y-100195D02*
X-245300Y-99595D01*
X-244700D01*
X-245300Y-98995D01*
X-244700Y-98395D01*
X-245300D01*
X-245900Y-97795D01*
X-246500Y-98395D01*
X-247100D01*
X-246500Y-98995D01*
X-247100Y-99595D01*
X-246500D01*
X-245900Y-100195D01*
X-242150Y-108495D02*
X-241150Y-107495D01*
X-240150D01*
X-241150Y-106495D01*
X-240150Y-105495D01*
X-241150D01*
X-242150Y-104495D01*
X-243150Y-105495D01*
X-244150D01*
X-243150Y-106495D01*
X-244150Y-107495D01*
X-243150D01*
X-242150Y-108495D01*
Y-107695D02*
X-241550Y-107095D01*
X-240950D01*
X-241550Y-106495D01*
X-240950Y-105895D01*
X-241550D01*
X-242150Y-105295D01*
X-242750Y-105895D01*
X-243350D01*
X-242750Y-106495D01*
X-243350Y-107095D01*
X-242750D01*
X-242150Y-107695D01*
X-245900Y-115995D02*
X-244900Y-114995D01*
X-243900D01*
X-244900Y-113995D01*
X-243900Y-112995D01*
X-244900D01*
X-245900Y-111995D01*
X-246900Y-112995D01*
X-247900D01*
X-246900Y-113995D01*
X-247900Y-114995D01*
X-246900D01*
X-245900Y-115995D01*
Y-115195D02*
X-245300Y-114595D01*
X-244700D01*
X-245300Y-113995D01*
X-244700Y-113395D01*
X-245300D01*
X-245900Y-112795D01*
X-246500Y-113395D01*
X-247100D01*
X-246500Y-113995D01*
X-247100Y-114595D01*
X-246500D01*
X-245900Y-115195D01*
X-249650Y-63495D02*
X-248650Y-62495D01*
X-247650D01*
X-248650Y-61495D01*
X-247650Y-60495D01*
X-248650D01*
X-249650Y-59495D01*
X-250650Y-60495D01*
X-251650D01*
X-250650Y-61495D01*
X-251650Y-62495D01*
X-250650D01*
X-249650Y-63495D01*
Y-62695D02*
X-249050Y-62095D01*
X-248450D01*
X-249050Y-61495D01*
X-248450Y-60895D01*
X-249050D01*
X-249650Y-60295D01*
X-250250Y-60895D01*
X-250850D01*
X-250250Y-61495D01*
X-250850Y-62095D01*
X-250250D01*
X-249650Y-62695D01*
X-253400Y-70995D02*
X-252400Y-69995D01*
X-251400D01*
X-252400Y-68995D01*
X-251400Y-67995D01*
X-252400D01*
X-253400Y-66995D01*
X-254400Y-67995D01*
X-255400D01*
X-254400Y-68995D01*
X-255400Y-69995D01*
X-254400D01*
X-253400Y-70995D01*
Y-70195D02*
X-252800Y-69595D01*
X-252200D01*
X-252800Y-68995D01*
X-252200Y-68395D01*
X-252800D01*
X-253400Y-67795D01*
X-254000Y-68395D01*
X-254600D01*
X-254000Y-68995D01*
X-254600Y-69595D01*
X-254000D01*
X-253400Y-70195D01*
X-249650Y-78495D02*
X-248650Y-77495D01*
X-247650D01*
X-248650Y-76495D01*
X-247650Y-75495D01*
X-248650D01*
X-249650Y-74495D01*
X-250650Y-75495D01*
X-251650D01*
X-250650Y-76495D01*
X-251650Y-77495D01*
X-250650D01*
X-249650Y-78495D01*
Y-77695D02*
X-249050Y-77095D01*
X-248450D01*
X-249050Y-76495D01*
X-248450Y-75895D01*
X-249050D01*
X-249650Y-75295D01*
X-250250Y-75895D01*
X-250850D01*
X-250250Y-76495D01*
X-250850Y-77095D01*
X-250250D01*
X-249650Y-77695D01*
X-253400Y-85995D02*
X-252400Y-84995D01*
X-251400D01*
X-252400Y-83995D01*
X-251400Y-82995D01*
X-252400D01*
X-253400Y-81995D01*
X-254400Y-82995D01*
X-255400D01*
X-254400Y-83995D01*
X-255400Y-84995D01*
X-254400D01*
X-253400Y-85995D01*
Y-85195D02*
X-252800Y-84595D01*
X-252200D01*
X-252800Y-83995D01*
X-252200Y-83395D01*
X-252800D01*
X-253400Y-82795D01*
X-254000Y-83395D01*
X-254600D01*
X-254000Y-83995D01*
X-254600Y-84595D01*
X-254000D01*
X-253400Y-85195D01*
X-249650Y-93495D02*
X-248650Y-92495D01*
X-247650D01*
X-248650Y-91495D01*
X-247650Y-90495D01*
X-248650D01*
X-249650Y-89495D01*
X-250650Y-90495D01*
X-251650D01*
X-250650Y-91495D01*
X-251650Y-92495D01*
X-250650D01*
X-249650Y-93495D01*
Y-92695D02*
X-249050Y-92095D01*
X-248450D01*
X-249050Y-91495D01*
X-248450Y-90895D01*
X-249050D01*
X-249650Y-90295D01*
X-250250Y-90895D01*
X-250850D01*
X-250250Y-91495D01*
X-250850Y-92095D01*
X-250250D01*
X-249650Y-92695D01*
X-253400Y-100995D02*
X-252400Y-99995D01*
X-251400D01*
X-252400Y-98995D01*
X-251400Y-97995D01*
X-252400D01*
X-253400Y-96995D01*
X-254400Y-97995D01*
X-255400D01*
X-254400Y-98995D01*
X-255400Y-99995D01*
X-254400D01*
X-253400Y-100995D01*
Y-100195D02*
X-252800Y-99595D01*
X-252200D01*
X-252800Y-98995D01*
X-252200Y-98395D01*
X-252800D01*
X-253400Y-97795D01*
X-254000Y-98395D01*
X-254600D01*
X-254000Y-98995D01*
X-254600Y-99595D01*
X-254000D01*
X-253400Y-100195D01*
X-249650Y-108495D02*
X-248650Y-107495D01*
X-247650D01*
X-248650Y-106495D01*
X-247650Y-105495D01*
X-248650D01*
X-249650Y-104495D01*
X-250650Y-105495D01*
X-251650D01*
X-250650Y-106495D01*
X-251650Y-107495D01*
X-250650D01*
X-249650Y-108495D01*
Y-107695D02*
X-249050Y-107095D01*
X-248450D01*
X-249050Y-106495D01*
X-248450Y-105895D01*
X-249050D01*
X-249650Y-105295D01*
X-250250Y-105895D01*
X-250850D01*
X-250250Y-106495D01*
X-250850Y-107095D01*
X-250250D01*
X-249650Y-107695D01*
X-253400Y-115995D02*
X-252400Y-114995D01*
X-251400D01*
X-252400Y-113995D01*
X-251400Y-112995D01*
X-252400D01*
X-253400Y-111995D01*
X-254400Y-112995D01*
X-255400D01*
X-254400Y-113995D01*
X-255400Y-114995D01*
X-254400D01*
X-253400Y-115995D01*
Y-115195D02*
X-252800Y-114595D01*
X-252200D01*
X-252800Y-113995D01*
X-252200Y-113395D01*
X-252800D01*
X-253400Y-112795D01*
X-254000Y-113395D01*
X-254600D01*
X-254000Y-113995D01*
X-254600Y-114595D01*
X-254000D01*
X-253400Y-115195D01*
X-249650Y-123495D02*
X-248650Y-122495D01*
X-247650D01*
X-248650Y-121495D01*
X-247650Y-120495D01*
X-248650D01*
X-249650Y-119495D01*
X-250650Y-120495D01*
X-251650D01*
X-250650Y-121495D01*
X-251650Y-122495D01*
X-250650D01*
X-249650Y-123495D01*
Y-122695D02*
X-249050Y-122095D01*
X-248450D01*
X-249050Y-121495D01*
X-248450Y-120895D01*
X-249050D01*
X-249650Y-120295D01*
X-250250Y-120895D01*
X-250850D01*
X-250250Y-121495D01*
X-250850Y-122095D01*
X-250250D01*
X-249650Y-122695D01*
X-253400Y-130995D02*
X-252400Y-129995D01*
X-251400D01*
X-252400Y-128995D01*
X-251400Y-127995D01*
X-252400D01*
X-253400Y-126995D01*
X-254400Y-127995D01*
X-255400D01*
X-254400Y-128995D01*
X-255400Y-129995D01*
X-254400D01*
X-253400Y-130995D01*
Y-130195D02*
X-252800Y-129595D01*
X-252200D01*
X-252800Y-128995D01*
X-252200Y-128395D01*
X-252800D01*
X-253400Y-127795D01*
X-254000Y-128395D01*
X-254600D01*
X-254000Y-128995D01*
X-254600Y-129595D01*
X-254000D01*
X-253400Y-130195D01*
X-257150Y-33495D02*
X-256150Y-32495D01*
X-255150D01*
X-256150Y-31495D01*
X-255150Y-30495D01*
X-256150D01*
X-257150Y-29495D01*
X-258150Y-30495D01*
X-259150D01*
X-258150Y-31495D01*
X-259150Y-32495D01*
X-258150D01*
X-257150Y-33495D01*
Y-32695D02*
X-256550Y-32095D01*
X-255950D01*
X-256550Y-31495D01*
X-255950Y-30895D01*
X-256550D01*
X-257150Y-30295D01*
X-257750Y-30895D01*
X-258350D01*
X-257750Y-31495D01*
X-258350Y-32095D01*
X-257750D01*
X-257150Y-32695D01*
Y-78495D02*
X-256150Y-77495D01*
X-255150D01*
X-256150Y-76495D01*
X-255150Y-75495D01*
X-256150D01*
X-257150Y-74495D01*
X-258150Y-75495D01*
X-259150D01*
X-258150Y-76495D01*
X-259150Y-77495D01*
X-258150D01*
X-257150Y-78495D01*
Y-77695D02*
X-256550Y-77095D01*
X-255950D01*
X-256550Y-76495D01*
X-255950Y-75895D01*
X-256550D01*
X-257150Y-75295D01*
X-257750Y-75895D01*
X-258350D01*
X-257750Y-76495D01*
X-258350Y-77095D01*
X-257750D01*
X-257150Y-77695D01*
X-260900Y-85995D02*
X-259900Y-84995D01*
X-258900D01*
X-259900Y-83995D01*
X-258900Y-82995D01*
X-259900D01*
X-260900Y-81995D01*
X-261900Y-82995D01*
X-262900D01*
X-261900Y-83995D01*
X-262900Y-84995D01*
X-261900D01*
X-260900Y-85995D01*
Y-85195D02*
X-260300Y-84595D01*
X-259700D01*
X-260300Y-83995D01*
X-259700Y-83395D01*
X-260300D01*
X-260900Y-82795D01*
X-261500Y-83395D01*
X-262100D01*
X-261500Y-83995D01*
X-262100Y-84595D01*
X-261500D01*
X-260900Y-85195D01*
X-257150Y-93495D02*
X-256150Y-92495D01*
X-255150D01*
X-256150Y-91495D01*
X-255150Y-90495D01*
X-256150D01*
X-257150Y-89495D01*
X-258150Y-90495D01*
X-259150D01*
X-258150Y-91495D01*
X-259150Y-92495D01*
X-258150D01*
X-257150Y-93495D01*
Y-92695D02*
X-256550Y-92095D01*
X-255950D01*
X-256550Y-91495D01*
X-255950Y-90895D01*
X-256550D01*
X-257150Y-90295D01*
X-257750Y-90895D01*
X-258350D01*
X-257750Y-91495D01*
X-258350Y-92095D01*
X-257750D01*
X-257150Y-92695D01*
X-260900Y-100995D02*
X-259900Y-99995D01*
X-258900D01*
X-259900Y-98995D01*
X-258900Y-97995D01*
X-259900D01*
X-260900Y-96995D01*
X-261900Y-97995D01*
X-262900D01*
X-261900Y-98995D01*
X-262900Y-99995D01*
X-261900D01*
X-260900Y-100995D01*
Y-100195D02*
X-260300Y-99595D01*
X-259700D01*
X-260300Y-98995D01*
X-259700Y-98395D01*
X-260300D01*
X-260900Y-97795D01*
X-261500Y-98395D01*
X-262100D01*
X-261500Y-98995D01*
X-262100Y-99595D01*
X-261500D01*
X-260900Y-100195D01*
X-257150Y-108495D02*
X-256150Y-107495D01*
X-255150D01*
X-256150Y-106495D01*
X-255150Y-105495D01*
X-256150D01*
X-257150Y-104495D01*
X-258150Y-105495D01*
X-259150D01*
X-258150Y-106495D01*
X-259150Y-107495D01*
X-258150D01*
X-257150Y-108495D01*
Y-107695D02*
X-256550Y-107095D01*
X-255950D01*
X-256550Y-106495D01*
X-255950Y-105895D01*
X-256550D01*
X-257150Y-105295D01*
X-257750Y-105895D01*
X-258350D01*
X-257750Y-106495D01*
X-258350Y-107095D01*
X-257750D01*
X-257150Y-107695D01*
Y-123495D02*
X-256150Y-122495D01*
X-255150D01*
X-256150Y-121495D01*
X-255150Y-120495D01*
X-256150D01*
X-257150Y-119495D01*
X-258150Y-120495D01*
X-259150D01*
X-258150Y-121495D01*
X-259150Y-122495D01*
X-258150D01*
X-257150Y-123495D01*
Y-122695D02*
X-256550Y-122095D01*
X-255950D01*
X-256550Y-121495D01*
X-255950Y-120895D01*
X-256550D01*
X-257150Y-120295D01*
X-257750Y-120895D01*
X-258350D01*
X-257750Y-121495D01*
X-258350Y-122095D01*
X-257750D01*
X-257150Y-122695D01*
X-264650Y-33495D02*
X-263650Y-32495D01*
X-262650D01*
X-263650Y-31495D01*
X-262650Y-30495D01*
X-263650D01*
X-264650Y-29495D01*
X-265650Y-30495D01*
X-266650D01*
X-265650Y-31495D01*
X-266650Y-32495D01*
X-265650D01*
X-264650Y-33495D01*
Y-32695D02*
X-264050Y-32095D01*
X-263450D01*
X-264050Y-31495D01*
X-263450Y-30895D01*
X-264050D01*
X-264650Y-30295D01*
X-265250Y-30895D01*
X-265850D01*
X-265250Y-31495D01*
X-265850Y-32095D01*
X-265250D01*
X-264650Y-32695D01*
X-268400Y-85995D02*
X-267400Y-84995D01*
X-266400D01*
X-267400Y-83995D01*
X-266400Y-82995D01*
X-267400D01*
X-268400Y-81995D01*
X-269400Y-82995D01*
X-270400D01*
X-269400Y-83995D01*
X-270400Y-84995D01*
X-269400D01*
X-268400Y-85995D01*
Y-85195D02*
X-267800Y-84595D01*
X-267200D01*
X-267800Y-83995D01*
X-267200Y-83395D01*
X-267800D01*
X-268400Y-82795D01*
X-269000Y-83395D01*
X-269600D01*
X-269000Y-83995D01*
X-269600Y-84595D01*
X-269000D01*
X-268400Y-85195D01*
X-264650Y-93495D02*
X-263650Y-92495D01*
X-262650D01*
X-263650Y-91495D01*
X-262650Y-90495D01*
X-263650D01*
X-264650Y-89495D01*
X-265650Y-90495D01*
X-266650D01*
X-265650Y-91495D01*
X-266650Y-92495D01*
X-265650D01*
X-264650Y-93495D01*
Y-92695D02*
X-264050Y-92095D01*
X-263450D01*
X-264050Y-91495D01*
X-263450Y-90895D01*
X-264050D01*
X-264650Y-90295D01*
X-265250Y-90895D01*
X-265850D01*
X-265250Y-91495D01*
X-265850Y-92095D01*
X-265250D01*
X-264650Y-92695D01*
Y-123495D02*
X-263650Y-122495D01*
X-262650D01*
X-263650Y-121495D01*
X-262650Y-120495D01*
X-263650D01*
X-264650Y-119495D01*
X-265650Y-120495D01*
X-266650D01*
X-265650Y-121495D01*
X-266650Y-122495D01*
X-265650D01*
X-264650Y-123495D01*
Y-122695D02*
X-264050Y-122095D01*
X-263450D01*
X-264050Y-121495D01*
X-263450Y-120895D01*
X-264050D01*
X-264650Y-120295D01*
X-265250Y-120895D01*
X-265850D01*
X-265250Y-121495D01*
X-265850Y-122095D01*
X-265250D01*
X-264650Y-122695D01*
X-275900Y-40995D02*
X-274900Y-39995D01*
X-273900D01*
X-274900Y-38995D01*
X-273900Y-37995D01*
X-274900D01*
X-275900Y-36995D01*
X-276900Y-37995D01*
X-277900D01*
X-276900Y-38995D01*
X-277900Y-39995D01*
X-276900D01*
X-275900Y-40995D01*
Y-40195D02*
X-275300Y-39595D01*
X-274700D01*
X-275300Y-38995D01*
X-274700Y-38395D01*
X-275300D01*
X-275900Y-37795D01*
X-276500Y-38395D01*
X-277100D01*
X-276500Y-38995D01*
X-277100Y-39595D01*
X-276500D01*
X-275900Y-40195D01*
X-272150Y-48495D02*
X-271150Y-47495D01*
X-270150D01*
X-271150Y-46495D01*
X-270150Y-45495D01*
X-271150D01*
X-272150Y-44495D01*
X-273150Y-45495D01*
X-274150D01*
X-273150Y-46495D01*
X-274150Y-47495D01*
X-273150D01*
X-272150Y-48495D01*
Y-47695D02*
X-271550Y-47095D01*
X-270950D01*
X-271550Y-46495D01*
X-270950Y-45895D01*
X-271550D01*
X-272150Y-45295D01*
X-272750Y-45895D01*
X-273350D01*
X-272750Y-46495D01*
X-273350Y-47095D01*
X-272750D01*
X-272150Y-47695D01*
Y-123495D02*
X-271150Y-122495D01*
X-270150D01*
X-271150Y-121495D01*
X-270150Y-120495D01*
X-271150D01*
X-272150Y-119495D01*
X-273150Y-120495D01*
X-274150D01*
X-273150Y-121495D01*
X-274150Y-122495D01*
X-273150D01*
X-272150Y-123495D01*
Y-122695D02*
X-271550Y-122095D01*
X-270950D01*
X-271550Y-121495D01*
X-270950Y-120895D01*
X-271550D01*
X-272150Y-120295D01*
X-272750Y-120895D01*
X-273350D01*
X-272750Y-121495D01*
X-273350Y-122095D01*
X-272750D01*
X-272150Y-122695D01*
X-283400Y-85995D02*
X-282400Y-84995D01*
X-281400D01*
X-282400Y-83995D01*
X-281400Y-82995D01*
X-282400D01*
X-283400Y-81995D01*
X-284400Y-82995D01*
X-285400D01*
X-284400Y-83995D01*
X-285400Y-84995D01*
X-284400D01*
X-283400Y-85995D01*
Y-85195D02*
X-282800Y-84595D01*
X-282200D01*
X-282800Y-83995D01*
X-282200Y-83395D01*
X-282800D01*
X-283400Y-82795D01*
X-284000Y-83395D01*
X-284600D01*
X-284000Y-83995D01*
X-284600Y-84595D01*
X-284000D01*
X-283400Y-85195D01*
Y-100995D02*
X-282400Y-99995D01*
X-281400D01*
X-282400Y-98995D01*
X-281400Y-97995D01*
X-282400D01*
X-283400Y-96995D01*
X-284400Y-97995D01*
X-285400D01*
X-284400Y-98995D01*
X-285400Y-99995D01*
X-284400D01*
X-283400Y-100995D01*
Y-100195D02*
X-282800Y-99595D01*
X-282200D01*
X-282800Y-98995D01*
X-282200Y-98395D01*
X-282800D01*
X-283400Y-97795D01*
X-284000Y-98395D01*
X-284600D01*
X-284000Y-98995D01*
X-284600Y-99595D01*
X-284000D01*
X-283400Y-100195D01*
X-287150Y-33495D02*
X-286150Y-32495D01*
X-285150D01*
X-286150Y-31495D01*
X-285150Y-30495D01*
X-286150D01*
X-287150Y-29495D01*
X-288150Y-30495D01*
X-289150D01*
X-288150Y-31495D01*
X-289150Y-32495D01*
X-288150D01*
X-287150Y-33495D01*
Y-32695D02*
X-286550Y-32095D01*
X-285950D01*
X-286550Y-31495D01*
X-285950Y-30895D01*
X-286550D01*
X-287150Y-30295D01*
X-287750Y-30895D01*
X-288350D01*
X-287750Y-31495D01*
X-288350Y-32095D01*
X-287750D01*
X-287150Y-32695D01*
Y-93495D02*
X-286150Y-92495D01*
X-285150D01*
X-286150Y-91495D01*
X-285150Y-90495D01*
X-286150D01*
X-287150Y-89495D01*
X-288150Y-90495D01*
X-289150D01*
X-288150Y-91495D01*
X-289150Y-92495D01*
X-288150D01*
X-287150Y-93495D01*
Y-92695D02*
X-286550Y-92095D01*
X-285950D01*
X-286550Y-91495D01*
X-285950Y-90895D01*
X-286550D01*
X-287150Y-90295D01*
X-287750Y-90895D01*
X-288350D01*
X-287750Y-91495D01*
X-288350Y-92095D01*
X-287750D01*
X-287150Y-92695D01*
Y-123495D02*
X-286150Y-122495D01*
X-285150D01*
X-286150Y-121495D01*
X-285150Y-120495D01*
X-286150D01*
X-287150Y-119495D01*
X-288150Y-120495D01*
X-289150D01*
X-288150Y-121495D01*
X-289150Y-122495D01*
X-288150D01*
X-287150Y-123495D01*
Y-122695D02*
X-286550Y-122095D01*
X-285950D01*
X-286550Y-121495D01*
X-285950Y-120895D01*
X-286550D01*
X-287150Y-120295D01*
X-287750Y-120895D01*
X-288350D01*
X-287750Y-121495D01*
X-288350Y-122095D01*
X-287750D01*
X-287150Y-122695D01*
X-298400Y-10995D02*
X-297400Y-9995D01*
X-296400D01*
X-297400Y-8995D01*
X-296400Y-7995D01*
X-297400D01*
X-298400Y-6995D01*
X-299400Y-7995D01*
X-300400D01*
X-299400Y-8995D01*
X-300400Y-9995D01*
X-299400D01*
X-298400Y-10995D01*
Y-10195D02*
X-297800Y-9595D01*
X-297200D01*
X-297800Y-8995D01*
X-297200Y-8395D01*
X-297800D01*
X-298400Y-7795D01*
X-299000Y-8395D01*
X-299600D01*
X-299000Y-8995D01*
X-299600Y-9595D01*
X-299000D01*
X-298400Y-10195D01*
Y-40995D02*
X-297400Y-39995D01*
X-296400D01*
X-297400Y-38995D01*
X-296400Y-37995D01*
X-297400D01*
X-298400Y-36995D01*
X-299400Y-37995D01*
X-300400D01*
X-299400Y-38995D01*
X-300400Y-39995D01*
X-299400D01*
X-298400Y-40995D01*
Y-40195D02*
X-297800Y-39595D01*
X-297200D01*
X-297800Y-38995D01*
X-297200Y-38395D01*
X-297800D01*
X-298400Y-37795D01*
X-299000Y-38395D01*
X-299600D01*
X-299000Y-38995D01*
X-299600Y-39595D01*
X-299000D01*
X-298400Y-40195D01*
X-294650Y-48495D02*
X-293650Y-47495D01*
X-292650D01*
X-293650Y-46495D01*
X-292650Y-45495D01*
X-293650D01*
X-294650Y-44495D01*
X-295650Y-45495D01*
X-296650D01*
X-295650Y-46495D01*
X-296650Y-47495D01*
X-295650D01*
X-294650Y-48495D01*
Y-47695D02*
X-294050Y-47095D01*
X-293450D01*
X-294050Y-46495D01*
X-293450Y-45895D01*
X-294050D01*
X-294650Y-45295D01*
X-295250Y-45895D01*
X-295850D01*
X-295250Y-46495D01*
X-295850Y-47095D01*
X-295250D01*
X-294650Y-47695D01*
X-298400Y-85995D02*
X-297400Y-84995D01*
X-296400D01*
X-297400Y-83995D01*
X-296400Y-82995D01*
X-297400D01*
X-298400Y-81995D01*
X-299400Y-82995D01*
X-300400D01*
X-299400Y-83995D01*
X-300400Y-84995D01*
X-299400D01*
X-298400Y-85995D01*
Y-85195D02*
X-297800Y-84595D01*
X-297200D01*
X-297800Y-83995D01*
X-297200Y-83395D01*
X-297800D01*
X-298400Y-82795D01*
X-299000Y-83395D01*
X-299600D01*
X-299000Y-83995D01*
X-299600Y-84595D01*
X-299000D01*
X-298400Y-85195D01*
Y-115995D02*
X-297400Y-114995D01*
X-296400D01*
X-297400Y-113995D01*
X-296400Y-112995D01*
X-297400D01*
X-298400Y-111995D01*
X-299400Y-112995D01*
X-300400D01*
X-299400Y-113995D01*
X-300400Y-114995D01*
X-299400D01*
X-298400Y-115995D01*
Y-115195D02*
X-297800Y-114595D01*
X-297200D01*
X-297800Y-113995D01*
X-297200Y-113395D01*
X-297800D01*
X-298400Y-112795D01*
X-299000Y-113395D01*
X-299600D01*
X-299000Y-113995D01*
X-299600Y-114595D01*
X-299000D01*
X-298400Y-115195D01*
X-294650Y-123495D02*
X-293650Y-122495D01*
X-292650D01*
X-293650Y-121495D01*
X-292650Y-120495D01*
X-293650D01*
X-294650Y-119495D01*
X-295650Y-120495D01*
X-296650D01*
X-295650Y-121495D01*
X-296650Y-122495D01*
X-295650D01*
X-294650Y-123495D01*
Y-122695D02*
X-294050Y-122095D01*
X-293450D01*
X-294050Y-121495D01*
X-293450Y-120895D01*
X-294050D01*
X-294650Y-120295D01*
X-295250Y-120895D01*
X-295850D01*
X-295250Y-121495D01*
X-295850Y-122095D01*
X-295250D01*
X-294650Y-122695D01*
X-305900Y-10995D02*
X-304900Y-9995D01*
X-303900D01*
X-304900Y-8995D01*
X-303900Y-7995D01*
X-304900D01*
X-305900Y-6995D01*
X-306900Y-7995D01*
X-307900D01*
X-306900Y-8995D01*
X-307900Y-9995D01*
X-306900D01*
X-305900Y-10995D01*
Y-10195D02*
X-305300Y-9595D01*
X-304700D01*
X-305300Y-8995D01*
X-304700Y-8395D01*
X-305300D01*
X-305900Y-7795D01*
X-306500Y-8395D01*
X-307100D01*
X-306500Y-8995D01*
X-307100Y-9595D01*
X-306500D01*
X-305900Y-10195D01*
Y-25995D02*
X-304900Y-24995D01*
X-303900D01*
X-304900Y-23995D01*
X-303900Y-22995D01*
X-304900D01*
X-305900Y-21995D01*
X-306900Y-22995D01*
X-307900D01*
X-306900Y-23995D01*
X-307900Y-24995D01*
X-306900D01*
X-305900Y-25995D01*
Y-25195D02*
X-305300Y-24595D01*
X-304700D01*
X-305300Y-23995D01*
X-304700Y-23395D01*
X-305300D01*
X-305900Y-22795D01*
X-306500Y-23395D01*
X-307100D01*
X-306500Y-23995D01*
X-307100Y-24595D01*
X-306500D01*
X-305900Y-25195D01*
Y-40995D02*
X-304900Y-39995D01*
X-303900D01*
X-304900Y-38995D01*
X-303900Y-37995D01*
X-304900D01*
X-305900Y-36995D01*
X-306900Y-37995D01*
X-307900D01*
X-306900Y-38995D01*
X-307900Y-39995D01*
X-306900D01*
X-305900Y-40995D01*
Y-40195D02*
X-305300Y-39595D01*
X-304700D01*
X-305300Y-38995D01*
X-304700Y-38395D01*
X-305300D01*
X-305900Y-37795D01*
X-306500Y-38395D01*
X-307100D01*
X-306500Y-38995D01*
X-307100Y-39595D01*
X-306500D01*
X-305900Y-40195D01*
Y-55995D02*
X-304900Y-54995D01*
X-303900D01*
X-304900Y-53995D01*
X-303900Y-52995D01*
X-304900D01*
X-305900Y-51995D01*
X-306900Y-52995D01*
X-307900D01*
X-306900Y-53995D01*
X-307900Y-54995D01*
X-306900D01*
X-305900Y-55995D01*
Y-55195D02*
X-305300Y-54595D01*
X-304700D01*
X-305300Y-53995D01*
X-304700Y-53395D01*
X-305300D01*
X-305900Y-52795D01*
X-306500Y-53395D01*
X-307100D01*
X-306500Y-53995D01*
X-307100Y-54595D01*
X-306500D01*
X-305900Y-55195D01*
X-302150Y-63495D02*
X-301150Y-62495D01*
X-300150D01*
X-301150Y-61495D01*
X-300150Y-60495D01*
X-301150D01*
X-302150Y-59495D01*
X-303150Y-60495D01*
X-304150D01*
X-303150Y-61495D01*
X-304150Y-62495D01*
X-303150D01*
X-302150Y-63495D01*
Y-62695D02*
X-301550Y-62095D01*
X-300950D01*
X-301550Y-61495D01*
X-300950Y-60895D01*
X-301550D01*
X-302150Y-60295D01*
X-302750Y-60895D01*
X-303350D01*
X-302750Y-61495D01*
X-303350Y-62095D01*
X-302750D01*
X-302150Y-62695D01*
X-305900Y-70995D02*
X-304900Y-69995D01*
X-303900D01*
X-304900Y-68995D01*
X-303900Y-67995D01*
X-304900D01*
X-305900Y-66995D01*
X-306900Y-67995D01*
X-307900D01*
X-306900Y-68995D01*
X-307900Y-69995D01*
X-306900D01*
X-305900Y-70995D01*
Y-70195D02*
X-305300Y-69595D01*
X-304700D01*
X-305300Y-68995D01*
X-304700Y-68395D01*
X-305300D01*
X-305900Y-67795D01*
X-306500Y-68395D01*
X-307100D01*
X-306500Y-68995D01*
X-307100Y-69595D01*
X-306500D01*
X-305900Y-70195D01*
X-302150Y-78495D02*
X-301150Y-77495D01*
X-300150D01*
X-301150Y-76495D01*
X-300150Y-75495D01*
X-301150D01*
X-302150Y-74495D01*
X-303150Y-75495D01*
X-304150D01*
X-303150Y-76495D01*
X-304150Y-77495D01*
X-303150D01*
X-302150Y-78495D01*
Y-77695D02*
X-301550Y-77095D01*
X-300950D01*
X-301550Y-76495D01*
X-300950Y-75895D01*
X-301550D01*
X-302150Y-75295D01*
X-302750Y-75895D01*
X-303350D01*
X-302750Y-76495D01*
X-303350Y-77095D01*
X-302750D01*
X-302150Y-77695D01*
X-305900Y-85995D02*
X-304900Y-84995D01*
X-303900D01*
X-304900Y-83995D01*
X-303900Y-82995D01*
X-304900D01*
X-305900Y-81995D01*
X-306900Y-82995D01*
X-307900D01*
X-306900Y-83995D01*
X-307900Y-84995D01*
X-306900D01*
X-305900Y-85995D01*
Y-85195D02*
X-305300Y-84595D01*
X-304700D01*
X-305300Y-83995D01*
X-304700Y-83395D01*
X-305300D01*
X-305900Y-82795D01*
X-306500Y-83395D01*
X-307100D01*
X-306500Y-83995D01*
X-307100Y-84595D01*
X-306500D01*
X-305900Y-85195D01*
X-302150Y-123495D02*
X-301150Y-122495D01*
X-300150D01*
X-301150Y-121495D01*
X-300150Y-120495D01*
X-301150D01*
X-302150Y-119495D01*
X-303150Y-120495D01*
X-304150D01*
X-303150Y-121495D01*
X-304150Y-122495D01*
X-303150D01*
X-302150Y-123495D01*
Y-122695D02*
X-301550Y-122095D01*
X-300950D01*
X-301550Y-121495D01*
X-300950Y-120895D01*
X-301550D01*
X-302150Y-120295D01*
X-302750Y-120895D01*
X-303350D01*
X-302750Y-121495D01*
X-303350Y-122095D01*
X-302750D01*
X-302150Y-122695D01*
X-313400Y-10995D02*
X-312400Y-9995D01*
X-311400D01*
X-312400Y-8995D01*
X-311400Y-7995D01*
X-312400D01*
X-313400Y-6995D01*
X-314400Y-7995D01*
X-315400D01*
X-314400Y-8995D01*
X-315400Y-9995D01*
X-314400D01*
X-313400Y-10995D01*
Y-10195D02*
X-312800Y-9595D01*
X-312200D01*
X-312800Y-8995D01*
X-312200Y-8395D01*
X-312800D01*
X-313400Y-7795D01*
X-314000Y-8395D01*
X-314600D01*
X-314000Y-8995D01*
X-314600Y-9595D01*
X-314000D01*
X-313400Y-10195D01*
Y-25995D02*
X-312400Y-24995D01*
X-311400D01*
X-312400Y-23995D01*
X-311400Y-22995D01*
X-312400D01*
X-313400Y-21995D01*
X-314400Y-22995D01*
X-315400D01*
X-314400Y-23995D01*
X-315400Y-24995D01*
X-314400D01*
X-313400Y-25995D01*
Y-25195D02*
X-312800Y-24595D01*
X-312200D01*
X-312800Y-23995D01*
X-312200Y-23395D01*
X-312800D01*
X-313400Y-22795D01*
X-314000Y-23395D01*
X-314600D01*
X-314000Y-23995D01*
X-314600Y-24595D01*
X-314000D01*
X-313400Y-25195D01*
X-309650Y-33495D02*
X-308650Y-32495D01*
X-307650D01*
X-308650Y-31495D01*
X-307650Y-30495D01*
X-308650D01*
X-309650Y-29495D01*
X-310650Y-30495D01*
X-311650D01*
X-310650Y-31495D01*
X-311650Y-32495D01*
X-310650D01*
X-309650Y-33495D01*
Y-32695D02*
X-309050Y-32095D01*
X-308450D01*
X-309050Y-31495D01*
X-308450Y-30895D01*
X-309050D01*
X-309650Y-30295D01*
X-310250Y-30895D01*
X-310850D01*
X-310250Y-31495D01*
X-310850Y-32095D01*
X-310250D01*
X-309650Y-32695D01*
X-313400Y-40995D02*
X-312400Y-39995D01*
X-311400D01*
X-312400Y-38995D01*
X-311400Y-37995D01*
X-312400D01*
X-313400Y-36995D01*
X-314400Y-37995D01*
X-315400D01*
X-314400Y-38995D01*
X-315400Y-39995D01*
X-314400D01*
X-313400Y-40995D01*
Y-40195D02*
X-312800Y-39595D01*
X-312200D01*
X-312800Y-38995D01*
X-312200Y-38395D01*
X-312800D01*
X-313400Y-37795D01*
X-314000Y-38395D01*
X-314600D01*
X-314000Y-38995D01*
X-314600Y-39595D01*
X-314000D01*
X-313400Y-40195D01*
X-309650Y-48495D02*
X-308650Y-47495D01*
X-307650D01*
X-308650Y-46495D01*
X-307650Y-45495D01*
X-308650D01*
X-309650Y-44495D01*
X-310650Y-45495D01*
X-311650D01*
X-310650Y-46495D01*
X-311650Y-47495D01*
X-310650D01*
X-309650Y-48495D01*
Y-47695D02*
X-309050Y-47095D01*
X-308450D01*
X-309050Y-46495D01*
X-308450Y-45895D01*
X-309050D01*
X-309650Y-45295D01*
X-310250Y-45895D01*
X-310850D01*
X-310250Y-46495D01*
X-310850Y-47095D01*
X-310250D01*
X-309650Y-47695D01*
X-313400Y-55995D02*
X-312400Y-54995D01*
X-311400D01*
X-312400Y-53995D01*
X-311400Y-52995D01*
X-312400D01*
X-313400Y-51995D01*
X-314400Y-52995D01*
X-315400D01*
X-314400Y-53995D01*
X-315400Y-54995D01*
X-314400D01*
X-313400Y-55995D01*
Y-55195D02*
X-312800Y-54595D01*
X-312200D01*
X-312800Y-53995D01*
X-312200Y-53395D01*
X-312800D01*
X-313400Y-52795D01*
X-314000Y-53395D01*
X-314600D01*
X-314000Y-53995D01*
X-314600Y-54595D01*
X-314000D01*
X-313400Y-55195D01*
X-309650Y-63495D02*
X-308650Y-62495D01*
X-307650D01*
X-308650Y-61495D01*
X-307650Y-60495D01*
X-308650D01*
X-309650Y-59495D01*
X-310650Y-60495D01*
X-311650D01*
X-310650Y-61495D01*
X-311650Y-62495D01*
X-310650D01*
X-309650Y-63495D01*
Y-62695D02*
X-309050Y-62095D01*
X-308450D01*
X-309050Y-61495D01*
X-308450Y-60895D01*
X-309050D01*
X-309650Y-60295D01*
X-310250Y-60895D01*
X-310850D01*
X-310250Y-61495D01*
X-310850Y-62095D01*
X-310250D01*
X-309650Y-62695D01*
X-313400Y-70995D02*
X-312400Y-69995D01*
X-311400D01*
X-312400Y-68995D01*
X-311400Y-67995D01*
X-312400D01*
X-313400Y-66995D01*
X-314400Y-67995D01*
X-315400D01*
X-314400Y-68995D01*
X-315400Y-69995D01*
X-314400D01*
X-313400Y-70995D01*
Y-70195D02*
X-312800Y-69595D01*
X-312200D01*
X-312800Y-68995D01*
X-312200Y-68395D01*
X-312800D01*
X-313400Y-67795D01*
X-314000Y-68395D01*
X-314600D01*
X-314000Y-68995D01*
X-314600Y-69595D01*
X-314000D01*
X-313400Y-70195D01*
X-309650Y-78495D02*
X-308650Y-77495D01*
X-307650D01*
X-308650Y-76495D01*
X-307650Y-75495D01*
X-308650D01*
X-309650Y-74495D01*
X-310650Y-75495D01*
X-311650D01*
X-310650Y-76495D01*
X-311650Y-77495D01*
X-310650D01*
X-309650Y-78495D01*
Y-77695D02*
X-309050Y-77095D01*
X-308450D01*
X-309050Y-76495D01*
X-308450Y-75895D01*
X-309050D01*
X-309650Y-75295D01*
X-310250Y-75895D01*
X-310850D01*
X-310250Y-76495D01*
X-310850Y-77095D01*
X-310250D01*
X-309650Y-77695D01*
X-313400Y-85995D02*
X-312400Y-84995D01*
X-311400D01*
X-312400Y-83995D01*
X-311400Y-82995D01*
X-312400D01*
X-313400Y-81995D01*
X-314400Y-82995D01*
X-315400D01*
X-314400Y-83995D01*
X-315400Y-84995D01*
X-314400D01*
X-313400Y-85995D01*
Y-85195D02*
X-312800Y-84595D01*
X-312200D01*
X-312800Y-83995D01*
X-312200Y-83395D01*
X-312800D01*
X-313400Y-82795D01*
X-314000Y-83395D01*
X-314600D01*
X-314000Y-83995D01*
X-314600Y-84595D01*
X-314000D01*
X-313400Y-85195D01*
X-320900Y-10995D02*
X-319900Y-9995D01*
X-318900D01*
X-319900Y-8995D01*
X-318900Y-7995D01*
X-319900D01*
X-320900Y-6995D01*
X-321900Y-7995D01*
X-322900D01*
X-321900Y-8995D01*
X-322900Y-9995D01*
X-321900D01*
X-320900Y-10995D01*
Y-10195D02*
X-320300Y-9595D01*
X-319700D01*
X-320300Y-8995D01*
X-319700Y-8395D01*
X-320300D01*
X-320900Y-7795D01*
X-321500Y-8395D01*
X-322100D01*
X-321500Y-8995D01*
X-322100Y-9595D01*
X-321500D01*
X-320900Y-10195D01*
Y-25995D02*
X-319900Y-24995D01*
X-318900D01*
X-319900Y-23995D01*
X-318900Y-22995D01*
X-319900D01*
X-320900Y-21995D01*
X-321900Y-22995D01*
X-322900D01*
X-321900Y-23995D01*
X-322900Y-24995D01*
X-321900D01*
X-320900Y-25995D01*
Y-25195D02*
X-320300Y-24595D01*
X-319700D01*
X-320300Y-23995D01*
X-319700Y-23395D01*
X-320300D01*
X-320900Y-22795D01*
X-321500Y-23395D01*
X-322100D01*
X-321500Y-23995D01*
X-322100Y-24595D01*
X-321500D01*
X-320900Y-25195D01*
X-317150Y-33495D02*
X-316150Y-32495D01*
X-315150D01*
X-316150Y-31495D01*
X-315150Y-30495D01*
X-316150D01*
X-317150Y-29495D01*
X-318150Y-30495D01*
X-319150D01*
X-318150Y-31495D01*
X-319150Y-32495D01*
X-318150D01*
X-317150Y-33495D01*
Y-32695D02*
X-316550Y-32095D01*
X-315950D01*
X-316550Y-31495D01*
X-315950Y-30895D01*
X-316550D01*
X-317150Y-30295D01*
X-317750Y-30895D01*
X-318350D01*
X-317750Y-31495D01*
X-318350Y-32095D01*
X-317750D01*
X-317150Y-32695D01*
Y-63495D02*
X-316150Y-62495D01*
X-315150D01*
X-316150Y-61495D01*
X-315150Y-60495D01*
X-316150D01*
X-317150Y-59495D01*
X-318150Y-60495D01*
X-319150D01*
X-318150Y-61495D01*
X-319150Y-62495D01*
X-318150D01*
X-317150Y-63495D01*
Y-62695D02*
X-316550Y-62095D01*
X-315950D01*
X-316550Y-61495D01*
X-315950Y-60895D01*
X-316550D01*
X-317150Y-60295D01*
X-317750Y-60895D01*
X-318350D01*
X-317750Y-61495D01*
X-318350Y-62095D01*
X-317750D01*
X-317150Y-62695D01*
X-320900Y-70995D02*
X-319900Y-69995D01*
X-318900D01*
X-319900Y-68995D01*
X-318900Y-67995D01*
X-319900D01*
X-320900Y-66995D01*
X-321900Y-67995D01*
X-322900D01*
X-321900Y-68995D01*
X-322900Y-69995D01*
X-321900D01*
X-320900Y-70995D01*
Y-70195D02*
X-320300Y-69595D01*
X-319700D01*
X-320300Y-68995D01*
X-319700Y-68395D01*
X-320300D01*
X-320900Y-67795D01*
X-321500Y-68395D01*
X-322100D01*
X-321500Y-68995D01*
X-322100Y-69595D01*
X-321500D01*
X-320900Y-70195D01*
X-317150Y-78495D02*
X-316150Y-77495D01*
X-315150D01*
X-316150Y-76495D01*
X-315150Y-75495D01*
X-316150D01*
X-317150Y-74495D01*
X-318150Y-75495D01*
X-319150D01*
X-318150Y-76495D01*
X-319150Y-77495D01*
X-318150D01*
X-317150Y-78495D01*
Y-77695D02*
X-316550Y-77095D01*
X-315950D01*
X-316550Y-76495D01*
X-315950Y-75895D01*
X-316550D01*
X-317150Y-75295D01*
X-317750Y-75895D01*
X-318350D01*
X-317750Y-76495D01*
X-318350Y-77095D01*
X-317750D01*
X-317150Y-77695D01*
X-320900Y-85995D02*
X-319900Y-84995D01*
X-318900D01*
X-319900Y-83995D01*
X-318900Y-82995D01*
X-319900D01*
X-320900Y-81995D01*
X-321900Y-82995D01*
X-322900D01*
X-321900Y-83995D01*
X-322900Y-84995D01*
X-321900D01*
X-320900Y-85995D01*
Y-85195D02*
X-320300Y-84595D01*
X-319700D01*
X-320300Y-83995D01*
X-319700Y-83395D01*
X-320300D01*
X-320900Y-82795D01*
X-321500Y-83395D01*
X-322100D01*
X-321500Y-83995D01*
X-322100Y-84595D01*
X-321500D01*
X-320900Y-85195D01*
X-324650Y-33495D02*
X-323650Y-32495D01*
X-322650D01*
X-323650Y-31495D01*
X-322650Y-30495D01*
X-323650D01*
X-324650Y-29495D01*
X-325650Y-30495D01*
X-326650D01*
X-325650Y-31495D01*
X-326650Y-32495D01*
X-325650D01*
X-324650Y-33495D01*
Y-32695D02*
X-324050Y-32095D01*
X-323450D01*
X-324050Y-31495D01*
X-323450Y-30895D01*
X-324050D01*
X-324650Y-30295D01*
X-325250Y-30895D01*
X-325850D01*
X-325250Y-31495D01*
X-325850Y-32095D01*
X-325250D01*
X-324650Y-32695D01*
Y-63495D02*
X-323650Y-62495D01*
X-322650D01*
X-323650Y-61495D01*
X-322650Y-60495D01*
X-323650D01*
X-324650Y-59495D01*
X-325650Y-60495D01*
X-326650D01*
X-325650Y-61495D01*
X-326650Y-62495D01*
X-325650D01*
X-324650Y-63495D01*
Y-62695D02*
X-324050Y-62095D01*
X-323450D01*
X-324050Y-61495D01*
X-323450Y-60895D01*
X-324050D01*
X-324650Y-60295D01*
X-325250Y-60895D01*
X-325850D01*
X-325250Y-61495D01*
X-325850Y-62095D01*
X-325250D01*
X-324650Y-62695D01*
Y-78495D02*
X-323650Y-77495D01*
X-322650D01*
X-323650Y-76495D01*
X-322650Y-75495D01*
X-323650D01*
X-324650Y-74495D01*
X-325650Y-75495D01*
X-326650D01*
X-325650Y-76495D01*
X-326650Y-77495D01*
X-325650D01*
X-324650Y-78495D01*
Y-77695D02*
X-324050Y-77095D01*
X-323450D01*
X-324050Y-76495D01*
X-323450Y-75895D01*
X-324050D01*
X-324650Y-75295D01*
X-325250Y-75895D01*
X-325850D01*
X-325250Y-76495D01*
X-325850Y-77095D01*
X-325250D01*
X-324650Y-77695D01*
Y-93495D02*
X-323650Y-92495D01*
X-322650D01*
X-323650Y-91495D01*
X-322650Y-90495D01*
X-323650D01*
X-324650Y-89495D01*
X-325650Y-90495D01*
X-326650D01*
X-325650Y-91495D01*
X-326650Y-92495D01*
X-325650D01*
X-324650Y-93495D01*
Y-92695D02*
X-324050Y-92095D01*
X-323450D01*
X-324050Y-91495D01*
X-323450Y-90895D01*
X-324050D01*
X-324650Y-90295D01*
X-325250Y-90895D01*
X-325850D01*
X-325250Y-91495D01*
X-325850Y-92095D01*
X-325250D01*
X-324650Y-92695D01*
Y-123495D02*
X-323650Y-122495D01*
X-322650D01*
X-323650Y-121495D01*
X-322650Y-120495D01*
X-323650D01*
X-324650Y-119495D01*
X-325650Y-120495D01*
X-326650D01*
X-325650Y-121495D01*
X-326650Y-122495D01*
X-325650D01*
X-324650Y-123495D01*
Y-122695D02*
X-324050Y-122095D01*
X-323450D01*
X-324050Y-121495D01*
X-323450Y-120895D01*
X-324050D01*
X-324650Y-120295D01*
X-325250Y-120895D01*
X-325850D01*
X-325250Y-121495D01*
X-325850Y-122095D01*
X-325250D01*
X-324650Y-122695D01*
X-335900Y-10995D02*
X-334900Y-9995D01*
X-333900D01*
X-334900Y-8995D01*
X-333900Y-7995D01*
X-334900D01*
X-335900Y-6995D01*
X-336900Y-7995D01*
X-337900D01*
X-336900Y-8995D01*
X-337900Y-9995D01*
X-336900D01*
X-335900Y-10995D01*
Y-10195D02*
X-335300Y-9595D01*
X-334700D01*
X-335300Y-8995D01*
X-334700Y-8395D01*
X-335300D01*
X-335900Y-7795D01*
X-336500Y-8395D01*
X-337100D01*
X-336500Y-8995D01*
X-337100Y-9595D01*
X-336500D01*
X-335900Y-10195D01*
Y-25995D02*
X-334900Y-24995D01*
X-333900D01*
X-334900Y-23995D01*
X-333900Y-22995D01*
X-334900D01*
X-335900Y-21995D01*
X-336900Y-22995D01*
X-337900D01*
X-336900Y-23995D01*
X-337900Y-24995D01*
X-336900D01*
X-335900Y-25995D01*
Y-25195D02*
X-335300Y-24595D01*
X-334700D01*
X-335300Y-23995D01*
X-334700Y-23395D01*
X-335300D01*
X-335900Y-22795D01*
X-336500Y-23395D01*
X-337100D01*
X-336500Y-23995D01*
X-337100Y-24595D01*
X-336500D01*
X-335900Y-25195D01*
X-332150Y-33495D02*
X-331150Y-32495D01*
X-330150D01*
X-331150Y-31495D01*
X-330150Y-30495D01*
X-331150D01*
X-332150Y-29495D01*
X-333150Y-30495D01*
X-334150D01*
X-333150Y-31495D01*
X-334150Y-32495D01*
X-333150D01*
X-332150Y-33495D01*
Y-32695D02*
X-331550Y-32095D01*
X-330950D01*
X-331550Y-31495D01*
X-330950Y-30895D01*
X-331550D01*
X-332150Y-30295D01*
X-332750Y-30895D01*
X-333350D01*
X-332750Y-31495D01*
X-333350Y-32095D01*
X-332750D01*
X-332150Y-32695D01*
X-335900Y-40995D02*
X-334900Y-39995D01*
X-333900D01*
X-334900Y-38995D01*
X-333900Y-37995D01*
X-334900D01*
X-335900Y-36995D01*
X-336900Y-37995D01*
X-337900D01*
X-336900Y-38995D01*
X-337900Y-39995D01*
X-336900D01*
X-335900Y-40995D01*
Y-40195D02*
X-335300Y-39595D01*
X-334700D01*
X-335300Y-38995D01*
X-334700Y-38395D01*
X-335300D01*
X-335900Y-37795D01*
X-336500Y-38395D01*
X-337100D01*
X-336500Y-38995D01*
X-337100Y-39595D01*
X-336500D01*
X-335900Y-40195D01*
X-332150Y-63495D02*
X-331150Y-62495D01*
X-330150D01*
X-331150Y-61495D01*
X-330150Y-60495D01*
X-331150D01*
X-332150Y-59495D01*
X-333150Y-60495D01*
X-334150D01*
X-333150Y-61495D01*
X-334150Y-62495D01*
X-333150D01*
X-332150Y-63495D01*
Y-62695D02*
X-331550Y-62095D01*
X-330950D01*
X-331550Y-61495D01*
X-330950Y-60895D01*
X-331550D01*
X-332150Y-60295D01*
X-332750Y-60895D01*
X-333350D01*
X-332750Y-61495D01*
X-333350Y-62095D01*
X-332750D01*
X-332150Y-62695D01*
Y-78495D02*
X-331150Y-77495D01*
X-330150D01*
X-331150Y-76495D01*
X-330150Y-75495D01*
X-331150D01*
X-332150Y-74495D01*
X-333150Y-75495D01*
X-334150D01*
X-333150Y-76495D01*
X-334150Y-77495D01*
X-333150D01*
X-332150Y-78495D01*
Y-77695D02*
X-331550Y-77095D01*
X-330950D01*
X-331550Y-76495D01*
X-330950Y-75895D01*
X-331550D01*
X-332150Y-75295D01*
X-332750Y-75895D01*
X-333350D01*
X-332750Y-76495D01*
X-333350Y-77095D01*
X-332750D01*
X-332150Y-77695D01*
Y-123495D02*
X-331150Y-122495D01*
X-330150D01*
X-331150Y-121495D01*
X-330150Y-120495D01*
X-331150D01*
X-332150Y-119495D01*
X-333150Y-120495D01*
X-334150D01*
X-333150Y-121495D01*
X-334150Y-122495D01*
X-333150D01*
X-332150Y-123495D01*
Y-122695D02*
X-331550Y-122095D01*
X-330950D01*
X-331550Y-121495D01*
X-330950Y-120895D01*
X-331550D01*
X-332150Y-120295D01*
X-332750Y-120895D01*
X-333350D01*
X-332750Y-121495D01*
X-333350Y-122095D01*
X-332750D01*
X-332150Y-122695D01*
X-339650Y-18495D02*
X-338650Y-17495D01*
X-337650D01*
X-338650Y-16495D01*
X-337650Y-15495D01*
X-338650D01*
X-339650Y-14495D01*
X-340650Y-15495D01*
X-341650D01*
X-340650Y-16495D01*
X-341650Y-17495D01*
X-340650D01*
X-339650Y-18495D01*
Y-17695D02*
X-339050Y-17095D01*
X-338450D01*
X-339050Y-16495D01*
X-338450Y-15895D01*
X-339050D01*
X-339650Y-15295D01*
X-340250Y-15895D01*
X-340850D01*
X-340250Y-16495D01*
X-340850Y-17095D01*
X-340250D01*
X-339650Y-17695D01*
Y-33495D02*
X-338650Y-32495D01*
X-337650D01*
X-338650Y-31495D01*
X-337650Y-30495D01*
X-338650D01*
X-339650Y-29495D01*
X-340650Y-30495D01*
X-341650D01*
X-340650Y-31495D01*
X-341650Y-32495D01*
X-340650D01*
X-339650Y-33495D01*
Y-32695D02*
X-339050Y-32095D01*
X-338450D01*
X-339050Y-31495D01*
X-338450Y-30895D01*
X-339050D01*
X-339650Y-30295D01*
X-340250Y-30895D01*
X-340850D01*
X-340250Y-31495D01*
X-340850Y-32095D01*
X-340250D01*
X-339650Y-32695D01*
Y-48495D02*
X-338650Y-47495D01*
X-337650D01*
X-338650Y-46495D01*
X-337650Y-45495D01*
X-338650D01*
X-339650Y-44495D01*
X-340650Y-45495D01*
X-341650D01*
X-340650Y-46495D01*
X-341650Y-47495D01*
X-340650D01*
X-339650Y-48495D01*
Y-47695D02*
X-339050Y-47095D01*
X-338450D01*
X-339050Y-46495D01*
X-338450Y-45895D01*
X-339050D01*
X-339650Y-45295D01*
X-340250Y-45895D01*
X-340850D01*
X-340250Y-46495D01*
X-340850Y-47095D01*
X-340250D01*
X-339650Y-47695D01*
Y-63495D02*
X-338650Y-62495D01*
X-337650D01*
X-338650Y-61495D01*
X-337650Y-60495D01*
X-338650D01*
X-339650Y-59495D01*
X-340650Y-60495D01*
X-341650D01*
X-340650Y-61495D01*
X-341650Y-62495D01*
X-340650D01*
X-339650Y-63495D01*
Y-62695D02*
X-339050Y-62095D01*
X-338450D01*
X-339050Y-61495D01*
X-338450Y-60895D01*
X-339050D01*
X-339650Y-60295D01*
X-340250Y-60895D01*
X-340850D01*
X-340250Y-61495D01*
X-340850Y-62095D01*
X-340250D01*
X-339650Y-62695D01*
Y-78495D02*
X-338650Y-77495D01*
X-337650D01*
X-338650Y-76495D01*
X-337650Y-75495D01*
X-338650D01*
X-339650Y-74495D01*
X-340650Y-75495D01*
X-341650D01*
X-340650Y-76495D01*
X-341650Y-77495D01*
X-340650D01*
X-339650Y-78495D01*
Y-77695D02*
X-339050Y-77095D01*
X-338450D01*
X-339050Y-76495D01*
X-338450Y-75895D01*
X-339050D01*
X-339650Y-75295D01*
X-340250Y-75895D01*
X-340850D01*
X-340250Y-76495D01*
X-340850Y-77095D01*
X-340250D01*
X-339650Y-77695D01*
X-350900Y-25995D02*
X-349900Y-24995D01*
X-348900D01*
X-349900Y-23995D01*
X-348900Y-22995D01*
X-349900D01*
X-350900Y-21995D01*
X-351900Y-22995D01*
X-352900D01*
X-351900Y-23995D01*
X-352900Y-24995D01*
X-351900D01*
X-350900Y-25995D01*
Y-25195D02*
X-350300Y-24595D01*
X-349700D01*
X-350300Y-23995D01*
X-349700Y-23395D01*
X-350300D01*
X-350900Y-22795D01*
X-351500Y-23395D01*
X-352100D01*
X-351500Y-23995D01*
X-352100Y-24595D01*
X-351500D01*
X-350900Y-25195D01*
Y-40995D02*
X-349900Y-39995D01*
X-348900D01*
X-349900Y-38995D01*
X-348900Y-37995D01*
X-349900D01*
X-350900Y-36995D01*
X-351900Y-37995D01*
X-352900D01*
X-351900Y-38995D01*
X-352900Y-39995D01*
X-351900D01*
X-350900Y-40995D01*
Y-40195D02*
X-350300Y-39595D01*
X-349700D01*
X-350300Y-38995D01*
X-349700Y-38395D01*
X-350300D01*
X-350900Y-37795D01*
X-351500Y-38395D01*
X-352100D01*
X-351500Y-38995D01*
X-352100Y-39595D01*
X-351500D01*
X-350900Y-40195D01*
X-347150Y-93495D02*
X-346150Y-92495D01*
X-345150D01*
X-346150Y-91495D01*
X-345150Y-90495D01*
X-346150D01*
X-347150Y-89495D01*
X-348150Y-90495D01*
X-349150D01*
X-348150Y-91495D01*
X-349150Y-92495D01*
X-348150D01*
X-347150Y-93495D01*
Y-92695D02*
X-346550Y-92095D01*
X-345950D01*
X-346550Y-91495D01*
X-345950Y-90895D01*
X-346550D01*
X-347150Y-90295D01*
X-347750Y-90895D01*
X-348350D01*
X-347750Y-91495D01*
X-348350Y-92095D01*
X-347750D01*
X-347150Y-92695D01*
X-365900Y-70995D02*
X-364900Y-69995D01*
X-363900D01*
X-364900Y-68995D01*
X-363900Y-67995D01*
X-364900D01*
X-365900Y-66995D01*
X-366900Y-67995D01*
X-367900D01*
X-366900Y-68995D01*
X-367900Y-69995D01*
X-366900D01*
X-365900Y-70995D01*
Y-70195D02*
X-365300Y-69595D01*
X-364700D01*
X-365300Y-68995D01*
X-364700Y-68395D01*
X-365300D01*
X-365900Y-67795D01*
X-366500Y-68395D01*
X-367100D01*
X-366500Y-68995D01*
X-367100Y-69595D01*
X-366500D01*
X-365900Y-70195D01*
X-362150Y-123495D02*
X-361150Y-122495D01*
X-360150D01*
X-361150Y-121495D01*
X-360150Y-120495D01*
X-361150D01*
X-362150Y-119495D01*
X-363150Y-120495D01*
X-364150D01*
X-363150Y-121495D01*
X-364150Y-122495D01*
X-363150D01*
X-362150Y-123495D01*
Y-122695D02*
X-361550Y-122095D01*
X-360950D01*
X-361550Y-121495D01*
X-360950Y-120895D01*
X-361550D01*
X-362150Y-120295D01*
X-362750Y-120895D01*
X-363350D01*
X-362750Y-121495D01*
X-363350Y-122095D01*
X-362750D01*
X-362150Y-122695D01*
X-373400Y-10995D02*
X-372400Y-9995D01*
X-371400D01*
X-372400Y-8995D01*
X-371400Y-7995D01*
X-372400D01*
X-373400Y-6995D01*
X-374400Y-7995D01*
X-375400D01*
X-374400Y-8995D01*
X-375400Y-9995D01*
X-374400D01*
X-373400Y-10995D01*
Y-10195D02*
X-372800Y-9595D01*
X-372200D01*
X-372800Y-8995D01*
X-372200Y-8395D01*
X-372800D01*
X-373400Y-7795D01*
X-374000Y-8395D01*
X-374600D01*
X-374000Y-8995D01*
X-374600Y-9595D01*
X-374000D01*
X-373400Y-10195D01*
Y-100995D02*
X-372400Y-99995D01*
X-371400D01*
X-372400Y-98995D01*
X-371400Y-97995D01*
X-372400D01*
X-373400Y-96995D01*
X-374400Y-97995D01*
X-375400D01*
X-374400Y-98995D01*
X-375400Y-99995D01*
X-374400D01*
X-373400Y-100995D01*
Y-100195D02*
X-372800Y-99595D01*
X-372200D01*
X-372800Y-98995D01*
X-372200Y-98395D01*
X-372800D01*
X-373400Y-97795D01*
X-374000Y-98395D01*
X-374600D01*
X-374000Y-98995D01*
X-374600Y-99595D01*
X-374000D01*
X-373400Y-100195D01*
X-369650Y-108495D02*
X-368650Y-107495D01*
X-367650D01*
X-368650Y-106495D01*
X-367650Y-105495D01*
X-368650D01*
X-369650Y-104495D01*
X-370650Y-105495D01*
X-371650D01*
X-370650Y-106495D01*
X-371650Y-107495D01*
X-370650D01*
X-369650Y-108495D01*
Y-107695D02*
X-369050Y-107095D01*
X-368450D01*
X-369050Y-106495D01*
X-368450Y-105895D01*
X-369050D01*
X-369650Y-105295D01*
X-370250Y-105895D01*
X-370850D01*
X-370250Y-106495D01*
X-370850Y-107095D01*
X-370250D01*
X-369650Y-107695D01*
X-373400Y-130995D02*
X-372400Y-129995D01*
X-371400D01*
X-372400Y-128995D01*
X-371400Y-127995D01*
X-372400D01*
X-373400Y-126995D01*
X-374400Y-127995D01*
X-375400D01*
X-374400Y-128995D01*
X-375400Y-129995D01*
X-374400D01*
X-373400Y-130995D01*
Y-130195D02*
X-372800Y-129595D01*
X-372200D01*
X-372800Y-128995D01*
X-372200Y-128395D01*
X-372800D01*
X-373400Y-127795D01*
X-374000Y-128395D01*
X-374600D01*
X-374000Y-128995D01*
X-374600Y-129595D01*
X-374000D01*
X-373400Y-130195D01*
X-380900Y-115995D02*
X-379900Y-114995D01*
X-378900D01*
X-379900Y-113995D01*
X-378900Y-112995D01*
X-379900D01*
X-380900Y-111995D01*
X-381900Y-112995D01*
X-382900D01*
X-381900Y-113995D01*
X-382900Y-114995D01*
X-381900D01*
X-380900Y-115995D01*
Y-115195D02*
X-380300Y-114595D01*
X-379700D01*
X-380300Y-113995D01*
X-379700Y-113395D01*
X-380300D01*
X-380900Y-112795D01*
X-381500Y-113395D01*
X-382100D01*
X-381500Y-113995D01*
X-382100Y-114595D01*
X-381500D01*
X-380900Y-115195D01*
X-388400Y-25995D02*
X-387400Y-24995D01*
X-386400D01*
X-387400Y-23995D01*
X-386400Y-22995D01*
X-387400D01*
X-388400Y-21995D01*
X-389400Y-22995D01*
X-390400D01*
X-389400Y-23995D01*
X-390400Y-24995D01*
X-389400D01*
X-388400Y-25995D01*
Y-25195D02*
X-387800Y-24595D01*
X-387200D01*
X-387800Y-23995D01*
X-387200Y-23395D01*
X-387800D01*
X-388400Y-22795D01*
X-389000Y-23395D01*
X-389600D01*
X-389000Y-23995D01*
X-389600Y-24595D01*
X-389000D01*
X-388400Y-25195D01*
Y-40995D02*
X-387400Y-39995D01*
X-386400D01*
X-387400Y-38995D01*
X-386400Y-37995D01*
X-387400D01*
X-388400Y-36995D01*
X-389400Y-37995D01*
X-390400D01*
X-389400Y-38995D01*
X-390400Y-39995D01*
X-389400D01*
X-388400Y-40995D01*
Y-40195D02*
X-387800Y-39595D01*
X-387200D01*
X-387800Y-38995D01*
X-387200Y-38395D01*
X-387800D01*
X-388400Y-37795D01*
X-389000Y-38395D01*
X-389600D01*
X-389000Y-38995D01*
X-389600Y-39595D01*
X-389000D01*
X-388400Y-40195D01*
X-384650Y-48495D02*
X-383650Y-47495D01*
X-382650D01*
X-383650Y-46495D01*
X-382650Y-45495D01*
X-383650D01*
X-384650Y-44495D01*
X-385650Y-45495D01*
X-386650D01*
X-385650Y-46495D01*
X-386650Y-47495D01*
X-385650D01*
X-384650Y-48495D01*
Y-47695D02*
X-384050Y-47095D01*
X-383450D01*
X-384050Y-46495D01*
X-383450Y-45895D01*
X-384050D01*
X-384650Y-45295D01*
X-385250Y-45895D01*
X-385850D01*
X-385250Y-46495D01*
X-385850Y-47095D01*
X-385250D01*
X-384650Y-47695D01*
X-388400Y-115995D02*
X-387400Y-114995D01*
X-386400D01*
X-387400Y-113995D01*
X-386400Y-112995D01*
X-387400D01*
X-388400Y-111995D01*
X-389400Y-112995D01*
X-390400D01*
X-389400Y-113995D01*
X-390400Y-114995D01*
X-389400D01*
X-388400Y-115995D01*
Y-115195D02*
X-387800Y-114595D01*
X-387200D01*
X-387800Y-113995D01*
X-387200Y-113395D01*
X-387800D01*
X-388400Y-112795D01*
X-389000Y-113395D01*
X-389600D01*
X-389000Y-113995D01*
X-389600Y-114595D01*
X-389000D01*
X-388400Y-115195D01*
X-103600Y-55414D02*
X-102600Y-54414D01*
X-101600D01*
X-102600Y-53414D01*
X-101600Y-52414D01*
X-102600D01*
X-103600Y-51414D01*
X-104600Y-52414D01*
X-105600D01*
X-104600Y-53414D01*
X-105600Y-54414D01*
X-104600D01*
X-103600Y-55414D01*
Y-54614D02*
X-103000Y-54014D01*
X-102400D01*
X-103000Y-53414D01*
X-102400Y-52814D01*
X-103000D01*
X-103600Y-52214D01*
X-104200Y-52814D01*
X-104800D01*
X-104200Y-53414D01*
X-104800Y-54014D01*
X-104200D01*
X-103600Y-54614D01*
X-92200Y-54500D02*
X-91200Y-53500D01*
X-90200D01*
X-91200Y-52500D01*
X-90200Y-51500D01*
X-91200D01*
X-92200Y-50500D01*
X-93200Y-51500D01*
X-94200D01*
X-93200Y-52500D01*
X-94200Y-53500D01*
X-93200D01*
X-92200Y-54500D01*
Y-53700D02*
X-91600Y-53100D01*
X-91000D01*
X-91600Y-52500D01*
X-91000Y-51900D01*
X-91600D01*
X-92200Y-51300D01*
X-92800Y-51900D01*
X-93400D01*
X-92800Y-52500D01*
X-93400Y-53100D01*
X-92800D01*
X-92200Y-53700D01*
X-87500Y-56400D02*
X-86500Y-55400D01*
X-85500D01*
X-86500Y-54400D01*
X-85500Y-53400D01*
X-86500D01*
X-87500Y-52400D01*
X-88500Y-53400D01*
X-89500D01*
X-88500Y-54400D01*
X-89500Y-55400D01*
X-88500D01*
X-87500Y-56400D01*
Y-55600D02*
X-86900Y-55000D01*
X-86300D01*
X-86900Y-54400D01*
X-86300Y-53800D01*
X-86900D01*
X-87500Y-53200D01*
X-88100Y-53800D01*
X-88700D01*
X-88100Y-54400D01*
X-88700Y-55000D01*
X-88100D01*
X-87500Y-55600D01*
X-326900Y-113300D02*
X-325900Y-112300D01*
X-324900D01*
X-325900Y-111300D01*
X-324900Y-110300D01*
X-325900D01*
X-326900Y-109300D01*
X-327900Y-110300D01*
X-328900D01*
X-327900Y-111300D01*
X-328900Y-112300D01*
X-327900D01*
X-326900Y-113300D01*
Y-112500D02*
X-326300Y-111900D01*
X-325700D01*
X-326300Y-111300D01*
X-325700Y-110700D01*
X-326300D01*
X-326900Y-110100D01*
X-327500Y-110700D01*
X-328100D01*
X-327500Y-111300D01*
X-328100Y-111900D01*
X-327500D01*
X-326900Y-112500D01*
X-365200Y-48000D02*
X-364200Y-47000D01*
X-363200D01*
X-364200Y-46000D01*
X-363200Y-45000D01*
X-364200D01*
X-365200Y-44000D01*
X-366200Y-45000D01*
X-367200D01*
X-366200Y-46000D01*
X-367200Y-47000D01*
X-366200D01*
X-365200Y-48000D01*
Y-47200D02*
X-364600Y-46600D01*
X-364000D01*
X-364600Y-46000D01*
X-364000Y-45400D01*
X-364600D01*
X-365200Y-44800D01*
X-365800Y-45400D01*
X-366400D01*
X-365800Y-46000D01*
X-366400Y-46600D01*
X-365800D01*
X-365200Y-47200D01*
X-351500Y-66100D02*
X-350500Y-65100D01*
X-349500D01*
X-350500Y-64100D01*
X-349500Y-63100D01*
X-350500D01*
X-351500Y-62100D01*
X-352500Y-63100D01*
X-353500D01*
X-352500Y-64100D01*
X-353500Y-65100D01*
X-352500D01*
X-351500Y-66100D01*
Y-65300D02*
X-350900Y-64700D01*
X-350300D01*
X-350900Y-64100D01*
X-350300Y-63500D01*
X-350900D01*
X-351500Y-62900D01*
X-352100Y-63500D01*
X-352700D01*
X-352100Y-64100D01*
X-352700Y-64700D01*
X-352100D01*
X-351500Y-65300D01*
X-176200Y-56900D02*
X-175200Y-55900D01*
X-174200D01*
X-175200Y-54900D01*
X-174200Y-53900D01*
X-175200D01*
X-176200Y-52900D01*
X-177200Y-53900D01*
X-178200D01*
X-177200Y-54900D01*
X-178200Y-55900D01*
X-177200D01*
X-176200Y-56900D01*
Y-56100D02*
X-175600Y-55500D01*
X-175000D01*
X-175600Y-54900D01*
X-175000Y-54300D01*
X-175600D01*
X-176200Y-53700D01*
X-176800Y-54300D01*
X-177400D01*
X-176800Y-54900D01*
X-177400Y-55500D01*
X-176800D01*
X-176200Y-56100D01*
X-244200Y-42900D02*
X-243200Y-41900D01*
X-242200D01*
X-243200Y-40900D01*
X-242200Y-39900D01*
X-243200D01*
X-244200Y-38900D01*
X-245200Y-39900D01*
X-246200D01*
X-245200Y-40900D01*
X-246200Y-41900D01*
X-245200D01*
X-244200Y-42900D01*
Y-42100D02*
X-243600Y-41500D01*
X-243000D01*
X-243600Y-40900D01*
X-243000Y-40300D01*
X-243600D01*
X-244200Y-39700D01*
X-244800Y-40300D01*
X-245400D01*
X-244800Y-40900D01*
X-245400Y-41500D01*
X-244800D01*
X-244200Y-42100D01*
X-246500Y-42900D02*
X-245500Y-41900D01*
X-244500D01*
X-245500Y-40900D01*
X-244500Y-39900D01*
X-245500D01*
X-246500Y-38900D01*
X-247500Y-39900D01*
X-248500D01*
X-247500Y-40900D01*
X-248500Y-41900D01*
X-247500D01*
X-246500Y-42900D01*
Y-42100D02*
X-245900Y-41500D01*
X-245300D01*
X-245900Y-40900D01*
X-245300Y-40300D01*
X-245900D01*
X-246500Y-39700D01*
X-247100Y-40300D01*
X-247700D01*
X-247100Y-40900D01*
X-247700Y-41500D01*
X-247100D01*
X-246500Y-42100D01*
X-369000Y-25200D02*
X-368000Y-24200D01*
X-367000D01*
X-368000Y-23200D01*
X-367000Y-22200D01*
X-368000D01*
X-369000Y-21200D01*
X-370000Y-22200D01*
X-371000D01*
X-370000Y-23200D01*
X-371000Y-24200D01*
X-370000D01*
X-369000Y-25200D01*
Y-24400D02*
X-368400Y-23800D01*
X-367800D01*
X-368400Y-23200D01*
X-367800Y-22600D01*
X-368400D01*
X-369000Y-22000D01*
X-369600Y-22600D01*
X-370200D01*
X-369600Y-23200D01*
X-370200Y-23800D01*
X-369600D01*
X-369000Y-24400D01*
X-363450Y-46250D02*
X-362450Y-45250D01*
X-361450D01*
X-362450Y-44250D01*
X-361450Y-43250D01*
X-362450D01*
X-363450Y-42250D01*
X-364450Y-43250D01*
X-365450D01*
X-364450Y-44250D01*
X-365450Y-45250D01*
X-364450D01*
X-363450Y-46250D01*
Y-45450D02*
X-362850Y-44850D01*
X-362250D01*
X-362850Y-44250D01*
X-362250Y-43650D01*
X-362850D01*
X-363450Y-43050D01*
X-364050Y-43650D01*
X-364650D01*
X-364050Y-44250D01*
X-364650Y-44850D01*
X-364050D01*
X-363450Y-45450D01*
X-343400Y-71500D02*
X-342400Y-70500D01*
X-341400D01*
X-342400Y-69500D01*
X-341400Y-68500D01*
X-342400D01*
X-343400Y-67500D01*
X-344400Y-68500D01*
X-345400D01*
X-344400Y-69500D01*
X-345400Y-70500D01*
X-344400D01*
X-343400Y-71500D01*
Y-70700D02*
X-342800Y-70100D01*
X-342200D01*
X-342800Y-69500D01*
X-342200Y-68900D01*
X-342800D01*
X-343400Y-68300D01*
X-344000Y-68900D01*
X-344600D01*
X-344000Y-69500D01*
X-344600Y-70100D01*
X-344000D01*
X-343400Y-70700D01*
X-345700Y-71500D02*
X-344700Y-70500D01*
X-343700D01*
X-344700Y-69500D01*
X-343700Y-68500D01*
X-344700D01*
X-345700Y-67500D01*
X-346700Y-68500D01*
X-347700D01*
X-346700Y-69500D01*
X-347700Y-70500D01*
X-346700D01*
X-345700Y-71500D01*
Y-70700D02*
X-345100Y-70100D01*
X-344500D01*
X-345100Y-69500D01*
X-344500Y-68900D01*
X-345100D01*
X-345700Y-68300D01*
X-346300Y-68900D01*
X-346900D01*
X-346300Y-69500D01*
X-346900Y-70100D01*
X-346300D01*
X-345700Y-70700D01*
X-361400Y-100700D02*
X-360400Y-99700D01*
X-359400D01*
X-360400Y-98700D01*
X-359400Y-97700D01*
X-360400D01*
X-361400Y-96700D01*
X-362400Y-97700D01*
X-363400D01*
X-362400Y-98700D01*
X-363400Y-99700D01*
X-362400D01*
X-361400Y-100700D01*
Y-99900D02*
X-360800Y-99300D01*
X-360200D01*
X-360800Y-98700D01*
X-360200Y-98100D01*
X-360800D01*
X-361400Y-97500D01*
X-362000Y-98100D01*
X-362600D01*
X-362000Y-98700D01*
X-362600Y-99300D01*
X-362000D01*
X-361400Y-99900D01*
X-330400Y-91600D02*
X-329400Y-90600D01*
X-328400D01*
X-329400Y-89600D01*
X-328400Y-88600D01*
X-329400D01*
X-330400Y-87600D01*
X-331400Y-88600D01*
X-332400D01*
X-331400Y-89600D01*
X-332400Y-90600D01*
X-331400D01*
X-330400Y-91600D01*
Y-90800D02*
X-329800Y-90200D01*
X-329200D01*
X-329800Y-89600D01*
X-329200Y-89000D01*
X-329800D01*
X-330400Y-88400D01*
X-331000Y-89000D01*
X-331600D01*
X-331000Y-89600D01*
X-331600Y-90200D01*
X-331000D01*
X-330400Y-90800D01*
X-68700Y-60500D02*
X-67700Y-59500D01*
X-66700D01*
X-67700Y-58500D01*
X-66700Y-57500D01*
X-67700D01*
X-68700Y-56500D01*
X-69700Y-57500D01*
X-70700D01*
X-69700Y-58500D01*
X-70700Y-59500D01*
X-69700D01*
X-68700Y-60500D01*
Y-59700D02*
X-68100Y-59100D01*
X-67500D01*
X-68100Y-58500D01*
X-67500Y-57900D01*
X-68100D01*
X-68700Y-57300D01*
X-69300Y-57900D01*
X-69900D01*
X-69300Y-58500D01*
X-69900Y-59100D01*
X-69300D01*
X-68700Y-59700D01*
X-65800Y-39900D02*
X-64800Y-38900D01*
X-63800D01*
X-64800Y-37900D01*
X-63800Y-36900D01*
X-64800D01*
X-65800Y-35900D01*
X-66800Y-36900D01*
X-67800D01*
X-66800Y-37900D01*
X-67800Y-38900D01*
X-66800D01*
X-65800Y-39900D01*
Y-39100D02*
X-65200Y-38500D01*
X-64600D01*
X-65200Y-37900D01*
X-64600Y-37300D01*
X-65200D01*
X-65800Y-36700D01*
X-66400Y-37300D01*
X-67000D01*
X-66400Y-37900D01*
X-67000Y-38500D01*
X-66400D01*
X-65800Y-39100D01*
X-389200Y-55400D02*
X-388200Y-54400D01*
X-387200D01*
X-388200Y-53400D01*
X-387200Y-52400D01*
X-388200D01*
X-389200Y-51400D01*
X-390200Y-52400D01*
X-391200D01*
X-390200Y-53400D01*
X-391200Y-54400D01*
X-390200D01*
X-389200Y-55400D01*
Y-54600D02*
X-388600Y-54000D01*
X-388000D01*
X-388600Y-53400D01*
X-388000Y-52800D01*
X-388600D01*
X-389200Y-52200D01*
X-389800Y-52800D01*
X-390400D01*
X-389800Y-53400D01*
X-390400Y-54000D01*
X-389800D01*
X-389200Y-54600D01*
X-65800Y-37700D02*
X-64800Y-36700D01*
X-63800D01*
X-64800Y-35700D01*
X-63800Y-34700D01*
X-64800D01*
X-65800Y-33700D01*
X-66800Y-34700D01*
X-67800D01*
X-66800Y-35700D01*
X-67800Y-36700D01*
X-66800D01*
X-65800Y-37700D01*
Y-36900D02*
X-65200Y-36300D01*
X-64600D01*
X-65200Y-35700D01*
X-64600Y-35100D01*
X-65200D01*
X-65800Y-34500D01*
X-66400Y-35100D01*
X-67000D01*
X-66400Y-35700D01*
X-67000Y-36300D01*
X-66400D01*
X-65800Y-36900D01*
X-80900Y-95900D02*
X-79900Y-94900D01*
X-78900D01*
X-79900Y-93900D01*
X-78900Y-92900D01*
X-79900D01*
X-80900Y-91900D01*
X-81900Y-92900D01*
X-82900D01*
X-81900Y-93900D01*
X-82900Y-94900D01*
X-81900D01*
X-80900Y-95900D01*
Y-95100D02*
X-80300Y-94500D01*
X-79700D01*
X-80300Y-93900D01*
X-79700Y-93300D01*
X-80300D01*
X-80900Y-92700D01*
X-81500Y-93300D01*
X-82100D01*
X-81500Y-93900D01*
X-82100Y-94500D01*
X-81500D01*
X-80900Y-95100D01*
X-100800Y-99400D02*
X-99800Y-98400D01*
X-98800D01*
X-99800Y-97400D01*
X-98800Y-96400D01*
X-99800D01*
X-100800Y-95400D01*
X-101800Y-96400D01*
X-102800D01*
X-101800Y-97400D01*
X-102800Y-98400D01*
X-101800D01*
X-100800Y-99400D01*
Y-98600D02*
X-100200Y-98000D01*
X-99600D01*
X-100200Y-97400D01*
X-99600Y-96800D01*
X-100200D01*
X-100800Y-96200D01*
X-101400Y-96800D01*
X-102000D01*
X-101400Y-97400D01*
X-102000Y-98000D01*
X-101400D01*
X-100800Y-98600D01*
X-367900Y-101100D02*
X-366900Y-100100D01*
X-365900D01*
X-366900Y-99100D01*
X-365900Y-98100D01*
X-366900D01*
X-367900Y-97100D01*
X-368900Y-98100D01*
X-369900D01*
X-368900Y-99100D01*
X-369900Y-100100D01*
X-368900D01*
X-367900Y-101100D01*
Y-100300D02*
X-367300Y-99700D01*
X-366700D01*
X-367300Y-99100D01*
X-366700Y-98500D01*
X-367300D01*
X-367900Y-97900D01*
X-368500Y-98500D01*
X-369100D01*
X-368500Y-99100D01*
X-369100Y-99700D01*
X-368500D01*
X-367900Y-100300D01*
X-353349Y-64162D02*
X-352349Y-63162D01*
X-351349D01*
X-352349Y-62162D01*
X-351349Y-61162D01*
X-352349D01*
X-353349Y-60162D01*
X-354349Y-61162D01*
X-355349D01*
X-354349Y-62162D01*
X-355349Y-63162D01*
X-354349D01*
X-353349Y-64162D01*
Y-63362D02*
X-352749Y-62762D01*
X-352149D01*
X-352749Y-62162D01*
X-352149Y-61562D01*
X-352749D01*
X-353349Y-60962D01*
X-353949Y-61562D01*
X-354549D01*
X-353949Y-62162D01*
X-354549Y-62762D01*
X-353949D01*
X-353349Y-63362D01*
X-283000Y-132400D02*
X-282000Y-131400D01*
X-281000D01*
X-282000Y-130400D01*
X-281000Y-129400D01*
X-282000D01*
X-283000Y-128400D01*
X-284000Y-129400D01*
X-285000D01*
X-284000Y-130400D01*
X-285000Y-131400D01*
X-284000D01*
X-283000Y-132400D01*
Y-131600D02*
X-282400Y-131000D01*
X-281800D01*
X-282400Y-130400D01*
X-281800Y-129800D01*
X-282400D01*
X-283000Y-129200D01*
X-283600Y-129800D01*
X-284200D01*
X-283600Y-130400D01*
X-284200Y-131000D01*
X-283600D01*
X-283000Y-131600D01*
X-369000Y-22900D02*
X-368000Y-21900D01*
X-367000D01*
X-368000Y-20900D01*
X-367000Y-19900D01*
X-368000D01*
X-369000Y-18900D01*
X-370000Y-19900D01*
X-371000D01*
X-370000Y-20900D01*
X-371000Y-21900D01*
X-370000D01*
X-369000Y-22900D01*
Y-22100D02*
X-368400Y-21500D01*
X-367800D01*
X-368400Y-20900D01*
X-367800Y-20300D01*
X-368400D01*
X-369000Y-19700D01*
X-369600Y-20300D01*
X-370200D01*
X-369600Y-20900D01*
X-370200Y-21500D01*
X-369600D01*
X-369000Y-22100D01*
X-362500Y-23900D02*
X-361500Y-22900D01*
X-360500D01*
X-361500Y-21900D01*
X-360500Y-20900D01*
X-361500D01*
X-362500Y-19900D01*
X-363500Y-20900D01*
X-364500D01*
X-363500Y-21900D01*
X-364500Y-22900D01*
X-363500D01*
X-362500Y-23900D01*
Y-23100D02*
X-361900Y-22500D01*
X-361300D01*
X-361900Y-21900D01*
X-361300Y-21300D01*
X-361900D01*
X-362500Y-20700D01*
X-363100Y-21300D01*
X-363700D01*
X-363100Y-21900D01*
X-363700Y-22500D01*
X-363100D01*
X-362500Y-23100D01*
X-389100Y-61600D02*
X-388100Y-60600D01*
X-387100D01*
X-388100Y-59600D01*
X-387100Y-58600D01*
X-388100D01*
X-389100Y-57600D01*
X-390100Y-58600D01*
X-391100D01*
X-390100Y-59600D01*
X-391100Y-60600D01*
X-390100D01*
X-389100Y-61600D01*
Y-60800D02*
X-388500Y-60200D01*
X-387900D01*
X-388500Y-59600D01*
X-387900Y-59000D01*
X-388500D01*
X-389100Y-58400D01*
X-389700Y-59000D01*
X-390300D01*
X-389700Y-59600D01*
X-390300Y-60200D01*
X-389700D01*
X-389100Y-60800D01*
X-373339Y-112306D02*
X-372339Y-111306D01*
X-371339D01*
X-372339Y-110306D01*
X-371339Y-109306D01*
X-372339D01*
X-373339Y-108306D01*
X-374339Y-109306D01*
X-375339D01*
X-374339Y-110306D01*
X-375339Y-111306D01*
X-374339D01*
X-373339Y-112306D01*
Y-111506D02*
X-372739Y-110906D01*
X-372139D01*
X-372739Y-110306D01*
X-372139Y-109706D01*
X-372739D01*
X-373339Y-109106D01*
X-373939Y-109706D01*
X-374539D01*
X-373939Y-110306D01*
X-374539Y-110906D01*
X-373939D01*
X-373339Y-111506D01*
X-356600Y-85200D02*
X-355600Y-84200D01*
X-354600D01*
X-355600Y-83200D01*
X-354600Y-82200D01*
X-355600D01*
X-356600Y-81200D01*
X-357600Y-82200D01*
X-358600D01*
X-357600Y-83200D01*
X-358600Y-84200D01*
X-357600D01*
X-356600Y-85200D01*
Y-84400D02*
X-356000Y-83800D01*
X-355400D01*
X-356000Y-83200D01*
X-355400Y-82600D01*
X-356000D01*
X-356600Y-82000D01*
X-357200Y-82600D01*
X-357800D01*
X-357200Y-83200D01*
X-357800Y-83800D01*
X-357200D01*
X-356600Y-84400D01*
X-359187Y-100687D02*
X-358187Y-99687D01*
X-357187D01*
X-358187Y-98687D01*
X-357187Y-97687D01*
X-358187D01*
X-359187Y-96687D01*
X-360187Y-97687D01*
X-361187D01*
X-360187Y-98687D01*
X-361187Y-99687D01*
X-360187D01*
X-359187Y-100687D01*
Y-99887D02*
X-358587Y-99287D01*
X-357987D01*
X-358587Y-98687D01*
X-357987Y-98087D01*
X-358587D01*
X-359187Y-97487D01*
X-359787Y-98087D01*
X-360387D01*
X-359787Y-98687D01*
X-360387Y-99287D01*
X-359787D01*
X-359187Y-99887D01*
X-351500Y-99200D02*
X-350500Y-98200D01*
X-349500D01*
X-350500Y-97200D01*
X-349500Y-96200D01*
X-350500D01*
X-351500Y-95200D01*
X-352500Y-96200D01*
X-353500D01*
X-352500Y-97200D01*
X-353500Y-98200D01*
X-352500D01*
X-351500Y-99200D01*
Y-98400D02*
X-350900Y-97800D01*
X-350300D01*
X-350900Y-97200D01*
X-350300Y-96600D01*
X-350900D01*
X-351500Y-96000D01*
X-352100Y-96600D01*
X-352700D01*
X-352100Y-97200D01*
X-352700Y-97800D01*
X-352100D01*
X-351500Y-98400D01*
X-345900Y-101000D02*
X-344900Y-100000D01*
X-343900D01*
X-344900Y-99000D01*
X-343900Y-98000D01*
X-344900D01*
X-345900Y-97000D01*
X-346900Y-98000D01*
X-347900D01*
X-346900Y-99000D01*
X-347900Y-100000D01*
X-346900D01*
X-345900Y-101000D01*
Y-100200D02*
X-345300Y-99600D01*
X-344700D01*
X-345300Y-99000D01*
X-344700Y-98400D01*
X-345300D01*
X-345900Y-97800D01*
X-346500Y-98400D01*
X-347100D01*
X-346500Y-99000D01*
X-347100Y-99600D01*
X-346500D01*
X-345900Y-100200D01*
X-205800Y-52300D02*
X-204800Y-51300D01*
X-203800D01*
X-204800Y-50300D01*
X-203800Y-49300D01*
X-204800D01*
X-205800Y-48300D01*
X-206800Y-49300D01*
X-207800D01*
X-206800Y-50300D01*
X-207800Y-51300D01*
X-206800D01*
X-205800Y-52300D01*
Y-51500D02*
X-205200Y-50900D01*
X-204600D01*
X-205200Y-50300D01*
X-204600Y-49700D01*
X-205200D01*
X-205800Y-49100D01*
X-206400Y-49700D01*
X-207000D01*
X-206400Y-50300D01*
X-207000Y-50900D01*
X-206400D01*
X-205800Y-51500D01*
X-178600Y-56900D02*
X-177600Y-55900D01*
X-176600D01*
X-177600Y-54900D01*
X-176600Y-53900D01*
X-177600D01*
X-178600Y-52900D01*
X-179600Y-53900D01*
X-180600D01*
X-179600Y-54900D01*
X-180600Y-55900D01*
X-179600D01*
X-178600Y-56900D01*
Y-56100D02*
X-178000Y-55500D01*
X-177400D01*
X-178000Y-54900D01*
X-177400Y-54300D01*
X-178000D01*
X-178600Y-53700D01*
X-179200Y-54300D01*
X-179800D01*
X-179200Y-54900D01*
X-179800Y-55500D01*
X-179200D01*
X-178600Y-56100D01*
X-184100Y-47600D02*
X-183100Y-46600D01*
X-182100D01*
X-183100Y-45600D01*
X-182100Y-44600D01*
X-183100D01*
X-184100Y-43600D01*
X-185100Y-44600D01*
X-186100D01*
X-185100Y-45600D01*
X-186100Y-46600D01*
X-185100D01*
X-184100Y-47600D01*
Y-46800D02*
X-183500Y-46200D01*
X-182900D01*
X-183500Y-45600D01*
X-182900Y-45000D01*
X-183500D01*
X-184100Y-44400D01*
X-184700Y-45000D01*
X-185300D01*
X-184700Y-45600D01*
X-185300Y-46200D01*
X-184700D01*
X-184100Y-46800D01*
X-199400Y-52300D02*
X-198400Y-51300D01*
X-197400D01*
X-198400Y-50300D01*
X-197400Y-49300D01*
X-198400D01*
X-199400Y-48300D01*
X-200400Y-49300D01*
X-201400D01*
X-200400Y-50300D01*
X-201400Y-51300D01*
X-200400D01*
X-199400Y-52300D01*
Y-51500D02*
X-198800Y-50900D01*
X-198200D01*
X-198800Y-50300D01*
X-198200Y-49700D01*
X-198800D01*
X-199400Y-49100D01*
X-200000Y-49700D01*
X-200600D01*
X-200000Y-50300D01*
X-200600Y-50900D01*
X-200000D01*
X-199400Y-51500D01*
X-66500Y-60500D02*
X-65500Y-59500D01*
X-64500D01*
X-65500Y-58500D01*
X-64500Y-57500D01*
X-65500D01*
X-66500Y-56500D01*
X-67500Y-57500D01*
X-68500D01*
X-67500Y-58500D01*
X-68500Y-59500D01*
X-67500D01*
X-66500Y-60500D01*
Y-59700D02*
X-65900Y-59100D01*
X-65300D01*
X-65900Y-58500D01*
X-65300Y-57900D01*
X-65900D01*
X-66500Y-57300D01*
X-67100Y-57900D01*
X-67700D01*
X-67100Y-58500D01*
X-67700Y-59100D01*
X-67100D01*
X-66500Y-59700D01*
X-57800Y-63200D02*
X-56800Y-62200D01*
X-55800D01*
X-56800Y-61200D01*
X-55800Y-60200D01*
X-56800D01*
X-57800Y-59200D01*
X-58800Y-60200D01*
X-59800D01*
X-58800Y-61200D01*
X-59800Y-62200D01*
X-58800D01*
X-57800Y-63200D01*
Y-62400D02*
X-57200Y-61800D01*
X-56600D01*
X-57200Y-61200D01*
X-56600Y-60600D01*
X-57200D01*
X-57800Y-60000D01*
X-58400Y-60600D01*
X-59000D01*
X-58400Y-61200D01*
X-59000Y-61800D01*
X-58400D01*
X-57800Y-62400D01*
X-72900Y-111900D02*
X-71900Y-110900D01*
X-70900D01*
X-71900Y-109900D01*
X-70900Y-108900D01*
X-71900D01*
X-72900Y-107900D01*
X-73900Y-108900D01*
X-74900D01*
X-73900Y-109900D01*
X-74900Y-110900D01*
X-73900D01*
X-72900Y-111900D01*
Y-111100D02*
X-72300Y-110500D01*
X-71700D01*
X-72300Y-109900D01*
X-71700Y-109300D01*
X-72300D01*
X-72900Y-108700D01*
X-73500Y-109300D01*
X-74100D01*
X-73500Y-109900D01*
X-74100Y-110500D01*
X-73500D01*
X-72900Y-111100D01*
X-91700Y-69300D02*
X-90700Y-68300D01*
X-89700D01*
X-90700Y-67300D01*
X-89700Y-66300D01*
X-90700D01*
X-91700Y-65300D01*
X-92700Y-66300D01*
X-93700D01*
X-92700Y-67300D01*
X-93700Y-68300D01*
X-92700D01*
X-91700Y-69300D01*
Y-68500D02*
X-91100Y-67900D01*
X-90500D01*
X-91100Y-67300D01*
X-90500Y-66700D01*
X-91100D01*
X-91700Y-66100D01*
X-92300Y-66700D01*
X-92900D01*
X-92300Y-67300D01*
X-92900Y-67900D01*
X-92300D01*
X-91700Y-68500D01*
X-70700Y-70500D02*
X-69700Y-69500D01*
X-68700D01*
X-69700Y-68500D01*
X-68700Y-67500D01*
X-69700D01*
X-70700Y-66500D01*
X-71700Y-67500D01*
X-72700D01*
X-71700Y-68500D01*
X-72700Y-69500D01*
X-71700D01*
X-70700Y-70500D01*
Y-69700D02*
X-70100Y-69100D01*
X-69500D01*
X-70100Y-68500D01*
X-69500Y-67900D01*
X-70100D01*
X-70700Y-67300D01*
X-71300Y-67900D01*
X-71900D01*
X-71300Y-68500D01*
X-71900Y-69100D01*
X-71300D01*
X-70700Y-69700D01*
X-60400Y-82000D02*
X-59400Y-81000D01*
X-58400D01*
X-59400Y-80000D01*
X-58400Y-79000D01*
X-59400D01*
X-60400Y-78000D01*
X-61400Y-79000D01*
X-62400D01*
X-61400Y-80000D01*
X-62400Y-81000D01*
X-61400D01*
X-60400Y-82000D01*
Y-81200D02*
X-59800Y-80600D01*
X-59200D01*
X-59800Y-80000D01*
X-59200Y-79400D01*
X-59800D01*
X-60400Y-78800D01*
X-61000Y-79400D01*
X-61600D01*
X-61000Y-80000D01*
X-61600Y-80600D01*
X-61000D01*
X-60400Y-81200D01*
X-29600Y-90000D02*
X-28600Y-89000D01*
X-27600D01*
X-28600Y-88000D01*
X-27600Y-87000D01*
X-28600D01*
X-29600Y-86000D01*
X-30600Y-87000D01*
X-31600D01*
X-30600Y-88000D01*
X-31600Y-89000D01*
X-30600D01*
X-29600Y-90000D01*
Y-89200D02*
X-29000Y-88600D01*
X-28400D01*
X-29000Y-88000D01*
X-28400Y-87400D01*
X-29000D01*
X-29600Y-86800D01*
X-30200Y-87400D01*
X-30800D01*
X-30200Y-88000D01*
X-30800Y-88600D01*
X-30200D01*
X-29600Y-89200D01*
X-20200Y-36100D02*
X-19200Y-35100D01*
X-18200D01*
X-19200Y-34100D01*
X-18200Y-33100D01*
X-19200D01*
X-20200Y-32100D01*
X-21200Y-33100D01*
X-22200D01*
X-21200Y-34100D01*
X-22200Y-35100D01*
X-21200D01*
X-20200Y-36100D01*
Y-35300D02*
X-19600Y-34700D01*
X-19000D01*
X-19600Y-34100D01*
X-19000Y-33500D01*
X-19600D01*
X-20200Y-32900D01*
X-20800Y-33500D01*
X-21400D01*
X-20800Y-34100D01*
X-21400Y-34700D01*
X-20800D01*
X-20200Y-35300D01*
X-179400Y-37500D02*
X-178400Y-36500D01*
X-177400D01*
X-178400Y-35500D01*
X-177400Y-34500D01*
X-178400D01*
X-179400Y-33500D01*
X-180400Y-34500D01*
X-181400D01*
X-180400Y-35500D01*
X-181400Y-36500D01*
X-180400D01*
X-179400Y-37500D01*
Y-36700D02*
X-178800Y-36100D01*
X-178200D01*
X-178800Y-35500D01*
X-178200Y-34900D01*
X-178800D01*
X-179400Y-34300D01*
X-180000Y-34900D01*
X-180600D01*
X-180000Y-35500D01*
X-180600Y-36100D01*
X-180000D01*
X-179400Y-36700D01*
X-187700Y-40700D02*
X-186700Y-39700D01*
X-185700D01*
X-186700Y-38700D01*
X-185700Y-37700D01*
X-186700D01*
X-187700Y-36700D01*
X-188700Y-37700D01*
X-189700D01*
X-188700Y-38700D01*
X-189700Y-39700D01*
X-188700D01*
X-187700Y-40700D01*
Y-39900D02*
X-187100Y-39300D01*
X-186500D01*
X-187100Y-38700D01*
X-186500Y-38100D01*
X-187100D01*
X-187700Y-37500D01*
X-188300Y-38100D01*
X-188900D01*
X-188300Y-38700D01*
X-188900Y-39300D01*
X-188300D01*
X-187700Y-39900D01*
X-194100D02*
X-193100Y-38900D01*
X-192100D01*
X-193100Y-37900D01*
X-192100Y-36900D01*
X-193100D01*
X-194100Y-35900D01*
X-195100Y-36900D01*
X-196100D01*
X-195100Y-37900D01*
X-196100Y-38900D01*
X-195100D01*
X-194100Y-39900D01*
Y-39100D02*
X-193500Y-38500D01*
X-192900D01*
X-193500Y-37900D01*
X-192900Y-37300D01*
X-193500D01*
X-194100Y-36700D01*
X-194700Y-37300D01*
X-195300D01*
X-194700Y-37900D01*
X-195300Y-38500D01*
X-194700D01*
X-194100Y-39100D01*
X-101300Y-92400D02*
X-100300Y-91400D01*
X-99300D01*
X-100300Y-90400D01*
X-99300Y-89400D01*
X-100300D01*
X-101300Y-88400D01*
X-102300Y-89400D01*
X-103300D01*
X-102300Y-90400D01*
X-103300Y-91400D01*
X-102300D01*
X-101300Y-92400D01*
Y-91600D02*
X-100700Y-91000D01*
X-100100D01*
X-100700Y-90400D01*
X-100100Y-89800D01*
X-100700D01*
X-101300Y-89200D01*
X-101900Y-89800D01*
X-102500D01*
X-101900Y-90400D01*
X-102500Y-91000D01*
X-101900D01*
X-101300Y-91600D01*
X-302000Y-52300D02*
X-301000Y-51300D01*
X-300000D01*
X-301000Y-50300D01*
X-300000Y-49300D01*
X-301000D01*
X-302000Y-48300D01*
X-303000Y-49300D01*
X-304000D01*
X-303000Y-50300D01*
X-304000Y-51300D01*
X-303000D01*
X-302000Y-52300D01*
Y-51500D02*
X-301400Y-50900D01*
X-300800D01*
X-301400Y-50300D01*
X-300800Y-49700D01*
X-301400D01*
X-302000Y-49100D01*
X-302600Y-49700D01*
X-303200D01*
X-302600Y-50300D01*
X-303200Y-50900D01*
X-302600D01*
X-302000Y-51500D01*
X-156500Y-33500D02*
X-155500Y-32500D01*
X-154500D01*
X-155500Y-31500D01*
X-154500Y-30500D01*
X-155500D01*
X-156500Y-29500D01*
X-157500Y-30500D01*
X-158500D01*
X-157500Y-31500D01*
X-158500Y-32500D01*
X-157500D01*
X-156500Y-33500D01*
Y-32700D02*
X-155900Y-32100D01*
X-155300D01*
X-155900Y-31500D01*
X-155300Y-30900D01*
X-155900D01*
X-156500Y-30300D01*
X-157100Y-30900D01*
X-157700D01*
X-157100Y-31500D01*
X-157700Y-32100D01*
X-157100D01*
X-156500Y-32700D01*
X-72450Y-104750D02*
X-71450Y-103750D01*
X-70450D01*
X-71450Y-102750D01*
X-70450Y-101750D01*
X-71450D01*
X-72450Y-100750D01*
X-73450Y-101750D01*
X-74450D01*
X-73450Y-102750D01*
X-74450Y-103750D01*
X-73450D01*
X-72450Y-104750D01*
Y-103950D02*
X-71850Y-103350D01*
X-71250D01*
X-71850Y-102750D01*
X-71250Y-102150D01*
X-71850D01*
X-72450Y-101550D01*
X-73050Y-102150D01*
X-73650D01*
X-73050Y-102750D01*
X-73650Y-103350D01*
X-73050D01*
X-72450Y-103950D01*
X-64100Y-108600D02*
X-63100Y-107600D01*
X-62100D01*
X-63100Y-106600D01*
X-62100Y-105600D01*
X-63100D01*
X-64100Y-104600D01*
X-65100Y-105600D01*
X-66100D01*
X-65100Y-106600D01*
X-66100Y-107600D01*
X-65100D01*
X-64100Y-108600D01*
Y-107800D02*
X-63500Y-107200D01*
X-62900D01*
X-63500Y-106600D01*
X-62900Y-106000D01*
X-63500D01*
X-64100Y-105400D01*
X-64700Y-106000D01*
X-65300D01*
X-64700Y-106600D01*
X-65300Y-107200D01*
X-64700D01*
X-64100Y-107800D01*
X-191800Y-72700D02*
X-190800Y-71700D01*
X-189800D01*
X-190800Y-70700D01*
X-189800Y-69700D01*
X-190800D01*
X-191800Y-68700D01*
X-192800Y-69700D01*
X-193800D01*
X-192800Y-70700D01*
X-193800Y-71700D01*
X-192800D01*
X-191800Y-72700D01*
Y-71900D02*
X-191200Y-71300D01*
X-190600D01*
X-191200Y-70700D01*
X-190600Y-70100D01*
X-191200D01*
X-191800Y-69500D01*
X-192400Y-70100D01*
X-193000D01*
X-192400Y-70700D01*
X-193000Y-71300D01*
X-192400D01*
X-191800Y-71900D01*
X-200100Y-60800D02*
X-199100Y-59800D01*
X-198100D01*
X-199100Y-58800D01*
X-198100Y-57800D01*
X-199100D01*
X-200100Y-56800D01*
X-201100Y-57800D01*
X-202100D01*
X-201100Y-58800D01*
X-202100Y-59800D01*
X-201100D01*
X-200100Y-60800D01*
Y-60000D02*
X-199500Y-59400D01*
X-198900D01*
X-199500Y-58800D01*
X-198900Y-58200D01*
X-199500D01*
X-200100Y-57600D01*
X-200700Y-58200D01*
X-201300D01*
X-200700Y-58800D01*
X-201300Y-59400D01*
X-200700D01*
X-200100Y-60000D01*
X-167700Y-88500D02*
X-166700Y-87500D01*
X-165700D01*
X-166700Y-86500D01*
X-165700Y-85500D01*
X-166700D01*
X-167700Y-84500D01*
X-168700Y-85500D01*
X-169700D01*
X-168700Y-86500D01*
X-169700Y-87500D01*
X-168700D01*
X-167700Y-88500D01*
Y-87700D02*
X-167100Y-87100D01*
X-166500D01*
X-167100Y-86500D01*
X-166500Y-85900D01*
X-167100D01*
X-167700Y-85300D01*
X-168300Y-85900D01*
X-168900D01*
X-168300Y-86500D01*
X-168900Y-87100D01*
X-168300D01*
X-167700Y-87700D01*
X-184200Y-78600D02*
X-183200Y-77600D01*
X-182200D01*
X-183200Y-76600D01*
X-182200Y-75600D01*
X-183200D01*
X-184200Y-74600D01*
X-185200Y-75600D01*
X-186200D01*
X-185200Y-76600D01*
X-186200Y-77600D01*
X-185200D01*
X-184200Y-78600D01*
Y-77800D02*
X-183600Y-77200D01*
X-183000D01*
X-183600Y-76600D01*
X-183000Y-76000D01*
X-183600D01*
X-184200Y-75400D01*
X-184800Y-76000D01*
X-185400D01*
X-184800Y-76600D01*
X-185400Y-77200D01*
X-184800D01*
X-184200Y-77800D01*
X-79400Y-65500D02*
X-78400Y-64500D01*
X-77400D01*
X-78400Y-63500D01*
X-77400Y-62500D01*
X-78400D01*
X-79400Y-61500D01*
X-80400Y-62500D01*
X-81400D01*
X-80400Y-63500D01*
X-81400Y-64500D01*
X-80400D01*
X-79400Y-65500D01*
Y-64700D02*
X-78800Y-64100D01*
X-78200D01*
X-78800Y-63500D01*
X-78200Y-62900D01*
X-78800D01*
X-79400Y-62300D01*
X-80000Y-62900D01*
X-80600D01*
X-80000Y-63500D01*
X-80600Y-64100D01*
X-80000D01*
X-79400Y-64700D01*
X-48400Y-73500D02*
X-47400Y-72500D01*
X-46400D01*
X-47400Y-71500D01*
X-46400Y-70500D01*
X-47400D01*
X-48400Y-69500D01*
X-49400Y-70500D01*
X-50400D01*
X-49400Y-71500D01*
X-50400Y-72500D01*
X-49400D01*
X-48400Y-73500D01*
Y-72700D02*
X-47800Y-72100D01*
X-47200D01*
X-47800Y-71500D01*
X-47200Y-70900D01*
X-47800D01*
X-48400Y-70300D01*
X-49000Y-70900D01*
X-49600D01*
X-49000Y-71500D01*
X-49600Y-72100D01*
X-49000D01*
X-48400Y-72700D01*
X-58400Y-95900D02*
X-57400Y-94900D01*
X-56400D01*
X-57400Y-93900D01*
X-56400Y-92900D01*
X-57400D01*
X-58400Y-91900D01*
X-59400Y-92900D01*
X-60400D01*
X-59400Y-93900D01*
X-60400Y-94900D01*
X-59400D01*
X-58400Y-95900D01*
Y-95100D02*
X-57800Y-94500D01*
X-57200D01*
X-57800Y-93900D01*
X-57200Y-93300D01*
X-57800D01*
X-58400Y-92700D01*
X-59000Y-93300D01*
X-59600D01*
X-59000Y-93900D01*
X-59600Y-94500D01*
X-59000D01*
X-58400Y-95100D01*
X-42200Y-93100D02*
X-41200Y-92100D01*
X-40200D01*
X-41200Y-91100D01*
X-40200Y-90100D01*
X-41200D01*
X-42200Y-89100D01*
X-43200Y-90100D01*
X-44200D01*
X-43200Y-91100D01*
X-44200Y-92100D01*
X-43200D01*
X-42200Y-93100D01*
Y-92300D02*
X-41600Y-91700D01*
X-41000D01*
X-41600Y-91100D01*
X-41000Y-90500D01*
X-41600D01*
X-42200Y-89900D01*
X-42800Y-90500D01*
X-43400D01*
X-42800Y-91100D01*
X-43400Y-91700D01*
X-42800D01*
X-42200Y-92300D01*
X-42400Y-87000D02*
X-41400Y-86000D01*
X-40400D01*
X-41400Y-85000D01*
X-40400Y-84000D01*
X-41400D01*
X-42400Y-83000D01*
X-43400Y-84000D01*
X-44400D01*
X-43400Y-85000D01*
X-44400Y-86000D01*
X-43400D01*
X-42400Y-87000D01*
Y-86200D02*
X-41800Y-85600D01*
X-41200D01*
X-41800Y-85000D01*
X-41200Y-84400D01*
X-41800D01*
X-42400Y-83800D01*
X-43000Y-84400D01*
X-43600D01*
X-43000Y-85000D01*
X-43600Y-85600D01*
X-43000D01*
X-42400Y-86200D01*
X-47100Y-85300D02*
X-46100Y-84300D01*
X-45100D01*
X-46100Y-83300D01*
X-45100Y-82300D01*
X-46100D01*
X-47100Y-81300D01*
X-48100Y-82300D01*
X-49100D01*
X-48100Y-83300D01*
X-49100Y-84300D01*
X-48100D01*
X-47100Y-85300D01*
Y-84500D02*
X-46500Y-83900D01*
X-45900D01*
X-46500Y-83300D01*
X-45900Y-82700D01*
X-46500D01*
X-47100Y-82100D01*
X-47700Y-82700D01*
X-48300D01*
X-47700Y-83300D01*
X-48300Y-83900D01*
X-47700D01*
X-47100Y-84500D01*
X-23900Y-98378D02*
X-22900Y-97378D01*
X-21900D01*
X-22900Y-96378D01*
X-21900Y-95378D01*
X-22900D01*
X-23900Y-94378D01*
X-24900Y-95378D01*
X-25900D01*
X-24900Y-96378D01*
X-25900Y-97378D01*
X-24900D01*
X-23900Y-98378D01*
Y-97578D02*
X-23300Y-96978D01*
X-22700D01*
X-23300Y-96378D01*
X-22700Y-95778D01*
X-23300D01*
X-23900Y-95178D01*
X-24500Y-95778D01*
X-25100D01*
X-24500Y-96378D01*
X-25100Y-96978D01*
X-24500D01*
X-23900Y-97578D01*
X-296300Y-108700D02*
X-295300Y-107700D01*
X-294300D01*
X-295300Y-106700D01*
X-294300Y-105700D01*
X-295300D01*
X-296300Y-104700D01*
X-297300Y-105700D01*
X-298300D01*
X-297300Y-106700D01*
X-298300Y-107700D01*
X-297300D01*
X-296300Y-108700D01*
Y-107900D02*
X-295700Y-107300D01*
X-295100D01*
X-295700Y-106700D01*
X-295100Y-106100D01*
X-295700D01*
X-296300Y-105500D01*
X-296900Y-106100D01*
X-297500D01*
X-296900Y-106700D01*
X-297500Y-107300D01*
X-296900D01*
X-296300Y-107900D01*
X-214200Y-88300D02*
X-213200Y-87300D01*
X-212200D01*
X-213200Y-86300D01*
X-212200Y-85300D01*
X-213200D01*
X-214200Y-84300D01*
X-215200Y-85300D01*
X-216200D01*
X-215200Y-86300D01*
X-216200Y-87300D01*
X-215200D01*
X-214200Y-88300D01*
Y-87500D02*
X-213600Y-86900D01*
X-213000D01*
X-213600Y-86300D01*
X-213000Y-85700D01*
X-213600D01*
X-214200Y-85100D01*
X-214800Y-85700D01*
X-215400D01*
X-214800Y-86300D01*
X-215400Y-86900D01*
X-214800D01*
X-214200Y-87500D01*
X-218100Y-84100D02*
X-217100Y-83100D01*
X-216100D01*
X-217100Y-82100D01*
X-216100Y-81100D01*
X-217100D01*
X-218100Y-80100D01*
X-219100Y-81100D01*
X-220100D01*
X-219100Y-82100D01*
X-220100Y-83100D01*
X-219100D01*
X-218100Y-84100D01*
Y-83300D02*
X-217500Y-82700D01*
X-216900D01*
X-217500Y-82100D01*
X-216900Y-81500D01*
X-217500D01*
X-218100Y-80900D01*
X-218700Y-81500D01*
X-219300D01*
X-218700Y-82100D01*
X-219300Y-82700D01*
X-218700D01*
X-218100Y-83300D01*
X-222400Y-80400D02*
X-221400Y-79400D01*
X-220400D01*
X-221400Y-78400D01*
X-220400Y-77400D01*
X-221400D01*
X-222400Y-76400D01*
X-223400Y-77400D01*
X-224400D01*
X-223400Y-78400D01*
X-224400Y-79400D01*
X-223400D01*
X-222400Y-80400D01*
Y-79600D02*
X-221800Y-79000D01*
X-221200D01*
X-221800Y-78400D01*
X-221200Y-77800D01*
X-221800D01*
X-222400Y-77200D01*
X-223000Y-77800D01*
X-223600D01*
X-223000Y-78400D01*
X-223600Y-79000D01*
X-223000D01*
X-222400Y-79600D01*
X-227000Y-76500D02*
X-226000Y-75500D01*
X-225000D01*
X-226000Y-74500D01*
X-225000Y-73500D01*
X-226000D01*
X-227000Y-72500D01*
X-228000Y-73500D01*
X-229000D01*
X-228000Y-74500D01*
X-229000Y-75500D01*
X-228000D01*
X-227000Y-76500D01*
Y-75700D02*
X-226400Y-75100D01*
X-225800D01*
X-226400Y-74500D01*
X-225800Y-73900D01*
X-226400D01*
X-227000Y-73300D01*
X-227600Y-73900D01*
X-228200D01*
X-227600Y-74500D01*
X-228200Y-75100D01*
X-227600D01*
X-227000Y-75700D01*
X-230800Y-68600D02*
X-229800Y-67600D01*
X-228800D01*
X-229800Y-66600D01*
X-228800Y-65600D01*
X-229800D01*
X-230800Y-64600D01*
X-231800Y-65600D01*
X-232800D01*
X-231800Y-66600D01*
X-232800Y-67600D01*
X-231800D01*
X-230800Y-68600D01*
Y-67800D02*
X-230200Y-67200D01*
X-229600D01*
X-230200Y-66600D01*
X-229600Y-66000D01*
X-230200D01*
X-230800Y-65400D01*
X-231400Y-66000D01*
X-232000D01*
X-231400Y-66600D01*
X-232000Y-67200D01*
X-231400D01*
X-230800Y-67800D01*
X-234200Y-64600D02*
X-233200Y-63600D01*
X-232200D01*
X-233200Y-62600D01*
X-232200Y-61600D01*
X-233200D01*
X-234200Y-60600D01*
X-235200Y-61600D01*
X-236200D01*
X-235200Y-62600D01*
X-236200Y-63600D01*
X-235200D01*
X-234200Y-64600D01*
Y-63800D02*
X-233600Y-63200D01*
X-233000D01*
X-233600Y-62600D01*
X-233000Y-62000D01*
X-233600D01*
X-234200Y-61400D01*
X-234800Y-62000D01*
X-235400D01*
X-234800Y-62600D01*
X-235400Y-63200D01*
X-234800D01*
X-234200Y-63800D01*
X-257700Y-73300D02*
X-256700Y-72300D01*
X-255700D01*
X-256700Y-71300D01*
X-255700Y-70300D01*
X-256700D01*
X-257700Y-69300D01*
X-258700Y-70300D01*
X-259700D01*
X-258700Y-71300D01*
X-259700Y-72300D01*
X-258700D01*
X-257700Y-73300D01*
Y-72500D02*
X-257100Y-71900D01*
X-256500D01*
X-257100Y-71300D01*
X-256500Y-70700D01*
X-257100D01*
X-257700Y-70100D01*
X-258300Y-70700D01*
X-258900D01*
X-258300Y-71300D01*
X-258900Y-71900D01*
X-258300D01*
X-257700Y-72500D01*
X-330400Y-89400D02*
X-329400Y-88400D01*
X-328400D01*
X-329400Y-87400D01*
X-328400Y-86400D01*
X-329400D01*
X-330400Y-85400D01*
X-331400Y-86400D01*
X-332400D01*
X-331400Y-87400D01*
X-332400Y-88400D01*
X-331400D01*
X-330400Y-89400D01*
Y-88600D02*
X-329800Y-88000D01*
X-329200D01*
X-329800Y-87400D01*
X-329200Y-86800D01*
X-329800D01*
X-330400Y-86200D01*
X-331000Y-86800D01*
X-331600D01*
X-331000Y-87400D01*
X-331600Y-88000D01*
X-331000D01*
X-330400Y-88600D01*
X-328200Y-25900D02*
X-327200Y-24900D01*
X-326200D01*
X-327200Y-23900D01*
X-326200Y-22900D01*
X-327200D01*
X-328200Y-21900D01*
X-329200Y-22900D01*
X-330200D01*
X-329200Y-23900D01*
X-330200Y-24900D01*
X-329200D01*
X-328200Y-25900D01*
Y-25100D02*
X-327600Y-24500D01*
X-327000D01*
X-327600Y-23900D01*
X-327000Y-23300D01*
X-327600D01*
X-328200Y-22700D01*
X-328800Y-23300D01*
X-329400D01*
X-328800Y-23900D01*
X-329400Y-24500D01*
X-328800D01*
X-328200Y-25100D01*
X-370400Y-136000D02*
X-369400Y-135000D01*
X-368400D01*
X-369400Y-134000D01*
X-368400Y-133000D01*
X-369400D01*
X-370400Y-132000D01*
X-371400Y-133000D01*
X-372400D01*
X-371400Y-134000D01*
X-372400Y-135000D01*
X-371400D01*
X-370400Y-136000D01*
Y-135200D02*
X-369800Y-134600D01*
X-369200D01*
X-369800Y-134000D01*
X-369200Y-133400D01*
X-369800D01*
X-370400Y-132800D01*
X-371000Y-133400D01*
X-371600D01*
X-371000Y-134000D01*
X-371600Y-134600D01*
X-371000D01*
X-370400Y-135200D01*
X-362700Y-8800D02*
X-361700Y-7800D01*
X-360700D01*
X-361700Y-6800D01*
X-360700Y-5800D01*
X-361700D01*
X-362700Y-4800D01*
X-363700Y-5800D01*
X-364700D01*
X-363700Y-6800D01*
X-364700Y-7800D01*
X-363700D01*
X-362700Y-8800D01*
Y-8000D02*
X-362100Y-7400D01*
X-361500D01*
X-362100Y-6800D01*
X-361500Y-6200D01*
X-362100D01*
X-362700Y-5600D01*
X-363300Y-6200D01*
X-363900D01*
X-363300Y-6800D01*
X-363900Y-7400D01*
X-363300D01*
X-362700Y-8000D01*
X-363500Y-77400D02*
X-362500Y-76400D01*
X-361500D01*
X-362500Y-75400D01*
X-361500Y-74400D01*
X-362500D01*
X-363500Y-73400D01*
X-364500Y-74400D01*
X-365500D01*
X-364500Y-75400D01*
X-365500Y-76400D01*
X-364500D01*
X-363500Y-77400D01*
Y-76600D02*
X-362900Y-76000D01*
X-362300D01*
X-362900Y-75400D01*
X-362300Y-74800D01*
X-362900D01*
X-363500Y-74200D01*
X-364100Y-74800D01*
X-364700D01*
X-364100Y-75400D01*
X-364700Y-76000D01*
X-364100D01*
X-363500Y-76600D01*
X-349900Y-114900D02*
X-348900Y-113900D01*
X-347900D01*
X-348900Y-112900D01*
X-347900Y-111900D01*
X-348900D01*
X-349900Y-110900D01*
X-350900Y-111900D01*
X-351900D01*
X-350900Y-112900D01*
X-351900Y-113900D01*
X-350900D01*
X-349900Y-114900D01*
Y-114100D02*
X-349300Y-113500D01*
X-348700D01*
X-349300Y-112900D01*
X-348700Y-112300D01*
X-349300D01*
X-349900Y-111700D01*
X-350500Y-112300D01*
X-351100D01*
X-350500Y-112900D01*
X-351100Y-113500D01*
X-350500D01*
X-349900Y-114100D01*
X-326900Y-116300D02*
X-325900Y-115300D01*
X-324900D01*
X-325900Y-114300D01*
X-324900Y-113300D01*
X-325900D01*
X-326900Y-112300D01*
X-327900Y-113300D01*
X-328900D01*
X-327900Y-114300D01*
X-328900Y-115300D01*
X-327900D01*
X-326900Y-116300D01*
Y-115500D02*
X-326300Y-114900D01*
X-325700D01*
X-326300Y-114300D01*
X-325700Y-113700D01*
X-326300D01*
X-326900Y-113100D01*
X-327500Y-113700D01*
X-328100D01*
X-327500Y-114300D01*
X-328100Y-114900D01*
X-327500D01*
X-326900Y-115500D01*
X-299300Y-108700D02*
X-298300Y-107700D01*
X-297300D01*
X-298300Y-106700D01*
X-297300Y-105700D01*
X-298300D01*
X-299300Y-104700D01*
X-300300Y-105700D01*
X-301300D01*
X-300300Y-106700D01*
X-301300Y-107700D01*
X-300300D01*
X-299300Y-108700D01*
Y-107900D02*
X-298700Y-107300D01*
X-298100D01*
X-298700Y-106700D01*
X-298100Y-106100D01*
X-298700D01*
X-299300Y-105500D01*
X-299900Y-106100D01*
X-300500D01*
X-299900Y-106700D01*
X-300500Y-107300D01*
X-299900D01*
X-299300Y-107900D01*
%TF.MD5,fde1d8382b589e0304b601de4fa5e1db*%
M02*
