%TF.GenerationSoftware,Altium Limited,Altium Designer,24.1.2 (44)*%
G04 Layer_Physical_Order=4*
G04 Layer_Color=16711680*
%FSLAX25Y25*%
%MOIN*%
%TF.SameCoordinates,CC6F7A58-88BC-47F1-AAD7-D7ADF3ED88B3*%
%TF.FilePolarity,Positive*%
%TF.FileFunction,Copper,L4,Bot,Signal*%
%TF.Part,Single*%
G01*
G75*
%TA.AperFunction,Conductor*%
%ADD11C,0.01000*%
%ADD39C,0.03000*%
%ADD40C,0.02000*%
%ADD41C,0.03500*%
%TA.AperFunction,ComponentPad*%
%ADD43C,0.06299*%
%ADD44R,0.06299X0.06299*%
%ADD45C,0.02756*%
%ADD46O,0.04331X0.07874*%
%ADD47O,0.04724X0.07087*%
%ADD48R,0.06299X0.03543*%
%ADD49O,0.06299X0.03543*%
%ADD50C,0.05984*%
%ADD51R,0.05984X0.05984*%
%ADD52R,0.05984X0.05984*%
%ADD53O,0.05512X0.08661*%
%ADD54C,0.06000*%
%TA.AperFunction,ViaPad*%
%ADD55C,0.02756*%
%TA.AperFunction,SMDPad,CuDef*%
%ADD57O,0.19685X0.11811*%
%ADD58C,0.07874*%
G36*
X-10222Y-1052D02*
X-8539Y-1456D01*
X-6939Y-2118D01*
X-5463Y-3023D01*
X-4147Y-4147D01*
X-3023Y-5463D01*
X-2118Y-6939D01*
X-1456Y-8539D01*
X-1052Y-10222D01*
X-917Y-11942D01*
X-918Y-11948D01*
Y-125974D01*
X-917Y-125979D01*
X-1051Y-127680D01*
X-1450Y-129344D01*
X-2105Y-130925D01*
X-2999Y-132384D01*
X-4110Y-133685D01*
X-5412Y-134796D01*
X-6871Y-135690D01*
X-8451Y-136345D01*
X-10115Y-136745D01*
X-11817Y-136879D01*
X-11821Y-136878D01*
X-381726D01*
X-381732Y-136879D01*
X-383455Y-136743D01*
X-385143Y-136338D01*
X-386746Y-135674D01*
X-388226Y-134767D01*
X-389545Y-133640D01*
X-390672Y-132321D01*
X-391579Y-130841D01*
X-392243Y-129238D01*
X-392648Y-127551D01*
X-392784Y-125827D01*
X-392782Y-125821D01*
Y-11717D01*
X-392783Y-11713D01*
X-392650Y-10027D01*
X-392255Y-8379D01*
X-391606Y-6814D01*
X-390721Y-5369D01*
X-389620Y-4080D01*
X-388331Y-2979D01*
X-386886Y-2094D01*
X-385321Y-1445D01*
X-383673Y-1050D01*
X-381987Y-917D01*
X-381983Y-918D01*
X-11948D01*
X-11942Y-917D01*
X-10222Y-1052D01*
D02*
G37*
%LPC*%
G36*
X-11811Y-4577D02*
X-13222Y-4716D01*
X-14579Y-5128D01*
X-15830Y-5796D01*
X-16926Y-6696D01*
X-17826Y-7792D01*
X-18494Y-9043D01*
X-18906Y-10400D01*
X-19045Y-11811D01*
X-18906Y-13222D01*
X-18494Y-14579D01*
X-17826Y-15830D01*
X-16926Y-16926D01*
X-15830Y-17826D01*
X-14579Y-18494D01*
X-13222Y-18906D01*
X-11811Y-19045D01*
X-10400Y-18906D01*
X-9043Y-18494D01*
X-7792Y-17826D01*
X-6696Y-16926D01*
X-5796Y-15830D01*
X-5128Y-14579D01*
X-4716Y-13222D01*
X-4577Y-11811D01*
X-4716Y-10400D01*
X-5128Y-9043D01*
X-5796Y-7792D01*
X-6696Y-6696D01*
X-7792Y-5796D01*
X-9043Y-5128D01*
X-10400Y-4716D01*
X-11811Y-4577D01*
D02*
G37*
G36*
X-381889D02*
X-383300Y-4716D01*
X-384657Y-5128D01*
X-385908Y-5796D01*
X-387004Y-6696D01*
X-387904Y-7792D01*
X-388572Y-9043D01*
X-388984Y-10400D01*
X-389123Y-11811D01*
X-388984Y-13222D01*
X-388572Y-14579D01*
X-387904Y-15830D01*
X-387004Y-16926D01*
X-385908Y-17826D01*
X-384657Y-18494D01*
X-383300Y-18906D01*
X-381889Y-19045D01*
X-380478Y-18906D01*
X-379121Y-18494D01*
X-377870Y-17826D01*
X-376774Y-16926D01*
X-375874Y-15830D01*
X-375206Y-14579D01*
X-374794Y-13222D01*
X-374655Y-11811D01*
X-374794Y-10400D01*
X-375206Y-9043D01*
X-375874Y-7792D01*
X-376774Y-6696D01*
X-377870Y-5796D01*
X-379121Y-5128D01*
X-380478Y-4716D01*
X-381889Y-4577D01*
D02*
G37*
G36*
X-35633Y-15250D02*
X-36567D01*
X-37470Y-15492D01*
X-38280Y-15960D01*
X-38940Y-16621D01*
X-39408Y-17430D01*
X-39650Y-18333D01*
Y-19267D01*
X-39408Y-20170D01*
X-38940Y-20979D01*
X-38280Y-21640D01*
X-37470Y-22108D01*
X-36567Y-22350D01*
X-35633D01*
X-34730Y-22108D01*
X-33920Y-21640D01*
X-33260Y-20979D01*
X-32792Y-20170D01*
X-32550Y-19267D01*
Y-18333D01*
X-32792Y-17430D01*
X-33260Y-16621D01*
X-33920Y-15960D01*
X-34730Y-15492D01*
X-35633Y-15250D01*
D02*
G37*
G36*
X-45633D02*
X-46567D01*
X-47470Y-15492D01*
X-48280Y-15960D01*
X-48940Y-16621D01*
X-49408Y-17430D01*
X-49650Y-18333D01*
Y-19267D01*
X-49408Y-20170D01*
X-48940Y-20979D01*
X-48280Y-21640D01*
X-47470Y-22108D01*
X-46567Y-22350D01*
X-45633D01*
X-44730Y-22108D01*
X-43920Y-21640D01*
X-43260Y-20979D01*
X-42792Y-20170D01*
X-42550Y-19267D01*
Y-18333D01*
X-42792Y-17430D01*
X-43260Y-16621D01*
X-43920Y-15960D01*
X-44730Y-15492D01*
X-45633Y-15250D01*
D02*
G37*
G36*
X-55633D02*
X-56567D01*
X-57470Y-15492D01*
X-58280Y-15960D01*
X-58940Y-16621D01*
X-59408Y-17430D01*
X-59650Y-18333D01*
Y-19267D01*
X-59408Y-20170D01*
X-58940Y-20979D01*
X-58280Y-21640D01*
X-57470Y-22108D01*
X-56567Y-22350D01*
X-55633D01*
X-54730Y-22108D01*
X-53921Y-21640D01*
X-53260Y-20979D01*
X-52792Y-20170D01*
X-52550Y-19267D01*
Y-18333D01*
X-52792Y-17430D01*
X-53260Y-16621D01*
X-53921Y-15960D01*
X-54730Y-15492D01*
X-55633Y-15250D01*
D02*
G37*
G36*
X-65633D02*
X-66567D01*
X-67470Y-15492D01*
X-68279Y-15960D01*
X-68940Y-16621D01*
X-69408Y-17430D01*
X-69650Y-18333D01*
Y-19267D01*
X-69408Y-20170D01*
X-68940Y-20979D01*
X-68279Y-21640D01*
X-67470Y-22108D01*
X-66567Y-22350D01*
X-65633D01*
X-64730Y-22108D01*
X-63920Y-21640D01*
X-63260Y-20979D01*
X-62792Y-20170D01*
X-62550Y-19267D01*
Y-18333D01*
X-62792Y-17430D01*
X-63260Y-16621D01*
X-63920Y-15960D01*
X-64730Y-15492D01*
X-65633Y-15250D01*
D02*
G37*
G36*
X-75633D02*
X-76567D01*
X-77470Y-15492D01*
X-78280Y-15960D01*
X-78940Y-16621D01*
X-79408Y-17430D01*
X-79650Y-18333D01*
Y-19267D01*
X-79408Y-20170D01*
X-78940Y-20979D01*
X-78280Y-21640D01*
X-77470Y-22108D01*
X-76567Y-22350D01*
X-75633D01*
X-74730Y-22108D01*
X-73921Y-21640D01*
X-73260Y-20979D01*
X-72792Y-20170D01*
X-72550Y-19267D01*
Y-18333D01*
X-72792Y-17430D01*
X-73260Y-16621D01*
X-73921Y-15960D01*
X-74730Y-15492D01*
X-75633Y-15250D01*
D02*
G37*
G36*
X-85633D02*
X-86567D01*
X-87470Y-15492D01*
X-88279Y-15960D01*
X-88940Y-16621D01*
X-89408Y-17430D01*
X-89650Y-18333D01*
Y-19267D01*
X-89408Y-20170D01*
X-88940Y-20979D01*
X-88279Y-21640D01*
X-87470Y-22108D01*
X-86567Y-22350D01*
X-85633D01*
X-84730Y-22108D01*
X-83921Y-21640D01*
X-83260Y-20979D01*
X-82792Y-20170D01*
X-82550Y-19267D01*
Y-18333D01*
X-82792Y-17430D01*
X-83260Y-16621D01*
X-83921Y-15960D01*
X-84730Y-15492D01*
X-85633Y-15250D01*
D02*
G37*
G36*
X-95633D02*
X-96567D01*
X-97470Y-15492D01*
X-98280Y-15960D01*
X-98940Y-16621D01*
X-99408Y-17430D01*
X-99650Y-18333D01*
Y-19267D01*
X-99408Y-20170D01*
X-98940Y-20979D01*
X-98280Y-21640D01*
X-97470Y-22108D01*
X-96567Y-22350D01*
X-95633D01*
X-94730Y-22108D01*
X-93920Y-21640D01*
X-93260Y-20979D01*
X-92792Y-20170D01*
X-92550Y-19267D01*
Y-18333D01*
X-92792Y-17430D01*
X-93260Y-16621D01*
X-93920Y-15960D01*
X-94730Y-15492D01*
X-95633Y-15250D01*
D02*
G37*
G36*
X-362327Y-4922D02*
X-363073D01*
X-363764Y-5208D01*
X-364292Y-5736D01*
X-364578Y-6426D01*
Y-7174D01*
X-364292Y-7864D01*
X-363764Y-8392D01*
X-363518Y-8494D01*
Y-20289D01*
X-363564Y-20308D01*
X-364092Y-20836D01*
X-364378Y-21526D01*
Y-22274D01*
X-364092Y-22964D01*
X-363564Y-23492D01*
X-362874Y-23778D01*
X-362126D01*
X-361436Y-23492D01*
X-360908Y-22964D01*
X-360622Y-22274D01*
Y-21526D01*
X-360908Y-20836D01*
X-361436Y-20308D01*
X-361682Y-20206D01*
Y-8411D01*
X-361636Y-8392D01*
X-361108Y-7864D01*
X-360822Y-7174D01*
Y-6426D01*
X-361108Y-5736D01*
X-361636Y-5208D01*
X-362327Y-4922D01*
D02*
G37*
G36*
X-330529Y-8263D02*
X-331671D01*
X-332774Y-8559D01*
X-333763Y-9129D01*
X-334571Y-9937D01*
X-335141Y-10926D01*
X-335437Y-12029D01*
Y-13171D01*
X-335141Y-14274D01*
X-334571Y-15263D01*
X-333763Y-16071D01*
X-332774Y-16641D01*
X-332018Y-16844D01*
Y-21000D01*
X-331948Y-21351D01*
X-331749Y-21649D01*
X-330017Y-23380D01*
X-330078Y-23526D01*
Y-24274D01*
X-329792Y-24964D01*
X-329548Y-25208D01*
X-329806Y-25594D01*
X-330583Y-26114D01*
X-331466Y-26289D01*
X-331500Y-26282D01*
X-353800D01*
Y-26268D01*
X-354766Y-26395D01*
X-355666Y-26768D01*
X-356439Y-27361D01*
X-357032Y-28134D01*
X-357405Y-29034D01*
X-357532Y-30000D01*
X-357518D01*
Y-81547D01*
X-357664Y-81608D01*
X-358192Y-82136D01*
X-358478Y-82826D01*
Y-83574D01*
X-358192Y-84264D01*
X-357664Y-84792D01*
X-356974Y-85078D01*
X-356226D01*
X-355536Y-84792D01*
X-355008Y-84264D01*
X-354722Y-83574D01*
Y-82826D01*
X-355008Y-82136D01*
X-355536Y-81608D01*
X-355682Y-81547D01*
Y-30000D01*
X-355684Y-29990D01*
X-355543Y-29278D01*
X-355134Y-28666D01*
X-354522Y-28257D01*
X-353810Y-28116D01*
X-353800Y-28118D01*
X-331500D01*
Y-28136D01*
X-330404Y-27992D01*
X-329382Y-27569D01*
X-328504Y-26895D01*
X-327831Y-26018D01*
X-327712Y-25731D01*
X-327136Y-25492D01*
X-326608Y-24964D01*
X-326322Y-24274D01*
Y-23526D01*
X-326608Y-22836D01*
X-327136Y-22308D01*
X-327826Y-22022D01*
X-328573D01*
X-328720Y-22083D01*
X-330182Y-20620D01*
Y-16844D01*
X-329426Y-16641D01*
X-328437Y-16071D01*
X-327629Y-15263D01*
X-327059Y-14274D01*
X-326763Y-13171D01*
Y-12029D01*
X-327059Y-10926D01*
X-327629Y-9937D01*
X-328437Y-9129D01*
X-329426Y-8559D01*
X-330529Y-8263D01*
D02*
G37*
G36*
X-178408Y-23208D02*
X-185192D01*
Y-29992D01*
X-178408D01*
Y-23208D01*
D02*
G37*
G36*
X-191353D02*
X-192247D01*
X-193109Y-23439D01*
X-193883Y-23886D01*
X-194514Y-24517D01*
X-194961Y-25291D01*
X-195192Y-26153D01*
Y-27047D01*
X-194961Y-27909D01*
X-194514Y-28683D01*
X-193883Y-29314D01*
X-193109Y-29761D01*
X-192247Y-29992D01*
X-191353D01*
X-190491Y-29761D01*
X-189717Y-29314D01*
X-189086Y-28683D01*
X-188639Y-27909D01*
X-188408Y-27047D01*
Y-26153D01*
X-188639Y-25291D01*
X-189086Y-24517D01*
X-189717Y-23886D01*
X-190491Y-23439D01*
X-191353Y-23208D01*
D02*
G37*
G36*
X-201353D02*
X-202247D01*
X-203109Y-23439D01*
X-203883Y-23886D01*
X-204514Y-24517D01*
X-204961Y-25291D01*
X-205192Y-26153D01*
Y-27047D01*
X-204961Y-27909D01*
X-204514Y-28683D01*
X-203883Y-29314D01*
X-203109Y-29761D01*
X-202247Y-29992D01*
X-201353D01*
X-200491Y-29761D01*
X-199717Y-29314D01*
X-199086Y-28683D01*
X-198639Y-27909D01*
X-198408Y-27047D01*
Y-26153D01*
X-198639Y-25291D01*
X-199086Y-24517D01*
X-199717Y-23886D01*
X-200491Y-23439D01*
X-201353Y-23208D01*
D02*
G37*
G36*
X-211353D02*
X-212247D01*
X-213109Y-23439D01*
X-213883Y-23886D01*
X-214514Y-24517D01*
X-214961Y-25291D01*
X-215192Y-26153D01*
Y-27047D01*
X-214961Y-27909D01*
X-214514Y-28683D01*
X-213883Y-29314D01*
X-213109Y-29761D01*
X-212247Y-29992D01*
X-211353D01*
X-210491Y-29761D01*
X-209717Y-29314D01*
X-209086Y-28683D01*
X-208639Y-27909D01*
X-208408Y-27047D01*
Y-26153D01*
X-208639Y-25291D01*
X-209086Y-24517D01*
X-209717Y-23886D01*
X-210491Y-23439D01*
X-211353Y-23208D01*
D02*
G37*
G36*
X-221353D02*
X-222247D01*
X-223109Y-23439D01*
X-223883Y-23886D01*
X-224514Y-24517D01*
X-224961Y-25291D01*
X-225192Y-26153D01*
Y-27047D01*
X-224961Y-27909D01*
X-224514Y-28683D01*
X-223883Y-29314D01*
X-223109Y-29761D01*
X-222247Y-29992D01*
X-221353D01*
X-220491Y-29761D01*
X-219717Y-29314D01*
X-219086Y-28683D01*
X-218639Y-27909D01*
X-218408Y-27047D01*
Y-26153D01*
X-218639Y-25291D01*
X-219086Y-24517D01*
X-219717Y-23886D01*
X-220491Y-23439D01*
X-221353Y-23208D01*
D02*
G37*
G36*
X-231353D02*
X-232247D01*
X-233109Y-23439D01*
X-233883Y-23886D01*
X-234514Y-24517D01*
X-234961Y-25291D01*
X-235192Y-26153D01*
Y-27047D01*
X-234961Y-27909D01*
X-234514Y-28683D01*
X-233883Y-29314D01*
X-233109Y-29761D01*
X-232247Y-29992D01*
X-231353D01*
X-230491Y-29761D01*
X-229717Y-29314D01*
X-229086Y-28683D01*
X-228639Y-27909D01*
X-228408Y-27047D01*
Y-26153D01*
X-228639Y-25291D01*
X-229086Y-24517D01*
X-229717Y-23886D01*
X-230491Y-23439D01*
X-231353Y-23208D01*
D02*
G37*
G36*
X-156126Y-29622D02*
X-156874D01*
X-157564Y-29908D01*
X-158092Y-30436D01*
X-158378Y-31126D01*
Y-31874D01*
X-158092Y-32564D01*
X-157564Y-33092D01*
X-156874Y-33378D01*
X-156126D01*
X-155436Y-33092D01*
X-154908Y-32564D01*
X-154622Y-31874D01*
Y-31126D01*
X-154908Y-30436D01*
X-155436Y-29908D01*
X-156126Y-29622D01*
D02*
G37*
G36*
X-19826Y-32222D02*
X-20574D01*
X-21264Y-32508D01*
X-21792Y-33036D01*
X-22078Y-33726D01*
Y-34474D01*
X-21792Y-35164D01*
X-21264Y-35692D01*
X-20574Y-35978D01*
X-19826D01*
X-19136Y-35692D01*
X-18608Y-35164D01*
X-18322Y-34474D01*
Y-33726D01*
X-18608Y-33036D01*
X-19136Y-32508D01*
X-19826Y-32222D01*
D02*
G37*
G36*
X-368626Y-19022D02*
X-369373D01*
X-370064Y-19308D01*
X-370592Y-19836D01*
X-370878Y-20526D01*
Y-21274D01*
X-370656Y-21809D01*
X-371025Y-22361D01*
X-371192Y-23200D01*
Y-24264D01*
X-378237D01*
X-379473Y-24386D01*
X-380662Y-24746D01*
X-381757Y-25332D01*
X-382717Y-26120D01*
X-383505Y-27080D01*
X-384091Y-28175D01*
X-384451Y-29364D01*
X-384573Y-30600D01*
X-384451Y-31836D01*
X-384091Y-33025D01*
X-383505Y-34120D01*
X-382717Y-35080D01*
X-381757Y-35868D01*
X-380662Y-36454D01*
X-379473Y-36814D01*
X-378237Y-36936D01*
X-370363D01*
X-369127Y-36814D01*
X-367938Y-36454D01*
X-366843Y-35868D01*
X-365883Y-35080D01*
X-365095Y-34120D01*
X-364509Y-33025D01*
X-364149Y-31836D01*
X-364027Y-30600D01*
X-364149Y-29364D01*
X-364509Y-28175D01*
X-365095Y-27080D01*
X-365883Y-26120D01*
X-366808Y-25361D01*
Y-23200D01*
X-366975Y-22361D01*
X-367344Y-21809D01*
X-367122Y-21274D01*
Y-20526D01*
X-367408Y-19836D01*
X-367936Y-19308D01*
X-368626Y-19022D01*
D02*
G37*
G36*
X-179026Y-33622D02*
X-179774D01*
X-180464Y-33908D01*
X-180992Y-34436D01*
X-181278Y-35126D01*
Y-35874D01*
X-180992Y-36564D01*
X-180464Y-37092D01*
X-179774Y-37378D01*
X-179026D01*
X-178336Y-37092D01*
X-177808Y-36564D01*
X-177522Y-35874D01*
Y-35126D01*
X-177808Y-34436D01*
X-178336Y-33908D01*
X-179026Y-33622D01*
D02*
G37*
G36*
X-193726Y-36022D02*
X-194474D01*
X-195164Y-36308D01*
X-195692Y-36836D01*
X-195978Y-37526D01*
Y-38274D01*
X-195692Y-38964D01*
X-195164Y-39492D01*
X-194474Y-39778D01*
X-193726D01*
X-193036Y-39492D01*
X-192508Y-38964D01*
X-192222Y-38274D01*
Y-37526D01*
X-192508Y-36836D01*
X-193036Y-36308D01*
X-193726Y-36022D01*
D02*
G37*
G36*
X-187326Y-36822D02*
X-188074D01*
X-188764Y-37108D01*
X-189292Y-37636D01*
X-189578Y-38326D01*
Y-39074D01*
X-189292Y-39764D01*
X-188764Y-40292D01*
X-188074Y-40578D01*
X-187326D01*
X-186636Y-40292D01*
X-186108Y-39764D01*
X-185822Y-39074D01*
Y-38326D01*
X-186108Y-37636D01*
X-186636Y-37108D01*
X-187326Y-36822D01*
D02*
G37*
G36*
X-7253Y-37308D02*
X-8147D01*
X-9009Y-37539D01*
X-9783Y-37986D01*
X-10414Y-38617D01*
X-10861Y-39391D01*
X-11092Y-40253D01*
Y-41147D01*
X-10861Y-42009D01*
X-10414Y-42783D01*
X-9783Y-43414D01*
X-9009Y-43861D01*
X-8147Y-44092D01*
X-7253D01*
X-6391Y-43861D01*
X-5617Y-43414D01*
X-4986Y-42783D01*
X-4539Y-42009D01*
X-4308Y-41147D01*
Y-40253D01*
X-4539Y-39391D01*
X-4986Y-38617D01*
X-5617Y-37986D01*
X-6391Y-37539D01*
X-7253Y-37308D01*
D02*
G37*
G36*
X-363076Y-42372D02*
X-363824D01*
X-364514Y-42658D01*
X-365042Y-43186D01*
X-365308Y-43830D01*
X-366039Y-43975D01*
X-366750Y-44450D01*
X-368765Y-46465D01*
X-369027Y-46386D01*
X-370263Y-46264D01*
X-378137D01*
X-379373Y-46386D01*
X-380562Y-46746D01*
X-381657Y-47332D01*
X-382617Y-48120D01*
X-383405Y-49080D01*
X-383991Y-50175D01*
X-384351Y-51364D01*
X-384473Y-52600D01*
X-384351Y-53836D01*
X-383991Y-55025D01*
X-383405Y-56120D01*
X-382617Y-57080D01*
X-381657Y-57868D01*
X-380562Y-58454D01*
X-379373Y-58814D01*
X-378137Y-58936D01*
X-370263D01*
X-369027Y-58814D01*
X-367838Y-58454D01*
X-366743Y-57868D01*
X-365783Y-57080D01*
X-364995Y-56120D01*
X-364409Y-55025D01*
X-364049Y-53836D01*
X-363927Y-52600D01*
X-364049Y-51364D01*
X-364409Y-50175D01*
X-364995Y-49080D01*
X-365078Y-48978D01*
X-363650Y-47550D01*
X-363175Y-46839D01*
X-363030Y-46108D01*
X-362386Y-45842D01*
X-361858Y-45314D01*
X-361572Y-44624D01*
Y-43876D01*
X-361858Y-43186D01*
X-362386Y-42658D01*
X-363076Y-42372D01*
D02*
G37*
G36*
X-250730Y-11838D02*
X-251670D01*
X-252130Y-12028D01*
X-254750D01*
Y-16372D01*
X-252572D01*
X-252368Y-16872D01*
X-252484Y-16986D01*
X-252578D01*
X-253425Y-17154D01*
X-254144Y-17634D01*
X-254624Y-18353D01*
X-254792Y-19200D01*
X-254624Y-20047D01*
X-254144Y-20766D01*
X-253425Y-21246D01*
X-252609Y-21408D01*
X-252549Y-21501D01*
X-252411Y-21914D01*
X-252484Y-21986D01*
X-252578D01*
X-253425Y-22154D01*
X-254144Y-22634D01*
X-254624Y-23353D01*
X-254792Y-24200D01*
X-254624Y-25047D01*
X-254144Y-25766D01*
X-253425Y-26246D01*
X-252578Y-26414D01*
X-252027D01*
X-251670Y-26562D01*
X-250730D01*
X-250373Y-26414D01*
X-249822D01*
X-248975Y-26246D01*
X-248256Y-25766D01*
X-247776Y-25047D01*
X-247608Y-24200D01*
X-247776Y-23353D01*
X-248256Y-22634D01*
X-248975Y-22154D01*
X-249791Y-21992D01*
X-249851Y-21899D01*
X-249989Y-21486D01*
X-249916Y-21414D01*
X-249822D01*
X-248975Y-21246D01*
X-248362Y-20836D01*
X-222949Y-46249D01*
X-222651Y-46448D01*
X-222300Y-46518D01*
X-185753D01*
X-185692Y-46664D01*
X-185164Y-47192D01*
X-184474Y-47478D01*
X-183726D01*
X-183036Y-47192D01*
X-182508Y-46664D01*
X-182222Y-45974D01*
Y-45226D01*
X-182508Y-44536D01*
X-183036Y-44008D01*
X-183726Y-43722D01*
X-184474D01*
X-185164Y-44008D01*
X-185692Y-44536D01*
X-185753Y-44682D01*
X-221920D01*
X-247565Y-19038D01*
X-247652Y-18980D01*
X-247776Y-18353D01*
X-248256Y-17634D01*
X-248975Y-17154D01*
X-249822Y-16986D01*
X-249860D01*
X-250056Y-16486D01*
X-249933Y-16372D01*
X-247650D01*
Y-12028D01*
X-250270D01*
X-250730Y-11838D01*
D02*
G37*
G36*
X-199026Y-48422D02*
X-199774D01*
X-200464Y-48708D01*
X-200992Y-49236D01*
X-201278Y-49926D01*
Y-50674D01*
X-200992Y-51364D01*
X-200464Y-51892D01*
X-199774Y-52178D01*
X-199026D01*
X-198336Y-51892D01*
X-197808Y-51364D01*
X-197522Y-50674D01*
Y-49926D01*
X-197808Y-49236D01*
X-198336Y-48708D01*
X-199026Y-48422D01*
D02*
G37*
G36*
X-205427D02*
X-206173D01*
X-206864Y-48708D01*
X-207392Y-49236D01*
X-207678Y-49926D01*
Y-50674D01*
X-207392Y-51364D01*
X-206864Y-51892D01*
X-206173Y-52178D01*
X-205427D01*
X-204736Y-51892D01*
X-204208Y-51364D01*
X-203922Y-50674D01*
Y-49926D01*
X-204208Y-49236D01*
X-204736Y-48708D01*
X-205427Y-48422D01*
D02*
G37*
G36*
X-301626D02*
X-302374D01*
X-303064Y-48708D01*
X-303592Y-49236D01*
X-303878Y-49926D01*
Y-50674D01*
X-303592Y-51364D01*
X-303064Y-51892D01*
X-302374Y-52178D01*
X-301626D01*
X-300936Y-51892D01*
X-300408Y-51364D01*
X-300122Y-50674D01*
Y-49926D01*
X-300408Y-49236D01*
X-300936Y-48708D01*
X-301626Y-48422D01*
D02*
G37*
G36*
X-7253Y-47308D02*
X-8147D01*
X-9009Y-47539D01*
X-9783Y-47986D01*
X-10414Y-48617D01*
X-10861Y-49391D01*
X-11092Y-50253D01*
Y-51147D01*
X-10861Y-52009D01*
X-10414Y-52783D01*
X-9783Y-53414D01*
X-9009Y-53861D01*
X-8147Y-54092D01*
X-7253D01*
X-6391Y-53861D01*
X-5617Y-53414D01*
X-4986Y-52783D01*
X-4539Y-52009D01*
X-4308Y-51147D01*
Y-50253D01*
X-4539Y-49391D01*
X-4986Y-48617D01*
X-5617Y-47986D01*
X-6391Y-47539D01*
X-7253Y-47308D01*
D02*
G37*
G36*
X-91826Y-50622D02*
X-92574D01*
X-93264Y-50908D01*
X-93792Y-51436D01*
X-94078Y-52126D01*
Y-52874D01*
X-93792Y-53564D01*
X-93264Y-54092D01*
X-92574Y-54378D01*
X-91826D01*
X-91136Y-54092D01*
X-90608Y-53564D01*
X-90322Y-52874D01*
Y-52126D01*
X-90608Y-51436D01*
X-91136Y-50908D01*
X-91826Y-50622D01*
D02*
G37*
G36*
X-103226Y-51537D02*
X-103973D01*
X-104664Y-51822D01*
X-105192Y-52351D01*
X-105478Y-53041D01*
Y-53788D01*
X-105192Y-54478D01*
X-104664Y-55006D01*
X-103973Y-55292D01*
X-103226D01*
X-102536Y-55006D01*
X-102008Y-54478D01*
X-101722Y-53788D01*
Y-53041D01*
X-102008Y-52351D01*
X-102536Y-51822D01*
X-103226Y-51537D01*
D02*
G37*
G36*
X-87126Y-52522D02*
X-87874D01*
X-88564Y-52808D01*
X-89092Y-53336D01*
X-89378Y-54026D01*
Y-54774D01*
X-89092Y-55464D01*
X-88564Y-55992D01*
X-87874Y-56278D01*
X-87126D01*
X-86436Y-55992D01*
X-85908Y-55464D01*
X-85622Y-54774D01*
Y-54026D01*
X-85908Y-53336D01*
X-86436Y-52808D01*
X-87126Y-52522D01*
D02*
G37*
G36*
X-199726Y-56922D02*
X-200474D01*
X-201164Y-57208D01*
X-201692Y-57736D01*
X-201978Y-58426D01*
Y-59174D01*
X-201692Y-59864D01*
X-201164Y-60392D01*
X-200474Y-60678D01*
X-199726D01*
X-199036Y-60392D01*
X-198508Y-59864D01*
X-198222Y-59174D01*
Y-58426D01*
X-198508Y-57736D01*
X-199036Y-57208D01*
X-199726Y-56922D01*
D02*
G37*
G36*
X-57426Y-59322D02*
X-58174D01*
X-58864Y-59608D01*
X-59392Y-60136D01*
X-59678Y-60826D01*
Y-61574D01*
X-59392Y-62264D01*
X-58864Y-62792D01*
X-58174Y-63078D01*
X-57426D01*
X-56736Y-62792D01*
X-56208Y-62264D01*
X-55922Y-61574D01*
Y-60826D01*
X-56208Y-60136D01*
X-56736Y-59608D01*
X-57426Y-59322D01*
D02*
G37*
G36*
X-7253Y-57308D02*
X-8147D01*
X-9009Y-57539D01*
X-9783Y-57986D01*
X-10414Y-58617D01*
X-10861Y-59391D01*
X-11092Y-60253D01*
Y-61147D01*
X-10861Y-62009D01*
X-10414Y-62783D01*
X-9783Y-63414D01*
X-9009Y-63861D01*
X-8147Y-64092D01*
X-7253D01*
X-6391Y-63861D01*
X-5617Y-63414D01*
X-4986Y-62783D01*
X-4539Y-62009D01*
X-4308Y-61147D01*
Y-60253D01*
X-4539Y-59391D01*
X-4986Y-58617D01*
X-5617Y-57986D01*
X-6391Y-57539D01*
X-7253Y-57308D01*
D02*
G37*
G36*
X-233826Y-60722D02*
X-234574D01*
X-235264Y-61008D01*
X-235792Y-61536D01*
X-236078Y-62226D01*
Y-62974D01*
X-235792Y-63664D01*
X-235264Y-64192D01*
X-234574Y-64478D01*
X-233826D01*
X-233136Y-64192D01*
X-232608Y-63664D01*
X-232322Y-62974D01*
Y-62226D01*
X-232608Y-61536D01*
X-233136Y-61008D01*
X-233826Y-60722D01*
D02*
G37*
G36*
X-125753Y-57903D02*
X-126647D01*
X-127509Y-58134D01*
X-128283Y-58581D01*
X-128914Y-59212D01*
X-129361Y-59986D01*
X-129592Y-60849D01*
Y-61742D01*
X-129361Y-62605D01*
X-128914Y-63378D01*
X-128283Y-64010D01*
X-127509Y-64456D01*
X-126647Y-64687D01*
X-125753D01*
X-124891Y-64456D01*
X-124117Y-64010D01*
X-123486Y-63378D01*
X-123039Y-62605D01*
X-122808Y-61742D01*
Y-60849D01*
X-123039Y-59986D01*
X-123486Y-59212D01*
X-124117Y-58581D01*
X-124891Y-58134D01*
X-125753Y-57903D01*
D02*
G37*
G36*
X-133708D02*
X-140492D01*
Y-64687D01*
X-133708D01*
Y-57903D01*
D02*
G37*
G36*
X-79026Y-61622D02*
X-79774D01*
X-80464Y-61908D01*
X-80992Y-62436D01*
X-81278Y-63126D01*
Y-63874D01*
X-80992Y-64564D01*
X-80464Y-65092D01*
X-79774Y-65378D01*
X-79026D01*
X-78336Y-65092D01*
X-77808Y-64564D01*
X-77522Y-63874D01*
Y-63126D01*
X-77808Y-62436D01*
X-78336Y-61908D01*
X-79026Y-61622D01*
D02*
G37*
G36*
X-230427Y-64722D02*
X-231173D01*
X-231864Y-65008D01*
X-232392Y-65536D01*
X-232678Y-66226D01*
Y-66974D01*
X-232392Y-67664D01*
X-231864Y-68192D01*
X-231173Y-68478D01*
X-230427D01*
X-229736Y-68192D01*
X-229208Y-67664D01*
X-228922Y-66974D01*
Y-66226D01*
X-229208Y-65536D01*
X-229736Y-65008D01*
X-230427Y-64722D01*
D02*
G37*
G36*
X-91326Y-65422D02*
X-92074D01*
X-92764Y-65708D01*
X-93292Y-66236D01*
X-93578Y-66926D01*
Y-67674D01*
X-93292Y-68364D01*
X-92764Y-68892D01*
X-92074Y-69178D01*
X-91326D01*
X-90636Y-68892D01*
X-90108Y-68364D01*
X-89822Y-67674D01*
Y-66926D01*
X-90108Y-66236D01*
X-90636Y-65708D01*
X-91326Y-65422D01*
D02*
G37*
G36*
X-70326Y-66622D02*
X-71074D01*
X-71764Y-66908D01*
X-72292Y-67436D01*
X-72578Y-68126D01*
Y-68874D01*
X-72292Y-69564D01*
X-71764Y-70092D01*
X-71074Y-70378D01*
X-70326D01*
X-69636Y-70092D01*
X-69108Y-69564D01*
X-68822Y-68874D01*
Y-68126D01*
X-69108Y-67436D01*
X-69636Y-66908D01*
X-70326Y-66622D01*
D02*
G37*
G36*
X-345700Y-67563D02*
X-345998Y-67622D01*
X-346074D01*
X-346143Y-67651D01*
X-346441Y-67710D01*
X-346694Y-67879D01*
X-346764Y-67908D01*
X-346817Y-67961D01*
X-347070Y-68130D01*
X-352870Y-73930D01*
X-353290Y-74559D01*
X-353437Y-75300D01*
Y-97200D01*
X-353378Y-97498D01*
Y-97574D01*
X-353349Y-97643D01*
X-353290Y-97941D01*
X-353121Y-98194D01*
X-353092Y-98264D01*
X-353039Y-98317D01*
X-352870Y-98570D01*
X-352617Y-98739D01*
X-352564Y-98792D01*
X-352494Y-98821D01*
X-352241Y-98990D01*
X-351943Y-99049D01*
X-351873Y-99078D01*
X-351798D01*
X-351500Y-99137D01*
X-351202Y-99078D01*
X-351127D01*
X-351057Y-99049D01*
X-350759Y-98990D01*
X-350506Y-98821D01*
X-350436Y-98792D01*
X-350383Y-98739D01*
X-350130Y-98570D01*
X-349961Y-98317D01*
X-349908Y-98264D01*
X-349879Y-98194D01*
X-349710Y-97941D01*
X-349651Y-97643D01*
X-349622Y-97574D01*
Y-97498D01*
X-349563Y-97200D01*
Y-76102D01*
X-344508Y-71048D01*
X-344464Y-71092D01*
X-343774Y-71378D01*
X-343026D01*
X-342336Y-71092D01*
X-341808Y-70564D01*
X-341522Y-69874D01*
Y-69126D01*
X-341808Y-68436D01*
X-342336Y-67908D01*
X-343026Y-67622D01*
X-343774D01*
X-344464Y-67908D01*
X-344544Y-67988D01*
X-344583Y-67961D01*
X-344636Y-67908D01*
X-344706Y-67879D01*
X-344959Y-67710D01*
X-345257Y-67651D01*
X-345326Y-67622D01*
X-345402D01*
X-345700Y-67563D01*
D02*
G37*
G36*
X-191426Y-68822D02*
X-192174D01*
X-192864Y-69108D01*
X-193392Y-69636D01*
X-193678Y-70326D01*
Y-71074D01*
X-193392Y-71764D01*
X-192864Y-72292D01*
X-192174Y-72578D01*
X-191426D01*
X-190736Y-72292D01*
X-190208Y-71764D01*
X-189922Y-71074D01*
Y-70326D01*
X-190208Y-69636D01*
X-190736Y-69108D01*
X-191426Y-68822D01*
D02*
G37*
G36*
X-293530Y-11838D02*
X-294470D01*
X-294930Y-12028D01*
X-297550D01*
Y-16372D01*
X-295373D01*
X-295168Y-16872D01*
X-295284Y-16986D01*
X-295378D01*
X-296225Y-17154D01*
X-296944Y-17634D01*
X-297424Y-18353D01*
X-297592Y-19200D01*
X-297424Y-20047D01*
X-296944Y-20766D01*
X-296225Y-21246D01*
X-295409Y-21408D01*
X-295349Y-21501D01*
X-295211Y-21914D01*
X-295284Y-21986D01*
X-295378D01*
X-296225Y-22154D01*
X-296944Y-22634D01*
X-297424Y-23353D01*
X-297592Y-24200D01*
X-297424Y-25047D01*
X-296944Y-25766D01*
X-296225Y-26246D01*
X-295378Y-26414D01*
X-294918D01*
Y-35000D01*
X-294848Y-35351D01*
X-294649Y-35649D01*
X-259517Y-70780D01*
X-259578Y-70926D01*
Y-71674D01*
X-259292Y-72364D01*
X-258764Y-72892D01*
X-258073Y-73178D01*
X-257327D01*
X-256636Y-72892D01*
X-256108Y-72364D01*
X-255822Y-71674D01*
Y-70926D01*
X-256108Y-70236D01*
X-256636Y-69708D01*
X-257327Y-69422D01*
X-258073D01*
X-258220Y-69483D01*
X-293082Y-34620D01*
Y-26414D01*
X-292622D01*
X-291775Y-26246D01*
X-291056Y-25766D01*
X-290576Y-25047D01*
X-290408Y-24200D01*
X-290576Y-23353D01*
X-291056Y-22634D01*
X-291775Y-22154D01*
X-292590Y-21992D01*
X-292651Y-21899D01*
X-292789Y-21486D01*
X-292716Y-21414D01*
X-292622D01*
X-291775Y-21246D01*
X-291056Y-20766D01*
X-290576Y-20047D01*
X-290408Y-19200D01*
X-290576Y-18353D01*
X-291056Y-17634D01*
X-291775Y-17154D01*
X-292622Y-16986D01*
X-292660D01*
X-292856Y-16486D01*
X-292733Y-16372D01*
X-290450D01*
Y-12028D01*
X-293070D01*
X-293530Y-11838D01*
D02*
G37*
G36*
X-48026Y-69622D02*
X-48774D01*
X-49464Y-69908D01*
X-49992Y-70436D01*
X-50278Y-71126D01*
Y-71874D01*
X-49992Y-72564D01*
X-49464Y-73092D01*
X-48774Y-73378D01*
X-48026D01*
X-47336Y-73092D01*
X-46808Y-72564D01*
X-46522Y-71874D01*
Y-71126D01*
X-46808Y-70436D01*
X-47336Y-69908D01*
X-48026Y-69622D01*
D02*
G37*
G36*
X-7253Y-67308D02*
X-8147D01*
X-9009Y-67539D01*
X-9783Y-67986D01*
X-10414Y-68617D01*
X-10861Y-69391D01*
X-11092Y-70253D01*
Y-71147D01*
X-10861Y-72009D01*
X-10414Y-72783D01*
X-9783Y-73414D01*
X-9009Y-73861D01*
X-8147Y-74092D01*
X-7253D01*
X-6391Y-73861D01*
X-5617Y-73414D01*
X-4986Y-72783D01*
X-4539Y-72009D01*
X-4308Y-71147D01*
Y-70253D01*
X-4539Y-69391D01*
X-4986Y-68617D01*
X-5617Y-67986D01*
X-6391Y-67539D01*
X-7253Y-67308D01*
D02*
G37*
G36*
X-125753Y-67903D02*
X-126647D01*
X-127509Y-68134D01*
X-128283Y-68581D01*
X-128914Y-69213D01*
X-129361Y-69986D01*
X-129592Y-70849D01*
Y-71742D01*
X-129361Y-72605D01*
X-128914Y-73378D01*
X-128283Y-74010D01*
X-127509Y-74456D01*
X-126647Y-74687D01*
X-125753D01*
X-124891Y-74456D01*
X-124117Y-74010D01*
X-123486Y-73378D01*
X-123039Y-72605D01*
X-122808Y-71742D01*
Y-70849D01*
X-123039Y-69986D01*
X-123486Y-69213D01*
X-124117Y-68581D01*
X-124891Y-68134D01*
X-125753Y-67903D01*
D02*
G37*
G36*
X-136653D02*
X-137547D01*
X-138409Y-68134D01*
X-139183Y-68581D01*
X-139814Y-69213D01*
X-140261Y-69986D01*
X-140492Y-70849D01*
Y-71742D01*
X-140261Y-72605D01*
X-139814Y-73378D01*
X-139183Y-74010D01*
X-138409Y-74456D01*
X-137547Y-74687D01*
X-136653D01*
X-135791Y-74456D01*
X-135017Y-74010D01*
X-134386Y-73378D01*
X-133939Y-72605D01*
X-133708Y-71742D01*
Y-70849D01*
X-133939Y-69986D01*
X-134386Y-69213D01*
X-135017Y-68581D01*
X-135791Y-68134D01*
X-136653Y-67903D01*
D02*
G37*
G36*
X-226626Y-72622D02*
X-227374D01*
X-228064Y-72908D01*
X-228592Y-73436D01*
X-228878Y-74126D01*
Y-74874D01*
X-228592Y-75564D01*
X-228064Y-76092D01*
X-227374Y-76378D01*
X-226626D01*
X-225936Y-76092D01*
X-225408Y-75564D01*
X-225122Y-74874D01*
Y-74126D01*
X-225408Y-73436D01*
X-225936Y-72908D01*
X-226626Y-72622D01*
D02*
G37*
G36*
X-388826Y-51522D02*
X-389574D01*
X-390264Y-51808D01*
X-390792Y-52336D01*
X-391078Y-53026D01*
Y-53774D01*
X-390792Y-54464D01*
X-390264Y-54992D01*
X-389574Y-55278D01*
X-388826D01*
X-388680Y-55217D01*
X-379600Y-64298D01*
Y-65018D01*
X-379530Y-65369D01*
X-379331Y-65667D01*
X-368949Y-76049D01*
X-368651Y-76248D01*
X-368300Y-76318D01*
X-365153D01*
X-365092Y-76464D01*
X-364564Y-76992D01*
X-363874Y-77278D01*
X-363126D01*
X-362436Y-76992D01*
X-361908Y-76464D01*
X-361622Y-75774D01*
Y-75026D01*
X-361908Y-74336D01*
X-362436Y-73808D01*
X-363126Y-73522D01*
X-363874D01*
X-364564Y-73808D01*
X-365092Y-74336D01*
X-365153Y-74482D01*
X-367920D01*
X-377764Y-64638D01*
Y-63918D01*
X-377834Y-63567D01*
X-378033Y-63269D01*
X-387383Y-53920D01*
X-387322Y-53774D01*
Y-53026D01*
X-387608Y-52336D01*
X-388136Y-51808D01*
X-388826Y-51522D01*
D02*
G37*
G36*
X-183826Y-74722D02*
X-184574D01*
X-185264Y-75008D01*
X-185792Y-75536D01*
X-186078Y-76226D01*
Y-76974D01*
X-185792Y-77664D01*
X-185264Y-78192D01*
X-184574Y-78478D01*
X-183826D01*
X-183136Y-78192D01*
X-182608Y-77664D01*
X-182322Y-76974D01*
Y-76226D01*
X-182608Y-75536D01*
X-183136Y-75008D01*
X-183826Y-74722D01*
D02*
G37*
G36*
X-222026Y-76522D02*
X-222774D01*
X-223464Y-76808D01*
X-223992Y-77336D01*
X-224278Y-78026D01*
Y-78774D01*
X-223992Y-79464D01*
X-223464Y-79992D01*
X-222774Y-80278D01*
X-222026D01*
X-221336Y-79992D01*
X-220808Y-79464D01*
X-220522Y-78774D01*
Y-78026D01*
X-220808Y-77336D01*
X-221336Y-76808D01*
X-222026Y-76522D01*
D02*
G37*
G36*
X-60026Y-78122D02*
X-60774D01*
X-61464Y-78408D01*
X-61992Y-78936D01*
X-62278Y-79626D01*
Y-80374D01*
X-61992Y-81064D01*
X-61464Y-81592D01*
X-60774Y-81878D01*
X-60026D01*
X-59336Y-81592D01*
X-58808Y-81064D01*
X-58522Y-80374D01*
Y-79626D01*
X-58808Y-78936D01*
X-59336Y-78408D01*
X-60026Y-78122D01*
D02*
G37*
G36*
X-217726Y-80222D02*
X-218474D01*
X-219164Y-80508D01*
X-219692Y-81036D01*
X-219978Y-81726D01*
Y-82474D01*
X-219692Y-83164D01*
X-219164Y-83692D01*
X-218474Y-83978D01*
X-217726D01*
X-217036Y-83692D01*
X-216508Y-83164D01*
X-216222Y-82474D01*
Y-81726D01*
X-216508Y-81036D01*
X-217036Y-80508D01*
X-217726Y-80222D01*
D02*
G37*
G36*
X-7253Y-77308D02*
X-8147D01*
X-9009Y-77539D01*
X-9783Y-77986D01*
X-10414Y-78617D01*
X-10861Y-79391D01*
X-11092Y-80253D01*
Y-81147D01*
X-10861Y-82009D01*
X-10414Y-82783D01*
X-9783Y-83414D01*
X-9009Y-83861D01*
X-8147Y-84092D01*
X-7253D01*
X-6391Y-83861D01*
X-5617Y-83414D01*
X-4986Y-82783D01*
X-4539Y-82009D01*
X-4308Y-81147D01*
Y-80253D01*
X-4539Y-79391D01*
X-4986Y-78617D01*
X-5617Y-77986D01*
X-6391Y-77539D01*
X-7253Y-77308D01*
D02*
G37*
G36*
X-136653Y-77903D02*
X-137547D01*
X-138409Y-78134D01*
X-139183Y-78581D01*
X-139814Y-79212D01*
X-140261Y-79986D01*
X-140492Y-80849D01*
Y-81742D01*
X-140261Y-82605D01*
X-139814Y-83378D01*
X-139183Y-84010D01*
X-138409Y-84456D01*
X-137547Y-84687D01*
X-136653D01*
X-135791Y-84456D01*
X-135017Y-84010D01*
X-134386Y-83378D01*
X-133939Y-82605D01*
X-133708Y-81742D01*
Y-80849D01*
X-133939Y-79986D01*
X-134386Y-79212D01*
X-135017Y-78581D01*
X-135791Y-78134D01*
X-136653Y-77903D01*
D02*
G37*
G36*
X-46726Y-81422D02*
X-47474D01*
X-48164Y-81708D01*
X-48692Y-82236D01*
X-48978Y-82926D01*
Y-83674D01*
X-48692Y-84364D01*
X-48164Y-84892D01*
X-47474Y-85178D01*
X-46726D01*
X-46036Y-84892D01*
X-45508Y-84364D01*
X-45222Y-83674D01*
Y-82926D01*
X-45508Y-82236D01*
X-46036Y-81708D01*
X-46726Y-81422D01*
D02*
G37*
G36*
X-42026Y-83122D02*
X-42774D01*
X-43464Y-83408D01*
X-43992Y-83936D01*
X-44278Y-84626D01*
Y-85374D01*
X-43992Y-86064D01*
X-43464Y-86592D01*
X-42774Y-86878D01*
X-42026D01*
X-41336Y-86592D01*
X-40808Y-86064D01*
X-40522Y-85374D01*
Y-84626D01*
X-40808Y-83936D01*
X-41336Y-83408D01*
X-42026Y-83122D01*
D02*
G37*
G36*
X-330027Y-85522D02*
X-330773D01*
X-331464Y-85808D01*
X-331992Y-86336D01*
X-332278Y-87026D01*
Y-87774D01*
X-332448Y-88028D01*
X-336355D01*
X-336355Y-88028D01*
X-336902Y-88137D01*
X-337365Y-88446D01*
X-337365Y-88446D01*
X-346041Y-97122D01*
X-346273D01*
X-346964Y-97408D01*
X-347492Y-97936D01*
X-347778Y-98626D01*
Y-99374D01*
X-347492Y-100064D01*
X-346964Y-100592D01*
X-346273Y-100878D01*
X-345527D01*
X-344836Y-100592D01*
X-344308Y-100064D01*
X-344022Y-99374D01*
Y-99141D01*
X-335764Y-90883D01*
X-331773D01*
X-331464Y-91192D01*
X-330773Y-91478D01*
X-330027D01*
X-329336Y-91192D01*
X-328808Y-90664D01*
X-328522Y-89974D01*
Y-89226D01*
X-328808Y-88536D01*
X-328844Y-88500D01*
X-328808Y-88464D01*
X-328522Y-87774D01*
Y-87026D01*
X-328808Y-86336D01*
X-329336Y-85808D01*
X-330027Y-85522D01*
D02*
G37*
G36*
X-213826Y-84422D02*
X-214574D01*
X-215264Y-84708D01*
X-215792Y-85236D01*
X-216078Y-85926D01*
Y-86674D01*
X-215792Y-87364D01*
X-215264Y-87892D01*
X-214574Y-88178D01*
X-213826D01*
X-213136Y-87892D01*
X-212608Y-87364D01*
X-212322Y-86674D01*
Y-85926D01*
X-212608Y-85236D01*
X-213136Y-84708D01*
X-213826Y-84422D01*
D02*
G37*
G36*
X-167326Y-84622D02*
X-168074D01*
X-168764Y-84908D01*
X-169292Y-85436D01*
X-169578Y-86126D01*
Y-86874D01*
X-169292Y-87564D01*
X-168764Y-88092D01*
X-168074Y-88378D01*
X-167326D01*
X-166636Y-88092D01*
X-166108Y-87564D01*
X-165822Y-86874D01*
Y-86126D01*
X-166108Y-85436D01*
X-166636Y-84908D01*
X-167326Y-84622D01*
D02*
G37*
G36*
X-29226Y-86122D02*
X-29974D01*
X-30664Y-86408D01*
X-31192Y-86936D01*
X-31478Y-87626D01*
Y-88374D01*
X-31192Y-89064D01*
X-30664Y-89592D01*
X-29974Y-89878D01*
X-29226D01*
X-28536Y-89592D01*
X-28008Y-89064D01*
X-27722Y-88374D01*
Y-87626D01*
X-28008Y-86936D01*
X-28536Y-86408D01*
X-29226Y-86122D01*
D02*
G37*
G36*
X-100926Y-88522D02*
X-101674D01*
X-102364Y-88808D01*
X-102892Y-89336D01*
X-103178Y-90026D01*
Y-90774D01*
X-102892Y-91464D01*
X-102364Y-91992D01*
X-101674Y-92278D01*
X-100926D01*
X-100236Y-91992D01*
X-99708Y-91464D01*
X-99422Y-90774D01*
Y-90026D01*
X-99708Y-89336D01*
X-100236Y-88808D01*
X-100926Y-88522D01*
D02*
G37*
G36*
X-41826Y-89222D02*
X-42574D01*
X-43264Y-89508D01*
X-43792Y-90036D01*
X-44078Y-90726D01*
Y-91474D01*
X-43792Y-92164D01*
X-43264Y-92692D01*
X-42574Y-92978D01*
X-41826D01*
X-41136Y-92692D01*
X-40608Y-92164D01*
X-40322Y-91474D01*
Y-90726D01*
X-40608Y-90036D01*
X-41136Y-89508D01*
X-41826Y-89222D01*
D02*
G37*
G36*
X-7253Y-87308D02*
X-8147D01*
X-9009Y-87539D01*
X-9783Y-87986D01*
X-10414Y-88617D01*
X-10861Y-89391D01*
X-11092Y-90253D01*
Y-91147D01*
X-10861Y-92009D01*
X-10414Y-92783D01*
X-9783Y-93414D01*
X-9009Y-93861D01*
X-8147Y-94092D01*
X-7253D01*
X-6391Y-93861D01*
X-5617Y-93414D01*
X-4986Y-92783D01*
X-4539Y-92009D01*
X-4308Y-91147D01*
Y-90253D01*
X-4539Y-89391D01*
X-4986Y-88617D01*
X-5617Y-87986D01*
X-6391Y-87539D01*
X-7253Y-87308D01*
D02*
G37*
G36*
X-122808Y-87903D02*
X-129592D01*
Y-94687D01*
X-122808D01*
Y-87903D01*
D02*
G37*
G36*
X-136653D02*
X-137547D01*
X-138409Y-88134D01*
X-139183Y-88581D01*
X-139814Y-89213D01*
X-140261Y-89986D01*
X-140492Y-90849D01*
Y-91742D01*
X-140261Y-92605D01*
X-139814Y-93378D01*
X-139183Y-94010D01*
X-138409Y-94456D01*
X-137547Y-94687D01*
X-136653D01*
X-135791Y-94456D01*
X-135017Y-94010D01*
X-134386Y-93378D01*
X-133939Y-92605D01*
X-133708Y-91742D01*
Y-90849D01*
X-133939Y-89986D01*
X-134386Y-89213D01*
X-135017Y-88581D01*
X-135791Y-88134D01*
X-136653Y-87903D01*
D02*
G37*
G36*
X-58026Y-92022D02*
X-58774D01*
X-59464Y-92308D01*
X-59992Y-92836D01*
X-60278Y-93526D01*
Y-94274D01*
X-59992Y-94964D01*
X-59464Y-95492D01*
X-58774Y-95778D01*
X-58026D01*
X-57336Y-95492D01*
X-56808Y-94964D01*
X-56522Y-94274D01*
Y-93526D01*
X-56808Y-92836D01*
X-57336Y-92308D01*
X-58026Y-92022D01*
D02*
G37*
G36*
X-80526D02*
X-81274D01*
X-81964Y-92308D01*
X-82492Y-92836D01*
X-82778Y-93526D01*
Y-94274D01*
X-82492Y-94964D01*
X-81964Y-95492D01*
X-81274Y-95778D01*
X-80526D01*
X-79836Y-95492D01*
X-79308Y-94964D01*
X-79022Y-94274D01*
Y-93526D01*
X-79308Y-92836D01*
X-79836Y-92308D01*
X-80526Y-92022D01*
D02*
G37*
G36*
X-23526Y-94500D02*
X-24274D01*
X-24964Y-94786D01*
X-25492Y-95314D01*
X-25778Y-96004D01*
Y-96751D01*
X-25492Y-97442D01*
X-24964Y-97970D01*
X-24274Y-98256D01*
X-23526D01*
X-22836Y-97970D01*
X-22308Y-97442D01*
X-22022Y-96751D01*
Y-96004D01*
X-22308Y-95314D01*
X-22836Y-94786D01*
X-23526Y-94500D01*
D02*
G37*
G36*
X-370529Y-79363D02*
X-371671D01*
X-372774Y-79659D01*
X-373763Y-80230D01*
X-374570Y-81037D01*
X-375141Y-82026D01*
X-375437Y-83129D01*
Y-84271D01*
X-375141Y-85374D01*
X-374570Y-86363D01*
X-373763Y-87170D01*
X-372774Y-87741D01*
X-372018Y-87944D01*
Y-95900D01*
X-371948Y-96251D01*
X-371749Y-96549D01*
X-369717Y-98580D01*
X-369778Y-98726D01*
Y-99474D01*
X-369492Y-100164D01*
X-368964Y-100692D01*
X-368273Y-100978D01*
X-367527D01*
X-366836Y-100692D01*
X-366308Y-100164D01*
X-366022Y-99474D01*
Y-98726D01*
X-366308Y-98036D01*
X-366836Y-97508D01*
X-367527Y-97222D01*
X-368273D01*
X-368420Y-97283D01*
X-370182Y-95520D01*
Y-87944D01*
X-369426Y-87741D01*
X-368437Y-87170D01*
X-367630Y-86363D01*
X-367059Y-85374D01*
X-366763Y-84271D01*
Y-83129D01*
X-367059Y-82026D01*
X-367630Y-81037D01*
X-368437Y-80230D01*
X-369426Y-79659D01*
X-370529Y-79363D01*
D02*
G37*
G36*
X-4308Y-97308D02*
X-11092D01*
Y-104092D01*
X-4308D01*
Y-97308D01*
D02*
G37*
G36*
X-72076Y-100872D02*
X-72824D01*
X-73514Y-101158D01*
X-74042Y-101686D01*
X-74328Y-102376D01*
Y-103124D01*
X-74042Y-103814D01*
X-73514Y-104342D01*
X-72824Y-104628D01*
X-72076D01*
X-71386Y-104342D01*
X-70858Y-103814D01*
X-70572Y-103124D01*
Y-102376D01*
X-70858Y-101686D01*
X-71386Y-101158D01*
X-72076Y-100872D01*
D02*
G37*
G36*
X-136653Y-97903D02*
X-137547D01*
X-138409Y-98134D01*
X-139183Y-98581D01*
X-139814Y-99212D01*
X-140261Y-99986D01*
X-140492Y-100849D01*
Y-101742D01*
X-140261Y-102605D01*
X-139814Y-103378D01*
X-139183Y-104010D01*
X-138409Y-104456D01*
X-137547Y-104687D01*
X-136653D01*
X-135791Y-104456D01*
X-135017Y-104010D01*
X-134386Y-103378D01*
X-133939Y-102605D01*
X-133708Y-101742D01*
Y-100849D01*
X-133939Y-99986D01*
X-134386Y-99212D01*
X-135017Y-98581D01*
X-135791Y-98134D01*
X-136653Y-97903D01*
D02*
G37*
G36*
X-63726Y-104722D02*
X-64474D01*
X-65164Y-105008D01*
X-65692Y-105536D01*
X-65978Y-106226D01*
Y-106974D01*
X-65692Y-107664D01*
X-65164Y-108192D01*
X-64474Y-108478D01*
X-63726D01*
X-63036Y-108192D01*
X-62508Y-107664D01*
X-62222Y-106974D01*
Y-106226D01*
X-62508Y-105536D01*
X-63036Y-105008D01*
X-63726Y-104722D01*
D02*
G37*
G36*
X-303600Y-100208D02*
X-334100D01*
X-334939Y-100375D01*
X-335650Y-100850D01*
X-345508Y-110708D01*
X-348992D01*
X-350944Y-108756D01*
X-351655Y-108281D01*
X-352494Y-108114D01*
X-373339D01*
X-374178Y-108281D01*
X-374889Y-108756D01*
X-375365Y-109467D01*
X-375531Y-110306D01*
X-375365Y-111145D01*
X-374889Y-111856D01*
X-374178Y-112332D01*
X-373339Y-112498D01*
X-353402D01*
X-351450Y-114450D01*
X-350739Y-114925D01*
X-349900Y-115092D01*
X-344600D01*
X-343761Y-114925D01*
X-343050Y-114450D01*
X-333192Y-104592D01*
X-304508D01*
X-300850Y-108250D01*
X-300139Y-108725D01*
X-299300Y-108892D01*
X-298461Y-108725D01*
X-297750Y-108250D01*
X-297437Y-108219D01*
X-297364Y-108292D01*
X-296673Y-108578D01*
X-295926D01*
X-295236Y-108292D01*
X-294708Y-107764D01*
X-294422Y-107074D01*
Y-106326D01*
X-294708Y-105636D01*
X-295236Y-105108D01*
X-295926Y-104822D01*
X-296673D01*
X-297364Y-105108D01*
X-297873Y-105027D01*
X-302050Y-100850D01*
X-302761Y-100375D01*
X-303600Y-100208D01*
D02*
G37*
G36*
X-72526Y-108022D02*
X-73274D01*
X-73964Y-108308D01*
X-74492Y-108836D01*
X-74778Y-109526D01*
Y-110274D01*
X-74492Y-110964D01*
X-73964Y-111492D01*
X-73274Y-111778D01*
X-72526D01*
X-71836Y-111492D01*
X-71308Y-110964D01*
X-71022Y-110274D01*
Y-109526D01*
X-71308Y-108836D01*
X-71836Y-108308D01*
X-72526Y-108022D01*
D02*
G37*
G36*
X-265179Y-115302D02*
X-266118D01*
X-266987Y-115662D01*
X-267651Y-116326D01*
X-268011Y-117194D01*
Y-118134D01*
X-267651Y-119002D01*
X-266987Y-119667D01*
X-266118Y-120026D01*
X-265179D01*
X-264310Y-119667D01*
X-263646Y-119002D01*
X-263286Y-118134D01*
Y-117194D01*
X-263646Y-116326D01*
X-264310Y-115662D01*
X-265179Y-115302D01*
D02*
G37*
G36*
X-287935D02*
X-288874D01*
X-289743Y-115662D01*
X-290407Y-116326D01*
X-290767Y-117194D01*
Y-118134D01*
X-290407Y-119002D01*
X-289743Y-119667D01*
X-288874Y-120026D01*
X-287935D01*
X-287066Y-119667D01*
X-286402Y-119002D01*
X-286042Y-118134D01*
Y-117194D01*
X-286402Y-116326D01*
X-287066Y-115662D01*
X-287935Y-115302D01*
D02*
G37*
G36*
X-326526Y-109422D02*
X-327274D01*
X-327964Y-109708D01*
X-328492Y-110236D01*
X-328778Y-110926D01*
Y-111674D01*
X-328492Y-112364D01*
X-328419Y-112437D01*
X-328450Y-112750D01*
X-328925Y-113461D01*
X-329092Y-114300D01*
X-328925Y-115139D01*
X-328450Y-115850D01*
X-327739Y-116325D01*
X-326900Y-116492D01*
X-321108D01*
X-319866Y-117734D01*
Y-126379D01*
X-320395Y-126908D01*
X-320842Y-127683D01*
X-321074Y-128548D01*
Y-129443D01*
X-320842Y-130308D01*
X-320395Y-131083D01*
X-319762Y-131716D01*
X-318986Y-132164D01*
X-318122Y-132395D01*
X-317226D01*
X-316362Y-132164D01*
X-315586Y-131716D01*
X-314953Y-131083D01*
X-314506Y-130308D01*
X-314274Y-129443D01*
Y-128548D01*
X-314506Y-127683D01*
X-314953Y-126908D01*
X-315482Y-126379D01*
Y-117744D01*
X-309101D01*
X-308571Y-118663D01*
X-307763Y-119471D01*
X-306774Y-120041D01*
X-305671Y-120337D01*
X-304529D01*
X-303426Y-120041D01*
X-302437Y-119471D01*
X-301629Y-118663D01*
X-301059Y-117674D01*
X-300763Y-116571D01*
Y-115429D01*
X-301059Y-114326D01*
X-301629Y-113337D01*
X-302437Y-112530D01*
X-303426Y-111959D01*
X-304529Y-111663D01*
X-305671D01*
X-306774Y-111959D01*
X-307763Y-112530D01*
X-308571Y-113337D01*
X-309141Y-114326D01*
X-309437Y-115429D01*
Y-115908D01*
X-315701D01*
X-316124Y-115276D01*
X-318650Y-112750D01*
X-319361Y-112275D01*
X-320200Y-112108D01*
X-324752D01*
X-325030Y-111692D01*
X-325022Y-111674D01*
Y-110926D01*
X-325308Y-110236D01*
X-325836Y-109708D01*
X-326526Y-109422D01*
D02*
G37*
G36*
X-113250Y-115350D02*
X-120350D01*
Y-122450D01*
X-113250D01*
Y-115350D01*
D02*
G37*
G36*
X-126333D02*
X-127267D01*
X-128170Y-115592D01*
X-128980Y-116060D01*
X-129640Y-116720D01*
X-130108Y-117530D01*
X-130350Y-118433D01*
Y-119367D01*
X-130108Y-120270D01*
X-129640Y-121080D01*
X-128980Y-121740D01*
X-128170Y-122208D01*
X-127267Y-122450D01*
X-126333D01*
X-125430Y-122208D01*
X-124620Y-121740D01*
X-123960Y-121080D01*
X-123492Y-120270D01*
X-123250Y-119367D01*
Y-118433D01*
X-123492Y-117530D01*
X-123960Y-116720D01*
X-124620Y-116060D01*
X-125430Y-115592D01*
X-126333Y-115350D01*
D02*
G37*
G36*
X-136333D02*
X-137267D01*
X-138170Y-115592D01*
X-138979Y-116060D01*
X-139640Y-116720D01*
X-140108Y-117530D01*
X-140350Y-118433D01*
Y-119367D01*
X-140108Y-120270D01*
X-139640Y-121080D01*
X-138979Y-121740D01*
X-138170Y-122208D01*
X-137267Y-122450D01*
X-136333D01*
X-135430Y-122208D01*
X-134620Y-121740D01*
X-133960Y-121080D01*
X-133492Y-120270D01*
X-133250Y-119367D01*
Y-118433D01*
X-133492Y-117530D01*
X-133960Y-116720D01*
X-134620Y-116060D01*
X-135430Y-115592D01*
X-136333Y-115350D01*
D02*
G37*
G36*
X-309352Y-125595D02*
X-310248D01*
X-311112Y-125827D01*
X-311888Y-126275D01*
X-312521Y-126908D01*
X-312968Y-127683D01*
X-313200Y-128548D01*
Y-129443D01*
X-312968Y-130308D01*
X-312521Y-131083D01*
X-311888Y-131716D01*
X-311112Y-132164D01*
X-310248Y-132395D01*
X-309352D01*
X-308488Y-132164D01*
X-307712Y-131716D01*
X-307079Y-131083D01*
X-306632Y-130308D01*
X-306400Y-129443D01*
Y-128548D01*
X-306632Y-127683D01*
X-307079Y-126908D01*
X-307712Y-126275D01*
X-308488Y-125827D01*
X-309352Y-125595D01*
D02*
G37*
G36*
X-325100D02*
X-325996D01*
X-326860Y-125827D01*
X-327636Y-126275D01*
X-328269Y-126908D01*
X-328716Y-127683D01*
X-328948Y-128548D01*
Y-129443D01*
X-328716Y-130308D01*
X-328269Y-131083D01*
X-327636Y-131716D01*
X-326860Y-132164D01*
X-325996Y-132395D01*
X-325100D01*
X-324236Y-132164D01*
X-323460Y-131716D01*
X-322827Y-131083D01*
X-322380Y-130308D01*
X-322148Y-129443D01*
Y-128548D01*
X-322380Y-127683D01*
X-322827Y-126908D01*
X-323460Y-126275D01*
X-324236Y-125827D01*
X-325100Y-125595D01*
D02*
G37*
G36*
X-116333Y-125350D02*
X-117267D01*
X-118170Y-125592D01*
X-118980Y-126060D01*
X-119640Y-126720D01*
X-120108Y-127530D01*
X-120350Y-128433D01*
Y-129367D01*
X-120108Y-130270D01*
X-119640Y-131079D01*
X-118980Y-131740D01*
X-118170Y-132208D01*
X-117267Y-132450D01*
X-116333D01*
X-115430Y-132208D01*
X-114620Y-131740D01*
X-113960Y-131079D01*
X-113492Y-130270D01*
X-113250Y-129367D01*
Y-128433D01*
X-113492Y-127530D01*
X-113960Y-126720D01*
X-114620Y-126060D01*
X-115430Y-125592D01*
X-116333Y-125350D01*
D02*
G37*
G36*
X-126333D02*
X-127267D01*
X-128170Y-125592D01*
X-128980Y-126060D01*
X-129640Y-126720D01*
X-130108Y-127530D01*
X-130350Y-128433D01*
Y-129367D01*
X-130108Y-130270D01*
X-129640Y-131079D01*
X-128980Y-131740D01*
X-128170Y-132208D01*
X-127267Y-132450D01*
X-126333D01*
X-125430Y-132208D01*
X-124620Y-131740D01*
X-123960Y-131079D01*
X-123492Y-130270D01*
X-123250Y-129367D01*
Y-128433D01*
X-123492Y-127530D01*
X-123960Y-126720D01*
X-124620Y-126060D01*
X-125430Y-125592D01*
X-126333Y-125350D01*
D02*
G37*
G36*
X-154753Y-125703D02*
X-155647D01*
X-156509Y-125934D01*
X-157283Y-126381D01*
X-157914Y-127013D01*
X-158361Y-127786D01*
X-158592Y-128649D01*
Y-129542D01*
X-158361Y-130405D01*
X-157914Y-131178D01*
X-157283Y-131810D01*
X-156509Y-132256D01*
X-155647Y-132487D01*
X-154753D01*
X-153891Y-132256D01*
X-153117Y-131810D01*
X-152486Y-131178D01*
X-152039Y-130405D01*
X-151808Y-129542D01*
Y-128649D01*
X-152039Y-127786D01*
X-152486Y-127013D01*
X-153117Y-126381D01*
X-153891Y-125934D01*
X-154753Y-125703D01*
D02*
G37*
G36*
X-164753D02*
X-165647D01*
X-166509Y-125934D01*
X-167283Y-126381D01*
X-167914Y-127013D01*
X-168361Y-127786D01*
X-168592Y-128649D01*
Y-129542D01*
X-168361Y-130405D01*
X-167914Y-131178D01*
X-167283Y-131810D01*
X-166509Y-132256D01*
X-165647Y-132487D01*
X-164753D01*
X-163891Y-132256D01*
X-163117Y-131810D01*
X-162486Y-131178D01*
X-162039Y-130405D01*
X-161808Y-129542D01*
Y-128649D01*
X-162039Y-127786D01*
X-162486Y-127013D01*
X-163117Y-126381D01*
X-163891Y-125934D01*
X-164753Y-125703D01*
D02*
G37*
G36*
X-174753D02*
X-175647D01*
X-176509Y-125934D01*
X-177283Y-126381D01*
X-177914Y-127013D01*
X-178361Y-127786D01*
X-178592Y-128649D01*
Y-129542D01*
X-178361Y-130405D01*
X-177914Y-131178D01*
X-177283Y-131810D01*
X-176509Y-132256D01*
X-175647Y-132487D01*
X-174753D01*
X-173891Y-132256D01*
X-173117Y-131810D01*
X-172486Y-131178D01*
X-172039Y-130405D01*
X-171808Y-129542D01*
Y-128649D01*
X-172039Y-127786D01*
X-172486Y-127013D01*
X-173117Y-126381D01*
X-173891Y-125934D01*
X-174753Y-125703D01*
D02*
G37*
G36*
X-184753D02*
X-185647D01*
X-186509Y-125934D01*
X-187283Y-126381D01*
X-187914Y-127013D01*
X-188361Y-127786D01*
X-188592Y-128649D01*
Y-129542D01*
X-188361Y-130405D01*
X-187914Y-131178D01*
X-187283Y-131810D01*
X-186509Y-132256D01*
X-185647Y-132487D01*
X-184753D01*
X-183891Y-132256D01*
X-183117Y-131810D01*
X-182486Y-131178D01*
X-182039Y-130405D01*
X-181808Y-129542D01*
Y-128649D01*
X-182039Y-127786D01*
X-182486Y-127013D01*
X-183117Y-126381D01*
X-183891Y-125934D01*
X-184753Y-125703D01*
D02*
G37*
G36*
X-194753D02*
X-195647D01*
X-196509Y-125934D01*
X-197283Y-126381D01*
X-197914Y-127013D01*
X-198361Y-127786D01*
X-198592Y-128649D01*
Y-129542D01*
X-198361Y-130405D01*
X-197914Y-131178D01*
X-197283Y-131810D01*
X-196509Y-132256D01*
X-195647Y-132487D01*
X-194753D01*
X-193891Y-132256D01*
X-193117Y-131810D01*
X-192486Y-131178D01*
X-192039Y-130405D01*
X-191808Y-129542D01*
Y-128649D01*
X-192039Y-127786D01*
X-192486Y-127013D01*
X-193117Y-126381D01*
X-193891Y-125934D01*
X-194753Y-125703D01*
D02*
G37*
G36*
X-204753D02*
X-205647D01*
X-206509Y-125934D01*
X-207283Y-126381D01*
X-207914Y-127013D01*
X-208361Y-127786D01*
X-208592Y-128649D01*
Y-129542D01*
X-208361Y-130405D01*
X-207914Y-131178D01*
X-207283Y-131810D01*
X-206509Y-132256D01*
X-205647Y-132487D01*
X-204753D01*
X-203891Y-132256D01*
X-203117Y-131810D01*
X-202486Y-131178D01*
X-202039Y-130405D01*
X-201808Y-129542D01*
Y-128649D01*
X-202039Y-127786D01*
X-202486Y-127013D01*
X-203117Y-126381D01*
X-203891Y-125934D01*
X-204753Y-125703D01*
D02*
G37*
G36*
X-214753D02*
X-215647D01*
X-216509Y-125934D01*
X-217283Y-126381D01*
X-217914Y-127013D01*
X-218361Y-127786D01*
X-218592Y-128649D01*
Y-129542D01*
X-218361Y-130405D01*
X-217914Y-131178D01*
X-217283Y-131810D01*
X-216509Y-132256D01*
X-215647Y-132487D01*
X-214753D01*
X-213891Y-132256D01*
X-213117Y-131810D01*
X-212486Y-131178D01*
X-212039Y-130405D01*
X-211808Y-129542D01*
Y-128649D01*
X-212039Y-127786D01*
X-212486Y-127013D01*
X-213117Y-126381D01*
X-213891Y-125934D01*
X-214753Y-125703D01*
D02*
G37*
G36*
X-224753D02*
X-225647D01*
X-226509Y-125934D01*
X-227283Y-126381D01*
X-227914Y-127013D01*
X-228361Y-127786D01*
X-228592Y-128649D01*
Y-129542D01*
X-228361Y-130405D01*
X-227914Y-131178D01*
X-227283Y-131810D01*
X-226509Y-132256D01*
X-225647Y-132487D01*
X-224753D01*
X-223891Y-132256D01*
X-223117Y-131810D01*
X-222486Y-131178D01*
X-222039Y-130405D01*
X-221808Y-129542D01*
Y-128649D01*
X-222039Y-127786D01*
X-222486Y-127013D01*
X-223117Y-126381D01*
X-223891Y-125934D01*
X-224753Y-125703D01*
D02*
G37*
G36*
X-234753D02*
X-235647D01*
X-236509Y-125934D01*
X-237283Y-126381D01*
X-237914Y-127013D01*
X-238361Y-127786D01*
X-238592Y-128649D01*
Y-129542D01*
X-238361Y-130405D01*
X-237914Y-131178D01*
X-237283Y-131810D01*
X-236509Y-132256D01*
X-235647Y-132487D01*
X-234753D01*
X-233891Y-132256D01*
X-233117Y-131810D01*
X-232486Y-131178D01*
X-232039Y-130405D01*
X-231808Y-129542D01*
Y-128649D01*
X-232039Y-127786D01*
X-232486Y-127013D01*
X-233117Y-126381D01*
X-233891Y-125934D01*
X-234753Y-125703D01*
D02*
G37*
G36*
X-241808D02*
X-248592D01*
Y-132487D01*
X-241808D01*
Y-125703D01*
D02*
G37*
G36*
X-11811Y-118750D02*
X-13222Y-118889D01*
X-14579Y-119301D01*
X-15830Y-119969D01*
X-16926Y-120869D01*
X-17826Y-121965D01*
X-18494Y-123216D01*
X-18906Y-124573D01*
X-19045Y-125984D01*
X-18906Y-127396D01*
X-18494Y-128753D01*
X-17826Y-130003D01*
X-16926Y-131099D01*
X-15830Y-131999D01*
X-14579Y-132668D01*
X-13222Y-133079D01*
X-11811Y-133218D01*
X-10400Y-133079D01*
X-9043Y-132668D01*
X-7792Y-131999D01*
X-6696Y-131099D01*
X-5796Y-130003D01*
X-5128Y-128753D01*
X-4716Y-127396D01*
X-4577Y-125984D01*
X-4716Y-124573D01*
X-5128Y-123216D01*
X-5796Y-121965D01*
X-6696Y-120869D01*
X-7792Y-119969D01*
X-9043Y-119301D01*
X-10400Y-118889D01*
X-11811Y-118750D01*
D02*
G37*
G36*
X-381889D02*
X-383300Y-118889D01*
X-384657Y-119301D01*
X-385908Y-119969D01*
X-387004Y-120869D01*
X-387904Y-121965D01*
X-388572Y-123216D01*
X-388984Y-124573D01*
X-389123Y-125984D01*
X-388984Y-127396D01*
X-388572Y-128753D01*
X-387904Y-130003D01*
X-387004Y-131099D01*
X-385908Y-131999D01*
X-384657Y-132668D01*
X-383300Y-133079D01*
X-381889Y-133218D01*
X-380478Y-133079D01*
X-379121Y-132668D01*
X-377870Y-131999D01*
X-376774Y-131099D01*
X-375874Y-130003D01*
X-375206Y-128753D01*
X-374794Y-127396D01*
X-374655Y-125984D01*
X-374794Y-124573D01*
X-375206Y-123216D01*
X-375874Y-121965D01*
X-376774Y-120869D01*
X-377870Y-119969D01*
X-379121Y-119301D01*
X-380478Y-118889D01*
X-381889Y-118750D01*
D02*
G37*
G36*
X-301336Y-124237D02*
X-302160Y-124346D01*
X-302927Y-124664D01*
X-303587Y-125170D01*
X-304093Y-125829D01*
X-304411Y-126597D01*
X-304519Y-127420D01*
Y-130570D01*
X-304411Y-131394D01*
X-304093Y-132162D01*
X-303587Y-132821D01*
X-302927Y-133327D01*
X-302160Y-133645D01*
X-301336Y-133753D01*
X-300512Y-133645D01*
X-299744Y-133327D01*
X-299085Y-132821D01*
X-298579Y-132162D01*
X-298261Y-131394D01*
X-298153Y-130570D01*
Y-127420D01*
X-298261Y-126597D01*
X-298579Y-125829D01*
X-299085Y-125170D01*
X-299744Y-124664D01*
X-300512Y-124346D01*
X-301336Y-124237D01*
D02*
G37*
G36*
X-334013D02*
X-334837Y-124346D01*
X-335605Y-124664D01*
X-336264Y-125170D01*
X-336770Y-125829D01*
X-337088Y-126597D01*
X-337196Y-127420D01*
Y-130570D01*
X-337088Y-131394D01*
X-336770Y-132162D01*
X-336264Y-132821D01*
X-335605Y-133327D01*
X-334837Y-133645D01*
X-334013Y-133753D01*
X-333189Y-133645D01*
X-332421Y-133327D01*
X-331762Y-132821D01*
X-331256Y-132162D01*
X-330938Y-131394D01*
X-330830Y-130570D01*
Y-127420D01*
X-330938Y-126597D01*
X-331256Y-125829D01*
X-331762Y-125170D01*
X-332421Y-124664D01*
X-333189Y-124346D01*
X-334013Y-124237D01*
D02*
G37*
G36*
X-270629Y-125663D02*
X-271771D01*
X-272874Y-125959D01*
X-273863Y-126530D01*
X-274671Y-127337D01*
X-275173Y-128208D01*
X-283000D01*
X-283839Y-128375D01*
X-284550Y-128850D01*
X-285025Y-129561D01*
X-285192Y-130400D01*
X-285025Y-131239D01*
X-284550Y-131950D01*
X-283839Y-132425D01*
X-283000Y-132592D01*
X-274711D01*
X-274671Y-132663D01*
X-273863Y-133470D01*
X-272874Y-134041D01*
X-271771Y-134337D01*
X-270629D01*
X-269526Y-134041D01*
X-268537Y-133470D01*
X-267729Y-132663D01*
X-267159Y-131674D01*
X-266863Y-130571D01*
Y-129429D01*
X-267159Y-128326D01*
X-267729Y-127337D01*
X-268537Y-126530D01*
X-269526Y-125959D01*
X-270629Y-125663D01*
D02*
G37*
G36*
X-388726Y-57722D02*
X-389474D01*
X-390164Y-58008D01*
X-390692Y-58536D01*
X-390978Y-59226D01*
Y-59974D01*
X-390692Y-60664D01*
X-390164Y-61192D01*
X-390018Y-61253D01*
Y-99900D01*
X-389948Y-100251D01*
X-389749Y-100549D01*
X-371318Y-118980D01*
Y-132347D01*
X-371464Y-132408D01*
X-371992Y-132936D01*
X-372278Y-133626D01*
Y-134374D01*
X-371992Y-135064D01*
X-371464Y-135592D01*
X-370774Y-135878D01*
X-370026D01*
X-369336Y-135592D01*
X-368808Y-135064D01*
X-368522Y-134374D01*
Y-133626D01*
X-368808Y-132936D01*
X-369336Y-132408D01*
X-369482Y-132347D01*
Y-118600D01*
X-369552Y-118249D01*
X-369751Y-117951D01*
X-388182Y-99520D01*
Y-61253D01*
X-388036Y-61192D01*
X-387508Y-60664D01*
X-387222Y-59974D01*
Y-59226D01*
X-387508Y-58536D01*
X-388036Y-58008D01*
X-388726Y-57722D01*
D02*
G37*
%LPD*%
D11*
X-331500Y-27200D02*
G03*
X-328200Y-23900I0J3300D01*
G01*
X-353800Y-27200D02*
G03*
X-356600Y-30000I0J-2800D01*
G01*
X-331100Y-21000D02*
X-328200Y-23900D01*
X-331100Y-21000D02*
Y-12600D01*
X-305926Y-116826D02*
X-305100Y-116000D01*
X-317674Y-116826D02*
X-305926D01*
X-378682Y-65018D02*
Y-63918D01*
X-389200Y-53400D02*
X-378682Y-63918D01*
Y-65018D02*
X-368300Y-75400D01*
X-371100Y-95900D02*
X-367900Y-99100D01*
X-371100Y-95900D02*
Y-83700D01*
X-362600Y-21800D02*
X-362500Y-21900D01*
X-362700Y-6800D02*
X-362600Y-6900D01*
Y-21800D02*
Y-6900D01*
X-368300Y-75400D02*
X-363500D01*
X-389100Y-99900D02*
X-370400Y-118600D01*
X-389100Y-99900D02*
Y-59600D01*
X-294000Y-35000D02*
X-257700Y-71300D01*
X-294000Y-35000D02*
Y-24300D01*
X-356600Y-83200D02*
Y-30000D01*
X-248213Y-19687D02*
X-222300Y-45600D01*
X-184100D01*
X-251200Y-19200D02*
X-250713Y-19687D01*
X-248213D01*
X-294000Y-24300D02*
Y-24200D01*
X-353800Y-27200D02*
X-331500D01*
X-370400Y-134000D02*
Y-118600D01*
D39*
X-351500Y-97200D02*
Y-75300D01*
X-345700Y-69500D01*
D40*
X-330545Y-89455D02*
X-330400Y-89600D01*
X-336355Y-89455D02*
X-330545D01*
X-345900Y-99000D02*
X-336355Y-89455D01*
D41*
X-326900Y-114300D02*
X-320200D01*
X-369000Y-26761D02*
Y-23200D01*
X-374200Y-52600D02*
X-371800D01*
X-365200Y-46000D01*
X-373339Y-110306D02*
X-352494D01*
X-349900Y-112900D02*
X-344600D01*
X-303600Y-102400D02*
X-299300Y-106700D01*
X-344600Y-112900D02*
X-334100Y-102400D01*
X-303600D01*
X-352494Y-110306D02*
X-349900Y-112900D01*
X-320200Y-114300D02*
X-317674Y-116826D01*
Y-128995D02*
Y-116826D01*
X-283000Y-130400D02*
X-271600D01*
X-271200Y-130000D01*
X-372839Y-30600D02*
X-369000Y-26761D01*
X-374300Y-30600D02*
X-372839D01*
D43*
X-36100Y-18800D02*
D03*
X-46100D02*
D03*
X-86100D02*
D03*
X-96100D02*
D03*
X-76100D02*
D03*
X-66100D02*
D03*
X-56100D02*
D03*
X-116800Y-128900D02*
D03*
X-126800D02*
D03*
X-136800D02*
D03*
X-126800Y-118900D02*
D03*
X-136800D02*
D03*
D44*
X-106100Y-18800D02*
D03*
X-116800Y-118900D02*
D03*
D45*
X-288405Y-117664D02*
D03*
X-265649D02*
D03*
D46*
X-294054Y-115616D02*
D03*
X-259999Y-115617D02*
D03*
D47*
X-294054Y-132152D02*
D03*
X-259999D02*
D03*
D48*
X-251200Y-14200D02*
D03*
X-294000D02*
D03*
D49*
X-251200Y-19200D02*
D03*
Y-24200D02*
D03*
X-294000Y-19200D02*
D03*
Y-24200D02*
D03*
D50*
X-225200Y-129095D02*
D03*
X-155200D02*
D03*
X-165200D02*
D03*
X-175200D02*
D03*
X-185200D02*
D03*
X-195200D02*
D03*
X-205200D02*
D03*
X-215200D02*
D03*
X-235200D02*
D03*
X-126200Y-81295D02*
D03*
Y-71295D02*
D03*
Y-61295D02*
D03*
X-137100Y-101295D02*
D03*
Y-91295D02*
D03*
Y-81295D02*
D03*
Y-71295D02*
D03*
X-7700Y-40700D02*
D03*
Y-50700D02*
D03*
Y-60700D02*
D03*
Y-70700D02*
D03*
Y-90700D02*
D03*
Y-80700D02*
D03*
X-191800Y-26600D02*
D03*
X-201800D02*
D03*
X-211800D02*
D03*
X-221800D02*
D03*
X-231800D02*
D03*
D51*
X-245200Y-129095D02*
D03*
X-181800Y-26600D02*
D03*
D52*
X-126200Y-91295D02*
D03*
X-137100Y-61295D02*
D03*
X-7700Y-100700D02*
D03*
D53*
X-334013Y-128995D02*
D03*
X-301336D02*
D03*
D54*
X-309800D02*
D03*
X-317674D02*
D03*
X-325548D02*
D03*
D55*
X-5900Y-23995D02*
D03*
Y-113995D02*
D03*
X-13400Y-23995D02*
D03*
X-9650Y-31495D02*
D03*
X-13400Y-38995D02*
D03*
Y-83995D02*
D03*
Y-98995D02*
D03*
X-9650Y-106495D02*
D03*
X-13400Y-113995D02*
D03*
X-20900Y-8995D02*
D03*
Y-23995D02*
D03*
X-17150Y-31495D02*
D03*
X-20900Y-98995D02*
D03*
X-17150Y-106495D02*
D03*
X-20900Y-113995D02*
D03*
Y-128995D02*
D03*
X-28400Y-83995D02*
D03*
X-24650Y-91495D02*
D03*
X-28400Y-98995D02*
D03*
X-24650Y-106495D02*
D03*
Y-121495D02*
D03*
X-32150Y-31495D02*
D03*
X-35900Y-98995D02*
D03*
Y-113995D02*
D03*
X-43400Y-23995D02*
D03*
X-39650Y-106495D02*
D03*
Y-121495D02*
D03*
X-47150Y-31495D02*
D03*
Y-121495D02*
D03*
X-58400Y-23995D02*
D03*
Y-38995D02*
D03*
Y-113995D02*
D03*
Y-128995D02*
D03*
X-65900Y-8995D02*
D03*
Y-23995D02*
D03*
X-62150Y-31495D02*
D03*
X-73400Y-8995D02*
D03*
Y-23995D02*
D03*
X-69650Y-31495D02*
D03*
X-73400Y-38995D02*
D03*
Y-53995D02*
D03*
Y-98995D02*
D03*
X-69650Y-106495D02*
D03*
X-80900Y-8995D02*
D03*
Y-23995D02*
D03*
Y-38995D02*
D03*
X-88400Y-8995D02*
D03*
Y-23995D02*
D03*
Y-38995D02*
D03*
Y-113995D02*
D03*
X-95900Y-8995D02*
D03*
X-92150Y-31495D02*
D03*
X-103400Y-8995D02*
D03*
Y-23995D02*
D03*
Y-38995D02*
D03*
X-99650Y-46495D02*
D03*
Y-76495D02*
D03*
X-103400Y-113995D02*
D03*
Y-128995D02*
D03*
X-110900Y-8995D02*
D03*
Y-23995D02*
D03*
Y-68995D02*
D03*
X-107150Y-76495D02*
D03*
X-110900Y-83995D02*
D03*
Y-113995D02*
D03*
X-118400Y-8995D02*
D03*
X-114650Y-16495D02*
D03*
X-118400Y-23995D02*
D03*
Y-38995D02*
D03*
X-114650Y-76495D02*
D03*
X-118400Y-83995D02*
D03*
X-114650Y-106495D02*
D03*
X-125900Y-8995D02*
D03*
X-122150Y-16495D02*
D03*
X-125900Y-23995D02*
D03*
X-122150Y-31495D02*
D03*
Y-76495D02*
D03*
Y-121495D02*
D03*
X-133400Y-8995D02*
D03*
X-129650Y-16495D02*
D03*
X-133400Y-23995D02*
D03*
Y-53995D02*
D03*
X-129650Y-76495D02*
D03*
X-137150Y-16495D02*
D03*
X-140900Y-53995D02*
D03*
X-148400D02*
D03*
Y-113995D02*
D03*
X-144650Y-121495D02*
D03*
X-148400Y-128995D02*
D03*
X-152150Y-16495D02*
D03*
Y-31495D02*
D03*
Y-61495D02*
D03*
Y-76495D02*
D03*
X-155900Y-113995D02*
D03*
X-152150Y-121495D02*
D03*
X-163400Y-8995D02*
D03*
X-159650Y-16495D02*
D03*
Y-61495D02*
D03*
X-163400Y-113995D02*
D03*
X-167150Y-16495D02*
D03*
Y-121495D02*
D03*
X-178400Y-8995D02*
D03*
X-174650Y-16495D02*
D03*
Y-91495D02*
D03*
X-185900Y-8995D02*
D03*
X-182150Y-16495D02*
D03*
X-185900Y-98995D02*
D03*
X-182150Y-106495D02*
D03*
X-185900Y-113995D02*
D03*
X-193400Y-8995D02*
D03*
X-189650Y-16495D02*
D03*
Y-76495D02*
D03*
X-193400Y-98995D02*
D03*
X-189650Y-106495D02*
D03*
X-200900Y-8995D02*
D03*
X-197150Y-16495D02*
D03*
Y-61495D02*
D03*
X-200900Y-83995D02*
D03*
X-197150Y-91495D02*
D03*
X-208400Y-8995D02*
D03*
X-204650Y-16495D02*
D03*
Y-61495D02*
D03*
Y-76495D02*
D03*
X-208400Y-83995D02*
D03*
X-204650Y-91495D02*
D03*
X-215900Y-8995D02*
D03*
X-212150Y-16495D02*
D03*
Y-76495D02*
D03*
Y-121495D02*
D03*
X-223400Y-8995D02*
D03*
X-219650Y-16495D02*
D03*
Y-61495D02*
D03*
Y-76495D02*
D03*
X-230900Y-8995D02*
D03*
X-227150Y-16495D02*
D03*
Y-61495D02*
D03*
X-238400Y-8995D02*
D03*
X-234650Y-16495D02*
D03*
Y-46495D02*
D03*
X-238400Y-98995D02*
D03*
X-234650Y-121495D02*
D03*
X-242150Y-46495D02*
D03*
X-245900Y-98995D02*
D03*
X-242150Y-106495D02*
D03*
X-245900Y-113995D02*
D03*
X-249650Y-61495D02*
D03*
X-253400Y-68995D02*
D03*
X-249650Y-76495D02*
D03*
X-253400Y-83995D02*
D03*
X-249650Y-91495D02*
D03*
X-253400Y-98995D02*
D03*
X-249650Y-106495D02*
D03*
X-253400Y-113995D02*
D03*
X-249650Y-121495D02*
D03*
X-253400Y-128995D02*
D03*
X-257150Y-31495D02*
D03*
Y-76495D02*
D03*
X-260900Y-83995D02*
D03*
X-257150Y-91495D02*
D03*
X-260900Y-98995D02*
D03*
X-257150Y-106495D02*
D03*
Y-121495D02*
D03*
X-264650Y-31495D02*
D03*
X-268400Y-83995D02*
D03*
X-264650Y-91495D02*
D03*
Y-121495D02*
D03*
X-275900Y-38995D02*
D03*
X-272150Y-46495D02*
D03*
Y-121495D02*
D03*
X-283400Y-83995D02*
D03*
Y-98995D02*
D03*
X-287150Y-31495D02*
D03*
Y-91495D02*
D03*
Y-121495D02*
D03*
X-298400Y-8995D02*
D03*
Y-38995D02*
D03*
X-294650Y-46495D02*
D03*
X-298400Y-83995D02*
D03*
Y-113995D02*
D03*
X-294650Y-121495D02*
D03*
X-305900Y-8995D02*
D03*
Y-23995D02*
D03*
Y-38995D02*
D03*
Y-53995D02*
D03*
X-302150Y-61495D02*
D03*
X-305900Y-68995D02*
D03*
X-302150Y-76495D02*
D03*
X-305900Y-83995D02*
D03*
X-302150Y-121495D02*
D03*
X-313400Y-8995D02*
D03*
Y-23995D02*
D03*
X-309650Y-31495D02*
D03*
X-313400Y-38995D02*
D03*
X-309650Y-46495D02*
D03*
X-313400Y-53995D02*
D03*
X-309650Y-61495D02*
D03*
X-313400Y-68995D02*
D03*
X-309650Y-76495D02*
D03*
X-313400Y-83995D02*
D03*
X-320900Y-8995D02*
D03*
Y-23995D02*
D03*
X-317150Y-31495D02*
D03*
Y-61495D02*
D03*
X-320900Y-68995D02*
D03*
X-317150Y-76495D02*
D03*
X-320900Y-83995D02*
D03*
X-324650Y-31495D02*
D03*
Y-61495D02*
D03*
Y-76495D02*
D03*
Y-91495D02*
D03*
Y-121495D02*
D03*
X-335900Y-8995D02*
D03*
Y-23995D02*
D03*
X-332150Y-31495D02*
D03*
X-335900Y-38995D02*
D03*
X-332150Y-61495D02*
D03*
Y-76495D02*
D03*
Y-121495D02*
D03*
X-339650Y-16495D02*
D03*
Y-31495D02*
D03*
Y-46495D02*
D03*
Y-61495D02*
D03*
Y-76495D02*
D03*
X-350900Y-23995D02*
D03*
Y-38995D02*
D03*
X-347150Y-91495D02*
D03*
X-365900Y-68995D02*
D03*
X-362150Y-121495D02*
D03*
X-373400Y-8995D02*
D03*
Y-98995D02*
D03*
X-369650Y-106495D02*
D03*
X-373400Y-128995D02*
D03*
X-380900Y-113995D02*
D03*
X-388400Y-23995D02*
D03*
Y-38995D02*
D03*
X-384650Y-46495D02*
D03*
X-388400Y-113995D02*
D03*
X-103600Y-53414D02*
D03*
X-92200Y-52500D02*
D03*
X-87500Y-54400D02*
D03*
X-326900Y-111300D02*
D03*
X-365200Y-46000D02*
D03*
X-351500Y-64100D02*
D03*
X-176200Y-54900D02*
D03*
X-244200Y-40900D02*
D03*
X-246500D02*
D03*
X-369000Y-23200D02*
D03*
X-363450Y-44250D02*
D03*
X-343400Y-69500D02*
D03*
X-345700D02*
D03*
X-361400Y-98700D02*
D03*
X-330400Y-89600D02*
D03*
X-68700Y-58500D02*
D03*
X-65800Y-37900D02*
D03*
X-389200Y-53400D02*
D03*
X-65800Y-35700D02*
D03*
X-80900Y-93900D02*
D03*
X-100800Y-97400D02*
D03*
X-367900Y-99100D02*
D03*
X-353349Y-62162D02*
D03*
X-283000Y-130400D02*
D03*
X-369000Y-20900D02*
D03*
X-362500Y-21900D02*
D03*
X-389100Y-59600D02*
D03*
X-373339Y-110306D02*
D03*
X-356600Y-83200D02*
D03*
X-359187Y-98687D02*
D03*
X-351500Y-97200D02*
D03*
X-345900Y-99000D02*
D03*
X-205800Y-50300D02*
D03*
X-178600Y-54900D02*
D03*
X-184100Y-45600D02*
D03*
X-199400Y-50300D02*
D03*
X-66500Y-58500D02*
D03*
X-57800Y-61200D02*
D03*
X-72900Y-109900D02*
D03*
X-91700Y-67300D02*
D03*
X-70700Y-68500D02*
D03*
X-60400Y-80000D02*
D03*
X-29600Y-88000D02*
D03*
X-20200Y-34100D02*
D03*
X-179400Y-35500D02*
D03*
X-187700Y-38700D02*
D03*
X-194100Y-37900D02*
D03*
X-101300Y-90400D02*
D03*
X-302000Y-50300D02*
D03*
X-156500Y-31500D02*
D03*
X-72450Y-102750D02*
D03*
X-64100Y-106600D02*
D03*
X-191800Y-70700D02*
D03*
X-200100Y-58800D02*
D03*
X-167700Y-86500D02*
D03*
X-184200Y-76600D02*
D03*
X-79400Y-63500D02*
D03*
X-48400Y-71500D02*
D03*
X-58400Y-93900D02*
D03*
X-42200Y-91100D02*
D03*
X-42400Y-85000D02*
D03*
X-47100Y-83300D02*
D03*
X-23900Y-96378D02*
D03*
X-296300Y-106700D02*
D03*
X-214200Y-86300D02*
D03*
X-218100Y-82100D02*
D03*
X-222400Y-78400D02*
D03*
X-227000Y-74500D02*
D03*
X-230800Y-66600D02*
D03*
X-234200Y-62600D02*
D03*
X-257700Y-71300D02*
D03*
X-330400Y-87400D02*
D03*
X-328200Y-23900D02*
D03*
X-370400Y-134000D02*
D03*
X-362700Y-6800D02*
D03*
X-363500Y-75400D02*
D03*
X-349900Y-112900D02*
D03*
X-326900Y-114300D02*
D03*
X-299300Y-106700D02*
D03*
D57*
X-374300Y-30600D02*
D03*
X-374200Y-52600D02*
D03*
D58*
X-331100Y-12600D02*
D03*
X-305100Y-116000D02*
D03*
X-371100Y-83700D02*
D03*
X-271200Y-130000D02*
D03*
%TF.MD5,ce4988848e74d772434ae158b49b4cc9*%
M02*
