%TF.GenerationSoftware,Altium Limited,Altium Designer,24.1.2 (44)*%
G04 Layer_Color=32896*
%FSLAX25Y25*%
%MOIN*%
%TF.SameCoordinates,CC6F7A58-88BC-47F1-AAD7-D7ADF3ED88B3*%
%TF.FilePolarity,Positive*%
%TF.FileFunction,Legend,Bot*%
%TF.Part,Single*%
G01*
G75*
G36*
X-333500Y-28300D02*
X-358500D01*
Y-21300D01*
X-333500D01*
Y-28300D01*
D02*
G37*
G36*
Y-47800D02*
X-358500D01*
Y-40800D01*
X-333500D01*
Y-47800D01*
D02*
G37*
%LPC*%
G36*
X-355490Y-22737D02*
X-356230D01*
Y-24476D01*
X-357969D01*
Y-25207D01*
X-356230D01*
Y-26965D01*
X-355490D01*
Y-25207D01*
X-353751D01*
Y-24476D01*
X-355490D01*
Y-22737D01*
D02*
G37*
G36*
X-334031Y-21599D02*
X-336546D01*
X-336611Y-21609D01*
X-336685D01*
X-336852Y-21627D01*
X-337037Y-21646D01*
X-337231Y-21683D01*
X-337425Y-21729D01*
X-337601Y-21794D01*
X-337610D01*
X-337619Y-21803D01*
X-337675Y-21831D01*
X-337758Y-21877D01*
X-337851Y-21942D01*
X-337962Y-22025D01*
X-338082Y-22127D01*
X-338193Y-22256D01*
X-338295Y-22395D01*
X-338304Y-22413D01*
X-338332Y-22469D01*
X-338378Y-22543D01*
X-338424Y-22654D01*
X-338471Y-22783D01*
X-338517Y-22922D01*
X-338545Y-23079D01*
X-338554Y-23237D01*
Y-23255D01*
Y-23302D01*
X-338545Y-23385D01*
X-338526Y-23486D01*
X-338498Y-23607D01*
X-338452Y-23736D01*
X-338397Y-23866D01*
X-338322Y-24004D01*
X-338313Y-24023D01*
X-338285Y-24060D01*
X-338230Y-24134D01*
X-338156Y-24208D01*
X-338064Y-24300D01*
X-337952Y-24402D01*
X-337814Y-24495D01*
X-337656Y-24587D01*
X-337666D01*
X-337684Y-24597D01*
X-337712Y-24606D01*
X-337749Y-24624D01*
X-337860Y-24661D01*
X-337989Y-24726D01*
X-338128Y-24809D01*
X-338285Y-24911D01*
X-338424Y-25031D01*
X-338554Y-25179D01*
X-338563Y-25198D01*
X-338600Y-25253D01*
X-338655Y-25337D01*
X-338711Y-25447D01*
X-338767Y-25596D01*
X-338822Y-25753D01*
X-338859Y-25938D01*
X-338868Y-26141D01*
Y-26215D01*
X-338859Y-26308D01*
X-338841Y-26419D01*
X-338822Y-26548D01*
X-338785Y-26687D01*
X-338739Y-26835D01*
X-338674Y-26983D01*
X-338665Y-27002D01*
X-338637Y-27048D01*
X-338600Y-27112D01*
X-338545Y-27205D01*
X-338471Y-27297D01*
X-338397Y-27399D01*
X-338304Y-27501D01*
X-338202Y-27584D01*
X-338193Y-27593D01*
X-338156Y-27621D01*
X-338091Y-27658D01*
X-338008Y-27695D01*
X-337906Y-27751D01*
X-337786Y-27806D01*
X-337656Y-27852D01*
X-337499Y-27899D01*
X-337481D01*
X-337425Y-27917D01*
X-337333Y-27926D01*
X-337212Y-27945D01*
X-337065Y-27964D01*
X-336889Y-27982D01*
X-336695Y-27991D01*
X-336473Y-28001D01*
X-334031D01*
Y-21599D01*
D02*
G37*
G36*
X-341773D02*
X-342698D01*
X-345316Y-28001D01*
X-344354D01*
X-343604Y-26058D01*
X-340922D01*
X-340228Y-28001D01*
X-339331D01*
X-341773Y-21599D01*
D02*
G37*
G36*
X-345519D02*
X-350588D01*
Y-22358D01*
X-348479D01*
Y-28001D01*
X-347628D01*
Y-22358D01*
X-345519D01*
Y-21599D01*
D02*
G37*
%LPD*%
G36*
X-334881Y-24282D02*
X-336454D01*
X-336574Y-24273D01*
X-336704Y-24263D01*
X-336833Y-24254D01*
X-336963Y-24236D01*
X-337065Y-24217D01*
X-337083Y-24208D01*
X-337120Y-24199D01*
X-337175Y-24171D01*
X-337249Y-24134D01*
X-337323Y-24097D01*
X-337407Y-24042D01*
X-337490Y-23968D01*
X-337555Y-23893D01*
X-337564Y-23884D01*
X-337582Y-23856D01*
X-337610Y-23801D01*
X-337638Y-23736D01*
X-337666Y-23662D01*
X-337694Y-23570D01*
X-337712Y-23459D01*
X-337721Y-23338D01*
Y-23320D01*
Y-23283D01*
X-337712Y-23227D01*
X-337703Y-23154D01*
X-337684Y-23061D01*
X-337656Y-22968D01*
X-337619Y-22876D01*
X-337564Y-22783D01*
X-337555Y-22774D01*
X-337536Y-22747D01*
X-337499Y-22700D01*
X-337453Y-22654D01*
X-337388Y-22599D01*
X-337314Y-22543D01*
X-337222Y-22488D01*
X-337120Y-22451D01*
X-337111D01*
X-337065Y-22432D01*
X-337000Y-22423D01*
X-336898Y-22404D01*
X-336759Y-22386D01*
X-336602Y-22377D01*
X-336399Y-22358D01*
X-334881D01*
Y-24282D01*
D02*
G37*
G36*
Y-27242D02*
X-336704D01*
X-336898Y-27233D01*
X-336981Y-27224D01*
X-337055Y-27214D01*
X-337065D01*
X-337102Y-27205D01*
X-337157Y-27196D01*
X-337222Y-27177D01*
X-337379Y-27122D01*
X-337536Y-27048D01*
X-337545Y-27038D01*
X-337573Y-27020D01*
X-337610Y-26992D01*
X-337656Y-26955D01*
X-337703Y-26900D01*
X-337768Y-26844D01*
X-337814Y-26770D01*
X-337869Y-26687D01*
X-337878Y-26678D01*
X-337888Y-26650D01*
X-337906Y-26594D01*
X-337934Y-26530D01*
X-337962Y-26456D01*
X-337980Y-26363D01*
X-337989Y-26252D01*
X-337999Y-26141D01*
Y-26123D01*
Y-26086D01*
X-337989Y-26012D01*
X-337971Y-25929D01*
X-337952Y-25836D01*
X-337915Y-25734D01*
X-337869Y-25633D01*
X-337805Y-25531D01*
X-337795Y-25521D01*
X-337768Y-25484D01*
X-337731Y-25438D01*
X-337675Y-25383D01*
X-337601Y-25318D01*
X-337509Y-25253D01*
X-337407Y-25198D01*
X-337286Y-25152D01*
X-337268Y-25142D01*
X-337231Y-25133D01*
X-337148Y-25115D01*
X-337046Y-25096D01*
X-336916Y-25078D01*
X-336759Y-25059D01*
X-336565Y-25041D01*
X-334881D01*
Y-27242D01*
D02*
G37*
G36*
X-342217Y-22275D02*
X-342208Y-22293D01*
Y-22330D01*
X-342189Y-22367D01*
X-342180Y-22432D01*
X-342161Y-22497D01*
X-342124Y-22654D01*
X-342078Y-22839D01*
X-342013Y-23043D01*
X-341949Y-23265D01*
X-341865Y-23496D01*
X-341172Y-25364D01*
X-343336D01*
X-342670Y-23607D01*
Y-23597D01*
X-342661Y-23570D01*
X-342642Y-23524D01*
X-342624Y-23468D01*
X-342596Y-23403D01*
X-342568Y-23320D01*
X-342541Y-23227D01*
X-342503Y-23135D01*
X-342429Y-22922D01*
X-342355Y-22700D01*
X-342282Y-22478D01*
X-342217Y-22265D01*
Y-22275D01*
D02*
G37*
%LPC*%
G36*
X-354538Y-44790D02*
X-356971D01*
Y-45577D01*
X-354538D01*
Y-44790D01*
D02*
G37*
G36*
X-335030Y-41100D02*
X-337545D01*
X-337610Y-41109D01*
X-337684D01*
X-337851Y-41127D01*
X-338036Y-41146D01*
X-338230Y-41183D01*
X-338424Y-41229D01*
X-338600Y-41294D01*
X-338609D01*
X-338618Y-41303D01*
X-338674Y-41331D01*
X-338757Y-41377D01*
X-338850Y-41442D01*
X-338961Y-41525D01*
X-339081Y-41627D01*
X-339192Y-41756D01*
X-339294Y-41895D01*
X-339303Y-41914D01*
X-339331Y-41969D01*
X-339377Y-42043D01*
X-339423Y-42154D01*
X-339470Y-42283D01*
X-339516Y-42422D01*
X-339544Y-42579D01*
X-339553Y-42737D01*
Y-42755D01*
Y-42801D01*
X-339544Y-42885D01*
X-339525Y-42987D01*
X-339497Y-43107D01*
X-339451Y-43236D01*
X-339395Y-43366D01*
X-339321Y-43505D01*
X-339312Y-43523D01*
X-339284Y-43560D01*
X-339229Y-43634D01*
X-339155Y-43708D01*
X-339062Y-43801D01*
X-338951Y-43902D01*
X-338813Y-43995D01*
X-338655Y-44087D01*
X-338665D01*
X-338683Y-44096D01*
X-338711Y-44106D01*
X-338748Y-44124D01*
X-338859Y-44161D01*
X-338988Y-44226D01*
X-339127Y-44309D01*
X-339284Y-44411D01*
X-339423Y-44531D01*
X-339553Y-44679D01*
X-339562Y-44698D01*
X-339599Y-44753D01*
X-339654Y-44837D01*
X-339710Y-44947D01*
X-339766Y-45096D01*
X-339821Y-45253D01*
X-339858Y-45438D01*
X-339867Y-45641D01*
Y-45715D01*
X-339858Y-45808D01*
X-339840Y-45919D01*
X-339821Y-46048D01*
X-339784Y-46187D01*
X-339738Y-46335D01*
X-339673Y-46483D01*
X-339664Y-46501D01*
X-339636Y-46548D01*
X-339599Y-46613D01*
X-339544Y-46705D01*
X-339470Y-46797D01*
X-339395Y-46899D01*
X-339303Y-47001D01*
X-339201Y-47084D01*
X-339192Y-47093D01*
X-339155Y-47121D01*
X-339090Y-47158D01*
X-339007Y-47195D01*
X-338905Y-47251D01*
X-338785Y-47306D01*
X-338655Y-47352D01*
X-338498Y-47399D01*
X-338480D01*
X-338424Y-47417D01*
X-338332Y-47427D01*
X-338211Y-47445D01*
X-338064Y-47464D01*
X-337888Y-47482D01*
X-337694Y-47491D01*
X-337472Y-47501D01*
X-335030D01*
Y-41100D01*
D02*
G37*
G36*
X-342772D02*
X-343697D01*
X-346315Y-47501D01*
X-345353D01*
X-344603Y-45558D01*
X-341921D01*
X-341227Y-47501D01*
X-340330D01*
X-342772Y-41100D01*
D02*
G37*
G36*
X-346518D02*
X-351587D01*
Y-41858D01*
X-349478D01*
Y-47501D01*
X-348627D01*
Y-41858D01*
X-346518D01*
Y-41100D01*
D02*
G37*
%LPD*%
G36*
X-335880Y-43782D02*
X-337453D01*
X-337573Y-43773D01*
X-337703Y-43764D01*
X-337832Y-43754D01*
X-337962Y-43736D01*
X-338064Y-43717D01*
X-338082Y-43708D01*
X-338119Y-43699D01*
X-338175Y-43671D01*
X-338248Y-43634D01*
X-338322Y-43597D01*
X-338406Y-43541D01*
X-338489Y-43468D01*
X-338554Y-43393D01*
X-338563Y-43384D01*
X-338581Y-43356D01*
X-338609Y-43301D01*
X-338637Y-43236D01*
X-338665Y-43162D01*
X-338692Y-43070D01*
X-338711Y-42959D01*
X-338720Y-42838D01*
Y-42820D01*
Y-42783D01*
X-338711Y-42728D01*
X-338702Y-42654D01*
X-338683Y-42561D01*
X-338655Y-42469D01*
X-338618Y-42376D01*
X-338563Y-42283D01*
X-338554Y-42274D01*
X-338535Y-42246D01*
X-338498Y-42200D01*
X-338452Y-42154D01*
X-338387Y-42099D01*
X-338313Y-42043D01*
X-338221Y-41987D01*
X-338119Y-41951D01*
X-338110D01*
X-338064Y-41932D01*
X-337999Y-41923D01*
X-337897Y-41904D01*
X-337758Y-41886D01*
X-337601Y-41877D01*
X-337398Y-41858D01*
X-335880D01*
Y-43782D01*
D02*
G37*
G36*
Y-46742D02*
X-337703D01*
X-337897Y-46733D01*
X-337980Y-46723D01*
X-338054Y-46714D01*
X-338064D01*
X-338101Y-46705D01*
X-338156Y-46696D01*
X-338221Y-46677D01*
X-338378Y-46622D01*
X-338535Y-46548D01*
X-338545Y-46538D01*
X-338572Y-46520D01*
X-338609Y-46492D01*
X-338655Y-46455D01*
X-338702Y-46400D01*
X-338767Y-46344D01*
X-338813Y-46270D01*
X-338868Y-46187D01*
X-338878Y-46178D01*
X-338887Y-46150D01*
X-338905Y-46095D01*
X-338933Y-46030D01*
X-338961Y-45956D01*
X-338979Y-45863D01*
X-338988Y-45752D01*
X-338998Y-45641D01*
Y-45623D01*
Y-45586D01*
X-338988Y-45512D01*
X-338970Y-45428D01*
X-338951Y-45336D01*
X-338914Y-45234D01*
X-338868Y-45132D01*
X-338804Y-45031D01*
X-338794Y-45022D01*
X-338767Y-44984D01*
X-338730Y-44938D01*
X-338674Y-44883D01*
X-338600Y-44818D01*
X-338508Y-44753D01*
X-338406Y-44698D01*
X-338285Y-44651D01*
X-338267Y-44642D01*
X-338230Y-44633D01*
X-338147Y-44614D01*
X-338045Y-44596D01*
X-337915Y-44578D01*
X-337758Y-44559D01*
X-337564Y-44541D01*
X-335880D01*
Y-46742D01*
D02*
G37*
G36*
X-343216Y-41775D02*
X-343207Y-41793D01*
Y-41830D01*
X-343188Y-41867D01*
X-343179Y-41932D01*
X-343160Y-41997D01*
X-343123Y-42154D01*
X-343077Y-42339D01*
X-343012Y-42542D01*
X-342948Y-42764D01*
X-342864Y-42996D01*
X-342171Y-44864D01*
X-344335D01*
X-343669Y-43107D01*
Y-43097D01*
X-343660Y-43070D01*
X-343641Y-43023D01*
X-343623Y-42968D01*
X-343595Y-42903D01*
X-343567Y-42820D01*
X-343540Y-42728D01*
X-343502Y-42635D01*
X-343428Y-42422D01*
X-343355Y-42200D01*
X-343281Y-41978D01*
X-343216Y-41765D01*
Y-41775D01*
D02*
G37*
%TF.MD5,fb7b7556814103420d77ce4e82117f6f*%
M02*
