%TF.GenerationSoftware,Altium Limited,Altium Designer,24.1.2 (44)*%
G04 Layer_Color=0*
%FSLAX25Y25*%
%MOIN*%
%TF.SameCoordinates,CC6F7A58-88BC-47F1-AAD7-D7ADF3ED88B3*%
%TF.FilePolarity,Positive*%
%TF.FileFunction,Profile,NP*%
%TF.Part,Single*%
G01*
G75*
%TA.AperFunction,Profile*%
%ADD109C,0.00100*%
G36*
X-381889Y-18110D02*
X-382509D01*
X-383726Y-17868D01*
X-384873Y-17393D01*
X-385905Y-16704D01*
X-386782Y-15826D01*
X-387471Y-14795D01*
X-387946Y-13648D01*
X-388188Y-12431D01*
Y-11811D01*
Y-11191D01*
X-387946Y-9974D01*
X-387471Y-8827D01*
X-386782Y-7796D01*
X-385905Y-6918D01*
X-384873Y-6229D01*
X-383726Y-5754D01*
X-382509Y-5512D01*
X-381889D01*
X-381269D01*
X-380052Y-5754D01*
X-378905Y-6229D01*
X-377873Y-6918D01*
X-376996Y-7796D01*
X-376307Y-8827D01*
X-375832Y-9974D01*
X-375590Y-11191D01*
Y-11811D01*
Y-12431D01*
X-375832Y-13648D01*
X-376307Y-14795D01*
X-376996Y-15826D01*
X-377873Y-16704D01*
X-378905Y-17393D01*
X-380052Y-17868D01*
X-381269Y-18110D01*
X-381889D01*
D01*
D02*
G37*
G36*
X-18110Y-125984D02*
Y-126605D01*
X-17868Y-127822D01*
X-17393Y-128968D01*
X-16704Y-130000D01*
X-15826Y-130877D01*
X-14795Y-131567D01*
X-13648Y-132041D01*
X-12431Y-132283D01*
X-11811D01*
X-11191D01*
X-9974Y-132041D01*
X-8827Y-131567D01*
X-7796Y-130877D01*
X-6918Y-130000D01*
X-6229Y-128968D01*
X-5754Y-127822D01*
X-5512Y-126605D01*
Y-125984D01*
Y-125364D01*
X-5754Y-124147D01*
X-6229Y-123001D01*
X-6918Y-121969D01*
X-7796Y-121091D01*
X-8827Y-120402D01*
X-9974Y-119927D01*
X-11191Y-119685D01*
X-11811D01*
X-12431D01*
X-13648Y-119927D01*
X-14795Y-120402D01*
X-15826Y-121091D01*
X-16704Y-121969D01*
X-17393Y-123001D01*
X-17868Y-124147D01*
X-18110Y-125364D01*
Y-125984D01*
D01*
D02*
G37*
G36*
X-381889Y-132283D02*
X-382509D01*
X-383726Y-132041D01*
X-384873Y-131567D01*
X-385905Y-130877D01*
X-386782Y-130000D01*
X-387471Y-128968D01*
X-387946Y-127822D01*
X-388188Y-126605D01*
Y-125984D01*
Y-125364D01*
X-387946Y-124147D01*
X-387471Y-123001D01*
X-386782Y-121969D01*
X-385905Y-121091D01*
X-384873Y-120402D01*
X-383726Y-119927D01*
X-382509Y-119685D01*
X-381889D01*
X-381269D01*
X-380052Y-119927D01*
X-378905Y-120402D01*
X-377873Y-121091D01*
X-376996Y-121969D01*
X-376307Y-123001D01*
X-375832Y-124147D01*
X-375590Y-125364D01*
Y-125984D01*
Y-126605D01*
X-375832Y-127822D01*
X-376307Y-128968D01*
X-376996Y-130000D01*
X-377873Y-130877D01*
X-378905Y-131567D01*
X-380052Y-132041D01*
X-381269Y-132283D01*
X-381889D01*
D01*
D02*
G37*
G36*
X-18110Y-11811D02*
Y-12431D01*
X-17868Y-13648D01*
X-17393Y-14795D01*
X-16704Y-15826D01*
X-15826Y-16704D01*
X-14795Y-17393D01*
X-13648Y-17868D01*
X-12431Y-18110D01*
X-11811D01*
X-11191D01*
X-9974Y-17868D01*
X-8827Y-17393D01*
X-7796Y-16704D01*
X-6918Y-15826D01*
X-6229Y-14795D01*
X-5754Y-13648D01*
X-5512Y-12431D01*
Y-11811D01*
Y-11191D01*
X-5754Y-9974D01*
X-6229Y-8827D01*
X-6918Y-7796D01*
X-7796Y-6918D01*
X-8827Y-6229D01*
X-9974Y-5754D01*
X-11191Y-5512D01*
X-11811D01*
X-12431D01*
X-13648Y-5754D01*
X-14795Y-6229D01*
X-15826Y-6918D01*
X-16704Y-7796D01*
X-17393Y-8827D01*
X-17868Y-9974D01*
X-18110Y-11191D01*
Y-11811D01*
D01*
D02*
G37*
D109*
X-393700Y-125821D02*
Y-11717D01*
D02*
G02*
X-381983Y0I11717J0D01*
G01*
X-11948D01*
D02*
G02*
X0Y-11948I0J-11948D01*
G01*
Y-125974D01*
D02*
G02*
X-11821Y-137795I-11821J0D01*
G01*
X-381726D01*
D02*
G02*
X-393700Y-125821I0J11974D01*
G01*
%TF.MD5,c6f57940888a9e1add91018386e209b7*%
M02*
