%TF.GenerationSoftware,Altium Limited,Altium Designer,24.1.2 (44)*%
G04 Layer_Color=16711935*
%FSLAX25Y25*%
%MOIN*%
%TF.SameCoordinates,CC6F7A58-88BC-47F1-AAD7-D7ADF3ED88B3*%
%TF.FilePolarity,Negative*%
%TF.FileFunction,Soldermask,Bot*%
%TF.Part,Single*%
G01*
G75*
%TA.AperFunction,ComponentPad*%
%ADD92C,0.06890*%
%ADD93R,0.06890X0.06890*%
%ADD94C,0.03347*%
%ADD95O,0.04725X0.08268*%
%ADD96O,0.05118X0.07480*%
%ADD97R,0.06699X0.03943*%
%ADD98O,0.06699X0.03943*%
%ADD99C,0.06575*%
%ADD100R,0.06575X0.06575*%
%ADD101R,0.06575X0.06575*%
%ADD102O,0.05906X0.09055*%
%ADD103C,0.06394*%
%TA.AperFunction,SMDPad,CuDef*%
%ADD104O,0.20085X0.12211*%
%ADD105C,0.08274*%
D92*
X-36100Y-18800D02*
D03*
X-46100D02*
D03*
X-86100D02*
D03*
X-96100D02*
D03*
X-76100D02*
D03*
X-66100D02*
D03*
X-56100D02*
D03*
X-116800Y-128900D02*
D03*
X-126800D02*
D03*
X-136800D02*
D03*
X-126800Y-118900D02*
D03*
X-136800D02*
D03*
D93*
X-106100Y-18800D02*
D03*
X-116800Y-118900D02*
D03*
D94*
X-288405Y-117664D02*
D03*
X-265649D02*
D03*
D95*
X-294054Y-115616D02*
D03*
X-259999Y-115617D02*
D03*
D96*
X-294054Y-132152D02*
D03*
X-259999D02*
D03*
D97*
X-251200Y-14200D02*
D03*
X-294000D02*
D03*
D98*
X-251200Y-19200D02*
D03*
Y-24200D02*
D03*
X-294000Y-19200D02*
D03*
Y-24200D02*
D03*
D99*
X-225200Y-129095D02*
D03*
X-155200D02*
D03*
X-165200D02*
D03*
X-175200D02*
D03*
X-185200D02*
D03*
X-195200D02*
D03*
X-205200D02*
D03*
X-215200D02*
D03*
X-235200D02*
D03*
X-126200Y-81295D02*
D03*
Y-71295D02*
D03*
Y-61295D02*
D03*
X-137100Y-101295D02*
D03*
Y-91295D02*
D03*
Y-81295D02*
D03*
Y-71295D02*
D03*
X-7700Y-40700D02*
D03*
Y-50700D02*
D03*
Y-60700D02*
D03*
Y-70700D02*
D03*
Y-90700D02*
D03*
Y-80700D02*
D03*
X-191800Y-26600D02*
D03*
X-201800D02*
D03*
X-211800D02*
D03*
X-221800D02*
D03*
X-231800D02*
D03*
D100*
X-245200Y-129095D02*
D03*
X-181800Y-26600D02*
D03*
D101*
X-126200Y-91295D02*
D03*
X-137100Y-61295D02*
D03*
X-7700Y-100700D02*
D03*
D102*
X-334013Y-128995D02*
D03*
X-301336D02*
D03*
D103*
X-309800D02*
D03*
X-317674D02*
D03*
X-325548D02*
D03*
D104*
X-374300Y-30600D02*
D03*
X-374200Y-52600D02*
D03*
D105*
X-331100Y-12600D02*
D03*
X-305100Y-116000D02*
D03*
X-371100Y-83700D02*
D03*
X-271200Y-130000D02*
D03*
%TF.MD5,5e1d63f70d55e17c43efb11ef0118ef3*%
M02*
